<svg xmlns="http://www.w3.org/2000/svg" viewBox="0 0 200 120" width="200" height="120">
  <rect width="200" height="120" fill="#fff" rx="6"/>
  <rect x="8" y="8" width="200" height="16" rx="3" fill="#F5C10A" opacity="0.3"/>
  <rect x="8" y="8" width="80" height="16" rx="3" fill="#F5C10A"/>
  <rect x="8" y="32" width="42" height="52" rx="4" fill="#f0f0f0"/>
  <rect x="56" y="32" width="42" height="52" rx="4" fill="#f0f0f0"/>
  <rect x="104" y="32" width="42" height="52" rx="4" fill="#f0f0f0"/>
  <rect x="152" y="32" width="42" height="52" rx="4" fill="#f0f0f0"/>
  <rect x="8" y="32" width="42" height="32" rx="4" fill="#e5e5e5"/>
  <rect x="56" y="32" width="42" height="32" rx="4" fill="#e5e5e5"/>
  <rect x="104" y="32" width="42" height="32" rx="4" fill="#e5e5e5"/>
  <rect x="152" y="32" width="42" height="32" rx="4" fill="#e5e5e5"/>
  <rect x="8" y="90" width="30" height="6" rx="2" fill="#ddd"/>
  <rect x="56" y="90" width="30" height="6" rx="2" fill="#ddd"/>
  <rect x="104" y="90" width="30" height="6" rx="2" fill="#ddd"/>
  <rect x="152" y="90" width="30" height="6" rx="2" fill="#ddd"/>
  <rect x="8" y="100" width="20" height="8" rx="2" fill="#F5C10A"/>
  <rect x="56" y="100" width="20" height="8" rx="2" fill="#F5C10A"/>
  <rect x="104" y="100" width="20" height="8" rx="2" fill="#F5C10A"/>
  <rect x="152" y="100" width="20" height="8" rx="2" fill="#F5C10A"/>
  <rect x="75" y="112" width="50" height="6" rx="3" fill="#F5C10A" opacity="0.5"/>
</svg>
