<svg xmlns="http://www.w3.org/2000/svg" viewBox="0 0 250 160" width="250" height="160">
  <!-- background -->
  <rect width="250" height="160" fill="#f4f5f7" rx="6"/>

  <!-- header -->
  <rect x="10" y="10" width="100" height="10" rx="3" fill="#1a1a2e"/>
  <rect x="210" y="12" width="28" height="6" rx="3" fill="#0066cc"/>

  <!-- card 1 -->
  <rect x="10"  y="30" width="54" height="80" rx="6" fill="#fff" stroke="#e8e9eb" stroke-width="1"/>
  <rect x="10"  y="30" width="54" height="42" rx="6" fill="#e8e9eb"/>
  <rect x="14"  y="77" width="40" height="5"  rx="2" fill="#ddd"/>
  <rect x="14"  y="85" width="28" height="6"  rx="2" fill="#1a1a2e"/>
  <rect x="14"  y="95" width="20" height="4"  rx="2" fill="#f4c430"/>
  <rect x="10"  y="30" width="18" height="8"  rx="2" fill="#e63946"/>
  <rect x="13"  y="33" width="12" height="3"  rx="1" fill="#fff"/>

  <!-- card 2 -->
  <rect x="70"  y="30" width="54" height="80" rx="6" fill="#fff" stroke="#e8e9eb" stroke-width="1"/>
  <rect x="70"  y="30" width="54" height="42" rx="6" fill="#e0e4ea"/>
  <rect x="74"  y="77" width="40" height="5"  rx="2" fill="#ddd"/>
  <rect x="74"  y="85" width="28" height="6"  rx="2" fill="#1a1a2e"/>
  <rect x="74"  y="95" width="20" height="4"  rx="2" fill="#f4c430"/>

  <!-- card 3 -->
  <rect x="130" y="30" width="54" height="80" rx="6" fill="#fff" stroke="#e8e9eb" stroke-width="1"/>
  <rect x="130" y="30" width="54" height="42" rx="6" fill="#e8e9eb"/>
  <rect x="134" y="77" width="40" height="5"  rx="2" fill="#ddd"/>
  <rect x="134" y="85" width="28" height="6"  rx="2" fill="#1a1a2e"/>
  <rect x="134" y="95" width="20" height="4"  rx="2" fill="#f4c430"/>
  <rect x="130" y="30" width="18" height="8"  rx="2" fill="#e63946"/>
  <rect x="133" y="33" width="12" height="3"  rx="1" fill="#fff"/>

  <!-- card 4 partial -->
  <rect x="190" y="30" width="54" height="80" rx="6" fill="#fff" stroke="#e8e9eb" stroke-width="1"/>
  <rect x="190" y="30" width="54" height="42" rx="6" fill="#dde1e9"/>
  <rect x="194" y="77" width="40" height="5"  rx="2" fill="#ddd"/>
  <rect x="194" y="85" width="28" height="6"  rx="2" fill="#1a1a2e"/>
  <rect x="194" y="95" width="20" height="4"  rx="2" fill="#f4c430"/>

  <!-- load more button -->
  <rect x="80" y="122" width="90" height="24" rx="12" fill="#1a1a2e"/>
  <rect x="103" y="131" width="44" height="6" rx="3" fill="#fff"/>

  <!-- label -->
  <text x="125" y="156" text-anchor="middle" font-family="sans-serif" font-size="9" fill="#8a8f98">You May Like · Uellow</text>
</svg>
