<svg xmlns="http://www.w3.org/2000/svg" viewBox="0 0 100 100" width="100" height="100">
  <rect width="100" height="100" rx="20" fill="#000"/>
  <path d="M67.5 52.5c-.1-8.2 6.7-12.1 7-12.4-3.8-5.6-9.7-6.3-11.8-6.4-5-.5-9.8 3-12.3 3s-6.5-2.9-10.7-2.8c-5.4.1-10.5 3.2-13.3 8-5.7 9.9-1.5 24.5 4.1 32.5 2.7 3.9 5.9 8.3 10.1 8.1 4-.2 5.6-2.6 10.5-2.6s6.3 2.6 10.6 2.5c4.4-.1 7.1-4 9.8-7.9 3.1-4.5 4.4-8.9 4.4-9.1-.1 0-8.3-3.2-8.4-12zm-7.8-22.1c2.2-2.7 3.7-6.5 3.3-10.2-3.2.1-7 2.1-9.3 4.8-2 2.4-3.8 6.2-3.3 9.8 3.5.3 7.1-1.7 9.3-4.4z" fill="white"/>
</svg>
