<svg xmlns="http://www.w3.org/2000/svg" xmlns:xlink="http://www.w3.org/1999/xlink" width="234" zoomAndPan="magnify" viewBox="0 0 175.5 44.999999" height="60" preserveAspectRatio="xMidYMid meet" version="1.0"><defs><g/><clipPath id="0b4a66d57d"><path d="M 1.347656 4.550781 L 173.441406 4.550781 L 173.441406 24.363281 L 1.347656 24.363281 Z M 1.347656 4.550781 " clip-rule="nonzero"/></clipPath><clipPath id="24ffa7f90f"><path d="M 1.453125 25.488281 L 173.546875 25.488281 L 173.546875 40.449219 L 1.453125 40.449219 Z M 1.453125 25.488281 " clip-rule="nonzero"/></clipPath><clipPath id="ccbfaa9ebc"><path d="M 31.269531 30.910156 L 49.507812 30.910156 L 49.507812 35.027344 L 31.269531 35.027344 Z M 31.269531 30.910156 " clip-rule="nonzero"/></clipPath><clipPath id="1cce10c84a"><path d="M 55.488281 30.910156 L 73.726562 30.910156 L 73.726562 35.027344 L 55.488281 35.027344 Z M 55.488281 30.910156 " clip-rule="nonzero"/></clipPath><clipPath id="9e3004ac61"><path d="M 79.710938 30.910156 L 97.949219 30.910156 L 97.949219 35.027344 L 79.710938 35.027344 Z M 79.710938 30.910156 " clip-rule="nonzero"/></clipPath><clipPath id="5a6005748e"><path d="M 103.929688 30.910156 L 122.167969 30.910156 L 122.167969 35.027344 L 103.929688 35.027344 Z M 103.929688 30.910156 " clip-rule="nonzero"/></clipPath><clipPath id="02c7b9cd50"><path d="M 128.152344 30.910156 L 146.386719 30.910156 L 146.386719 35.027344 L 128.152344 35.027344 Z M 128.152344 30.910156 " clip-rule="nonzero"/></clipPath><clipPath id="4cd88b5ef1"><path d="M 6.730469 30.910156 L 24.96875 30.910156 L 24.96875 35.027344 L 6.730469 35.027344 Z M 6.730469 30.910156 " clip-rule="nonzero"/></clipPath><clipPath id="d7d0ac469b"><path d="M 149.796875 30.910156 L 168.035156 30.910156 L 168.035156 35.027344 L 149.796875 35.027344 Z M 149.796875 30.910156 " clip-rule="nonzero"/></clipPath><clipPath id="b0480349ba"><path d="M 6 9 L 15 9 L 15 19 L 6 19 Z M 6 9 " clip-rule="nonzero"/></clipPath><clipPath id="2eac2e7e79"><path d="M 6.625 9.289062 L 14.851562 9.285156 L 14.851562 18.257812 L 6.625 18.261719 Z M 6.625 9.289062 " clip-rule="nonzero"/></clipPath><clipPath id="1eaf39e08f"><path d="M 6.21875 9.289062 L 15.191406 9.285156 L 15.195312 18.257812 L 6.21875 18.261719 Z M 6.21875 9.289062 " clip-rule="nonzero"/></clipPath><clipPath id="a4995bef4e"><path d="M 6.21875 9.289062 L 15.191406 9.285156 L 15.195312 18.257812 L 6.21875 18.261719 Z M 6.21875 9.289062 " clip-rule="nonzero"/></clipPath><clipPath id="12430667c7"><path d="M 43.246094 11.101562 L 93.933594 11.101562 L 93.933594 17.808594 L 43.246094 17.808594 Z M 43.246094 11.101562 " clip-rule="nonzero"/></clipPath><clipPath id="73d53a5e61"><path d="M 119.773438 8.726562 L 131.234375 8.726562 L 131.234375 20.1875 L 119.773438 20.1875 Z M 119.773438 8.726562 " clip-rule="nonzero"/></clipPath><clipPath id="f02041486c"><path d="M 125.503906 8.726562 C 122.339844 8.726562 119.773438 11.292969 119.773438 14.457031 C 119.773438 17.621094 122.339844 20.1875 125.503906 20.1875 C 128.667969 20.1875 131.234375 17.621094 131.234375 14.457031 C 131.234375 11.292969 128.667969 8.726562 125.503906 8.726562 Z M 125.503906 8.726562 " clip-rule="nonzero"/></clipPath><clipPath id="7454b1ddad"><path d="M 137.964844 8.726562 L 149.425781 8.726562 L 149.425781 20.1875 L 137.964844 20.1875 Z M 137.964844 8.726562 " clip-rule="nonzero"/></clipPath><clipPath id="8752a11012"><path d="M 143.695312 8.726562 C 140.53125 8.726562 137.964844 11.292969 137.964844 14.457031 C 137.964844 17.621094 140.53125 20.1875 143.695312 20.1875 C 146.859375 20.1875 149.425781 17.621094 149.425781 14.457031 C 149.425781 11.292969 146.859375 8.726562 143.695312 8.726562 Z M 143.695312 8.726562 " clip-rule="nonzero"/></clipPath><clipPath id="a662c894f1"><path d="M 156.464844 8.726562 L 167.925781 8.726562 L 167.925781 20.1875 L 156.464844 20.1875 Z M 156.464844 8.726562 " clip-rule="nonzero"/></clipPath><clipPath id="335225b8fd"><path d="M 162.195312 8.726562 C 159.03125 8.726562 156.464844 11.292969 156.464844 14.457031 C 156.464844 17.621094 159.03125 20.1875 162.195312 20.1875 C 165.363281 20.1875 167.925781 17.621094 167.925781 14.457031 C 167.925781 11.292969 165.363281 8.726562 162.195312 8.726562 Z M 162.195312 8.726562 " clip-rule="nonzero"/></clipPath></defs><g clip-path="url(#0b4a66d57d)"><path fill="#0080ff" d="M 1.347656 4.550781 L 173.441406 4.550781 L 173.441406 24.363281 L 1.347656 24.363281 Z M 1.347656 4.550781 " fill-opacity="1" fill-rule="nonzero"/></g><g clip-path="url(#24ffa7f90f)"><path fill="#0057ad" d="M 1.453125 25.488281 L 173.546875 25.488281 L 173.546875 40.449219 L 1.453125 40.449219 Z M 1.453125 25.488281 " fill-opacity="1" fill-rule="nonzero"/></g><g clip-path="url(#ccbfaa9ebc)"><path fill="#ffffff" d="M 31.269531 30.910156 L 49.507812 30.910156 L 49.507812 35.027344 L 31.269531 35.027344 Z M 31.269531 30.910156 " fill-opacity="1" fill-rule="nonzero"/></g><g clip-path="url(#1cce10c84a)"><path fill="#ffffff" d="M 55.488281 30.910156 L 73.726562 30.910156 L 73.726562 35.027344 L 55.488281 35.027344 Z M 55.488281 30.910156 " fill-opacity="1" fill-rule="nonzero"/></g><g clip-path="url(#9e3004ac61)"><path fill="#ffffff" d="M 79.710938 30.910156 L 97.949219 30.910156 L 97.949219 35.027344 L 79.710938 35.027344 Z M 79.710938 30.910156 " fill-opacity="1" fill-rule="nonzero"/></g><g clip-path="url(#5a6005748e)"><path fill="#ffffff" d="M 103.929688 30.910156 L 122.167969 30.910156 L 122.167969 35.027344 L 103.929688 35.027344 Z M 103.929688 30.910156 " fill-opacity="1" fill-rule="nonzero"/></g><g clip-path="url(#02c7b9cd50)"><path fill="#ffffff" d="M 128.152344 30.910156 L 146.386719 30.910156 L 146.386719 35.027344 L 128.152344 35.027344 Z M 128.152344 30.910156 " fill-opacity="1" fill-rule="nonzero"/></g><g clip-path="url(#4cd88b5ef1)"><path fill="#ffffff" d="M 6.730469 30.910156 L 24.96875 30.910156 L 24.96875 35.027344 L 6.730469 35.027344 Z M 6.730469 30.910156 " fill-opacity="1" fill-rule="nonzero"/></g><g clip-path="url(#d7d0ac469b)"><path fill="#ffffff" d="M 149.796875 30.910156 L 168.035156 30.910156 L 168.035156 35.027344 L 149.796875 35.027344 Z M 149.796875 30.910156 " fill-opacity="1" fill-rule="nonzero"/></g><g clip-path="url(#b0480349ba)"><g clip-path="url(#2eac2e7e79)"><g clip-path="url(#1eaf39e08f)"><g clip-path="url(#a4995bef4e)"><path fill="#ffffff" d="M 6.21875 9.289062 L 15.191406 9.285156 L 15.195312 18.257812 L 6.21875 18.261719 Z M 6.21875 9.289062 " fill-opacity="1" fill-rule="nonzero"/></g></g></g></g><g fill="#ffffff" fill-opacity="1"><g transform="translate(15.240808, 17.053788)"><g><path d="M 0.46875 0 L 0.46875 -3.953125 L 1.828125 -3.953125 L 1.828125 -3.390625 L 1.84375 -3.390625 C 1.851562 -3.410156 1.867188 -3.4375 1.890625 -3.46875 C 1.921875 -3.5 1.972656 -3.550781 2.046875 -3.625 C 2.117188 -3.707031 2.195312 -3.773438 2.28125 -3.828125 C 2.375 -3.890625 2.488281 -3.945312 2.625 -4 C 2.769531 -4.050781 2.914062 -4.078125 3.0625 -4.078125 C 3.207031 -4.078125 3.351562 -4.054688 3.5 -4.015625 C 3.644531 -3.972656 3.75 -3.929688 3.8125 -3.890625 L 3.921875 -3.828125 L 3.34375 -2.671875 C 3.175781 -2.816406 2.941406 -2.890625 2.640625 -2.890625 C 2.472656 -2.890625 2.328125 -2.851562 2.203125 -2.78125 C 2.085938 -2.707031 2.003906 -2.617188 1.953125 -2.515625 C 1.910156 -2.410156 1.878906 -2.320312 1.859375 -2.25 C 1.835938 -2.175781 1.828125 -2.117188 1.828125 -2.078125 L 1.828125 0 Z M 0.46875 0 "/></g></g></g><g fill="#ffffff" fill-opacity="1"><g transform="translate(19.083623, 17.053788)"><g><path d="M 0.59375 -6.15625 C 0.75 -6.320312 0.9375 -6.40625 1.15625 -6.40625 C 1.382812 -6.40625 1.578125 -6.320312 1.734375 -6.15625 C 1.890625 -6 1.96875 -5.8125 1.96875 -5.59375 C 1.96875 -5.375 1.890625 -5.179688 1.734375 -5.015625 C 1.578125 -4.859375 1.382812 -4.78125 1.15625 -4.78125 C 0.9375 -4.78125 0.75 -4.859375 0.59375 -5.015625 C 0.4375 -5.179688 0.359375 -5.375 0.359375 -5.59375 C 0.359375 -5.8125 0.4375 -6 0.59375 -6.15625 Z M 0.46875 -3.953125 L 0.46875 0 L 1.828125 0 L 1.828125 -3.953125 Z M 0.46875 -3.953125 "/></g></g></g><g fill="#ffffff" fill-opacity="1"><g transform="translate(21.414006, 17.053788)"><g><path d="M 0.46875 0 L 0.46875 -3.953125 L 1.828125 -3.953125 L 1.828125 -3.546875 L 1.84375 -3.546875 C 2.195312 -3.898438 2.578125 -4.078125 2.984375 -4.078125 C 3.265625 -4.078125 3.53125 -4.015625 3.78125 -3.890625 C 4.039062 -3.773438 4.234375 -3.59375 4.359375 -3.34375 C 4.765625 -3.832031 5.203125 -4.078125 5.671875 -4.078125 C 6.097656 -4.078125 6.460938 -3.957031 6.765625 -3.71875 C 7.066406 -3.476562 7.21875 -3.109375 7.21875 -2.609375 L 7.21875 0 L 5.84375 0 L 5.84375 -2.234375 C 5.84375 -2.453125 5.785156 -2.628906 5.671875 -2.765625 C 5.554688 -2.910156 5.382812 -2.984375 5.15625 -2.984375 C 4.957031 -2.984375 4.800781 -2.921875 4.6875 -2.796875 C 4.582031 -2.671875 4.523438 -2.523438 4.515625 -2.359375 L 4.515625 0 L 3.15625 0 L 3.15625 -2.234375 C 3.15625 -2.453125 3.097656 -2.628906 2.984375 -2.765625 C 2.867188 -2.910156 2.695312 -2.984375 2.46875 -2.984375 C 2.25 -2.984375 2.085938 -2.914062 1.984375 -2.78125 C 1.878906 -2.644531 1.828125 -2.488281 1.828125 -2.3125 L 1.828125 0 Z M 0.46875 0 "/></g></g></g><g fill="#ffffff" fill-opacity="1"><g transform="translate(29.014756, 17.053788)"><g><path d="M 4.46875 -1.796875 L 1.59375 -1.796875 C 1.59375 -1.515625 1.679688 -1.304688 1.859375 -1.171875 C 2.046875 -1.035156 2.242188 -0.96875 2.453125 -0.96875 C 2.671875 -0.96875 2.84375 -1 2.96875 -1.0625 C 3.101562 -1.125 3.253906 -1.238281 3.421875 -1.40625 L 4.40625 -0.921875 C 4 -0.234375 3.316406 0.109375 2.359375 0.109375 C 1.753906 0.109375 1.238281 -0.09375 0.8125 -0.5 C 0.382812 -0.90625 0.171875 -1.394531 0.171875 -1.96875 C 0.171875 -2.550781 0.382812 -3.046875 0.8125 -3.453125 C 1.238281 -3.867188 1.753906 -4.078125 2.359375 -4.078125 C 2.984375 -4.078125 3.492188 -3.894531 3.890625 -3.53125 C 4.285156 -3.164062 4.484375 -2.644531 4.484375 -1.96875 C 4.484375 -1.882812 4.476562 -1.828125 4.46875 -1.796875 Z M 1.640625 -2.546875 L 3.140625 -2.546875 C 3.109375 -2.753906 3.023438 -2.910156 2.890625 -3.015625 C 2.765625 -3.128906 2.597656 -3.1875 2.390625 -3.1875 C 2.160156 -3.1875 1.976562 -3.125 1.84375 -3 C 1.71875 -2.882812 1.648438 -2.734375 1.640625 -2.546875 Z M 1.640625 -2.546875 "/></g></g></g><g fill="#0080ff" fill-opacity="1"><g transform="translate(8.156524, 17.053788)"><g><path d="M 0.46875 -6.375 L 2.78125 -6.375 C 3.4375 -6.375 3.960938 -6.203125 4.359375 -5.859375 C 4.765625 -5.523438 4.96875 -5.039062 4.96875 -4.40625 C 4.96875 -3.769531 4.765625 -3.269531 4.359375 -2.90625 C 3.953125 -2.539062 3.425781 -2.359375 2.78125 -2.359375 L 1.921875 -2.359375 L 1.921875 0 L 0.46875 0 Z M 1.921875 -3.515625 L 2.328125 -3.515625 C 2.648438 -3.515625 2.914062 -3.578125 3.125 -3.703125 C 3.332031 -3.835938 3.4375 -4.054688 3.4375 -4.359375 C 3.4375 -4.660156 3.332031 -4.875 3.125 -5 C 2.914062 -5.132812 2.648438 -5.203125 2.328125 -5.203125 L 1.921875 -5.203125 Z M 1.921875 -3.515625 "/></g></g></g><g clip-path="url(#12430667c7)"><path fill="#ffffff" d="M 46.574219 11.140625 L 90.71875 11.101562 C 92.765625 11.097656 94.332031 12.917969 94.019531 14.941406 L 94.015625 14.980469 C 93.765625 16.609375 92.367188 17.808594 90.71875 17.808594 L 46.582031 17.808594 C 44.519531 17.808594 42.953125 15.957031 43.292969 13.925781 C 43.558594 12.320312 44.945312 11.144531 46.574219 11.140625 " fill-opacity="1" fill-rule="nonzero"/></g><path fill="#0080ff" d="M 89.574219 12.824219 C 89.238281 12.824219 88.925781 12.953125 88.6875 13.191406 C 88.449219 13.429688 88.320312 13.742188 88.320312 14.078125 C 88.320312 14.414062 88.449219 14.730469 88.6875 14.964844 C 88.925781 15.203125 89.238281 15.335938 89.574219 15.335938 C 89.910156 15.335938 90.226562 15.203125 90.460938 14.964844 C 90.699219 14.730469 90.828125 14.414062 90.828125 14.078125 C 90.828125 13.742188 90.699219 13.429688 90.460938 13.191406 C 90.226562 12.953125 89.910156 12.824219 89.574219 12.824219 Z M 89.574219 15.558594 C 89.179688 15.558594 88.808594 15.40625 88.527344 15.125 C 88.246094 14.847656 88.09375 14.476562 88.09375 14.078125 C 88.09375 13.683594 88.246094 13.3125 88.527344 13.03125 C 88.808594 12.75 89.179688 12.597656 89.574219 12.597656 C 89.96875 12.597656 90.34375 12.75 90.621094 13.03125 C 90.902344 13.3125 91.054688 13.683594 91.054688 14.078125 C 91.054688 14.476562 90.902344 14.847656 90.621094 15.125 C 90.34375 15.40625 89.96875 15.558594 89.574219 15.558594 " fill-opacity="1" fill-rule="nonzero"/><path fill="#0080ff" d="M 91.695312 16.3125 C 91.667969 16.3125 91.636719 16.300781 91.617188 16.277344 L 90.460938 15.125 C 90.417969 15.082031 90.417969 15.011719 90.460938 14.964844 C 90.507812 14.921875 90.578125 14.921875 90.621094 14.964844 L 91.773438 16.117188 C 91.820312 16.164062 91.820312 16.234375 91.773438 16.277344 C 91.753906 16.300781 91.722656 16.3125 91.695312 16.3125 " fill-opacity="1" fill-rule="nonzero"/><g clip-path="url(#73d53a5e61)"><g clip-path="url(#f02041486c)"><path fill="#ffffff" d="M 119.773438 8.726562 L 131.234375 8.726562 L 131.234375 20.1875 L 119.773438 20.1875 Z M 119.773438 8.726562 " fill-opacity="1" fill-rule="nonzero"/></g></g><g clip-path="url(#7454b1ddad)"><g clip-path="url(#8752a11012)"><path fill="#ffffff" d="M 137.964844 8.726562 L 149.425781 8.726562 L 149.425781 20.1875 L 137.964844 20.1875 Z M 137.964844 8.726562 " fill-opacity="1" fill-rule="nonzero"/></g></g><g clip-path="url(#a662c894f1)"><g clip-path="url(#335225b8fd)"><path fill="#ffffff" d="M 156.464844 8.726562 L 167.925781 8.726562 L 167.925781 20.1875 L 156.464844 20.1875 Z M 156.464844 8.726562 " fill-opacity="1" fill-rule="nonzero"/></g></g></svg>