<svg xmlns="http://www.w3.org/2000/svg" xmlns:xlink="http://www.w3.org/1999/xlink" width="234" zoomAndPan="magnify" viewBox="0 0 175.5 44.999999" height="60" preserveAspectRatio="xMidYMid meet" version="1.0"><defs><g/><clipPath id="3f9bb07534"><path d="M 1.453125 4.550781 L 173.546875 4.550781 L 173.546875 40.449219 L 1.453125 40.449219 Z M 1.453125 4.550781 " clip-rule="nonzero"/></clipPath><clipPath id="fb3b45211d"><path d="M 5.84375 13.625 L 168.984375 13.625 L 168.984375 32.40625 L 5.84375 32.40625 Z M 5.84375 13.625 " clip-rule="nonzero"/></clipPath><clipPath id="eb59889ad6"><path d="M 10 18 L 19 18 L 19 27 L 10 27 Z M 10 18 " clip-rule="nonzero"/></clipPath><clipPath id="ccacc43d75"><path d="M 10.875 18.113281 L 18.675781 18.113281 L 18.679688 26.621094 L 10.878906 26.621094 Z M 10.875 18.113281 " clip-rule="nonzero"/></clipPath><clipPath id="568153fe1f"><path d="M 10.492188 18.113281 L 19 18.113281 L 19.003906 26.621094 L 10.496094 26.621094 Z M 10.492188 18.113281 " clip-rule="nonzero"/></clipPath><clipPath id="10f92efbcf"><path d="M 10.492188 18.113281 L 19 18.113281 L 19.003906 26.621094 L 10.496094 26.621094 Z M 10.492188 18.113281 " clip-rule="nonzero"/></clipPath><clipPath id="5fa4a92454"><path d="M 159.769531 21.0625 L 163.953125 21.0625 L 163.953125 24.96875 L 159.769531 24.96875 Z M 159.769531 21.0625 " clip-rule="nonzero"/></clipPath><clipPath id="471fd5a786"><path d="M 153.21875 21.0625 L 157.398438 21.0625 L 157.398438 24.96875 L 153.21875 24.96875 Z M 153.21875 21.0625 " clip-rule="nonzero"/></clipPath><clipPath id="e14b543661"><path d="M 146.910156 21.0625 L 151.089844 21.0625 L 151.089844 24.96875 L 146.910156 24.96875 Z M 146.910156 21.0625 " clip-rule="nonzero"/></clipPath><clipPath id="aab485f894"><path d="M 140.925781 21.0625 L 145.105469 21.0625 L 145.105469 24.96875 L 140.925781 24.96875 Z M 140.925781 21.0625 " clip-rule="nonzero"/></clipPath><clipPath id="db2f96c611"><path d="M 67.214844 21.0625 L 84.503906 21.0625 L 84.503906 24.96875 L 67.214844 24.96875 Z M 67.214844 21.0625 " clip-rule="nonzero"/></clipPath><clipPath id="d548850fa0"><path d="M 90.175781 21.0625 L 107.464844 21.0625 L 107.464844 24.96875 L 90.175781 24.96875 Z M 90.175781 21.0625 " clip-rule="nonzero"/></clipPath><clipPath id="2add18aba9"><path d="M 43.953125 21.0625 L 61.242188 21.0625 L 61.242188 24.96875 L 43.953125 24.96875 Z M 43.953125 21.0625 " clip-rule="nonzero"/></clipPath></defs><g clip-path="url(#3f9bb07534)"><path fill="#0057ad" d="M 1.453125 4.550781 L 173.546875 4.550781 L 173.546875 40.449219 L 1.453125 40.449219 Z M 1.453125 4.550781 " fill-opacity="1" fill-rule="nonzero"/></g><g clip-path="url(#fb3b45211d)"><path fill="#0080ff" d="M 5.84375 13.625 L 168.984375 13.625 L 168.984375 32.40625 L 5.84375 32.40625 Z M 5.84375 13.625 " fill-opacity="1" fill-rule="nonzero"/></g><g clip-path="url(#eb59889ad6)"><g clip-path="url(#ccacc43d75)"><g clip-path="url(#568153fe1f)"><g clip-path="url(#10f92efbcf)"><path fill="#ffffff" d="M 10.492188 18.113281 L 19 18.113281 L 19.003906 26.621094 L 10.496094 26.621094 Z M 10.492188 18.113281 " fill-opacity="1" fill-rule="nonzero"/></g></g></g></g><g fill="#ffffff" fill-opacity="1"><g transform="translate(19.045724, 25.476443)"><g><path d="M 0.4375 0 L 0.4375 -3.75 L 1.734375 -3.75 L 1.734375 -3.203125 L 1.75 -3.203125 C 1.757812 -3.222656 1.773438 -3.25 1.796875 -3.28125 C 1.816406 -3.3125 1.863281 -3.363281 1.9375 -3.4375 C 2.007812 -3.507812 2.085938 -3.570312 2.171875 -3.625 C 2.253906 -3.6875 2.359375 -3.738281 2.484375 -3.78125 C 2.617188 -3.832031 2.753906 -3.859375 2.890625 -3.859375 C 3.035156 -3.859375 3.175781 -3.835938 3.3125 -3.796875 C 3.445312 -3.765625 3.546875 -3.726562 3.609375 -3.6875 L 3.71875 -3.625 L 3.171875 -2.53125 C 3.015625 -2.664062 2.789062 -2.734375 2.5 -2.734375 C 2.34375 -2.734375 2.207031 -2.695312 2.09375 -2.625 C 1.988281 -2.5625 1.910156 -2.476562 1.859375 -2.375 C 1.816406 -2.28125 1.785156 -2.195312 1.765625 -2.125 C 1.742188 -2.0625 1.734375 -2.007812 1.734375 -1.96875 L 1.734375 0 Z M 0.4375 0 "/></g></g></g><g fill="#ffffff" fill-opacity="1"><g transform="translate(22.688602, 25.476443)"><g><path d="M 0.5625 -5.828125 C 0.71875 -5.984375 0.898438 -6.0625 1.109375 -6.0625 C 1.316406 -6.0625 1.492188 -5.984375 1.640625 -5.828125 C 1.796875 -5.679688 1.875 -5.503906 1.875 -5.296875 C 1.875 -5.085938 1.796875 -4.90625 1.640625 -4.75 C 1.492188 -4.601562 1.316406 -4.53125 1.109375 -4.53125 C 0.898438 -4.53125 0.71875 -4.601562 0.5625 -4.75 C 0.414062 -4.90625 0.34375 -5.085938 0.34375 -5.296875 C 0.34375 -5.503906 0.414062 -5.679688 0.5625 -5.828125 Z M 0.4375 -3.75 L 0.4375 0 L 1.734375 0 L 1.734375 -3.75 Z M 0.4375 -3.75 "/></g></g></g><g fill="#ffffff" fill-opacity="1"><g transform="translate(24.897739, 25.476443)"><g><path d="M 0.4375 0 L 0.4375 -3.75 L 1.734375 -3.75 L 1.734375 -3.359375 L 1.75 -3.359375 C 2.082031 -3.691406 2.441406 -3.859375 2.828125 -3.859375 C 3.097656 -3.859375 3.351562 -3.800781 3.59375 -3.6875 C 3.832031 -3.582031 4.007812 -3.410156 4.125 -3.171875 C 4.507812 -3.628906 4.925781 -3.859375 5.375 -3.859375 C 5.769531 -3.859375 6.113281 -3.742188 6.40625 -3.515625 C 6.695312 -3.296875 6.84375 -2.945312 6.84375 -2.46875 L 6.84375 0 L 5.546875 0 L 5.546875 -2.125 C 5.546875 -2.320312 5.488281 -2.488281 5.375 -2.625 C 5.269531 -2.757812 5.109375 -2.828125 4.890625 -2.828125 C 4.691406 -2.828125 4.539062 -2.769531 4.4375 -2.65625 C 4.34375 -2.539062 4.289062 -2.398438 4.28125 -2.234375 L 4.28125 0 L 2.984375 0 L 2.984375 -2.125 C 2.984375 -2.320312 2.925781 -2.488281 2.8125 -2.625 C 2.707031 -2.757812 2.546875 -2.828125 2.328125 -2.828125 C 2.128906 -2.828125 1.976562 -2.765625 1.875 -2.640625 C 1.78125 -2.515625 1.734375 -2.363281 1.734375 -2.1875 L 1.734375 0 Z M 0.4375 0 "/></g></g></g><g fill="#ffffff" fill-opacity="1"><g transform="translate(32.103033, 25.476443)"><g><path d="M 4.234375 -1.703125 L 1.515625 -1.703125 C 1.515625 -1.429688 1.597656 -1.234375 1.765625 -1.109375 C 1.941406 -0.984375 2.128906 -0.921875 2.328125 -0.921875 C 2.535156 -0.921875 2.695312 -0.945312 2.8125 -1 C 2.9375 -1.0625 3.078125 -1.175781 3.234375 -1.34375 L 4.171875 -0.875 C 3.785156 -0.21875 3.140625 0.109375 2.234375 0.109375 C 1.660156 0.109375 1.171875 -0.0820312 0.765625 -0.46875 C 0.367188 -0.851562 0.171875 -1.316406 0.171875 -1.859375 C 0.171875 -2.410156 0.367188 -2.878906 0.765625 -3.265625 C 1.171875 -3.660156 1.660156 -3.859375 2.234375 -3.859375 C 2.828125 -3.859375 3.304688 -3.6875 3.671875 -3.34375 C 4.046875 -3 4.234375 -2.507812 4.234375 -1.875 C 4.234375 -1.78125 4.234375 -1.722656 4.234375 -1.703125 Z M 1.546875 -2.40625 L 2.96875 -2.40625 C 2.945312 -2.601562 2.875 -2.753906 2.75 -2.859375 C 2.625 -2.960938 2.460938 -3.015625 2.265625 -3.015625 C 2.046875 -3.015625 1.875 -2.957031 1.75 -2.84375 C 1.625 -2.738281 1.554688 -2.59375 1.546875 -2.40625 Z M 1.546875 -2.40625 "/></g></g></g><g fill="#0080ff" fill-opacity="1"><g transform="translate(12.330026, 25.476443)"><g><path d="M 0.4375 -6.03125 L 2.640625 -6.03125 C 3.253906 -6.03125 3.75 -5.867188 4.125 -5.546875 C 4.507812 -5.234375 4.703125 -4.773438 4.703125 -4.171875 C 4.703125 -3.566406 4.507812 -3.09375 4.125 -2.75 C 3.738281 -2.40625 3.242188 -2.234375 2.640625 -2.234375 L 1.8125 -2.234375 L 1.8125 0 L 0.4375 0 Z M 1.8125 -3.328125 L 2.203125 -3.328125 C 2.503906 -3.328125 2.753906 -3.390625 2.953125 -3.515625 C 3.148438 -3.640625 3.25 -3.84375 3.25 -4.125 C 3.25 -4.414062 3.148438 -4.625 2.953125 -4.75 C 2.753906 -4.875 2.503906 -4.9375 2.203125 -4.9375 L 1.8125 -4.9375 Z M 1.8125 -3.328125 "/></g></g></g><g clip-path="url(#5fa4a92454)"><path fill="#ffffff" d="M 159.769531 21.0625 L 163.953125 21.0625 L 163.953125 24.96875 L 159.769531 24.96875 Z M 159.769531 21.0625 " fill-opacity="1" fill-rule="nonzero"/></g><g clip-path="url(#471fd5a786)"><path fill="#ffffff" d="M 153.21875 21.0625 L 157.398438 21.0625 L 157.398438 24.96875 L 153.21875 24.96875 Z M 153.21875 21.0625 " fill-opacity="1" fill-rule="nonzero"/></g><g clip-path="url(#e14b543661)"><path fill="#ffffff" d="M 146.910156 21.0625 L 151.089844 21.0625 L 151.089844 24.96875 L 146.910156 24.96875 Z M 146.910156 21.0625 " fill-opacity="1" fill-rule="nonzero"/></g><g clip-path="url(#aab485f894)"><path fill="#ffffff" d="M 140.925781 21.0625 L 145.105469 21.0625 L 145.105469 24.96875 L 140.925781 24.96875 Z M 140.925781 21.0625 " fill-opacity="1" fill-rule="nonzero"/></g><g clip-path="url(#db2f96c611)"><path fill="#ffffff" d="M 67.214844 21.0625 L 84.503906 21.0625 L 84.503906 24.96875 L 67.214844 24.96875 Z M 67.214844 21.0625 " fill-opacity="1" fill-rule="nonzero"/></g><g clip-path="url(#d548850fa0)"><path fill="#ffffff" d="M 90.175781 21.0625 L 107.464844 21.0625 L 107.464844 24.96875 L 90.175781 24.96875 Z M 90.175781 21.0625 " fill-opacity="1" fill-rule="nonzero"/></g><g clip-path="url(#2add18aba9)"><path fill="#ffffff" d="M 43.953125 21.0625 L 61.242188 21.0625 L 61.242188 24.96875 L 43.953125 24.96875 Z M 43.953125 21.0625 " fill-opacity="1" fill-rule="nonzero"/></g></svg>