<svg xmlns="http://www.w3.org/2000/svg" xmlns:xlink="http://www.w3.org/1999/xlink" width="234" zoomAndPan="magnify" viewBox="0 0 175.5 44.999999" height="60" preserveAspectRatio="xMidYMid meet" version="1.0"><defs><g/><clipPath id="b4935c89fd"><path d="M 1.453125 12.59375 L 173.546875 12.59375 L 173.546875 32.40625 L 1.453125 32.40625 Z M 1.453125 12.59375 " clip-rule="nonzero"/></clipPath><clipPath id="7a713df7f7"><path d="M 4 17 L 13 17 L 13 27 L 4 27 Z M 4 17 " clip-rule="nonzero"/></clipPath><clipPath id="c7fda7a3ea"><path d="M 4.488281 17.917969 L 12.1875 17.917969 L 12.191406 26.316406 L 4.488281 26.320312 Z M 4.488281 17.917969 " clip-rule="nonzero"/></clipPath><clipPath id="fb1de21dbc"><path d="M 4.105469 17.917969 L 12.507812 17.914062 L 12.511719 26.316406 L 4.109375 26.320312 Z M 4.105469 17.917969 " clip-rule="nonzero"/></clipPath><clipPath id="40b48b98c3"><path d="M 4.105469 17.917969 L 12.507812 17.914062 L 12.511719 26.316406 L 4.109375 26.320312 Z M 4.105469 17.917969 " clip-rule="nonzero"/></clipPath><clipPath id="a57738a79c"><path d="M 34.945312 20.699219 L 49.226562 20.699219 L 49.226562 24.816406 L 34.945312 24.816406 Z M 34.945312 20.699219 " clip-rule="nonzero"/></clipPath><clipPath id="1b050acaef"><path d="M 162.613281 19.046875 L 169.84375 19.046875 L 169.84375 26.46875 L 162.613281 26.46875 Z M 162.613281 19.046875 " clip-rule="nonzero"/></clipPath><clipPath id="5d2570b165"><path d="M 153.136719 19.046875 L 160.371094 19.046875 L 160.371094 26.46875 L 153.136719 26.46875 Z M 153.136719 19.046875 " clip-rule="nonzero"/></clipPath><clipPath id="7ba845e97b"><path d="M 143.664062 19.046875 L 150.894531 19.046875 L 150.894531 26.46875 L 143.664062 26.46875 Z M 143.664062 19.046875 " clip-rule="nonzero"/></clipPath><clipPath id="336f062cac"><path d="M 51.726562 20.699219 L 66.007812 20.699219 L 66.007812 24.816406 L 51.726562 24.816406 Z M 51.726562 20.699219 " clip-rule="nonzero"/></clipPath><clipPath id="b9b0defb49"><path d="M 68.253906 20.699219 L 82.535156 20.699219 L 82.535156 24.816406 L 68.253906 24.816406 Z M 68.253906 20.699219 " clip-rule="nonzero"/></clipPath><clipPath id="b4341c6fe5"><path d="M 92.445312 19.625 L 139.898438 19.625 L 139.898438 25.605469 L 92.445312 25.605469 Z M 92.445312 19.625 " clip-rule="nonzero"/></clipPath></defs><g clip-path="url(#b4935c89fd)"><path fill="#0080ff" d="M 1.453125 12.59375 L 173.546875 12.59375 L 173.546875 32.40625 L 1.453125 32.40625 Z M 1.453125 12.59375 " fill-opacity="1" fill-rule="nonzero"/></g><g clip-path="url(#7a713df7f7)"><g clip-path="url(#c7fda7a3ea)"><g clip-path="url(#fb1de21dbc)"><g clip-path="url(#40b48b98c3)"><path fill="#ffffff" d="M 4.105469 17.917969 L 12.507812 17.914062 L 12.511719 26.316406 L 4.109375 26.320312 Z M 4.105469 17.917969 " fill-opacity="1" fill-rule="nonzero"/></g></g></g></g><g fill="#ffffff" fill-opacity="1"><g transform="translate(12.553822, 25.188136)"><g><path d="M 0.4375 0 L 0.4375 -3.703125 L 1.703125 -3.703125 L 1.703125 -3.171875 L 1.71875 -3.171875 C 1.726562 -3.191406 1.742188 -3.210938 1.765625 -3.234375 C 1.796875 -3.265625 1.84375 -3.316406 1.90625 -3.390625 C 1.976562 -3.460938 2.054688 -3.523438 2.140625 -3.578125 C 2.222656 -3.640625 2.328125 -3.691406 2.453125 -3.734375 C 2.585938 -3.785156 2.722656 -3.8125 2.859375 -3.8125 C 2.992188 -3.8125 3.128906 -3.789062 3.265625 -3.75 C 3.398438 -3.71875 3.5 -3.679688 3.5625 -3.640625 L 3.671875 -3.578125 L 3.140625 -2.5 C 2.972656 -2.632812 2.75 -2.703125 2.46875 -2.703125 C 2.3125 -2.703125 2.175781 -2.664062 2.0625 -2.59375 C 1.957031 -2.53125 1.878906 -2.445312 1.828125 -2.34375 C 1.785156 -2.25 1.753906 -2.164062 1.734375 -2.09375 C 1.710938 -2.03125 1.703125 -1.984375 1.703125 -1.953125 L 1.703125 0 Z M 0.4375 0 "/></g></g></g><g fill="#ffffff" fill-opacity="1"><g transform="translate(16.151069, 25.188136)"><g><path d="M 0.546875 -5.765625 C 0.703125 -5.910156 0.882812 -5.984375 1.09375 -5.984375 C 1.300781 -5.984375 1.476562 -5.910156 1.625 -5.765625 C 1.769531 -5.617188 1.84375 -5.441406 1.84375 -5.234375 C 1.84375 -5.023438 1.769531 -4.84375 1.625 -4.6875 C 1.476562 -4.539062 1.300781 -4.46875 1.09375 -4.46875 C 0.882812 -4.46875 0.703125 -4.539062 0.546875 -4.6875 C 0.398438 -4.84375 0.328125 -5.023438 0.328125 -5.234375 C 0.328125 -5.441406 0.398438 -5.617188 0.546875 -5.765625 Z M 0.4375 -3.703125 L 0.4375 0 L 1.703125 0 L 1.703125 -3.703125 Z M 0.4375 -3.703125 "/></g></g></g><g fill="#ffffff" fill-opacity="1"><g transform="translate(18.332534, 25.188136)"><g><path d="M 0.4375 0 L 0.4375 -3.703125 L 1.703125 -3.703125 L 1.703125 -3.3125 L 1.71875 -3.3125 C 2.050781 -3.644531 2.40625 -3.8125 2.78125 -3.8125 C 3.050781 -3.8125 3.300781 -3.753906 3.53125 -3.640625 C 3.769531 -3.535156 3.953125 -3.367188 4.078125 -3.140625 C 4.453125 -3.585938 4.863281 -3.8125 5.3125 -3.8125 C 5.695312 -3.8125 6.03125 -3.695312 6.3125 -3.46875 C 6.601562 -3.25 6.75 -2.90625 6.75 -2.4375 L 6.75 0 L 5.46875 0 L 5.46875 -2.09375 C 5.46875 -2.289062 5.410156 -2.453125 5.296875 -2.578125 C 5.191406 -2.710938 5.035156 -2.78125 4.828125 -2.78125 C 4.640625 -2.78125 4.492188 -2.722656 4.390625 -2.609375 C 4.296875 -2.503906 4.242188 -2.367188 4.234375 -2.203125 L 4.234375 0 L 2.953125 0 L 2.953125 -2.09375 C 2.953125 -2.289062 2.894531 -2.453125 2.78125 -2.578125 C 2.675781 -2.710938 2.515625 -2.78125 2.296875 -2.78125 C 2.097656 -2.78125 1.945312 -2.71875 1.84375 -2.59375 C 1.75 -2.476562 1.703125 -2.335938 1.703125 -2.171875 L 1.703125 0 Z M 0.4375 0 "/></g></g></g><g fill="#ffffff" fill-opacity="1"><g transform="translate(25.447573, 25.188136)"><g><path d="M 4.1875 -1.671875 L 1.5 -1.671875 C 1.5 -1.410156 1.582031 -1.21875 1.75 -1.09375 C 1.914062 -0.96875 2.097656 -0.90625 2.296875 -0.90625 C 2.503906 -0.90625 2.664062 -0.929688 2.78125 -0.984375 C 2.90625 -1.046875 3.046875 -1.160156 3.203125 -1.328125 L 4.125 -0.859375 C 3.738281 -0.210938 3.097656 0.109375 2.203125 0.109375 C 1.640625 0.109375 1.160156 -0.0820312 0.765625 -0.46875 C 0.367188 -0.851562 0.171875 -1.3125 0.171875 -1.84375 C 0.171875 -2.382812 0.367188 -2.847656 0.765625 -3.234375 C 1.160156 -3.617188 1.640625 -3.8125 2.203125 -3.8125 C 2.785156 -3.8125 3.257812 -3.640625 3.625 -3.296875 C 4 -2.960938 4.1875 -2.476562 4.1875 -1.84375 C 4.1875 -1.757812 4.1875 -1.703125 4.1875 -1.671875 Z M 1.53125 -2.375 L 2.9375 -2.375 C 2.90625 -2.570312 2.828125 -2.722656 2.703125 -2.828125 C 2.585938 -2.929688 2.429688 -2.984375 2.234375 -2.984375 C 2.023438 -2.984375 1.859375 -2.925781 1.734375 -2.8125 C 1.609375 -2.707031 1.539062 -2.5625 1.53125 -2.375 Z M 1.53125 -2.375 "/></g></g></g><g fill="#0080ff" fill-opacity="1"><g transform="translate(5.922244, 25.188136)"><g><path d="M 0.4375 -5.953125 L 2.609375 -5.953125 C 3.210938 -5.953125 3.703125 -5.796875 4.078125 -5.484375 C 4.453125 -5.171875 4.640625 -4.71875 4.640625 -4.125 C 4.640625 -3.53125 4.445312 -3.0625 4.0625 -2.71875 C 3.6875 -2.375 3.203125 -2.203125 2.609375 -2.203125 L 1.796875 -2.203125 L 1.796875 0 L 0.4375 0 Z M 1.796875 -3.296875 L 2.171875 -3.296875 C 2.472656 -3.296875 2.722656 -3.351562 2.921875 -3.46875 C 3.117188 -3.59375 3.21875 -3.796875 3.21875 -4.078125 C 3.21875 -4.359375 3.117188 -4.5625 2.921875 -4.6875 C 2.722656 -4.8125 2.472656 -4.875 2.171875 -4.875 L 1.796875 -4.875 Z M 1.796875 -3.296875 "/></g></g></g><g clip-path="url(#a57738a79c)"><path fill="#ffffff" d="M 34.945312 20.699219 L 49.226562 20.699219 L 49.226562 24.816406 L 34.945312 24.816406 Z M 34.945312 20.699219 " fill-opacity="1" fill-rule="nonzero"/></g><g clip-path="url(#1b050acaef)"><path fill="#ffffff" d="M 162.613281 19.046875 L 169.84375 19.046875 L 169.84375 26.46875 L 162.613281 26.46875 Z M 162.613281 19.046875 " fill-opacity="1" fill-rule="nonzero"/></g><g clip-path="url(#5d2570b165)"><path fill="#ffffff" d="M 153.136719 19.046875 L 160.371094 19.046875 L 160.371094 26.46875 L 153.136719 26.46875 Z M 153.136719 19.046875 " fill-opacity="1" fill-rule="nonzero"/></g><g clip-path="url(#7ba845e97b)"><path fill="#ffffff" d="M 143.664062 19.046875 L 150.894531 19.046875 L 150.894531 26.46875 L 143.664062 26.46875 Z M 143.664062 19.046875 " fill-opacity="1" fill-rule="nonzero"/></g><g clip-path="url(#336f062cac)"><path fill="#ffffff" d="M 51.726562 20.699219 L 66.007812 20.699219 L 66.007812 24.816406 L 51.726562 24.816406 Z M 51.726562 20.699219 " fill-opacity="1" fill-rule="nonzero"/></g><g clip-path="url(#b9b0defb49)"><path fill="#ffffff" d="M 68.253906 20.699219 L 82.535156 20.699219 L 82.535156 24.816406 L 68.253906 24.816406 Z M 68.253906 20.699219 " fill-opacity="1" fill-rule="nonzero"/></g><g clip-path="url(#b4341c6fe5)"><path fill="#ffffff" d="M 95.554688 19.660156 L 136.777344 19.625 C 138.6875 19.621094 140.148438 21.320312 139.859375 23.210938 L 139.855469 23.246094 C 139.621094 24.765625 138.3125 25.886719 136.777344 25.886719 L 95.558594 25.886719 C 93.636719 25.886719 92.171875 24.160156 92.488281 22.261719 C 92.738281 20.761719 94.035156 19.664062 95.554688 19.660156 " fill-opacity="1" fill-rule="nonzero"/></g><path fill="#0080ff" d="M 135.707031 21.230469 C 135.394531 21.230469 135.101562 21.355469 134.878906 21.574219 C 134.65625 21.796875 134.535156 22.09375 134.535156 22.40625 C 134.535156 22.71875 134.65625 23.011719 134.878906 23.234375 C 135.101562 23.457031 135.394531 23.578125 135.707031 23.578125 C 136.019531 23.578125 136.316406 23.457031 136.535156 23.234375 C 136.757812 23.011719 136.878906 22.71875 136.878906 22.40625 C 136.878906 22.09375 136.757812 21.796875 136.535156 21.574219 C 136.316406 21.355469 136.019531 21.230469 135.707031 21.230469 Z M 135.707031 23.789062 C 135.339844 23.789062 134.992188 23.644531 134.730469 23.382812 C 134.46875 23.121094 134.324219 22.773438 134.324219 22.40625 C 134.324219 22.035156 134.46875 21.6875 134.730469 21.425781 C 134.992188 21.164062 135.339844 21.023438 135.707031 21.023438 C 136.078125 21.023438 136.425781 21.164062 136.6875 21.425781 C 136.949219 21.6875 137.089844 22.035156 137.089844 22.40625 C 137.089844 22.773438 136.949219 23.121094 136.6875 23.382812 C 136.425781 23.644531 136.078125 23.789062 135.707031 23.789062 " fill-opacity="1" fill-rule="nonzero"/><path fill="#0080ff" d="M 137.6875 24.488281 C 137.660156 24.488281 137.632812 24.480469 137.613281 24.460938 L 136.535156 23.382812 C 136.496094 23.34375 136.496094 23.273438 136.535156 23.234375 C 136.578125 23.191406 136.644531 23.191406 136.6875 23.234375 L 137.761719 24.308594 C 137.804688 24.351562 137.804688 24.417969 137.761719 24.460938 C 137.742188 24.480469 137.714844 24.488281 137.6875 24.488281 " fill-opacity="1" fill-rule="nonzero"/></svg>