<svg xmlns="http://www.w3.org/2000/svg" xmlns:xlink="http://www.w3.org/1999/xlink" width="234" zoomAndPan="magnify" viewBox="0 0 175.5 44.999999" height="60" preserveAspectRatio="xMidYMid meet" version="1.0"><defs><g/><clipPath id="3aa17896b6"><path d="M 1.453125 12.59375 L 173.546875 12.59375 L 173.546875 32.40625 L 1.453125 32.40625 Z M 1.453125 12.59375 " clip-rule="nonzero"/></clipPath><clipPath id="882d26539a"><path d="M 6 17 L 15 17 L 15 27 L 6 27 Z M 6 17 " clip-rule="nonzero"/></clipPath><clipPath id="7c28855557"><path d="M 6.761719 17.328125 L 14.988281 17.328125 L 14.992188 26.300781 L 6.765625 26.304688 Z M 6.761719 17.328125 " clip-rule="nonzero"/></clipPath><clipPath id="a0ca2d0b97"><path d="M 6.355469 17.332031 L 15.332031 17.328125 L 15.332031 26.300781 L 6.359375 26.304688 Z M 6.355469 17.332031 " clip-rule="nonzero"/></clipPath><clipPath id="0eaf02352b"><path d="M 6.355469 17.332031 L 15.332031 17.328125 L 15.332031 26.300781 L 6.359375 26.304688 Z M 6.355469 17.332031 " clip-rule="nonzero"/></clipPath><clipPath id="bd6356af9f"><path d="M 163.828125 20.441406 L 168.238281 20.441406 L 168.238281 24.558594 L 163.828125 24.558594 Z M 163.828125 20.441406 " clip-rule="nonzero"/></clipPath><clipPath id="b7b9e08767"><path d="M 156.914062 20.441406 L 161.328125 20.441406 L 161.328125 24.558594 L 156.914062 24.558594 Z M 156.914062 20.441406 " clip-rule="nonzero"/></clipPath><clipPath id="f005ef0338"><path d="M 150.261719 20.441406 L 154.671875 20.441406 L 154.671875 24.558594 L 150.261719 24.558594 Z M 150.261719 20.441406 " clip-rule="nonzero"/></clipPath><clipPath id="d161b4acc4"><path d="M 143.949219 20.441406 L 148.359375 20.441406 L 148.359375 24.558594 L 143.949219 24.558594 Z M 143.949219 20.441406 " clip-rule="nonzero"/></clipPath><clipPath id="e6c95c8266"><path d="M 66.191406 20.441406 L 84.429688 20.441406 L 84.429688 24.558594 L 66.191406 24.558594 Z M 66.191406 20.441406 " clip-rule="nonzero"/></clipPath><clipPath id="a4dd6ef223"><path d="M 90.414062 20.441406 L 108.648438 20.441406 L 108.648438 24.558594 L 90.414062 24.558594 Z M 90.414062 20.441406 " clip-rule="nonzero"/></clipPath><clipPath id="bb02ceb4e9"><path d="M 114.632812 20.441406 L 132.871094 20.441406 L 132.871094 24.558594 L 114.632812 24.558594 Z M 114.632812 20.441406 " clip-rule="nonzero"/></clipPath><clipPath id="969d512f10"><path d="M 41.652344 20.441406 L 59.890625 20.441406 L 59.890625 24.558594 L 41.652344 24.558594 Z M 41.652344 20.441406 " clip-rule="nonzero"/></clipPath></defs><g clip-path="url(#3aa17896b6)"><path fill="#0080ff" d="M 1.453125 12.59375 L 173.546875 12.59375 L 173.546875 32.40625 L 1.453125 32.40625 Z M 1.453125 12.59375 " fill-opacity="1" fill-rule="nonzero"/></g><g clip-path="url(#882d26539a)"><g clip-path="url(#7c28855557)"><g clip-path="url(#a0ca2d0b97)"><g clip-path="url(#0eaf02352b)"><path fill="#ffffff" d="M 6.355469 17.332031 L 15.332031 17.328125 L 15.332031 26.300781 L 6.359375 26.304688 Z M 6.355469 17.332031 " fill-opacity="1" fill-rule="nonzero"/></g></g></g></g><g fill="#ffffff" fill-opacity="1"><g transform="translate(15.379187, 25.0961)"><g><path d="M 0.46875 0 L 0.46875 -3.953125 L 1.828125 -3.953125 L 1.828125 -3.390625 L 1.84375 -3.390625 C 1.851562 -3.410156 1.867188 -3.4375 1.890625 -3.46875 C 1.921875 -3.5 1.972656 -3.550781 2.046875 -3.625 C 2.117188 -3.707031 2.195312 -3.773438 2.28125 -3.828125 C 2.375 -3.890625 2.488281 -3.945312 2.625 -4 C 2.769531 -4.050781 2.914062 -4.078125 3.0625 -4.078125 C 3.207031 -4.078125 3.351562 -4.054688 3.5 -4.015625 C 3.644531 -3.972656 3.75 -3.929688 3.8125 -3.890625 L 3.921875 -3.828125 L 3.34375 -2.671875 C 3.175781 -2.816406 2.941406 -2.890625 2.640625 -2.890625 C 2.472656 -2.890625 2.328125 -2.851562 2.203125 -2.78125 C 2.085938 -2.707031 2.003906 -2.617188 1.953125 -2.515625 C 1.910156 -2.410156 1.878906 -2.320312 1.859375 -2.25 C 1.835938 -2.175781 1.828125 -2.117188 1.828125 -2.078125 L 1.828125 0 Z M 0.46875 0 "/></g></g></g><g fill="#ffffff" fill-opacity="1"><g transform="translate(19.222002, 25.0961)"><g><path d="M 0.59375 -6.15625 C 0.75 -6.320312 0.9375 -6.40625 1.15625 -6.40625 C 1.382812 -6.40625 1.578125 -6.320312 1.734375 -6.15625 C 1.890625 -6 1.96875 -5.8125 1.96875 -5.59375 C 1.96875 -5.375 1.890625 -5.179688 1.734375 -5.015625 C 1.578125 -4.859375 1.382812 -4.78125 1.15625 -4.78125 C 0.9375 -4.78125 0.75 -4.859375 0.59375 -5.015625 C 0.4375 -5.179688 0.359375 -5.375 0.359375 -5.59375 C 0.359375 -5.8125 0.4375 -6 0.59375 -6.15625 Z M 0.46875 -3.953125 L 0.46875 0 L 1.828125 0 L 1.828125 -3.953125 Z M 0.46875 -3.953125 "/></g></g></g><g fill="#ffffff" fill-opacity="1"><g transform="translate(21.552385, 25.0961)"><g><path d="M 0.46875 0 L 0.46875 -3.953125 L 1.828125 -3.953125 L 1.828125 -3.546875 L 1.84375 -3.546875 C 2.195312 -3.898438 2.578125 -4.078125 2.984375 -4.078125 C 3.265625 -4.078125 3.53125 -4.015625 3.78125 -3.890625 C 4.039062 -3.773438 4.234375 -3.59375 4.359375 -3.34375 C 4.765625 -3.832031 5.203125 -4.078125 5.671875 -4.078125 C 6.097656 -4.078125 6.460938 -3.957031 6.765625 -3.71875 C 7.066406 -3.476562 7.21875 -3.109375 7.21875 -2.609375 L 7.21875 0 L 5.84375 0 L 5.84375 -2.234375 C 5.84375 -2.453125 5.785156 -2.628906 5.671875 -2.765625 C 5.554688 -2.910156 5.382812 -2.984375 5.15625 -2.984375 C 4.957031 -2.984375 4.800781 -2.921875 4.6875 -2.796875 C 4.582031 -2.671875 4.523438 -2.523438 4.515625 -2.359375 L 4.515625 0 L 3.15625 0 L 3.15625 -2.234375 C 3.15625 -2.453125 3.097656 -2.628906 2.984375 -2.765625 C 2.867188 -2.910156 2.695312 -2.984375 2.46875 -2.984375 C 2.25 -2.984375 2.085938 -2.914062 1.984375 -2.78125 C 1.878906 -2.644531 1.828125 -2.488281 1.828125 -2.3125 L 1.828125 0 Z M 0.46875 0 "/></g></g></g><g fill="#ffffff" fill-opacity="1"><g transform="translate(29.153135, 25.0961)"><g><path d="M 4.46875 -1.796875 L 1.59375 -1.796875 C 1.59375 -1.515625 1.679688 -1.304688 1.859375 -1.171875 C 2.046875 -1.035156 2.242188 -0.96875 2.453125 -0.96875 C 2.671875 -0.96875 2.84375 -1 2.96875 -1.0625 C 3.101562 -1.125 3.253906 -1.238281 3.421875 -1.40625 L 4.40625 -0.921875 C 4 -0.234375 3.316406 0.109375 2.359375 0.109375 C 1.753906 0.109375 1.238281 -0.09375 0.8125 -0.5 C 0.382812 -0.90625 0.171875 -1.394531 0.171875 -1.96875 C 0.171875 -2.550781 0.382812 -3.046875 0.8125 -3.453125 C 1.238281 -3.867188 1.753906 -4.078125 2.359375 -4.078125 C 2.984375 -4.078125 3.492188 -3.894531 3.890625 -3.53125 C 4.285156 -3.164062 4.484375 -2.644531 4.484375 -1.96875 C 4.484375 -1.882812 4.476562 -1.828125 4.46875 -1.796875 Z M 1.640625 -2.546875 L 3.140625 -2.546875 C 3.109375 -2.753906 3.023438 -2.910156 2.890625 -3.015625 C 2.765625 -3.128906 2.597656 -3.1875 2.390625 -3.1875 C 2.160156 -3.1875 1.976562 -3.125 1.84375 -3 C 1.71875 -2.882812 1.648438 -2.734375 1.640625 -2.546875 Z M 1.640625 -2.546875 "/></g></g></g><g fill="#0080ff" fill-opacity="1"><g transform="translate(8.294903, 25.0961)"><g><path d="M 0.46875 -6.375 L 2.78125 -6.375 C 3.4375 -6.375 3.960938 -6.203125 4.359375 -5.859375 C 4.765625 -5.523438 4.96875 -5.039062 4.96875 -4.40625 C 4.96875 -3.769531 4.765625 -3.269531 4.359375 -2.90625 C 3.953125 -2.539062 3.425781 -2.359375 2.78125 -2.359375 L 1.921875 -2.359375 L 1.921875 0 L 0.46875 0 Z M 1.921875 -3.515625 L 2.328125 -3.515625 C 2.648438 -3.515625 2.914062 -3.578125 3.125 -3.703125 C 3.332031 -3.835938 3.4375 -4.054688 3.4375 -4.359375 C 3.4375 -4.660156 3.332031 -4.875 3.125 -5 C 2.914062 -5.132812 2.648438 -5.203125 2.328125 -5.203125 L 1.921875 -5.203125 Z M 1.921875 -3.515625 "/></g></g></g><g clip-path="url(#bd6356af9f)"><path fill="#ffffff" d="M 163.828125 20.441406 L 168.238281 20.441406 L 168.238281 24.558594 L 163.828125 24.558594 Z M 163.828125 20.441406 " fill-opacity="1" fill-rule="nonzero"/></g><g clip-path="url(#b7b9e08767)"><path fill="#ffffff" d="M 156.914062 20.441406 L 161.328125 20.441406 L 161.328125 24.558594 L 156.914062 24.558594 Z M 156.914062 20.441406 " fill-opacity="1" fill-rule="nonzero"/></g><g clip-path="url(#f005ef0338)"><path fill="#ffffff" d="M 150.261719 20.441406 L 154.671875 20.441406 L 154.671875 24.558594 L 150.261719 24.558594 Z M 150.261719 20.441406 " fill-opacity="1" fill-rule="nonzero"/></g><g clip-path="url(#d161b4acc4)"><path fill="#ffffff" d="M 143.949219 20.441406 L 148.359375 20.441406 L 148.359375 24.558594 L 143.949219 24.558594 Z M 143.949219 20.441406 " fill-opacity="1" fill-rule="nonzero"/></g><g clip-path="url(#e6c95c8266)"><path fill="#ffffff" d="M 66.191406 20.441406 L 84.429688 20.441406 L 84.429688 24.558594 L 66.191406 24.558594 Z M 66.191406 20.441406 " fill-opacity="1" fill-rule="nonzero"/></g><g clip-path="url(#a4dd6ef223)"><path fill="#ffffff" d="M 90.414062 20.441406 L 108.648438 20.441406 L 108.648438 24.558594 L 90.414062 24.558594 Z M 90.414062 20.441406 " fill-opacity="1" fill-rule="nonzero"/></g><g clip-path="url(#bb02ceb4e9)"><path fill="#ffffff" d="M 114.632812 20.441406 L 132.871094 20.441406 L 132.871094 24.558594 L 114.632812 24.558594 Z M 114.632812 20.441406 " fill-opacity="1" fill-rule="nonzero"/></g><g clip-path="url(#969d512f10)"><path fill="#ffffff" d="M 41.652344 20.441406 L 59.890625 20.441406 L 59.890625 24.558594 L 41.652344 24.558594 Z M 41.652344 20.441406 " fill-opacity="1" fill-rule="nonzero"/></g></svg>