<svg xmlns="http://www.w3.org/2000/svg" xmlns:xlink="http://www.w3.org/1999/xlink" width="234" zoomAndPan="magnify" viewBox="0 0 175.5 44.999999" height="60" preserveAspectRatio="xMidYMid meet" version="1.0"><defs><g/><clipPath id="5d741fe0fb"><path d="M 1.347656 4.550781 L 173.441406 4.550781 L 173.441406 24.363281 L 1.347656 24.363281 Z M 1.347656 4.550781 " clip-rule="nonzero"/></clipPath><clipPath id="2523a678ff"><path d="M 1.453125 25.488281 L 173.546875 25.488281 L 173.546875 40.449219 L 1.453125 40.449219 Z M 1.453125 25.488281 " clip-rule="nonzero"/></clipPath><clipPath id="ab607cbdad"><path d="M 31.269531 30.910156 L 49.507812 30.910156 L 49.507812 35.027344 L 31.269531 35.027344 Z M 31.269531 30.910156 " clip-rule="nonzero"/></clipPath><clipPath id="edbe22aa58"><path d="M 55.488281 30.910156 L 73.726562 30.910156 L 73.726562 35.027344 L 55.488281 35.027344 Z M 55.488281 30.910156 " clip-rule="nonzero"/></clipPath><clipPath id="2deeef6b29"><path d="M 79.710938 30.910156 L 97.949219 30.910156 L 97.949219 35.027344 L 79.710938 35.027344 Z M 79.710938 30.910156 " clip-rule="nonzero"/></clipPath><clipPath id="f248c111f5"><path d="M 103.929688 30.910156 L 122.167969 30.910156 L 122.167969 35.027344 L 103.929688 35.027344 Z M 103.929688 30.910156 " clip-rule="nonzero"/></clipPath><clipPath id="f5ee7e99d7"><path d="M 128.152344 30.910156 L 146.386719 30.910156 L 146.386719 35.027344 L 128.152344 35.027344 Z M 128.152344 30.910156 " clip-rule="nonzero"/></clipPath><clipPath id="fcdafb2303"><path d="M 6.730469 30.910156 L 24.96875 30.910156 L 24.96875 35.027344 L 6.730469 35.027344 Z M 6.730469 30.910156 " clip-rule="nonzero"/></clipPath><clipPath id="acc630aeab"><path d="M 149.796875 30.910156 L 168.035156 30.910156 L 168.035156 35.027344 L 149.796875 35.027344 Z M 149.796875 30.910156 " clip-rule="nonzero"/></clipPath><clipPath id="47b07ee665"><path d="M 73 9 L 82 9 L 82 19 L 73 19 Z M 73 9 " clip-rule="nonzero"/></clipPath><clipPath id="f2d09b8c2c"><path d="M 73.480469 9.167969 L 81.707031 9.167969 L 81.710938 18.140625 L 73.484375 18.144531 Z M 73.480469 9.167969 " clip-rule="nonzero"/></clipPath><clipPath id="0ef1a9013c"><path d="M 73.074219 9.167969 L 82.050781 9.167969 L 82.050781 18.140625 L 73.078125 18.144531 Z M 73.074219 9.167969 " clip-rule="nonzero"/></clipPath><clipPath id="a17f38f3ff"><path d="M 73.074219 9.167969 L 82.050781 9.167969 L 82.050781 18.140625 L 73.078125 18.144531 Z M 73.074219 9.167969 " clip-rule="nonzero"/></clipPath><clipPath id="0e09f9d671"><path d="M 163.171875 12.398438 L 167.585938 12.398438 L 167.585938 16.515625 L 163.171875 16.515625 Z M 163.171875 12.398438 " clip-rule="nonzero"/></clipPath><clipPath id="1ee446b194"><path d="M 156.261719 12.398438 L 160.671875 12.398438 L 160.671875 16.515625 L 156.261719 16.515625 Z M 156.261719 12.398438 " clip-rule="nonzero"/></clipPath><clipPath id="29d56029c0"><path d="M 149.605469 12.398438 L 154.015625 12.398438 L 154.015625 16.515625 L 149.605469 16.515625 Z M 149.605469 12.398438 " clip-rule="nonzero"/></clipPath><clipPath id="da063f6fb9"><path d="M 143.292969 12.398438 L 147.707031 12.398438 L 147.707031 16.515625 L 143.292969 16.515625 Z M 143.292969 12.398438 " clip-rule="nonzero"/></clipPath><clipPath id="4c6f2bfc20"><path d="M 6.789062 10.710938 L 57.480469 10.710938 L 57.480469 17.421875 L 6.789062 17.421875 Z M 6.789062 10.710938 " clip-rule="nonzero"/></clipPath></defs><g clip-path="url(#5d741fe0fb)"><path fill="#0080ff" d="M 1.347656 4.550781 L 173.441406 4.550781 L 173.441406 24.363281 L 1.347656 24.363281 Z M 1.347656 4.550781 " fill-opacity="1" fill-rule="nonzero"/></g><g clip-path="url(#2523a678ff)"><path fill="#0057ad" d="M 1.453125 25.488281 L 173.546875 25.488281 L 173.546875 40.449219 L 1.453125 40.449219 Z M 1.453125 25.488281 " fill-opacity="1" fill-rule="nonzero"/></g><g clip-path="url(#ab607cbdad)"><path fill="#ffffff" d="M 31.269531 30.910156 L 49.507812 30.910156 L 49.507812 35.027344 L 31.269531 35.027344 Z M 31.269531 30.910156 " fill-opacity="1" fill-rule="nonzero"/></g><g clip-path="url(#edbe22aa58)"><path fill="#ffffff" d="M 55.488281 30.910156 L 73.726562 30.910156 L 73.726562 35.027344 L 55.488281 35.027344 Z M 55.488281 30.910156 " fill-opacity="1" fill-rule="nonzero"/></g><g clip-path="url(#2deeef6b29)"><path fill="#ffffff" d="M 79.710938 30.910156 L 97.949219 30.910156 L 97.949219 35.027344 L 79.710938 35.027344 Z M 79.710938 30.910156 " fill-opacity="1" fill-rule="nonzero"/></g><g clip-path="url(#f248c111f5)"><path fill="#ffffff" d="M 103.929688 30.910156 L 122.167969 30.910156 L 122.167969 35.027344 L 103.929688 35.027344 Z M 103.929688 30.910156 " fill-opacity="1" fill-rule="nonzero"/></g><g clip-path="url(#f5ee7e99d7)"><path fill="#ffffff" d="M 128.152344 30.910156 L 146.386719 30.910156 L 146.386719 35.027344 L 128.152344 35.027344 Z M 128.152344 30.910156 " fill-opacity="1" fill-rule="nonzero"/></g><g clip-path="url(#fcdafb2303)"><path fill="#ffffff" d="M 6.730469 30.910156 L 24.96875 30.910156 L 24.96875 35.027344 L 6.730469 35.027344 Z M 6.730469 30.910156 " fill-opacity="1" fill-rule="nonzero"/></g><g clip-path="url(#acc630aeab)"><path fill="#ffffff" d="M 149.796875 30.910156 L 168.035156 30.910156 L 168.035156 35.027344 L 149.796875 35.027344 Z M 149.796875 30.910156 " fill-opacity="1" fill-rule="nonzero"/></g><g clip-path="url(#47b07ee665)"><g clip-path="url(#f2d09b8c2c)"><g clip-path="url(#0ef1a9013c)"><g clip-path="url(#a17f38f3ff)"><path fill="#ffffff" d="M 73.074219 9.167969 L 82.050781 9.167969 L 82.050781 18.140625 L 73.078125 18.144531 Z M 73.074219 9.167969 " fill-opacity="1" fill-rule="nonzero"/></g></g></g></g><g fill="#ffffff" fill-opacity="1"><g transform="translate(82.098168, 16.935006)"><g><path d="M 0.46875 0 L 0.46875 -3.953125 L 1.828125 -3.953125 L 1.828125 -3.390625 L 1.84375 -3.390625 C 1.851562 -3.410156 1.867188 -3.4375 1.890625 -3.46875 C 1.921875 -3.5 1.972656 -3.550781 2.046875 -3.625 C 2.117188 -3.707031 2.195312 -3.773438 2.28125 -3.828125 C 2.375 -3.890625 2.488281 -3.945312 2.625 -4 C 2.769531 -4.050781 2.914062 -4.078125 3.0625 -4.078125 C 3.207031 -4.078125 3.351562 -4.054688 3.5 -4.015625 C 3.644531 -3.972656 3.75 -3.929688 3.8125 -3.890625 L 3.921875 -3.828125 L 3.34375 -2.671875 C 3.175781 -2.816406 2.941406 -2.890625 2.640625 -2.890625 C 2.472656 -2.890625 2.328125 -2.851562 2.203125 -2.78125 C 2.085938 -2.707031 2.003906 -2.617188 1.953125 -2.515625 C 1.910156 -2.410156 1.878906 -2.320312 1.859375 -2.25 C 1.835938 -2.175781 1.828125 -2.117188 1.828125 -2.078125 L 1.828125 0 Z M 0.46875 0 "/></g></g></g><g fill="#ffffff" fill-opacity="1"><g transform="translate(85.940983, 16.935006)"><g><path d="M 0.59375 -6.15625 C 0.75 -6.320312 0.9375 -6.40625 1.15625 -6.40625 C 1.382812 -6.40625 1.578125 -6.320312 1.734375 -6.15625 C 1.890625 -6 1.96875 -5.8125 1.96875 -5.59375 C 1.96875 -5.375 1.890625 -5.179688 1.734375 -5.015625 C 1.578125 -4.859375 1.382812 -4.78125 1.15625 -4.78125 C 0.9375 -4.78125 0.75 -4.859375 0.59375 -5.015625 C 0.4375 -5.179688 0.359375 -5.375 0.359375 -5.59375 C 0.359375 -5.8125 0.4375 -6 0.59375 -6.15625 Z M 0.46875 -3.953125 L 0.46875 0 L 1.828125 0 L 1.828125 -3.953125 Z M 0.46875 -3.953125 "/></g></g></g><g fill="#ffffff" fill-opacity="1"><g transform="translate(88.271366, 16.935006)"><g><path d="M 0.46875 0 L 0.46875 -3.953125 L 1.828125 -3.953125 L 1.828125 -3.546875 L 1.84375 -3.546875 C 2.195312 -3.898438 2.578125 -4.078125 2.984375 -4.078125 C 3.265625 -4.078125 3.53125 -4.015625 3.78125 -3.890625 C 4.039062 -3.773438 4.234375 -3.59375 4.359375 -3.34375 C 4.765625 -3.832031 5.203125 -4.078125 5.671875 -4.078125 C 6.097656 -4.078125 6.460938 -3.957031 6.765625 -3.71875 C 7.066406 -3.476562 7.21875 -3.109375 7.21875 -2.609375 L 7.21875 0 L 5.84375 0 L 5.84375 -2.234375 C 5.84375 -2.453125 5.785156 -2.628906 5.671875 -2.765625 C 5.554688 -2.910156 5.382812 -2.984375 5.15625 -2.984375 C 4.957031 -2.984375 4.800781 -2.921875 4.6875 -2.796875 C 4.582031 -2.671875 4.523438 -2.523438 4.515625 -2.359375 L 4.515625 0 L 3.15625 0 L 3.15625 -2.234375 C 3.15625 -2.453125 3.097656 -2.628906 2.984375 -2.765625 C 2.867188 -2.910156 2.695312 -2.984375 2.46875 -2.984375 C 2.25 -2.984375 2.085938 -2.914062 1.984375 -2.78125 C 1.878906 -2.644531 1.828125 -2.488281 1.828125 -2.3125 L 1.828125 0 Z M 0.46875 0 "/></g></g></g><g fill="#ffffff" fill-opacity="1"><g transform="translate(95.872116, 16.935006)"><g><path d="M 4.46875 -1.796875 L 1.59375 -1.796875 C 1.59375 -1.515625 1.679688 -1.304688 1.859375 -1.171875 C 2.046875 -1.035156 2.242188 -0.96875 2.453125 -0.96875 C 2.671875 -0.96875 2.84375 -1 2.96875 -1.0625 C 3.101562 -1.125 3.253906 -1.238281 3.421875 -1.40625 L 4.40625 -0.921875 C 4 -0.234375 3.316406 0.109375 2.359375 0.109375 C 1.753906 0.109375 1.238281 -0.09375 0.8125 -0.5 C 0.382812 -0.90625 0.171875 -1.394531 0.171875 -1.96875 C 0.171875 -2.550781 0.382812 -3.046875 0.8125 -3.453125 C 1.238281 -3.867188 1.753906 -4.078125 2.359375 -4.078125 C 2.984375 -4.078125 3.492188 -3.894531 3.890625 -3.53125 C 4.285156 -3.164062 4.484375 -2.644531 4.484375 -1.96875 C 4.484375 -1.882812 4.476562 -1.828125 4.46875 -1.796875 Z M 1.640625 -2.546875 L 3.140625 -2.546875 C 3.109375 -2.753906 3.023438 -2.910156 2.890625 -3.015625 C 2.765625 -3.128906 2.597656 -3.1875 2.390625 -3.1875 C 2.160156 -3.1875 1.976562 -3.125 1.84375 -3 C 1.71875 -2.882812 1.648438 -2.734375 1.640625 -2.546875 Z M 1.640625 -2.546875 "/></g></g></g><g fill="#0080ff" fill-opacity="1"><g transform="translate(75.013882, 16.935006)"><g><path d="M 0.46875 -6.375 L 2.78125 -6.375 C 3.4375 -6.375 3.960938 -6.203125 4.359375 -5.859375 C 4.765625 -5.523438 4.96875 -5.039062 4.96875 -4.40625 C 4.96875 -3.769531 4.765625 -3.269531 4.359375 -2.90625 C 3.953125 -2.539062 3.425781 -2.359375 2.78125 -2.359375 L 1.921875 -2.359375 L 1.921875 0 L 0.46875 0 Z M 1.921875 -3.515625 L 2.328125 -3.515625 C 2.648438 -3.515625 2.914062 -3.578125 3.125 -3.703125 C 3.332031 -3.835938 3.4375 -4.054688 3.4375 -4.359375 C 3.4375 -4.660156 3.332031 -4.875 3.125 -5 C 2.914062 -5.132812 2.648438 -5.203125 2.328125 -5.203125 L 1.921875 -5.203125 Z M 1.921875 -3.515625 "/></g></g></g><g clip-path="url(#0e09f9d671)"><path fill="#ffffff" d="M 163.171875 12.398438 L 167.585938 12.398438 L 167.585938 16.515625 L 163.171875 16.515625 Z M 163.171875 12.398438 " fill-opacity="1" fill-rule="nonzero"/></g><g clip-path="url(#1ee446b194)"><path fill="#ffffff" d="M 156.261719 12.398438 L 160.671875 12.398438 L 160.671875 16.515625 L 156.261719 16.515625 Z M 156.261719 12.398438 " fill-opacity="1" fill-rule="nonzero"/></g><g clip-path="url(#29d56029c0)"><path fill="#ffffff" d="M 149.605469 12.398438 L 154.015625 12.398438 L 154.015625 16.515625 L 149.605469 16.515625 Z M 149.605469 12.398438 " fill-opacity="1" fill-rule="nonzero"/></g><g clip-path="url(#da063f6fb9)"><path fill="#ffffff" d="M 143.292969 12.398438 L 147.707031 12.398438 L 147.707031 16.515625 L 143.292969 16.515625 Z M 143.292969 12.398438 " fill-opacity="1" fill-rule="nonzero"/></g><g clip-path="url(#4c6f2bfc20)"><path fill="#ffffff" d="M 10.117188 10.753906 L 54.261719 10.710938 C 56.308594 10.707031 57.875 12.53125 57.566406 14.550781 L 57.558594 14.59375 C 57.308594 16.21875 55.910156 17.421875 54.261719 17.421875 L 10.125 17.421875 C 8.0625 17.421875 6.496094 15.570312 6.835938 13.535156 C 7.105469 11.933594 8.492188 10.753906 10.117188 10.753906 " fill-opacity="1" fill-rule="nonzero"/></g><path fill="#0080ff" d="M 53.117188 12.433594 C 52.78125 12.433594 52.46875 12.566406 52.230469 12.804688 C 51.992188 13.039062 51.863281 13.355469 51.863281 13.691406 C 51.863281 14.027344 51.992188 14.339844 52.230469 14.578125 C 52.46875 14.816406 52.78125 14.945312 53.117188 14.945312 C 53.453125 14.945312 53.769531 14.816406 54.007812 14.578125 C 54.242188 14.339844 54.375 14.027344 54.375 13.691406 C 54.375 13.355469 54.242188 13.039062 54.007812 12.804688 C 53.769531 12.566406 53.453125 12.433594 53.117188 12.433594 Z M 53.117188 15.171875 C 52.722656 15.171875 52.351562 15.019531 52.070312 14.738281 C 51.789062 14.457031 51.636719 14.085938 51.636719 13.691406 C 51.636719 13.292969 51.789062 12.921875 52.070312 12.640625 C 52.351562 12.363281 52.722656 12.207031 53.117188 12.207031 C 53.515625 12.207031 53.886719 12.363281 54.164062 12.640625 C 54.445312 12.921875 54.597656 13.292969 54.597656 13.691406 C 54.597656 14.085938 54.445312 14.457031 54.164062 14.738281 C 53.886719 15.019531 53.515625 15.171875 53.117188 15.171875 " fill-opacity="1" fill-rule="nonzero"/><path fill="#0080ff" d="M 55.238281 15.921875 C 55.210938 15.921875 55.179688 15.914062 55.160156 15.890625 L 54.007812 14.738281 C 53.960938 14.695312 53.960938 14.621094 54.007812 14.578125 C 54.050781 14.535156 54.121094 14.535156 54.164062 14.578125 L 55.316406 15.730469 C 55.363281 15.773438 55.363281 15.847656 55.316406 15.890625 C 55.296875 15.914062 55.265625 15.921875 55.238281 15.921875 " fill-opacity="1" fill-rule="nonzero"/></svg>