<svg xmlns="http://www.w3.org/2000/svg" xmlns:xlink="http://www.w3.org/1999/xlink" width="234" zoomAndPan="magnify" viewBox="0 0 175.5 44.999999" height="60" preserveAspectRatio="xMidYMid meet" version="1.0"><defs><g/><clipPath id="64daa3e15e"><path d="M 1.347656 20.507812 L 173.441406 20.507812 L 173.441406 40.320312 L 1.347656 40.320312 Z M 1.347656 20.507812 " clip-rule="nonzero"/></clipPath><clipPath id="9e669fa9b5"><path d="M 6.625 25.242188 L 14.832031 25.242188 L 14.832031 34.230469 L 6.625 34.230469 Z M 6.625 25.242188 " clip-rule="nonzero"/></clipPath><clipPath id="a3c8966ad8"><path d="M 6.21875 25.242188 L 15.207031 25.238281 L 15.210938 34.230469 L 6.21875 34.230469 Z M 6.21875 25.242188 " clip-rule="nonzero"/></clipPath><clipPath id="7d3543e434"><path d="M 6.21875 25.242188 L 15.207031 25.238281 L 15.210938 34.230469 L 6.21875 34.230469 Z M 6.21875 25.242188 " clip-rule="nonzero"/></clipPath><clipPath id="bb21ece34b"><path d="M 62.125 28.355469 L 80.363281 28.355469 L 80.363281 32.472656 L 62.125 32.472656 Z M 62.125 28.355469 " clip-rule="nonzero"/></clipPath><clipPath id="84ee9ab392"><path d="M 84.101562 28.355469 L 102.339844 28.355469 L 102.339844 32.472656 L 84.101562 32.472656 Z M 84.101562 28.355469 " clip-rule="nonzero"/></clipPath><clipPath id="ee569210a3"><path d="M 106.078125 28.355469 L 124.316406 28.355469 L 124.316406 32.472656 L 106.078125 32.472656 Z M 106.078125 28.355469 " clip-rule="nonzero"/></clipPath><clipPath id="169fb40ab4"><path d="M 128.054688 28.355469 L 146.292969 28.355469 L 146.292969 32.472656 L 128.054688 32.472656 Z M 128.054688 28.355469 " clip-rule="nonzero"/></clipPath><clipPath id="00ad91bf0b"><path d="M 150.140625 28.355469 L 168.378906 28.355469 L 168.378906 32.472656 L 150.140625 32.472656 Z M 150.140625 28.355469 " clip-rule="nonzero"/></clipPath><clipPath id="4b897c5874"><path d="M 40.148438 28.355469 L 58.386719 28.355469 L 58.386719 32.472656 L 40.148438 32.472656 Z M 40.148438 28.355469 " clip-rule="nonzero"/></clipPath><clipPath id="9970fd81fd"><path d="M 1.347656 4.339844 L 173.441406 4.339844 L 173.441406 19.300781 L 1.347656 19.300781 Z M 1.347656 4.339844 " clip-rule="nonzero"/></clipPath><clipPath id="3a38d7d933"><path d="M 163.964844 9.761719 L 168.378906 9.761719 L 168.378906 13.882812 L 163.964844 13.882812 Z M 163.964844 9.761719 " clip-rule="nonzero"/></clipPath><clipPath id="b5da66eaca"><path d="M 6.625 9.761719 L 35.976562 9.761719 L 35.976562 13.882812 L 6.625 13.882812 Z M 6.625 9.761719 " clip-rule="nonzero"/></clipPath><clipPath id="9ae45684ba"><path d="M 54.816406 9.761719 L 93.21875 9.761719 L 93.21875 13.882812 L 54.816406 13.882812 Z M 54.816406 9.761719 " clip-rule="nonzero"/></clipPath><clipPath id="1e05018b72"><path d="M 157.054688 9.761719 L 161.464844 9.761719 L 161.464844 13.882812 L 157.054688 13.882812 Z M 157.054688 9.761719 " clip-rule="nonzero"/></clipPath><clipPath id="3de52097ba"><path d="M 150.398438 9.761719 L 154.808594 9.761719 L 154.808594 13.882812 L 150.398438 13.882812 Z M 150.398438 9.761719 " clip-rule="nonzero"/></clipPath><clipPath id="20f400b9d4"><path d="M 144.085938 9.761719 L 148.496094 9.761719 L 148.496094 13.882812 L 144.085938 13.882812 Z M 144.085938 9.761719 " clip-rule="nonzero"/></clipPath><clipPath id="9cfa0c359b"><path d="M 114.476562 9.761719 L 132.710938 9.761719 L 132.710938 13.882812 L 114.476562 13.882812 Z M 114.476562 9.761719 " clip-rule="nonzero"/></clipPath></defs><g clip-path="url(#64daa3e15e)"><path fill="#0080ff" d="M 1.347656 20.507812 L 173.441406 20.507812 L 173.441406 40.320312 L 1.347656 40.320312 Z M 1.347656 20.507812 " fill-opacity="1" fill-rule="nonzero"/></g><g clip-path="url(#9e669fa9b5)"><g clip-path="url(#a3c8966ad8)"><g clip-path="url(#7d3543e434)"><path fill="#ffffff" d="M 6.21875 25.242188 L 15.207031 25.238281 L 15.210938 34.230469 L 6.21875 34.230469 Z M 6.21875 25.242188 " fill-opacity="1" fill-rule="nonzero"/></g></g></g><g fill="#ffffff" fill-opacity="1"><g transform="translate(15.240806, 33.008789)"><g><path d="M 0.46875 0 L 0.46875 -3.953125 L 1.828125 -3.953125 L 1.828125 -3.390625 L 1.84375 -3.390625 C 1.851562 -3.410156 1.867188 -3.4375 1.890625 -3.46875 C 1.921875 -3.5 1.972656 -3.550781 2.046875 -3.625 C 2.117188 -3.707031 2.195312 -3.773438 2.28125 -3.828125 C 2.375 -3.890625 2.488281 -3.945312 2.625 -4 C 2.769531 -4.050781 2.914062 -4.078125 3.0625 -4.078125 C 3.207031 -4.078125 3.351562 -4.054688 3.5 -4.015625 C 3.644531 -3.972656 3.75 -3.929688 3.8125 -3.890625 L 3.921875 -3.828125 L 3.34375 -2.671875 C 3.175781 -2.816406 2.941406 -2.890625 2.640625 -2.890625 C 2.472656 -2.890625 2.328125 -2.851562 2.203125 -2.78125 C 2.085938 -2.707031 2.003906 -2.617188 1.953125 -2.515625 C 1.910156 -2.410156 1.878906 -2.320312 1.859375 -2.25 C 1.835938 -2.175781 1.828125 -2.117188 1.828125 -2.078125 L 1.828125 0 Z M 0.46875 0 "/></g></g></g><g fill="#ffffff" fill-opacity="1"><g transform="translate(19.083621, 33.008789)"><g><path d="M 0.59375 -6.15625 C 0.75 -6.320312 0.9375 -6.40625 1.15625 -6.40625 C 1.382812 -6.40625 1.578125 -6.320312 1.734375 -6.15625 C 1.890625 -6 1.96875 -5.8125 1.96875 -5.59375 C 1.96875 -5.375 1.890625 -5.179688 1.734375 -5.015625 C 1.578125 -4.859375 1.382812 -4.78125 1.15625 -4.78125 C 0.9375 -4.78125 0.75 -4.859375 0.59375 -5.015625 C 0.4375 -5.179688 0.359375 -5.375 0.359375 -5.59375 C 0.359375 -5.8125 0.4375 -6 0.59375 -6.15625 Z M 0.46875 -3.953125 L 0.46875 0 L 1.828125 0 L 1.828125 -3.953125 Z M 0.46875 -3.953125 "/></g></g></g><g fill="#ffffff" fill-opacity="1"><g transform="translate(21.414004, 33.008789)"><g><path d="M 0.46875 0 L 0.46875 -3.953125 L 1.828125 -3.953125 L 1.828125 -3.546875 L 1.84375 -3.546875 C 2.195312 -3.898438 2.578125 -4.078125 2.984375 -4.078125 C 3.265625 -4.078125 3.53125 -4.015625 3.78125 -3.890625 C 4.039062 -3.773438 4.234375 -3.59375 4.359375 -3.34375 C 4.765625 -3.832031 5.203125 -4.078125 5.671875 -4.078125 C 6.097656 -4.078125 6.460938 -3.957031 6.765625 -3.71875 C 7.066406 -3.476562 7.21875 -3.109375 7.21875 -2.609375 L 7.21875 0 L 5.84375 0 L 5.84375 -2.234375 C 5.84375 -2.453125 5.785156 -2.628906 5.671875 -2.765625 C 5.554688 -2.910156 5.382812 -2.984375 5.15625 -2.984375 C 4.957031 -2.984375 4.800781 -2.921875 4.6875 -2.796875 C 4.582031 -2.671875 4.523438 -2.523438 4.515625 -2.359375 L 4.515625 0 L 3.15625 0 L 3.15625 -2.234375 C 3.15625 -2.453125 3.097656 -2.628906 2.984375 -2.765625 C 2.867188 -2.910156 2.695312 -2.984375 2.46875 -2.984375 C 2.25 -2.984375 2.085938 -2.914062 1.984375 -2.78125 C 1.878906 -2.644531 1.828125 -2.488281 1.828125 -2.3125 L 1.828125 0 Z M 0.46875 0 "/></g></g></g><g fill="#ffffff" fill-opacity="1"><g transform="translate(29.014754, 33.008789)"><g><path d="M 4.46875 -1.796875 L 1.59375 -1.796875 C 1.59375 -1.515625 1.679688 -1.304688 1.859375 -1.171875 C 2.046875 -1.035156 2.242188 -0.96875 2.453125 -0.96875 C 2.671875 -0.96875 2.84375 -1 2.96875 -1.0625 C 3.101562 -1.125 3.253906 -1.238281 3.421875 -1.40625 L 4.40625 -0.921875 C 4 -0.234375 3.316406 0.109375 2.359375 0.109375 C 1.753906 0.109375 1.238281 -0.09375 0.8125 -0.5 C 0.382812 -0.90625 0.171875 -1.394531 0.171875 -1.96875 C 0.171875 -2.550781 0.382812 -3.046875 0.8125 -3.453125 C 1.238281 -3.867188 1.753906 -4.078125 2.359375 -4.078125 C 2.984375 -4.078125 3.492188 -3.894531 3.890625 -3.53125 C 4.285156 -3.164062 4.484375 -2.644531 4.484375 -1.96875 C 4.484375 -1.882812 4.476562 -1.828125 4.46875 -1.796875 Z M 1.640625 -2.546875 L 3.140625 -2.546875 C 3.109375 -2.753906 3.023438 -2.910156 2.890625 -3.015625 C 2.765625 -3.128906 2.597656 -3.1875 2.390625 -3.1875 C 2.160156 -3.1875 1.976562 -3.125 1.84375 -3 C 1.71875 -2.882812 1.648438 -2.734375 1.640625 -2.546875 Z M 1.640625 -2.546875 "/></g></g></g><g fill="#0080ff" fill-opacity="1"><g transform="translate(8.156524, 33.008789)"><g><path d="M 0.46875 -6.375 L 2.78125 -6.375 C 3.4375 -6.375 3.960938 -6.203125 4.359375 -5.859375 C 4.765625 -5.523438 4.96875 -5.039062 4.96875 -4.40625 C 4.96875 -3.769531 4.765625 -3.269531 4.359375 -2.90625 C 3.953125 -2.539062 3.425781 -2.359375 2.78125 -2.359375 L 1.921875 -2.359375 L 1.921875 0 L 0.46875 0 Z M 1.921875 -3.515625 L 2.328125 -3.515625 C 2.648438 -3.515625 2.914062 -3.578125 3.125 -3.703125 C 3.332031 -3.835938 3.4375 -4.054688 3.4375 -4.359375 C 3.4375 -4.660156 3.332031 -4.875 3.125 -5 C 2.914062 -5.132812 2.648438 -5.203125 2.328125 -5.203125 L 1.921875 -5.203125 Z M 1.921875 -3.515625 "/></g></g></g><g clip-path="url(#bb21ece34b)"><path fill="#ffffff" d="M 62.125 28.355469 L 80.363281 28.355469 L 80.363281 32.472656 L 62.125 32.472656 Z M 62.125 28.355469 " fill-opacity="1" fill-rule="nonzero"/></g><g clip-path="url(#84ee9ab392)"><path fill="#ffffff" d="M 84.101562 28.355469 L 102.339844 28.355469 L 102.339844 32.472656 L 84.101562 32.472656 Z M 84.101562 28.355469 " fill-opacity="1" fill-rule="nonzero"/></g><g clip-path="url(#ee569210a3)"><path fill="#ffffff" d="M 106.078125 28.355469 L 124.316406 28.355469 L 124.316406 32.472656 L 106.078125 32.472656 Z M 106.078125 28.355469 " fill-opacity="1" fill-rule="nonzero"/></g><g clip-path="url(#169fb40ab4)"><path fill="#ffffff" d="M 128.054688 28.355469 L 146.292969 28.355469 L 146.292969 32.472656 L 128.054688 32.472656 Z M 128.054688 28.355469 " fill-opacity="1" fill-rule="nonzero"/></g><g clip-path="url(#00ad91bf0b)"><path fill="#ffffff" d="M 150.140625 28.355469 L 168.378906 28.355469 L 168.378906 32.472656 L 150.140625 32.472656 Z M 150.140625 28.355469 " fill-opacity="1" fill-rule="nonzero"/></g><g clip-path="url(#4b897c5874)"><path fill="#ffffff" d="M 40.148438 28.355469 L 58.386719 28.355469 L 58.386719 32.472656 L 40.148438 32.472656 Z M 40.148438 28.355469 " fill-opacity="1" fill-rule="nonzero"/></g><g clip-path="url(#9970fd81fd)"><path fill="#0057ad" d="M 1.347656 4.339844 L 173.441406 4.339844 L 173.441406 19.300781 L 1.347656 19.300781 Z M 1.347656 4.339844 " fill-opacity="1" fill-rule="nonzero"/></g><g clip-path="url(#3a38d7d933)"><path fill="#ffffff" d="M 163.964844 9.761719 L 168.378906 9.761719 L 168.378906 13.882812 L 163.964844 13.882812 Z M 163.964844 9.761719 " fill-opacity="1" fill-rule="nonzero"/></g><g clip-path="url(#b5da66eaca)"><path fill="#ffffff" d="M 6.625 9.761719 L 35.976562 9.761719 L 35.976562 13.882812 L 6.625 13.882812 Z M 6.625 9.761719 " fill-opacity="1" fill-rule="nonzero"/></g><g clip-path="url(#9ae45684ba)"><path fill="#ffffff" d="M 54.816406 9.761719 L 93.21875 9.761719 L 93.21875 13.882812 L 54.816406 13.882812 Z M 54.816406 9.761719 " fill-opacity="1" fill-rule="nonzero"/></g><g clip-path="url(#1e05018b72)"><path fill="#ffffff" d="M 157.054688 9.761719 L 161.464844 9.761719 L 161.464844 13.882812 L 157.054688 13.882812 Z M 157.054688 9.761719 " fill-opacity="1" fill-rule="nonzero"/></g><g clip-path="url(#3de52097ba)"><path fill="#ffffff" d="M 150.398438 9.761719 L 154.808594 9.761719 L 154.808594 13.882812 L 150.398438 13.882812 Z M 150.398438 9.761719 " fill-opacity="1" fill-rule="nonzero"/></g><g clip-path="url(#20f400b9d4)"><path fill="#ffffff" d="M 144.085938 9.761719 L 148.496094 9.761719 L 148.496094 13.882812 L 144.085938 13.882812 Z M 144.085938 9.761719 " fill-opacity="1" fill-rule="nonzero"/></g><g clip-path="url(#9cfa0c359b)"><path fill="#ffffff" d="M 114.476562 9.761719 L 132.710938 9.761719 L 132.710938 13.882812 L 114.476562 13.882812 Z M 114.476562 9.761719 " fill-opacity="1" fill-rule="nonzero"/></g></svg>