<svg xmlns="http://www.w3.org/2000/svg" xmlns:xlink="http://www.w3.org/1999/xlink" width="234" zoomAndPan="magnify" viewBox="0 0 175.5 44.999999" height="60" preserveAspectRatio="xMidYMid meet" version="1.0"><defs><g/><clipPath id="06448cbf84"><path d="M 1.347656 4.550781 L 173.441406 4.550781 L 173.441406 24.363281 L 1.347656 24.363281 Z M 1.347656 4.550781 " clip-rule="nonzero"/></clipPath><clipPath id="4aba0e4566"><path d="M 1.453125 25.488281 L 173.546875 25.488281 L 173.546875 40.449219 L 1.453125 40.449219 Z M 1.453125 25.488281 " clip-rule="nonzero"/></clipPath><clipPath id="bbbb869dc8"><path d="M 31.269531 30.910156 L 49.507812 30.910156 L 49.507812 35.027344 L 31.269531 35.027344 Z M 31.269531 30.910156 " clip-rule="nonzero"/></clipPath><clipPath id="ae8758646f"><path d="M 55.488281 30.910156 L 73.726562 30.910156 L 73.726562 35.027344 L 55.488281 35.027344 Z M 55.488281 30.910156 " clip-rule="nonzero"/></clipPath><clipPath id="dbe9f56faa"><path d="M 128.152344 30.910156 L 146.386719 30.910156 L 146.386719 35.027344 L 128.152344 35.027344 Z M 128.152344 30.910156 " clip-rule="nonzero"/></clipPath><clipPath id="94f5c2cd69"><path d="M 6.730469 30.910156 L 24.96875 30.910156 L 24.96875 35.027344 L 6.730469 35.027344 Z M 6.730469 30.910156 " clip-rule="nonzero"/></clipPath><clipPath id="a40983bd7f"><path d="M 149.796875 30.910156 L 168.035156 30.910156 L 168.035156 35.027344 L 149.796875 35.027344 Z M 149.796875 30.910156 " clip-rule="nonzero"/></clipPath><clipPath id="03a5938af5"><path d="M 73 9 L 82 9 L 82 19 L 73 19 Z M 73 9 " clip-rule="nonzero"/></clipPath><clipPath id="a40e8f2432"><path d="M 73.480469 9.167969 L 81.707031 9.167969 L 81.710938 18.140625 L 73.484375 18.144531 Z M 73.480469 9.167969 " clip-rule="nonzero"/></clipPath><clipPath id="0f0b996d38"><path d="M 73.074219 9.167969 L 82.050781 9.167969 L 82.050781 18.140625 L 73.078125 18.144531 Z M 73.074219 9.167969 " clip-rule="nonzero"/></clipPath><clipPath id="4884445e3e"><path d="M 73.074219 9.167969 L 82.050781 9.167969 L 82.050781 18.140625 L 73.078125 18.144531 Z M 73.074219 9.167969 " clip-rule="nonzero"/></clipPath><clipPath id="b4d6383357"><path d="M 163.171875 12.398438 L 167.585938 12.398438 L 167.585938 16.515625 L 163.171875 16.515625 Z M 163.171875 12.398438 " clip-rule="nonzero"/></clipPath><clipPath id="4f8adb1eaf"><path d="M 156.261719 12.398438 L 160.671875 12.398438 L 160.671875 16.515625 L 156.261719 16.515625 Z M 156.261719 12.398438 " clip-rule="nonzero"/></clipPath><clipPath id="0efc9a1e9b"><path d="M 149.605469 12.398438 L 154.015625 12.398438 L 154.015625 16.515625 L 149.605469 16.515625 Z M 149.605469 12.398438 " clip-rule="nonzero"/></clipPath><clipPath id="e949d3447f"><path d="M 143.292969 12.398438 L 147.707031 12.398438 L 147.707031 16.515625 L 143.292969 16.515625 Z M 143.292969 12.398438 " clip-rule="nonzero"/></clipPath><clipPath id="94b35768be"><path d="M 19.296875 12.5625 L 38.324219 12.5625 L 38.324219 16.355469 L 19.296875 16.355469 Z M 19.296875 12.5625 " clip-rule="nonzero"/></clipPath><clipPath id="0551d86e8d"><path d="M 6.730469 9.449219 L 16.453125 9.449219 L 16.453125 19.171875 L 6.730469 19.171875 Z M 6.730469 9.449219 " clip-rule="nonzero"/></clipPath></defs><g clip-path="url(#06448cbf84)"><path fill="#0080ff" d="M 1.347656 4.550781 L 173.441406 4.550781 L 173.441406 24.363281 L 1.347656 24.363281 Z M 1.347656 4.550781 " fill-opacity="1" fill-rule="nonzero"/></g><g clip-path="url(#4aba0e4566)"><path fill="#0057ad" d="M 1.453125 25.488281 L 173.546875 25.488281 L 173.546875 40.449219 L 1.453125 40.449219 Z M 1.453125 25.488281 " fill-opacity="1" fill-rule="nonzero"/></g><g clip-path="url(#bbbb869dc8)"><path fill="#ffffff" d="M 31.269531 30.910156 L 49.507812 30.910156 L 49.507812 35.027344 L 31.269531 35.027344 Z M 31.269531 30.910156 " fill-opacity="1" fill-rule="nonzero"/></g><g clip-path="url(#ae8758646f)"><path fill="#ffffff" d="M 55.488281 30.910156 L 73.726562 30.910156 L 73.726562 35.027344 L 55.488281 35.027344 Z M 55.488281 30.910156 " fill-opacity="1" fill-rule="nonzero"/></g><g clip-path="url(#dbe9f56faa)"><path fill="#ffffff" d="M 128.152344 30.910156 L 146.386719 30.910156 L 146.386719 35.027344 L 128.152344 35.027344 Z M 128.152344 30.910156 " fill-opacity="1" fill-rule="nonzero"/></g><g clip-path="url(#94f5c2cd69)"><path fill="#ffffff" d="M 6.730469 30.910156 L 24.96875 30.910156 L 24.96875 35.027344 L 6.730469 35.027344 Z M 6.730469 30.910156 " fill-opacity="1" fill-rule="nonzero"/></g><g clip-path="url(#a40983bd7f)"><path fill="#ffffff" d="M 149.796875 30.910156 L 168.035156 30.910156 L 168.035156 35.027344 L 149.796875 35.027344 Z M 149.796875 30.910156 " fill-opacity="1" fill-rule="nonzero"/></g><g clip-path="url(#03a5938af5)"><g clip-path="url(#a40e8f2432)"><g clip-path="url(#0f0b996d38)"><g clip-path="url(#4884445e3e)"><path fill="#ffffff" d="M 73.074219 9.167969 L 82.050781 9.167969 L 82.050781 18.140625 L 73.078125 18.144531 Z M 73.074219 9.167969 " fill-opacity="1" fill-rule="nonzero"/></g></g></g></g><g fill="#ffffff" fill-opacity="1"><g transform="translate(82.098168, 16.934998)"><g><path d="M 0.46875 0 L 0.46875 -3.953125 L 1.828125 -3.953125 L 1.828125 -3.390625 L 1.84375 -3.390625 C 1.851562 -3.410156 1.867188 -3.4375 1.890625 -3.46875 C 1.921875 -3.5 1.972656 -3.550781 2.046875 -3.625 C 2.117188 -3.707031 2.195312 -3.773438 2.28125 -3.828125 C 2.375 -3.890625 2.488281 -3.945312 2.625 -4 C 2.769531 -4.050781 2.914062 -4.078125 3.0625 -4.078125 C 3.207031 -4.078125 3.351562 -4.054688 3.5 -4.015625 C 3.644531 -3.972656 3.75 -3.929688 3.8125 -3.890625 L 3.921875 -3.828125 L 3.34375 -2.671875 C 3.175781 -2.816406 2.941406 -2.890625 2.640625 -2.890625 C 2.472656 -2.890625 2.328125 -2.851562 2.203125 -2.78125 C 2.085938 -2.707031 2.003906 -2.617188 1.953125 -2.515625 C 1.910156 -2.410156 1.878906 -2.320312 1.859375 -2.25 C 1.835938 -2.175781 1.828125 -2.117188 1.828125 -2.078125 L 1.828125 0 Z M 0.46875 0 "/></g></g></g><g fill="#ffffff" fill-opacity="1"><g transform="translate(85.940983, 16.934998)"><g><path d="M 0.59375 -6.15625 C 0.75 -6.320312 0.9375 -6.40625 1.15625 -6.40625 C 1.382812 -6.40625 1.578125 -6.320312 1.734375 -6.15625 C 1.890625 -6 1.96875 -5.8125 1.96875 -5.59375 C 1.96875 -5.375 1.890625 -5.179688 1.734375 -5.015625 C 1.578125 -4.859375 1.382812 -4.78125 1.15625 -4.78125 C 0.9375 -4.78125 0.75 -4.859375 0.59375 -5.015625 C 0.4375 -5.179688 0.359375 -5.375 0.359375 -5.59375 C 0.359375 -5.8125 0.4375 -6 0.59375 -6.15625 Z M 0.46875 -3.953125 L 0.46875 0 L 1.828125 0 L 1.828125 -3.953125 Z M 0.46875 -3.953125 "/></g></g></g><g fill="#ffffff" fill-opacity="1"><g transform="translate(88.271366, 16.934998)"><g><path d="M 0.46875 0 L 0.46875 -3.953125 L 1.828125 -3.953125 L 1.828125 -3.546875 L 1.84375 -3.546875 C 2.195312 -3.898438 2.578125 -4.078125 2.984375 -4.078125 C 3.265625 -4.078125 3.53125 -4.015625 3.78125 -3.890625 C 4.039062 -3.773438 4.234375 -3.59375 4.359375 -3.34375 C 4.765625 -3.832031 5.203125 -4.078125 5.671875 -4.078125 C 6.097656 -4.078125 6.460938 -3.957031 6.765625 -3.71875 C 7.066406 -3.476562 7.21875 -3.109375 7.21875 -2.609375 L 7.21875 0 L 5.84375 0 L 5.84375 -2.234375 C 5.84375 -2.453125 5.785156 -2.628906 5.671875 -2.765625 C 5.554688 -2.910156 5.382812 -2.984375 5.15625 -2.984375 C 4.957031 -2.984375 4.800781 -2.921875 4.6875 -2.796875 C 4.582031 -2.671875 4.523438 -2.523438 4.515625 -2.359375 L 4.515625 0 L 3.15625 0 L 3.15625 -2.234375 C 3.15625 -2.453125 3.097656 -2.628906 2.984375 -2.765625 C 2.867188 -2.910156 2.695312 -2.984375 2.46875 -2.984375 C 2.25 -2.984375 2.085938 -2.914062 1.984375 -2.78125 C 1.878906 -2.644531 1.828125 -2.488281 1.828125 -2.3125 L 1.828125 0 Z M 0.46875 0 "/></g></g></g><g fill="#ffffff" fill-opacity="1"><g transform="translate(95.872116, 16.934998)"><g><path d="M 4.46875 -1.796875 L 1.59375 -1.796875 C 1.59375 -1.515625 1.679688 -1.304688 1.859375 -1.171875 C 2.046875 -1.035156 2.242188 -0.96875 2.453125 -0.96875 C 2.671875 -0.96875 2.84375 -1 2.96875 -1.0625 C 3.101562 -1.125 3.253906 -1.238281 3.421875 -1.40625 L 4.40625 -0.921875 C 4 -0.234375 3.316406 0.109375 2.359375 0.109375 C 1.753906 0.109375 1.238281 -0.09375 0.8125 -0.5 C 0.382812 -0.90625 0.171875 -1.394531 0.171875 -1.96875 C 0.171875 -2.550781 0.382812 -3.046875 0.8125 -3.453125 C 1.238281 -3.867188 1.753906 -4.078125 2.359375 -4.078125 C 2.984375 -4.078125 3.492188 -3.894531 3.890625 -3.53125 C 4.285156 -3.164062 4.484375 -2.644531 4.484375 -1.96875 C 4.484375 -1.882812 4.476562 -1.828125 4.46875 -1.796875 Z M 1.640625 -2.546875 L 3.140625 -2.546875 C 3.109375 -2.753906 3.023438 -2.910156 2.890625 -3.015625 C 2.765625 -3.128906 2.597656 -3.1875 2.390625 -3.1875 C 2.160156 -3.1875 1.976562 -3.125 1.84375 -3 C 1.71875 -2.882812 1.648438 -2.734375 1.640625 -2.546875 Z M 1.640625 -2.546875 "/></g></g></g><g fill="#0080ff" fill-opacity="1"><g transform="translate(75.013882, 16.934998)"><g><path d="M 0.46875 -6.375 L 2.78125 -6.375 C 3.4375 -6.375 3.960938 -6.203125 4.359375 -5.859375 C 4.765625 -5.523438 4.96875 -5.039062 4.96875 -4.40625 C 4.96875 -3.769531 4.765625 -3.269531 4.359375 -2.90625 C 3.953125 -2.539062 3.425781 -2.359375 2.78125 -2.359375 L 1.921875 -2.359375 L 1.921875 0 L 0.46875 0 Z M 1.921875 -3.515625 L 2.328125 -3.515625 C 2.648438 -3.515625 2.914062 -3.578125 3.125 -3.703125 C 3.332031 -3.835938 3.4375 -4.054688 3.4375 -4.359375 C 3.4375 -4.660156 3.332031 -4.875 3.125 -5 C 2.914062 -5.132812 2.648438 -5.203125 2.328125 -5.203125 L 1.921875 -5.203125 Z M 1.921875 -3.515625 "/></g></g></g><g clip-path="url(#b4d6383357)"><path fill="#ffffff" d="M 163.171875 12.398438 L 167.585938 12.398438 L 167.585938 16.515625 L 163.171875 16.515625 Z M 163.171875 12.398438 " fill-opacity="1" fill-rule="nonzero"/></g><g clip-path="url(#4f8adb1eaf)"><path fill="#ffffff" d="M 156.261719 12.398438 L 160.671875 12.398438 L 160.671875 16.515625 L 156.261719 16.515625 Z M 156.261719 12.398438 " fill-opacity="1" fill-rule="nonzero"/></g><g clip-path="url(#0efc9a1e9b)"><path fill="#ffffff" d="M 149.605469 12.398438 L 154.015625 12.398438 L 154.015625 16.515625 L 149.605469 16.515625 Z M 149.605469 12.398438 " fill-opacity="1" fill-rule="nonzero"/></g><g clip-path="url(#e949d3447f)"><path fill="#ffffff" d="M 143.292969 12.398438 L 147.707031 12.398438 L 147.707031 16.515625 L 143.292969 16.515625 Z M 143.292969 12.398438 " fill-opacity="1" fill-rule="nonzero"/></g><g clip-path="url(#94b35768be)"><path fill="#ffffff" d="M 19.296875 12.5625 L 38.324219 12.5625 L 38.324219 16.355469 L 19.296875 16.355469 Z M 19.296875 12.5625 " fill-opacity="1" fill-rule="nonzero"/></g><g clip-path="url(#0551d86e8d)"><path fill="#ffffff" d="M 11.589844 9.449219 C 8.90625 9.449219 6.730469 11.625 6.730469 14.308594 C 6.730469 16.996094 8.90625 19.171875 11.589844 19.171875 C 14.277344 19.171875 16.453125 16.996094 16.453125 14.308594 C 16.453125 11.625 14.277344 9.449219 11.589844 9.449219 Z M 14.109375 16.183594 C 14.109375 16.34375 14.039062 16.5 13.917969 16.613281 C 13.796875 16.722656 13.632812 16.777344 13.472656 16.761719 C 12.910156 16.710938 12.367188 16.5625 11.863281 16.320312 C 11.367188 16.085938 10.921875 15.769531 10.535156 15.382812 C 10.144531 14.996094 9.828125 14.550781 9.597656 14.054688 C 9.355469 13.546875 9.207031 13.007812 9.15625 12.445312 C 9.152344 12.425781 9.152344 12.410156 9.152344 12.390625 C 9.152344 12.246094 9.207031 12.105469 9.304688 11.996094 C 9.414062 11.878906 9.570312 11.808594 9.734375 11.808594 L 10.515625 11.808594 C 10.8125 11.808594 11.058594 12.027344 11.09375 12.324219 C 11.113281 12.496094 11.148438 12.667969 11.199219 12.832031 C 11.261719 13.039062 11.207031 13.261719 11.054688 13.414062 L 10.738281 13.730469 C 11.070312 14.339844 11.574219 14.84375 12.183594 15.175781 L 12.5 14.859375 C 12.652344 14.707031 12.875 14.652344 13.082031 14.714844 C 13.246094 14.765625 13.417969 14.800781 13.59375 14.820312 C 13.886719 14.855469 14.105469 15.101562 14.105469 15.398438 L 14.105469 16.183594 Z M 14.109375 16.183594 " fill-opacity="1" fill-rule="nonzero"/></g></svg>