<svg xmlns="http://www.w3.org/2000/svg" xmlns:xlink="http://www.w3.org/1999/xlink" width="234" zoomAndPan="magnify" viewBox="0 0 175.5 44.999999" height="60" preserveAspectRatio="xMidYMid meet" version="1.0"><defs><clipPath id="5e3d570a7c"><path d="M 1.558594 15.839844 L 173.441406 15.839844 L 173.441406 29.160156 L 1.558594 29.160156 Z M 1.558594 15.839844 " clip-rule="nonzero"/></clipPath><clipPath id="1a3a426d26"><path d="M 3.804688 15.839844 L 171.199219 15.839844 C 172.4375 15.839844 173.441406 16.84375 173.441406 18.085938 L 173.441406 26.914062 C 173.441406 28.152344 172.4375 29.160156 171.199219 29.160156 L 3.804688 29.160156 C 2.566406 29.160156 1.558594 28.152344 1.558594 26.914062 L 1.558594 18.085938 C 1.558594 16.84375 2.566406 15.839844 3.804688 15.839844 Z M 3.804688 15.839844 " clip-rule="nonzero"/></clipPath><clipPath id="e32d1edd32"><path d="M 85.210938 20.441406 L 123.613281 20.441406 L 123.613281 24.558594 L 85.210938 24.558594 Z M 85.210938 20.441406 " clip-rule="nonzero"/></clipPath><clipPath id="9cd8a1b3e8"><path d="M 6.238281 20.441406 L 24.472656 20.441406 L 24.472656 24.558594 L 6.238281 24.558594 Z M 6.238281 20.441406 " clip-rule="nonzero"/></clipPath><clipPath id="d654365e44"><path d="M 35.589844 20.441406 L 73.992188 20.441406 L 73.992188 24.558594 L 35.589844 24.558594 Z M 35.589844 20.441406 " clip-rule="nonzero"/></clipPath><clipPath id="c6a1a6409a"><path d="M 130.089844 20.441406 L 168.492188 20.441406 L 168.492188 24.558594 L 130.089844 24.558594 Z M 130.089844 20.441406 " clip-rule="nonzero"/></clipPath></defs><g clip-path="url(#5e3d570a7c)"><g clip-path="url(#1a3a426d26)"><path fill="#0080ff" d="M 1.558594 15.839844 L 173.441406 15.839844 L 173.441406 29.160156 L 1.558594 29.160156 Z M 1.558594 15.839844 " fill-opacity="1" fill-rule="nonzero"/></g></g><g clip-path="url(#e32d1edd32)"><path fill="#ffffff" d="M 85.210938 20.441406 L 123.613281 20.441406 L 123.613281 24.558594 L 85.210938 24.558594 Z M 85.210938 20.441406 " fill-opacity="1" fill-rule="nonzero"/></g><g clip-path="url(#9cd8a1b3e8)"><path fill="#ffffff" d="M 6.238281 20.441406 L 24.472656 20.441406 L 24.472656 24.558594 L 6.238281 24.558594 Z M 6.238281 20.441406 " fill-opacity="1" fill-rule="nonzero"/></g><g clip-path="url(#d654365e44)"><path fill="#ffffff" d="M 35.589844 20.441406 L 73.992188 20.441406 L 73.992188 24.558594 L 35.589844 24.558594 Z M 35.589844 20.441406 " fill-opacity="1" fill-rule="nonzero"/></g><g clip-path="url(#c6a1a6409a)"><path fill="#ffffff" d="M 130.089844 20.441406 L 168.492188 20.441406 L 168.492188 24.558594 L 130.089844 24.558594 Z M 130.089844 20.441406 " fill-opacity="1" fill-rule="nonzero"/></g></svg>