<svg xmlns="http://www.w3.org/2000/svg" xmlns:xlink="http://www.w3.org/1999/xlink" width="234" zoomAndPan="magnify" viewBox="0 0 175.5 44.999999" height="60" preserveAspectRatio="xMidYMid meet" version="1.0"><defs><clipPath id="c9e724fd49"><path d="M 1.558594 15.839844 L 173.441406 15.839844 L 173.441406 29.160156 L 1.558594 29.160156 Z M 1.558594 15.839844 " clip-rule="nonzero"/></clipPath><clipPath id="650ba26d72"><path d="M 3.804688 15.839844 L 171.199219 15.839844 C 172.4375 15.839844 173.441406 16.84375 173.441406 18.085938 L 173.441406 26.914062 C 173.441406 28.15625 172.4375 29.160156 171.199219 29.160156 L 3.804688 29.160156 C 2.566406 29.160156 1.558594 28.15625 1.558594 26.914062 L 1.558594 18.085938 C 1.558594 16.84375 2.566406 15.839844 3.804688 15.839844 Z M 3.804688 15.839844 " clip-rule="nonzero"/></clipPath><clipPath id="0876695ace"><path d="M 109.292969 20.441406 L 147.695312 20.441406 L 147.695312 24.558594 L 109.292969 24.558594 Z M 109.292969 20.441406 " clip-rule="nonzero"/></clipPath><clipPath id="38c7d1345f"><path d="M 6.238281 20.441406 L 17.59375 20.441406 L 17.59375 24.558594 L 6.238281 24.558594 Z M 6.238281 20.441406 " clip-rule="nonzero"/></clipPath><clipPath id="6167529983"><path d="M 149.976562 20.441406 L 168.214844 20.441406 L 168.214844 24.558594 L 149.976562 24.558594 Z M 149.976562 20.441406 " clip-rule="nonzero"/></clipPath><clipPath id="1757368d23"><path d="M 19.699219 20.441406 L 31.054688 20.441406 L 31.054688 24.558594 L 19.699219 24.558594 Z M 19.699219 20.441406 " clip-rule="nonzero"/></clipPath><clipPath id="542e4fb46a"><path d="M 33.300781 20.441406 L 44.65625 20.441406 L 44.65625 24.558594 L 33.300781 24.558594 Z M 33.300781 20.441406 " clip-rule="nonzero"/></clipPath></defs><g clip-path="url(#c9e724fd49)"><g clip-path="url(#650ba26d72)"><path fill="#0080ff" d="M 1.558594 15.839844 L 173.441406 15.839844 L 173.441406 29.160156 L 1.558594 29.160156 Z M 1.558594 15.839844 " fill-opacity="1" fill-rule="nonzero"/></g></g><g clip-path="url(#0876695ace)"><path fill="#ffffff" d="M 109.292969 20.441406 L 147.695312 20.441406 L 147.695312 24.558594 L 109.292969 24.558594 Z M 109.292969 20.441406 " fill-opacity="1" fill-rule="nonzero"/></g><g clip-path="url(#38c7d1345f)"><path fill="#ffffff" d="M 6.238281 20.441406 L 17.59375 20.441406 L 17.59375 24.558594 L 6.238281 24.558594 Z M 6.238281 20.441406 " fill-opacity="1" fill-rule="nonzero"/></g><g clip-path="url(#6167529983)"><path fill="#ffffff" d="M 149.976562 20.441406 L 168.214844 20.441406 L 168.214844 24.558594 L 149.976562 24.558594 Z M 149.976562 20.441406 " fill-opacity="1" fill-rule="nonzero"/></g><g clip-path="url(#1757368d23)"><path fill="#ffffff" d="M 19.699219 20.441406 L 31.054688 20.441406 L 31.054688 24.558594 L 19.699219 24.558594 Z M 19.699219 20.441406 " fill-opacity="1" fill-rule="nonzero"/></g><g clip-path="url(#542e4fb46a)"><path fill="#ffffff" d="M 33.300781 20.441406 L 44.65625 20.441406 L 44.65625 24.558594 L 33.300781 24.558594 Z M 33.300781 20.441406 " fill-opacity="1" fill-rule="nonzero"/></g></svg>