<svg xmlns="http://www.w3.org/2000/svg" xmlns:xlink="http://www.w3.org/1999/xlink" width="234" zoomAndPan="magnify" viewBox="0 0 175.5 44.999999" height="60" preserveAspectRatio="xMidYMid meet" version="1.0"><defs><clipPath id="bfb7983f6c"><path d="M 1.558594 15.839844 L 173.441406 15.839844 L 173.441406 29.160156 L 1.558594 29.160156 Z M 1.558594 15.839844 " clip-rule="nonzero"/></clipPath><clipPath id="221485e2d5"><path d="M 3.804688 15.839844 L 171.199219 15.839844 C 172.4375 15.839844 173.441406 16.84375 173.441406 18.085938 L 173.441406 26.914062 C 173.441406 28.15625 172.4375 29.160156 171.199219 29.160156 L 3.804688 29.160156 C 2.566406 29.160156 1.558594 28.15625 1.558594 26.914062 L 1.558594 18.085938 C 1.558594 16.84375 2.566406 15.839844 3.804688 15.839844 Z M 3.804688 15.839844 " clip-rule="nonzero"/></clipPath><clipPath id="1f12ba6034"><path d="M 108.5 20.441406 L 168.484375 20.441406 L 168.484375 24.558594 L 108.5 24.558594 Z M 108.5 20.441406 " clip-rule="nonzero"/></clipPath><clipPath id="1f25839a03"><path d="M 26.363281 20.441406 L 64.765625 20.441406 L 64.765625 24.558594 L 26.363281 24.558594 Z M 26.363281 20.441406 " clip-rule="nonzero"/></clipPath><clipPath id="3058aba644"><path d="M 6.132812 20.441406 L 24.371094 20.441406 L 24.371094 24.558594 L 6.132812 24.558594 Z M 6.132812 20.441406 " clip-rule="nonzero"/></clipPath></defs><g clip-path="url(#bfb7983f6c)"><g clip-path="url(#221485e2d5)"><path fill="#0080ff" d="M 1.558594 15.839844 L 173.441406 15.839844 L 173.441406 29.160156 L 1.558594 29.160156 Z M 1.558594 15.839844 " fill-opacity="1" fill-rule="nonzero"/></g></g><g clip-path="url(#1f12ba6034)"><path fill="#ffffff" d="M 108.5 20.441406 L 168.484375 20.441406 L 168.484375 24.558594 L 108.5 24.558594 Z M 108.5 20.441406 " fill-opacity="1" fill-rule="nonzero"/></g><g clip-path="url(#1f25839a03)"><path fill="#ffffff" d="M 26.363281 20.441406 L 64.765625 20.441406 L 64.765625 24.558594 L 26.363281 24.558594 Z M 26.363281 20.441406 " fill-opacity="1" fill-rule="nonzero"/></g><g clip-path="url(#3058aba644)"><path fill="#ffffff" d="M 6.132812 20.441406 L 24.371094 20.441406 L 24.371094 24.558594 L 6.132812 24.558594 Z M 6.132812 20.441406 " fill-opacity="1" fill-rule="nonzero"/></g></svg>