<svg xmlns="http://www.w3.org/2000/svg" xmlns:xlink="http://www.w3.org/1999/xlink" width="82" zoomAndPan="magnify" viewBox="0 0 61.5 44.999999" height="60" preserveAspectRatio="xMidYMid meet" version="1.0"><defs><clipPath id="e225b4258c"><path d="M 2.355469 9.964844 L 12.773438 9.964844 L 12.773438 18.894531 L 2.355469 18.894531 Z M 2.355469 9.964844 " clip-rule="nonzero"/></clipPath><clipPath id="335150ddd0"><path d="M 2.355469 13 L 12.773438 13 L 12.773438 18.894531 L 2.355469 18.894531 Z M 2.355469 13 " clip-rule="nonzero"/></clipPath><clipPath id="77aabf1f85"><path d="M 0 0.179688 L 19 0.179688 L 19 19 L 0 19 Z M 0 0.179688 " clip-rule="nonzero"/></clipPath><clipPath id="c67e4fb1f5"><path d="M -20.503906 0.5 L 0.0742188 -20.082031 L 18.058594 -2.101562 L -2.523438 18.480469 Z M -20.503906 0.5 " clip-rule="nonzero"/></clipPath><clipPath id="040fb58d8d"><path d="M -10.230469 -9.777344 L 18.027344 -2.070312 L -2.523438 18.480469 Z M -10.230469 -9.777344 " clip-rule="nonzero"/></clipPath><clipPath id="7867fca635"><path d="M 1.320312 1.648438 L 7.617188 1.648438 L 7.617188 7.640625 L 1.320312 7.640625 Z M 1.320312 1.648438 " clip-rule="nonzero"/></clipPath><clipPath id="833ce1c01d"><path d="M 4.464844 1.648438 L 5.207031 3.9375 L 7.605469 3.9375 L 5.664062 5.351562 L 6.40625 7.640625 L 4.464844 6.226562 L 2.519531 7.640625 L 3.261719 5.351562 L 1.320312 3.9375 L 3.722656 3.9375 Z M 4.464844 1.648438 " clip-rule="nonzero"/></clipPath><clipPath id="6b2c5bb9e1"><path d="M 8 0.179688 L 34 0.179688 L 34 18 L 8 18 Z M 8 0.179688 " clip-rule="nonzero"/></clipPath><clipPath id="d2952fe988"><path d="M 48.175781 9.964844 L 58.589844 9.964844 L 58.589844 18.894531 L 48.175781 18.894531 Z M 48.175781 9.964844 " clip-rule="nonzero"/></clipPath><clipPath id="b850afeaf7"><path d="M 48.175781 13 L 58.589844 13 L 58.589844 18.894531 L 48.175781 18.894531 Z M 48.175781 13 " clip-rule="nonzero"/></clipPath><clipPath id="a797ddd182"><path d="M 2.367188 23.988281 L 58.632812 23.988281 L 58.632812 36.371094 L 2.367188 36.371094 Z M 2.367188 23.988281 " clip-rule="nonzero"/></clipPath><clipPath id="7d615bf1ba"><path d="M 25.265625 25.585938 L 35.679688 25.585938 L 35.679688 34.515625 L 25.265625 34.515625 Z M 25.265625 25.585938 " clip-rule="nonzero"/></clipPath><clipPath id="23f141f2b5"><path d="M 25.265625 28 L 35.679688 28 L 35.679688 34.515625 L 25.265625 34.515625 Z M 25.265625 28 " clip-rule="nonzero"/></clipPath></defs><g clip-path="url(#e225b4258c)"><path fill="#ffffff" d="M 3.402344 9.964844 L 11.773438 9.964844 C 11.910156 9.964844 12.046875 9.992188 12.171875 10.046875 C 12.300781 10.097656 12.414062 10.175781 12.511719 10.273438 C 12.609375 10.371094 12.6875 10.484375 12.738281 10.613281 C 12.792969 10.742188 12.820312 10.875 12.820312 11.011719 L 12.820312 17.988281 C 12.820312 18.125 12.792969 18.257812 12.738281 18.386719 C 12.6875 18.515625 12.609375 18.628906 12.511719 18.726562 C 12.414062 18.824219 12.300781 18.902344 12.171875 18.953125 C 12.046875 19.007812 11.910156 19.035156 11.773438 19.035156 L 3.402344 19.035156 C 3.265625 19.035156 3.132812 19.007812 3.003906 18.953125 C 2.875 18.902344 2.761719 18.824219 2.664062 18.726562 C 2.566406 18.628906 2.488281 18.515625 2.4375 18.386719 C 2.382812 18.257812 2.355469 18.125 2.355469 17.988281 L 2.355469 11.011719 C 2.355469 10.875 2.382812 10.742188 2.4375 10.613281 C 2.488281 10.484375 2.566406 10.371094 2.664062 10.273438 C 2.761719 10.175781 2.875 10.097656 3.003906 10.046875 C 3.132812 9.992188 3.265625 9.964844 3.402344 9.964844 Z M 3.402344 9.964844 " fill-opacity="1" fill-rule="nonzero"/></g><g clip-path="url(#335150ddd0)"><path fill="#00a09d" d="M 12.71875 15.648438 L 10.277344 13.207031 C 10.207031 13.140625 10.125 13.105469 10.03125 13.105469 C 9.933594 13.105469 9.851562 13.140625 9.78125 13.207031 L 8.285156 14.703125 L 7.3125 13.730469 C 7.242188 13.664062 7.160156 13.628906 7.066406 13.628906 C 6.96875 13.628906 6.886719 13.664062 6.820312 13.730469 L 4.652344 15.894531 L 2.707031 15.894531 C 2.609375 15.894531 2.527344 15.929688 2.460938 15.996094 C 2.390625 16.066406 2.355469 16.148438 2.355469 16.242188 L 2.355469 17.988281 C 2.355469 18.125 2.382812 18.257812 2.4375 18.386719 C 2.488281 18.515625 2.566406 18.628906 2.664062 18.726562 C 2.761719 18.824219 2.875 18.902344 3.003906 18.953125 C 3.132812 19.007812 3.265625 19.035156 3.402344 19.035156 L 11.773438 19.035156 C 11.910156 19.035156 12.046875 19.007812 12.171875 18.953125 C 12.300781 18.902344 12.414062 18.824219 12.511719 18.726562 C 12.609375 18.628906 12.6875 18.515625 12.738281 18.386719 C 12.792969 18.257812 12.820312 18.125 12.820312 17.988281 L 12.820312 15.894531 C 12.820312 15.796875 12.785156 15.714844 12.71875 15.648438 Z M 12.71875 15.648438 " fill-opacity="1" fill-rule="nonzero"/></g><path fill="#ffbd59" d="M 5.84375 12.40625 C 5.84375 12.546875 5.816406 12.679688 5.765625 12.808594 C 5.710938 12.9375 5.636719 13.050781 5.539062 13.148438 C 5.441406 13.246094 5.328125 13.320312 5.199219 13.375 C 5.070312 13.425781 4.9375 13.453125 4.796875 13.453125 C 4.660156 13.453125 4.527344 13.425781 4.398438 13.375 C 4.269531 13.320312 4.15625 13.246094 4.058594 13.148438 C 3.960938 13.050781 3.886719 12.9375 3.832031 12.808594 C 3.777344 12.679688 3.753906 12.546875 3.753906 12.40625 C 3.753906 12.269531 3.777344 12.136719 3.832031 12.007812 C 3.886719 11.878906 3.960938 11.765625 4.058594 11.667969 C 4.15625 11.570312 4.269531 11.492188 4.398438 11.441406 C 4.527344 11.386719 4.660156 11.363281 4.796875 11.363281 C 4.9375 11.363281 5.070312 11.386719 5.199219 11.441406 C 5.328125 11.492188 5.441406 11.570312 5.539062 11.667969 C 5.636719 11.765625 5.710938 11.878906 5.765625 12.007812 C 5.816406 12.136719 5.84375 12.269531 5.84375 12.40625 Z M 5.84375 12.40625 " fill-opacity="1" fill-rule="nonzero"/><g clip-path="url(#77aabf1f85)"><g clip-path="url(#c67e4fb1f5)"><g clip-path="url(#040fb58d8d)"><path fill="#ff914d" d="M -20.503906 0.5 L 0.0742188 -20.082031 L 18.058594 -2.101562 L -2.523438 18.480469 Z M -20.503906 0.5 " fill-opacity="1" fill-rule="nonzero"/></g></g></g><g clip-path="url(#7867fca635)"><g clip-path="url(#833ce1c01d)"><path fill="#ffffff" d="M 1.320312 1.648438 L 7.617188 1.648438 L 7.617188 7.640625 L 1.320312 7.640625 Z M 1.320312 1.648438 " fill-opacity="1" fill-rule="nonzero"/></g></g><g clip-path="url(#6b2c5bb9e1)"><path stroke-linecap="butt" transform="matrix(0.743924, -0.00635833, 0.00635833, 0.743924, 17.293783, 8.693165)" fill="none" stroke-linejoin="miter" d="M 0.000855408 1.000559 L 10.670606 1.002488 " stroke="#00a09d" stroke-width="2" stroke-opacity="1" stroke-miterlimit="4"/></g><path stroke-linecap="butt" transform="matrix(0.743952, 0, 0, 0.743952, 17.356736, 12.045328)" fill="none" stroke-linejoin="miter" d="M -0.00170287 0.500893 L 14.500669 0.500893 " stroke="#d8d8d8" stroke-width="1" stroke-opacity="1" stroke-miterlimit="4"/><path stroke-linecap="butt" transform="matrix(0.743952, 0, 0, 0.743952, 17.356736, 13.537002)" fill="none" stroke-linejoin="miter" d="M -0.00170287 0.501584 L 14.500669 0.501584 " stroke="#d8d8d8" stroke-width="1" stroke-opacity="1" stroke-miterlimit="4"/><path stroke-linecap="butt" transform="matrix(0.743952, 0, 0, 0.743952, 17.30014, 15.028683)" fill="none" stroke-linejoin="miter" d="M 0.000861886 0.502264 L 14.497983 0.502264 " stroke="#d8d8d8" stroke-width="1" stroke-opacity="1" stroke-miterlimit="4"/><path stroke-linecap="butt" transform="matrix(0.743952, 0, 0, 0.743952, 17.413329, 16.327525)" fill="none" stroke-linejoin="miter" d="M 0.000985621 0.49962 L 14.498107 0.49962 " stroke="#d8d8d8" stroke-width="1" stroke-opacity="1" stroke-miterlimit="4"/><path stroke-linecap="butt" transform="matrix(0.743952, 0, 0, 0.743952, 17.413329, 17.819206)" fill="none" stroke-linejoin="miter" d="M 0.000985621 0.500301 L 14.498107 0.500301 " stroke="#d8d8d8" stroke-width="1" stroke-opacity="1" stroke-miterlimit="4"/><path stroke-linecap="butt" transform="matrix(0.743952, 0, 0, 0.743952, 17.356736, 19.310887)" fill="none" stroke-linejoin="miter" d="M -0.00170287 0.500982 L 14.500669 0.500982 " stroke="#d8d8d8" stroke-width="1" stroke-opacity="1" stroke-miterlimit="4"/><path stroke-linecap="butt" transform="matrix(0.743924, -0.00635833, 0.00635833, 0.743924, 32.804556, 9.017874)" fill="none" stroke-linejoin="miter" d="M 0.00213232 0.999911 L 10.671883 1.001841 " stroke="#00a09d" stroke-width="2" stroke-opacity="1" stroke-miterlimit="4"/><path stroke-linecap="butt" transform="matrix(0.743952, 0, 0, 0.743952, 32.867505, 12.370037)" fill="none" stroke-linejoin="miter" d="M -0.000426417 0.500235 L 14.496695 0.500235 " stroke="#d8d8d8" stroke-width="1" stroke-opacity="1" stroke-miterlimit="4"/><path stroke-linecap="butt" transform="matrix(0.743952, 0, 0, 0.743952, 32.867505, 13.861718)" fill="none" stroke-linejoin="miter" d="M -0.000426417 0.500915 L 14.496695 0.500915 " stroke="#d8d8d8" stroke-width="1" stroke-opacity="1" stroke-miterlimit="4"/><path stroke-linecap="butt" transform="matrix(0.743952, 0, 0, 0.743952, 32.810913, 15.353392)" fill="none" stroke-linejoin="miter" d="M 0.00213321 0.501606 L 14.499254 0.501606 " stroke="#d8d8d8" stroke-width="1" stroke-opacity="1" stroke-miterlimit="4"/><path stroke-linecap="butt" transform="matrix(0.743952, 0, 0, 0.743952, 32.9241, 16.652248)" fill="none" stroke-linejoin="miter" d="M 0.00225951 0.498942 L 14.499381 0.498942 " stroke="#d8d8d8" stroke-width="1" stroke-opacity="1" stroke-miterlimit="4"/><path stroke-linecap="butt" transform="matrix(0.743952, 0, 0, 0.743952, 32.9241, 18.143915)" fill="none" stroke-linejoin="miter" d="M 0.00225951 0.499643 L 14.499381 0.499643 " stroke="#d8d8d8" stroke-width="1" stroke-opacity="1" stroke-miterlimit="4"/><path stroke-linecap="butt" transform="matrix(0.743952, 0, 0, 0.743952, 32.867505, 19.635596)" fill="none" stroke-linejoin="miter" d="M -0.000426417 0.500323 L 14.496695 0.500323 " stroke="#d8d8d8" stroke-width="1" stroke-opacity="1" stroke-miterlimit="4"/><g clip-path="url(#d2952fe988)"><path fill="#ffffff" d="M 49.21875 9.964844 L 57.589844 9.964844 C 57.726562 9.964844 57.863281 9.992188 57.988281 10.046875 C 58.117188 10.097656 58.230469 10.175781 58.328125 10.273438 C 58.425781 10.371094 58.503906 10.484375 58.554688 10.613281 C 58.609375 10.742188 58.636719 10.875 58.636719 11.011719 L 58.636719 17.988281 C 58.636719 18.125 58.609375 18.257812 58.554688 18.386719 C 58.503906 18.515625 58.425781 18.628906 58.328125 18.726562 C 58.230469 18.824219 58.117188 18.902344 57.988281 18.953125 C 57.863281 19.007812 57.726562 19.035156 57.589844 19.035156 L 49.21875 19.035156 C 49.082031 19.035156 48.949219 19.007812 48.820312 18.953125 C 48.691406 18.902344 48.578125 18.824219 48.480469 18.726562 C 48.382812 18.628906 48.308594 18.515625 48.253906 18.386719 C 48.199219 18.257812 48.175781 18.125 48.175781 17.988281 L 48.175781 11.011719 C 48.175781 10.875 48.199219 10.742188 48.253906 10.613281 C 48.308594 10.484375 48.382812 10.371094 48.480469 10.273438 C 48.578125 10.175781 48.691406 10.097656 48.820312 10.046875 C 48.949219 9.992188 49.082031 9.964844 49.21875 9.964844 Z M 49.21875 9.964844 " fill-opacity="1" fill-rule="nonzero"/></g><g clip-path="url(#b850afeaf7)"><path fill="#00a09d" d="M 58.535156 15.648438 L 56.09375 13.207031 C 56.023438 13.140625 55.941406 13.105469 55.847656 13.105469 C 55.75 13.105469 55.667969 13.140625 55.597656 13.207031 L 54.101562 14.703125 L 53.128906 13.730469 C 53.058594 13.664062 52.976562 13.628906 52.882812 13.628906 C 52.785156 13.628906 52.703125 13.664062 52.636719 13.730469 L 50.46875 15.894531 L 48.523438 15.894531 C 48.425781 15.894531 48.34375 15.929688 48.277344 15.996094 C 48.207031 16.066406 48.175781 16.148438 48.175781 16.242188 L 48.175781 17.988281 C 48.175781 18.125 48.199219 18.257812 48.253906 18.386719 C 48.308594 18.515625 48.382812 18.628906 48.480469 18.726562 C 48.578125 18.824219 48.691406 18.902344 48.820312 18.953125 C 48.949219 19.007812 49.082031 19.035156 49.21875 19.035156 L 57.589844 19.035156 C 57.726562 19.035156 57.863281 19.007812 57.988281 18.953125 C 58.117188 18.902344 58.230469 18.824219 58.328125 18.726562 C 58.425781 18.628906 58.503906 18.515625 58.554688 18.386719 C 58.609375 18.257812 58.636719 18.125 58.636719 17.988281 L 58.636719 15.894531 C 58.636719 15.796875 58.601562 15.714844 58.535156 15.648438 Z M 58.535156 15.648438 " fill-opacity="1" fill-rule="nonzero"/></g><path fill="#ffbd59" d="M 51.660156 12.40625 C 51.660156 12.546875 51.632812 12.679688 51.582031 12.808594 C 51.527344 12.9375 51.453125 13.050781 51.355469 13.148438 C 51.257812 13.246094 51.144531 13.320312 51.015625 13.375 C 50.886719 13.425781 50.753906 13.453125 50.613281 13.453125 C 50.476562 13.453125 50.34375 13.425781 50.214844 13.375 C 50.085938 13.320312 49.972656 13.246094 49.875 13.148438 C 49.777344 13.050781 49.703125 12.9375 49.648438 12.808594 C 49.59375 12.679688 49.570312 12.546875 49.570312 12.40625 C 49.570312 12.269531 49.59375 12.136719 49.648438 12.007812 C 49.703125 11.878906 49.777344 11.765625 49.875 11.667969 C 49.972656 11.570312 50.085938 11.492188 50.214844 11.441406 C 50.34375 11.386719 50.476562 11.363281 50.613281 11.363281 C 50.753906 11.363281 50.886719 11.386719 51.015625 11.441406 C 51.144531 11.492188 51.257812 11.570312 51.355469 11.667969 C 51.453125 11.765625 51.527344 11.878906 51.582031 12.007812 C 51.632812 12.136719 51.660156 12.269531 51.660156 12.40625 Z M 51.660156 12.40625 " fill-opacity="1" fill-rule="nonzero"/><g clip-path="url(#a797ddd182)"><path stroke-linecap="butt" transform="matrix(0.743952, 0, 0, 0.743952, 2.366327, 23.989878)" fill="none" stroke-linejoin="miter" d="M 0.00115662 -0.00214618 L 75.631919 -0.00214618 L 75.631919 16.642502 L 0.00115662 16.642502 Z M 0.00115662 -0.00214618 " stroke="#00a09d" stroke-width="2" stroke-opacity="1" stroke-miterlimit="4"/></g><g clip-path="url(#7d615bf1ba)"><path fill="#ffffff" d="M 26.3125 25.585938 L 34.679688 25.585938 C 34.820312 25.585938 34.953125 25.613281 35.082031 25.667969 C 35.210938 25.71875 35.324219 25.796875 35.421875 25.894531 C 35.519531 25.992188 35.59375 26.105469 35.648438 26.234375 C 35.699219 26.359375 35.726562 26.496094 35.726562 26.632812 L 35.726562 33.609375 C 35.726562 33.746094 35.699219 33.878906 35.648438 34.007812 C 35.59375 34.136719 35.519531 34.25 35.421875 34.347656 C 35.324219 34.445312 35.210938 34.519531 35.082031 34.574219 C 34.953125 34.628906 34.820312 34.652344 34.679688 34.652344 L 26.3125 34.652344 C 26.171875 34.652344 26.039062 34.628906 25.910156 34.574219 C 25.785156 34.519531 25.671875 34.445312 25.570312 34.347656 C 25.472656 34.25 25.398438 34.136719 25.34375 34.007812 C 25.292969 33.878906 25.265625 33.746094 25.265625 33.609375 L 25.265625 26.632812 C 25.265625 26.496094 25.292969 26.359375 25.34375 26.234375 C 25.398438 26.105469 25.472656 25.992188 25.570312 25.894531 C 25.671875 25.796875 25.785156 25.71875 25.910156 25.667969 C 26.039062 25.613281 26.171875 25.585938 26.3125 25.585938 Z M 26.3125 25.585938 " fill-opacity="1" fill-rule="nonzero"/></g><g clip-path="url(#23f141f2b5)"><path fill="#00a09d" d="M 35.625 31.269531 L 33.183594 28.828125 C 33.117188 28.761719 33.035156 28.726562 32.9375 28.726562 C 32.839844 28.726562 32.757812 28.761719 32.691406 28.828125 L 31.195312 30.324219 L 30.21875 29.351562 C 30.152344 29.28125 30.070312 29.25 29.972656 29.25 C 29.878906 29.25 29.796875 29.28125 29.726562 29.351562 L 27.5625 31.515625 L 25.613281 31.515625 C 25.519531 31.515625 25.4375 31.550781 25.367188 31.617188 C 25.300781 31.6875 25.265625 31.769531 25.265625 31.863281 L 25.265625 33.609375 C 25.265625 33.746094 25.292969 33.878906 25.34375 34.007812 C 25.398438 34.136719 25.472656 34.25 25.570312 34.347656 C 25.671875 34.445312 25.785156 34.519531 25.910156 34.574219 C 26.039062 34.628906 26.171875 34.652344 26.3125 34.652344 L 34.679688 34.652344 C 34.820312 34.652344 34.953125 34.628906 35.082031 34.574219 C 35.210938 34.519531 35.324219 34.445312 35.421875 34.347656 C 35.519531 34.25 35.59375 34.136719 35.648438 34.007812 C 35.699219 33.878906 35.726562 33.746094 35.726562 33.609375 L 35.726562 31.515625 C 35.726562 31.417969 35.695312 31.335938 35.625 31.269531 Z M 35.625 31.269531 " fill-opacity="1" fill-rule="nonzero"/></g><path fill="#ffbd59" d="M 28.753906 28.027344 C 28.753906 28.167969 28.726562 28.300781 28.671875 28.429688 C 28.621094 28.558594 28.542969 28.671875 28.445312 28.769531 C 28.347656 28.867188 28.234375 28.941406 28.105469 28.996094 C 27.980469 29.046875 27.84375 29.074219 27.707031 29.074219 C 27.566406 29.074219 27.433594 29.046875 27.304688 28.996094 C 27.179688 28.941406 27.066406 28.867188 26.96875 28.769531 C 26.867188 28.671875 26.792969 28.558594 26.738281 28.429688 C 26.6875 28.300781 26.660156 28.167969 26.660156 28.027344 C 26.660156 27.890625 26.6875 27.757812 26.738281 27.628906 C 26.792969 27.5 26.867188 27.386719 26.96875 27.289062 C 27.066406 27.191406 27.179688 27.113281 27.304688 27.0625 C 27.433594 27.007812 27.566406 26.980469 27.707031 26.980469 C 27.84375 26.980469 27.980469 27.007812 28.105469 27.0625 C 28.234375 27.113281 28.347656 27.191406 28.445312 27.289062 C 28.542969 27.386719 28.621094 27.5 28.671875 27.628906 C 28.726562 27.757812 28.753906 27.890625 28.753906 28.027344 Z M 28.753906 28.027344 " fill-opacity="1" fill-rule="nonzero"/></svg>