<svg xmlns="http://www.w3.org/2000/svg" xmlns:xlink="http://www.w3.org/1999/xlink" width="82" zoomAndPan="magnify" viewBox="0 0 61.5 44.999999" height="60" preserveAspectRatio="xMidYMid meet" version="1.0"><defs><clipPath id="c1dcde1a49"><path d="M 0 0.179688 L 19 0.179688 L 19 19 L 0 19 Z M 0 0.179688 " clip-rule="nonzero"/></clipPath><clipPath id="ddbd8c53be"><path d="M -20.503906 0.5 L 0.0742188 -20.082031 L 18.058594 -2.101562 L -2.523438 18.480469 Z M -20.503906 0.5 " clip-rule="nonzero"/></clipPath><clipPath id="e591cdf843"><path d="M -10.230469 -9.777344 L 18.027344 -2.070312 L -2.523438 18.480469 Z M -10.230469 -9.777344 " clip-rule="nonzero"/></clipPath><clipPath id="2b85a4a60f"><path d="M 1.320312 1.648438 L 7.617188 1.648438 L 7.617188 7.640625 L 1.320312 7.640625 Z M 1.320312 1.648438 " clip-rule="nonzero"/></clipPath><clipPath id="dabfe951db"><path d="M 4.464844 1.648438 L 5.207031 3.9375 L 7.605469 3.9375 L 5.664062 5.351562 L 6.40625 7.640625 L 4.464844 6.226562 L 2.519531 7.640625 L 3.261719 5.351562 L 1.320312 3.9375 L 3.722656 3.9375 Z M 4.464844 1.648438 " clip-rule="nonzero"/></clipPath><clipPath id="260ac2d86e"><path d="M 7.355469 9.082031 L 17.769531 9.082031 L 17.769531 18.007812 L 7.355469 18.007812 Z M 7.355469 9.082031 " clip-rule="nonzero"/></clipPath><clipPath id="da94710596"><path d="M 7.355469 12 L 17.769531 12 L 17.769531 18.007812 L 7.355469 18.007812 Z M 7.355469 12 " clip-rule="nonzero"/></clipPath><clipPath id="7c38b380c7"><path d="M 25.265625 9.527344 L 35.679688 9.527344 L 35.679688 18.453125 L 25.265625 18.453125 Z M 25.265625 9.527344 " clip-rule="nonzero"/></clipPath><clipPath id="61773d899a"><path d="M 25.265625 12 L 35.679688 12 L 35.679688 18.453125 L 25.265625 18.453125 Z M 25.265625 12 " clip-rule="nonzero"/></clipPath><clipPath id="6cc9f50872"><path d="M 43.179688 9.082031 L 53.59375 9.082031 L 53.59375 18.007812 L 43.179688 18.007812 Z M 43.179688 9.082031 " clip-rule="nonzero"/></clipPath><clipPath id="8adc418c59"><path d="M 43.179688 12 L 53.59375 12 L 53.59375 18.007812 L 43.179688 18.007812 Z M 43.179688 12 " clip-rule="nonzero"/></clipPath></defs><g clip-path="url(#c1dcde1a49)"><g clip-path="url(#ddbd8c53be)"><g clip-path="url(#e591cdf843)"><path fill="#ff914d" d="M -20.503906 0.5 L 0.0742188 -20.082031 L 18.058594 -2.101562 L -2.523438 18.480469 Z M -20.503906 0.5 " fill-opacity="1" fill-rule="nonzero"/></g></g></g><g clip-path="url(#2b85a4a60f)"><g clip-path="url(#dabfe951db)"><path fill="#ffffff" d="M 1.320312 1.648438 L 7.617188 1.648438 L 7.617188 7.640625 L 1.320312 7.640625 Z M 1.320312 1.648438 " fill-opacity="1" fill-rule="nonzero"/></g></g><path stroke-linecap="butt" transform="matrix(0.743924, -0.00635833, 0.00635833, 0.743924, 24.255927, 22.694196)" fill="none" stroke-linejoin="miter" d="M -0.000754905 0.999159 L 12.223274 0.998621 " stroke="#00a09d" stroke-width="2" stroke-opacity="1" stroke-miterlimit="4"/><path stroke-linecap="butt" transform="matrix(0.743952, 0, 0, 0.743952, 24.327119, 26.480118)" fill="none" stroke-linejoin="miter" d="M 0.00135271 0.499286 L 16.609246 0.499286 " stroke="#d8d8d8" stroke-width="1" stroke-opacity="1" stroke-miterlimit="4"/><path stroke-linecap="butt" transform="matrix(0.743952, 0, 0, 0.743952, 24.327119, 28.188918)" fill="none" stroke-linejoin="miter" d="M 0.00135271 0.502159 L 16.609246 0.502159 " stroke="#d8d8d8" stroke-width="1" stroke-opacity="1" stroke-miterlimit="4"/><path stroke-linecap="butt" transform="matrix(0.743952, 0, 0, 0.743952, 24.262288, 29.897718)" fill="none" stroke-linejoin="miter" d="M -0.000765127 0.499782 L 16.607129 0.499782 " stroke="#d8d8d8" stroke-width="1" stroke-opacity="1" stroke-miterlimit="4"/><path stroke-linecap="butt" transform="matrix(0.743952, 0, 0, 0.743952, 24.391951, 31.385621)" fill="none" stroke-linejoin="miter" d="M -0.00178236 0.50029 L 16.611362 0.50029 " stroke="#d8d8d8" stroke-width="1" stroke-opacity="1" stroke-miterlimit="4"/><path stroke-linecap="butt" transform="matrix(0.743952, 0, 0, 0.743952, 24.391951, 33.094421)" fill="none" stroke-linejoin="miter" d="M -0.00178236 0.497912 L 16.611362 0.497912 " stroke="#d8d8d8" stroke-width="1" stroke-opacity="1" stroke-miterlimit="4"/><path stroke-linecap="butt" transform="matrix(0.743952, 0, 0, 0.743952, 24.327119, 34.803229)" fill="none" stroke-linejoin="miter" d="M 0.00135271 0.500775 L 16.609246 0.500775 " stroke="#d8d8d8" stroke-width="1" stroke-opacity="1" stroke-miterlimit="4"/><path stroke-linecap="butt" transform="matrix(0.743924, -0.00635833, 0.00635833, 0.743924, 42.024408, 23.066172)" fill="none" stroke-linejoin="miter" d="M 0.00066687 0.997986 L 12.224696 0.997447 " stroke="#00a09d" stroke-width="2" stroke-opacity="1" stroke-miterlimit="4"/><path stroke-linecap="butt" transform="matrix(0.743952, 0, 0, 0.743952, 42.095597, 26.852093)" fill="none" stroke-linejoin="miter" d="M -0.00248243 0.498101 L 16.610662 0.498101 " stroke="#d8d8d8" stroke-width="1" stroke-opacity="1" stroke-miterlimit="4"/><path stroke-linecap="butt" transform="matrix(0.743952, 0, 0, 0.743952, 42.095597, 28.560894)" fill="none" stroke-linejoin="miter" d="M -0.00248243 0.500974 L 16.610662 0.500974 " stroke="#d8d8d8" stroke-width="1" stroke-opacity="1" stroke-miterlimit="4"/><path stroke-linecap="butt" transform="matrix(0.743952, 0, 0, 0.743952, 42.030765, 30.269694)" fill="none" stroke-linejoin="miter" d="M 0.000652327 0.498596 L 16.608546 0.498596 " stroke="#d8d8d8" stroke-width="1" stroke-opacity="1" stroke-miterlimit="4"/><path stroke-linecap="butt" transform="matrix(0.743952, 0, 0, 0.743952, 42.160429, 31.757597)" fill="none" stroke-linejoin="miter" d="M -0.000366508 0.499104 L 16.607527 0.499104 " stroke="#d8d8d8" stroke-width="1" stroke-opacity="1" stroke-miterlimit="4"/><path stroke-linecap="butt" transform="matrix(0.743952, 0, 0, 0.743952, 42.160429, 33.466397)" fill="none" stroke-linejoin="miter" d="M -0.000366508 0.501977 L 16.607527 0.501977 " stroke="#d8d8d8" stroke-width="1" stroke-opacity="1" stroke-miterlimit="4"/><path stroke-linecap="butt" transform="matrix(0.743952, 0, 0, 0.743952, 42.095597, 35.175204)" fill="none" stroke-linejoin="miter" d="M -0.00248243 0.49959 L 16.610662 0.49959 " stroke="#d8d8d8" stroke-width="1" stroke-opacity="1" stroke-miterlimit="4"/><path stroke-linecap="butt" transform="matrix(0.743924, -0.00635833, 0.00635833, 0.743924, 6.487449, 22.694196)" fill="none" stroke-linejoin="miter" d="M -0.00217007 0.999147 L 12.221859 0.998609 " stroke="#00a09d" stroke-width="2" stroke-opacity="1" stroke-miterlimit="4"/><path stroke-linecap="butt" transform="matrix(0.743952, 0, 0, 0.743952, 6.55864, 26.480118)" fill="none" stroke-linejoin="miter" d="M -0.0000618588 0.499286 L 16.607832 0.499286 " stroke="#d8d8d8" stroke-width="1" stroke-opacity="1" stroke-miterlimit="4"/><path stroke-linecap="butt" transform="matrix(0.743952, 0, 0, 0.743952, 6.55864, 28.188918)" fill="none" stroke-linejoin="miter" d="M -0.0000618588 0.502159 L 16.607832 0.502159 " stroke="#d8d8d8" stroke-width="1" stroke-opacity="1" stroke-miterlimit="4"/><path stroke-linecap="butt" transform="matrix(0.743952, 0, 0, 0.743952, 6.493807, 29.897718)" fill="none" stroke-linejoin="miter" d="M -0.00217746 0.499782 L 16.610967 0.499782 " stroke="#d8d8d8" stroke-width="1" stroke-opacity="1" stroke-miterlimit="4"/><path stroke-linecap="butt" transform="matrix(0.743952, 0, 0, 0.743952, 6.623472, 31.385621)" fill="none" stroke-linejoin="miter" d="M 0.00205438 0.50029 L 16.609948 0.50029 " stroke="#d8d8d8" stroke-width="1" stroke-opacity="1" stroke-miterlimit="4"/><path stroke-linecap="butt" transform="matrix(0.743952, 0, 0, 0.743952, 6.623472, 33.094421)" fill="none" stroke-linejoin="miter" d="M 0.00205438 0.497912 L 16.609948 0.497912 " stroke="#d8d8d8" stroke-width="1" stroke-opacity="1" stroke-miterlimit="4"/><path stroke-linecap="butt" transform="matrix(0.743952, 0, 0, 0.743952, 6.55864, 34.803229)" fill="none" stroke-linejoin="miter" d="M -0.0000618588 0.500775 L 16.607832 0.500775 " stroke="#d8d8d8" stroke-width="1" stroke-opacity="1" stroke-miterlimit="4"/><g clip-path="url(#260ac2d86e)"><path fill="#ffffff" d="M 8.398438 9.082031 L 16.769531 9.082031 C 16.90625 9.082031 17.042969 9.105469 17.167969 9.160156 C 17.296875 9.214844 17.410156 9.289062 17.507812 9.386719 C 17.605469 9.484375 17.683594 9.597656 17.734375 9.726562 C 17.789062 9.855469 17.816406 9.988281 17.816406 10.128906 L 17.816406 17.101562 C 17.816406 17.242188 17.789062 17.375 17.734375 17.5 C 17.683594 17.628906 17.605469 17.742188 17.507812 17.839844 C 17.410156 17.9375 17.296875 18.015625 17.167969 18.066406 C 17.042969 18.121094 16.90625 18.148438 16.769531 18.148438 L 8.398438 18.148438 C 8.261719 18.148438 8.128906 18.121094 8 18.066406 C 7.871094 18.015625 7.757812 17.9375 7.660156 17.839844 C 7.5625 17.742188 7.484375 17.628906 7.433594 17.5 C 7.378906 17.375 7.355469 17.242188 7.355469 17.101562 L 7.355469 10.128906 C 7.355469 9.988281 7.378906 9.855469 7.433594 9.726562 C 7.484375 9.597656 7.5625 9.484375 7.660156 9.386719 C 7.757812 9.289062 7.871094 9.214844 8 9.160156 C 8.128906 9.105469 8.261719 9.082031 8.398438 9.082031 Z M 8.398438 9.082031 " fill-opacity="1" fill-rule="nonzero"/></g><g clip-path="url(#da94710596)"><path fill="#00a09d" d="M 17.714844 14.761719 L 15.273438 12.320312 C 15.203125 12.253906 15.121094 12.21875 15.027344 12.21875 C 14.929688 12.21875 14.847656 12.253906 14.777344 12.320312 L 13.28125 13.820312 L 12.308594 12.84375 C 12.238281 12.777344 12.15625 12.742188 12.0625 12.742188 C 11.964844 12.742188 11.882812 12.777344 11.816406 12.84375 L 9.648438 15.007812 L 7.703125 15.007812 C 7.605469 15.007812 7.523438 15.042969 7.457031 15.113281 C 7.386719 15.179688 7.355469 15.261719 7.355469 15.359375 L 7.355469 17.101562 C 7.355469 17.242188 7.378906 17.375 7.433594 17.5 C 7.484375 17.628906 7.5625 17.742188 7.660156 17.839844 C 7.757812 17.9375 7.871094 18.015625 8 18.066406 C 8.128906 18.121094 8.261719 18.148438 8.398438 18.148438 L 16.769531 18.148438 C 16.90625 18.148438 17.042969 18.121094 17.167969 18.066406 C 17.296875 18.015625 17.410156 17.9375 17.507812 17.839844 C 17.605469 17.742188 17.683594 17.628906 17.734375 17.5 C 17.789062 17.375 17.816406 17.242188 17.816406 17.101562 L 17.816406 15.007812 C 17.816406 14.914062 17.78125 14.832031 17.714844 14.761719 Z M 17.714844 14.761719 " fill-opacity="1" fill-rule="nonzero"/></g><path fill="#ffbd59" d="M 10.839844 11.523438 C 10.839844 11.660156 10.8125 11.792969 10.761719 11.921875 C 10.707031 12.050781 10.632812 12.164062 10.535156 12.261719 C 10.4375 12.359375 10.324219 12.433594 10.195312 12.488281 C 10.066406 12.542969 9.933594 12.566406 9.792969 12.566406 C 9.65625 12.566406 9.523438 12.542969 9.394531 12.488281 C 9.265625 12.433594 9.152344 12.359375 9.054688 12.261719 C 8.957031 12.164062 8.882812 12.050781 8.828125 11.921875 C 8.773438 11.792969 8.75 11.660156 8.75 11.523438 C 8.75 11.382812 8.773438 11.25 8.828125 11.121094 C 8.882812 10.992188 8.957031 10.878906 9.054688 10.78125 C 9.152344 10.683594 9.265625 10.609375 9.394531 10.554688 C 9.523438 10.503906 9.65625 10.476562 9.792969 10.476562 C 9.933594 10.476562 10.066406 10.503906 10.195312 10.554688 C 10.324219 10.609375 10.4375 10.683594 10.535156 10.78125 C 10.632812 10.878906 10.707031 10.992188 10.761719 11.121094 C 10.8125 11.25 10.839844 11.382812 10.839844 11.523438 Z M 10.839844 11.523438 " fill-opacity="1" fill-rule="nonzero"/><g clip-path="url(#7c38b380c7)"><path fill="#ffffff" d="M 26.3125 9.527344 L 34.679688 9.527344 C 34.820312 9.527344 34.953125 9.554688 35.082031 9.605469 C 35.210938 9.660156 35.324219 9.734375 35.421875 9.832031 C 35.519531 9.933594 35.59375 10.042969 35.648438 10.171875 C 35.699219 10.300781 35.726562 10.433594 35.726562 10.574219 L 35.726562 17.546875 C 35.726562 17.6875 35.699219 17.820312 35.648438 17.949219 C 35.59375 18.078125 35.519531 18.191406 35.421875 18.289062 C 35.324219 18.386719 35.210938 18.460938 35.082031 18.515625 C 34.953125 18.566406 34.820312 18.59375 34.679688 18.59375 L 26.3125 18.59375 C 26.171875 18.59375 26.039062 18.566406 25.910156 18.515625 C 25.785156 18.460938 25.671875 18.386719 25.570312 18.289062 C 25.472656 18.191406 25.398438 18.078125 25.34375 17.949219 C 25.292969 17.820312 25.265625 17.6875 25.265625 17.546875 L 25.265625 10.574219 C 25.265625 10.433594 25.292969 10.300781 25.34375 10.171875 C 25.398438 10.042969 25.472656 9.933594 25.570312 9.832031 C 25.671875 9.734375 25.785156 9.660156 25.910156 9.605469 C 26.039062 9.554688 26.171875 9.527344 26.3125 9.527344 Z M 26.3125 9.527344 " fill-opacity="1" fill-rule="nonzero"/></g><g clip-path="url(#61773d899a)"><path fill="#00a09d" d="M 35.625 15.210938 L 33.183594 12.769531 C 33.117188 12.699219 33.035156 12.664062 32.9375 12.664062 C 32.839844 12.664062 32.757812 12.699219 32.691406 12.769531 L 31.195312 14.265625 L 30.21875 13.292969 C 30.152344 13.222656 30.070312 13.1875 29.972656 13.1875 C 29.878906 13.1875 29.796875 13.222656 29.726562 13.292969 L 27.5625 15.457031 L 25.613281 15.457031 C 25.519531 15.457031 25.4375 15.488281 25.367188 15.558594 C 25.300781 15.625 25.265625 15.707031 25.265625 15.804688 L 25.265625 17.546875 C 25.265625 17.6875 25.292969 17.820312 25.34375 17.949219 C 25.398438 18.078125 25.472656 18.191406 25.570312 18.289062 C 25.671875 18.386719 25.785156 18.460938 25.910156 18.515625 C 26.039062 18.566406 26.171875 18.59375 26.3125 18.59375 L 34.679688 18.59375 C 34.820312 18.59375 34.953125 18.566406 35.082031 18.515625 C 35.210938 18.460938 35.324219 18.386719 35.421875 18.289062 C 35.519531 18.191406 35.59375 18.078125 35.648438 17.949219 C 35.699219 17.820312 35.726562 17.6875 35.726562 17.546875 L 35.726562 15.457031 C 35.726562 15.359375 35.695312 15.277344 35.625 15.210938 Z M 35.625 15.210938 " fill-opacity="1" fill-rule="nonzero"/></g><path fill="#ffbd59" d="M 28.753906 11.96875 C 28.753906 12.105469 28.726562 12.242188 28.671875 12.367188 C 28.621094 12.496094 28.542969 12.609375 28.445312 12.707031 C 28.347656 12.804688 28.234375 12.882812 28.105469 12.933594 C 27.980469 12.988281 27.84375 13.015625 27.707031 13.015625 C 27.566406 13.015625 27.433594 12.988281 27.304688 12.933594 C 27.179688 12.882812 27.066406 12.804688 26.96875 12.707031 C 26.867188 12.609375 26.792969 12.496094 26.738281 12.367188 C 26.6875 12.242188 26.660156 12.105469 26.660156 11.96875 C 26.660156 11.828125 26.6875 11.695312 26.738281 11.566406 C 26.792969 11.441406 26.867188 11.328125 26.96875 11.230469 C 27.066406 11.128906 27.179688 11.054688 27.304688 11 C 27.433594 10.949219 27.566406 10.921875 27.707031 10.921875 C 27.84375 10.921875 27.980469 10.949219 28.105469 11 C 28.234375 11.054688 28.347656 11.128906 28.445312 11.230469 C 28.542969 11.328125 28.621094 11.441406 28.671875 11.566406 C 28.726562 11.695312 28.753906 11.828125 28.753906 11.96875 Z M 28.753906 11.96875 " fill-opacity="1" fill-rule="nonzero"/><g clip-path="url(#6cc9f50872)"><path fill="#ffffff" d="M 44.222656 9.082031 L 52.59375 9.082031 C 52.730469 9.082031 52.867188 9.105469 52.992188 9.160156 C 53.121094 9.214844 53.234375 9.289062 53.332031 9.386719 C 53.429688 9.484375 53.507812 9.597656 53.558594 9.726562 C 53.613281 9.855469 53.640625 9.988281 53.640625 10.128906 L 53.640625 17.101562 C 53.640625 17.242188 53.613281 17.375 53.558594 17.5 C 53.507812 17.628906 53.429688 17.742188 53.332031 17.839844 C 53.234375 17.9375 53.121094 18.015625 52.992188 18.066406 C 52.867188 18.121094 52.730469 18.148438 52.59375 18.148438 L 44.222656 18.148438 C 44.085938 18.148438 43.953125 18.121094 43.824219 18.066406 C 43.695312 18.015625 43.582031 17.9375 43.484375 17.839844 C 43.386719 17.742188 43.3125 17.628906 43.257812 17.5 C 43.203125 17.375 43.179688 17.242188 43.179688 17.101562 L 43.179688 10.128906 C 43.179688 9.988281 43.203125 9.855469 43.257812 9.726562 C 43.3125 9.597656 43.386719 9.484375 43.484375 9.386719 C 43.582031 9.289062 43.695312 9.214844 43.824219 9.160156 C 43.953125 9.105469 44.085938 9.082031 44.222656 9.082031 Z M 44.222656 9.082031 " fill-opacity="1" fill-rule="nonzero"/></g><g clip-path="url(#8adc418c59)"><path fill="#00a09d" d="M 53.539062 14.761719 L 51.097656 12.320312 C 51.027344 12.253906 50.945312 12.21875 50.851562 12.21875 C 50.753906 12.21875 50.671875 12.253906 50.601562 12.320312 L 49.105469 13.820312 L 48.132812 12.84375 C 48.0625 12.777344 47.980469 12.742188 47.886719 12.742188 C 47.789062 12.742188 47.707031 12.777344 47.640625 12.84375 L 45.472656 15.007812 L 43.527344 15.007812 C 43.429688 15.007812 43.347656 15.042969 43.28125 15.113281 C 43.210938 15.179688 43.179688 15.261719 43.179688 15.359375 L 43.179688 17.101562 C 43.179688 17.242188 43.203125 17.375 43.257812 17.5 C 43.3125 17.628906 43.386719 17.742188 43.484375 17.839844 C 43.582031 17.9375 43.695312 18.015625 43.824219 18.066406 C 43.953125 18.121094 44.085938 18.148438 44.222656 18.148438 L 52.59375 18.148438 C 52.730469 18.148438 52.867188 18.121094 52.992188 18.066406 C 53.121094 18.015625 53.234375 17.9375 53.332031 17.839844 C 53.429688 17.742188 53.507812 17.628906 53.558594 17.5 C 53.613281 17.375 53.640625 17.242188 53.640625 17.101562 L 53.640625 15.007812 C 53.640625 14.914062 53.605469 14.832031 53.539062 14.761719 Z M 53.539062 14.761719 " fill-opacity="1" fill-rule="nonzero"/></g><path fill="#ffbd59" d="M 46.664062 11.523438 C 46.664062 11.660156 46.636719 11.792969 46.585938 11.921875 C 46.53125 12.050781 46.457031 12.164062 46.359375 12.261719 C 46.261719 12.359375 46.148438 12.433594 46.019531 12.488281 C 45.890625 12.542969 45.757812 12.566406 45.617188 12.566406 C 45.480469 12.566406 45.347656 12.542969 45.21875 12.488281 C 45.089844 12.433594 44.976562 12.359375 44.878906 12.261719 C 44.78125 12.164062 44.707031 12.050781 44.652344 11.921875 C 44.597656 11.792969 44.574219 11.660156 44.574219 11.523438 C 44.574219 11.382812 44.597656 11.25 44.652344 11.121094 C 44.707031 10.992188 44.78125 10.878906 44.878906 10.78125 C 44.976562 10.683594 45.089844 10.609375 45.21875 10.554688 C 45.347656 10.503906 45.480469 10.476562 45.617188 10.476562 C 45.757812 10.476562 45.890625 10.503906 46.019531 10.554688 C 46.148438 10.609375 46.261719 10.683594 46.359375 10.78125 C 46.457031 10.878906 46.53125 10.992188 46.585938 11.121094 C 46.636719 11.25 46.664062 11.382812 46.664062 11.523438 Z M 46.664062 11.523438 " fill-opacity="1" fill-rule="nonzero"/></svg>