<svg xmlns="http://www.w3.org/2000/svg" xmlns:xlink="http://www.w3.org/1999/xlink" width="82" zoomAndPan="magnify" viewBox="0 0 61.5 44.999999" height="60" preserveAspectRatio="xMidYMid meet" version="1.0"><defs><clipPath id="d9237e1e37"><path d="M 0 0.179688 L 19 0.179688 L 19 19 L 0 19 Z M 0 0.179688 " clip-rule="nonzero"/></clipPath><clipPath id="a30b6c502c"><path d="M -20.503906 0.5 L 0.0742188 -20.082031 L 18.058594 -2.101562 L -2.523438 18.480469 Z M -20.503906 0.5 " clip-rule="nonzero"/></clipPath><clipPath id="e603245e4b"><path d="M -10.230469 -9.777344 L 18.027344 -2.070312 L -2.523438 18.480469 Z M -10.230469 -9.777344 " clip-rule="nonzero"/></clipPath><clipPath id="42665d14be"><path d="M 1.320312 1.648438 L 7.617188 1.648438 L 7.617188 7.640625 L 1.320312 7.640625 Z M 1.320312 1.648438 " clip-rule="nonzero"/></clipPath><clipPath id="98ea8c9245"><path d="M 4.464844 1.648438 L 5.207031 3.9375 L 7.605469 3.9375 L 5.664062 5.351562 L 6.40625 7.640625 L 4.464844 6.226562 L 2.519531 7.640625 L 3.261719 5.351562 L 1.320312 3.9375 L 3.722656 3.9375 Z M 4.464844 1.648438 " clip-rule="nonzero"/></clipPath><clipPath id="ea947c7ea7"><path d="M 43.9375 9.699219 L 55.09375 9.699219 L 55.09375 19.371094 L 43.9375 19.371094 Z M 43.9375 9.699219 " clip-rule="nonzero"/></clipPath><clipPath id="e3403104e8"><path d="M 43.9375 13 L 55.09375 13 L 55.09375 19.371094 L 43.9375 19.371094 Z M 43.9375 13 " clip-rule="nonzero"/></clipPath><clipPath id="17c14e9329"><path d="M 5.964844 25.609375 L 17.125 25.609375 L 17.125 35.28125 L 5.964844 35.28125 Z M 5.964844 25.609375 " clip-rule="nonzero"/></clipPath><clipPath id="32da1e0edb"><path d="M 5.964844 28 L 17.125 28 L 17.125 35.28125 L 5.964844 35.28125 Z M 5.964844 28 " clip-rule="nonzero"/></clipPath><clipPath id="4690394761"><path d="M 43.9375 25.609375 L 55.09375 25.609375 L 55.09375 35.28125 L 43.9375 35.28125 Z M 43.9375 25.609375 " clip-rule="nonzero"/></clipPath><clipPath id="eb2937ff93"><path d="M 43.9375 28 L 55.09375 28 L 55.09375 35.28125 L 43.9375 35.28125 Z M 43.9375 28 " clip-rule="nonzero"/></clipPath><clipPath id="7a5542a251"><path d="M 25.21875 25.609375 L 36.378906 25.609375 L 36.378906 35.28125 L 25.21875 35.28125 Z M 25.21875 25.609375 " clip-rule="nonzero"/></clipPath><clipPath id="7b400b72c9"><path d="M 25.21875 28 L 36.378906 28 L 36.378906 35.28125 L 25.21875 35.28125 Z M 25.21875 28 " clip-rule="nonzero"/></clipPath></defs><g clip-path="url(#d9237e1e37)"><g clip-path="url(#a30b6c502c)"><g clip-path="url(#e603245e4b)"><path fill="#ff914d" d="M -20.503906 0.5 L 0.0742188 -20.082031 L 18.058594 -2.101562 L -2.523438 18.480469 Z M -20.503906 0.5 " fill-opacity="1" fill-rule="nonzero"/></g></g></g><g clip-path="url(#42665d14be)"><g clip-path="url(#98ea8c9245)"><path fill="#ffffff" d="M 1.320312 1.648438 L 7.617188 1.648438 L 7.617188 7.640625 L 1.320312 7.640625 Z M 1.320312 1.648438 " fill-opacity="1" fill-rule="nonzero"/></g></g><path stroke-linecap="butt" transform="matrix(0.743924, -0.00635833, 0.00635833, 0.743924, 5.882145, 11.715127)" fill="none" stroke-linejoin="miter" d="M -0.00242094 1.002514 L 14.658013 1.001796 " stroke="#00a09d" stroke-width="2" stroke-opacity="1" stroke-miterlimit="4"/><path stroke-linecap="butt" transform="matrix(0.743952, 0, 0, 0.743952, 5.966264, 14.475769)" fill="none" stroke-linejoin="miter" d="M -0.00190919 0.499881 L 19.919162 0.499881 " stroke="#d8d8d8" stroke-width="1" stroke-opacity="1" stroke-miterlimit="4"/><path stroke-linecap="butt" transform="matrix(0.743952, 0, 0, 0.743952, 5.966264, 15.902311)" fill="none" stroke-linejoin="miter" d="M -0.00190919 0.498859 L 19.919162 0.498859 " stroke="#d8d8d8" stroke-width="1" stroke-opacity="1" stroke-miterlimit="4"/><path stroke-linecap="butt" transform="matrix(0.743952, 0, 0, 0.743952, 5.966264, 17.324508)" fill="none" stroke-linejoin="miter" d="M -0.00190919 0.498426 L 19.919162 0.498426 " stroke="#d8d8d8" stroke-width="1" stroke-opacity="1" stroke-miterlimit="4"/><path stroke-linecap="butt" transform="matrix(0.743952, 0, 0, 0.743952, 5.888504, 18.91389)" fill="none" stroke-linejoin="miter" d="M -0.00239955 0.499046 L 19.918672 0.499046 " stroke="#d8d8d8" stroke-width="1" stroke-opacity="1" stroke-miterlimit="4"/><path stroke-linecap="butt" transform="matrix(0.743924, -0.00635833, 0.00635833, 0.743924, 24.909054, 11.413042)" fill="none" stroke-linejoin="miter" d="M -0.00180578 0.999021 L 14.658628 0.998303 " stroke="#00a09d" stroke-width="2" stroke-opacity="1" stroke-miterlimit="4"/><path stroke-linecap="butt" transform="matrix(0.743952, 0, 0, 0.743952, 24.993173, 14.173684)" fill="none" stroke-linejoin="miter" d="M -0.00132519 0.501634 L 19.919746 0.501634 " stroke="#d8d8d8" stroke-width="1" stroke-opacity="1" stroke-miterlimit="4"/><path stroke-linecap="butt" transform="matrix(0.743952, 0, 0, 0.743952, 24.993173, 15.600211)" fill="none" stroke-linejoin="miter" d="M -0.00132519 0.500631 L 19.919746 0.500631 " stroke="#d8d8d8" stroke-width="1" stroke-opacity="1" stroke-miterlimit="4"/><path stroke-linecap="butt" transform="matrix(0.743952, 0, 0, 0.743952, 24.993173, 17.022408)" fill="none" stroke-linejoin="miter" d="M -0.00132519 0.500198 L 19.919746 0.500198 " stroke="#d8d8d8" stroke-width="1" stroke-opacity="1" stroke-miterlimit="4"/><path stroke-linecap="butt" transform="matrix(0.743952, 0, 0, 0.743952, 24.915414, 18.611776)" fill="none" stroke-linejoin="miter" d="M -0.00181715 0.500837 L 19.919254 0.500837 " stroke="#d8d8d8" stroke-width="1" stroke-opacity="1" stroke-miterlimit="4"/><g clip-path="url(#ea947c7ea7)"><path fill="#ffffff" d="M 45.058594 9.699219 L 53.996094 9.699219 C 54.144531 9.699219 54.285156 9.730469 54.425781 9.785156 C 54.5625 9.84375 54.679688 9.921875 54.785156 10.027344 C 54.890625 10.132812 54.972656 10.253906 55.027344 10.390625 C 55.085938 10.527344 55.113281 10.667969 55.113281 10.816406 L 55.113281 18.265625 C 55.113281 18.414062 55.085938 18.558594 55.027344 18.695312 C 54.972656 18.832031 54.890625 18.953125 54.785156 19.054688 C 54.679688 19.160156 54.5625 19.242188 54.425781 19.296875 C 54.285156 19.355469 54.144531 19.382812 53.996094 19.382812 L 45.058594 19.382812 C 44.910156 19.382812 44.765625 19.355469 44.628906 19.296875 C 44.492188 19.242188 44.371094 19.160156 44.269531 19.054688 C 44.164062 18.953125 44.082031 18.832031 44.027344 18.695312 C 43.96875 18.558594 43.941406 18.414062 43.941406 18.265625 L 43.941406 10.816406 C 43.941406 10.667969 43.96875 10.527344 44.027344 10.390625 C 44.082031 10.253906 44.164062 10.132812 44.269531 10.027344 C 44.371094 9.921875 44.492188 9.84375 44.628906 9.785156 C 44.765625 9.730469 44.910156 9.699219 45.058594 9.699219 Z M 45.058594 9.699219 " fill-opacity="1" fill-rule="nonzero"/></g><g clip-path="url(#e3403104e8)"><path fill="#00a09d" d="M 55.003906 15.769531 L 52.398438 13.160156 C 52.324219 13.089844 52.238281 13.050781 52.132812 13.050781 C 52.03125 13.050781 51.945312 13.089844 51.871094 13.160156 L 50.273438 14.761719 L 49.230469 13.71875 C 49.160156 13.648438 49.070312 13.609375 48.96875 13.609375 C 48.867188 13.609375 48.777344 13.648438 48.707031 13.71875 L 46.394531 16.03125 L 44.3125 16.03125 C 44.210938 16.03125 44.121094 16.066406 44.050781 16.140625 C 43.976562 16.214844 43.941406 16.300781 43.941406 16.40625 L 43.941406 18.265625 C 43.941406 18.414062 43.96875 18.558594 44.027344 18.695312 C 44.082031 18.832031 44.164062 18.953125 44.269531 19.054688 C 44.371094 19.160156 44.492188 19.242188 44.628906 19.296875 C 44.765625 19.355469 44.910156 19.382812 45.058594 19.382812 L 53.996094 19.382812 C 54.144531 19.382812 54.285156 19.355469 54.425781 19.296875 C 54.5625 19.242188 54.679688 19.160156 54.785156 19.054688 C 54.890625 18.953125 54.972656 18.832031 55.027344 18.695312 C 55.085938 18.558594 55.113281 18.414062 55.113281 18.265625 L 55.113281 16.03125 C 55.113281 15.929688 55.078125 15.839844 55.003906 15.769531 Z M 55.003906 15.769531 " fill-opacity="1" fill-rule="nonzero"/></g><path fill="#ffbd59" d="M 47.664062 12.308594 C 47.664062 12.457031 47.636719 12.597656 47.578125 12.734375 C 47.523438 12.871094 47.441406 12.992188 47.335938 13.097656 C 47.234375 13.203125 47.113281 13.285156 46.976562 13.339844 C 46.839844 13.398438 46.695312 13.425781 46.546875 13.425781 C 46.398438 13.425781 46.257812 13.398438 46.121094 13.339844 C 45.984375 13.285156 45.863281 13.203125 45.757812 13.097656 C 45.652344 12.992188 45.574219 12.871094 45.515625 12.734375 C 45.457031 12.597656 45.429688 12.457031 45.429688 12.308594 C 45.429688 12.160156 45.457031 12.015625 45.515625 11.878906 C 45.574219 11.742188 45.652344 11.621094 45.757812 11.519531 C 45.863281 11.414062 45.984375 11.332031 46.121094 11.277344 C 46.257812 11.21875 46.398438 11.191406 46.546875 11.191406 C 46.695312 11.191406 46.839844 11.21875 46.976562 11.277344 C 47.113281 11.332031 47.234375 11.414062 47.335938 11.519531 C 47.441406 11.621094 47.523438 11.742188 47.578125 11.878906 C 47.636719 12.015625 47.664062 12.160156 47.664062 12.308594 Z M 47.664062 12.308594 " fill-opacity="1" fill-rule="nonzero"/><g clip-path="url(#17c14e9329)"><path fill="#ffffff" d="M 7.089844 25.609375 L 16.027344 25.609375 C 16.175781 25.609375 16.316406 25.636719 16.453125 25.695312 C 16.589844 25.75 16.710938 25.832031 16.816406 25.9375 C 16.921875 26.042969 17.003906 26.164062 17.058594 26.300781 C 17.117188 26.4375 17.144531 26.578125 17.144531 26.726562 L 17.144531 34.175781 C 17.144531 34.324219 17.117188 34.464844 17.058594 34.601562 C 17.003906 34.738281 16.921875 34.859375 16.816406 34.964844 C 16.710938 35.070312 16.589844 35.152344 16.453125 35.207031 C 16.316406 35.265625 16.175781 35.292969 16.027344 35.292969 L 7.089844 35.292969 C 6.941406 35.292969 6.796875 35.265625 6.660156 35.207031 C 6.523438 35.152344 6.402344 35.070312 6.296875 34.964844 C 6.195312 34.859375 6.113281 34.738281 6.054688 34.601562 C 6 34.464844 5.972656 34.324219 5.972656 34.175781 L 5.972656 26.726562 C 5.972656 26.578125 6 26.4375 6.054688 26.300781 C 6.113281 26.164062 6.195312 26.042969 6.296875 25.9375 C 6.402344 25.832031 6.523438 25.75 6.660156 25.695312 C 6.796875 25.636719 6.941406 25.609375 7.089844 25.609375 Z M 7.089844 25.609375 " fill-opacity="1" fill-rule="nonzero"/></g><g clip-path="url(#32da1e0edb)"><path fill="#00a09d" d="M 17.035156 31.675781 L 14.429688 29.070312 C 14.355469 28.996094 14.265625 28.960938 14.164062 28.960938 C 14.0625 28.960938 13.972656 28.996094 13.902344 29.070312 L 12.300781 30.667969 L 11.261719 29.628906 C 11.191406 29.554688 11.101562 29.519531 11 29.519531 C 10.894531 29.519531 10.808594 29.554688 10.734375 29.628906 L 8.425781 31.941406 L 6.34375 31.941406 C 6.242188 31.941406 6.152344 31.976562 6.082031 32.050781 C 6.007812 32.121094 5.972656 32.210938 5.972656 32.3125 L 5.972656 34.175781 C 5.972656 34.324219 6 34.464844 6.054688 34.601562 C 6.113281 34.738281 6.195312 34.859375 6.296875 34.964844 C 6.402344 35.070312 6.523438 35.152344 6.660156 35.207031 C 6.796875 35.265625 6.941406 35.292969 7.089844 35.292969 L 16.027344 35.292969 C 16.175781 35.292969 16.316406 35.265625 16.453125 35.207031 C 16.589844 35.152344 16.710938 35.070312 16.816406 34.964844 C 16.921875 34.859375 17.003906 34.738281 17.058594 34.601562 C 17.117188 34.464844 17.144531 34.324219 17.144531 34.175781 L 17.144531 31.941406 C 17.144531 31.835938 17.109375 31.75 17.035156 31.675781 Z M 17.035156 31.675781 " fill-opacity="1" fill-rule="nonzero"/></g><path fill="#ffbd59" d="M 9.695312 28.214844 C 9.695312 28.363281 9.667969 28.507812 9.609375 28.644531 C 9.554688 28.78125 9.472656 28.902344 9.367188 29.007812 C 9.261719 29.109375 9.144531 29.191406 9.003906 29.25 C 8.867188 29.304688 8.726562 29.332031 8.578125 29.332031 C 8.429688 29.332031 8.289062 29.304688 8.152344 29.25 C 8.015625 29.191406 7.894531 29.109375 7.789062 29.007812 C 7.683594 28.902344 7.601562 28.78125 7.546875 28.644531 C 7.488281 28.507812 7.460938 28.363281 7.460938 28.214844 C 7.460938 28.066406 7.488281 27.925781 7.546875 27.789062 C 7.601562 27.652344 7.683594 27.53125 7.789062 27.425781 C 7.894531 27.320312 8.015625 27.242188 8.152344 27.183594 C 8.289062 27.128906 8.429688 27.097656 8.578125 27.097656 C 8.726562 27.097656 8.867188 27.128906 9.003906 27.183594 C 9.144531 27.242188 9.261719 27.320312 9.367188 27.425781 C 9.472656 27.53125 9.554688 27.652344 9.609375 27.789062 C 9.667969 27.925781 9.695312 28.066406 9.695312 28.214844 Z M 9.695312 28.214844 " fill-opacity="1" fill-rule="nonzero"/><g clip-path="url(#4690394761)"><path fill="#ffffff" d="M 45.058594 25.609375 L 53.996094 25.609375 C 54.144531 25.609375 54.285156 25.636719 54.425781 25.695312 C 54.5625 25.75 54.679688 25.832031 54.785156 25.9375 C 54.890625 26.042969 54.972656 26.164062 55.027344 26.300781 C 55.085938 26.4375 55.113281 26.578125 55.113281 26.726562 L 55.113281 34.175781 C 55.113281 34.324219 55.085938 34.464844 55.027344 34.601562 C 54.972656 34.738281 54.890625 34.859375 54.785156 34.964844 C 54.679688 35.070312 54.5625 35.152344 54.425781 35.207031 C 54.285156 35.265625 54.144531 35.292969 53.996094 35.292969 L 45.058594 35.292969 C 44.910156 35.292969 44.765625 35.265625 44.628906 35.207031 C 44.492188 35.152344 44.371094 35.070312 44.269531 34.964844 C 44.164062 34.859375 44.082031 34.738281 44.027344 34.601562 C 43.96875 34.464844 43.941406 34.324219 43.941406 34.175781 L 43.941406 26.726562 C 43.941406 26.578125 43.96875 26.4375 44.027344 26.300781 C 44.082031 26.164062 44.164062 26.042969 44.269531 25.9375 C 44.371094 25.832031 44.492188 25.75 44.628906 25.695312 C 44.765625 25.636719 44.910156 25.609375 45.058594 25.609375 Z M 45.058594 25.609375 " fill-opacity="1" fill-rule="nonzero"/></g><g clip-path="url(#eb2937ff93)"><path fill="#00a09d" d="M 55.003906 31.675781 L 52.398438 29.070312 C 52.324219 28.996094 52.238281 28.960938 52.132812 28.960938 C 52.03125 28.960938 51.945312 28.996094 51.871094 29.070312 L 50.273438 30.667969 L 49.230469 29.628906 C 49.160156 29.554688 49.070312 29.519531 48.96875 29.519531 C 48.867188 29.519531 48.777344 29.554688 48.707031 29.628906 L 46.394531 31.941406 L 44.3125 31.941406 C 44.210938 31.941406 44.121094 31.976562 44.050781 32.050781 C 43.976562 32.121094 43.941406 32.210938 43.941406 32.3125 L 43.941406 34.175781 C 43.941406 34.324219 43.96875 34.464844 44.027344 34.601562 C 44.082031 34.738281 44.164062 34.859375 44.269531 34.964844 C 44.371094 35.070312 44.492188 35.152344 44.628906 35.207031 C 44.765625 35.265625 44.910156 35.292969 45.058594 35.292969 L 53.996094 35.292969 C 54.144531 35.292969 54.285156 35.265625 54.425781 35.207031 C 54.5625 35.152344 54.679688 35.070312 54.785156 34.964844 C 54.890625 34.859375 54.972656 34.738281 55.027344 34.601562 C 55.085938 34.464844 55.113281 34.324219 55.113281 34.175781 L 55.113281 31.941406 C 55.113281 31.835938 55.078125 31.75 55.003906 31.675781 Z M 55.003906 31.675781 " fill-opacity="1" fill-rule="nonzero"/></g><path fill="#ffbd59" d="M 47.664062 28.214844 C 47.664062 28.363281 47.636719 28.507812 47.578125 28.644531 C 47.523438 28.78125 47.441406 28.902344 47.335938 29.007812 C 47.234375 29.109375 47.113281 29.191406 46.976562 29.25 C 46.839844 29.304688 46.695312 29.332031 46.546875 29.332031 C 46.398438 29.332031 46.257812 29.304688 46.121094 29.25 C 45.984375 29.191406 45.863281 29.109375 45.757812 29.007812 C 45.652344 28.902344 45.574219 28.78125 45.515625 28.644531 C 45.457031 28.507812 45.429688 28.363281 45.429688 28.214844 C 45.429688 28.066406 45.457031 27.925781 45.515625 27.789062 C 45.574219 27.652344 45.652344 27.53125 45.757812 27.425781 C 45.863281 27.320312 45.984375 27.242188 46.121094 27.183594 C 46.257812 27.128906 46.398438 27.097656 46.546875 27.097656 C 46.695312 27.097656 46.839844 27.128906 46.976562 27.183594 C 47.113281 27.242188 47.234375 27.320312 47.335938 27.425781 C 47.441406 27.53125 47.523438 27.652344 47.578125 27.789062 C 47.636719 27.925781 47.664062 28.066406 47.664062 28.214844 Z M 47.664062 28.214844 " fill-opacity="1" fill-rule="nonzero"/><g clip-path="url(#7a5542a251)"><path fill="#ffffff" d="M 26.34375 25.609375 L 35.28125 25.609375 C 35.429688 25.609375 35.570312 25.636719 35.707031 25.695312 C 35.84375 25.75 35.964844 25.832031 36.070312 25.9375 C 36.175781 26.042969 36.257812 26.164062 36.3125 26.300781 C 36.371094 26.4375 36.398438 26.578125 36.398438 26.726562 L 36.398438 34.175781 C 36.398438 34.324219 36.371094 34.464844 36.3125 34.601562 C 36.257812 34.738281 36.175781 34.859375 36.070312 34.964844 C 35.964844 35.070312 35.84375 35.152344 35.707031 35.207031 C 35.570312 35.265625 35.429688 35.292969 35.28125 35.292969 L 26.34375 35.292969 C 26.195312 35.292969 26.050781 35.265625 25.914062 35.207031 C 25.777344 35.152344 25.65625 35.070312 25.550781 34.964844 C 25.449219 34.859375 25.367188 34.738281 25.308594 34.601562 C 25.253906 34.464844 25.226562 34.324219 25.226562 34.175781 L 25.226562 26.726562 C 25.226562 26.578125 25.253906 26.4375 25.308594 26.300781 C 25.367188 26.164062 25.449219 26.042969 25.550781 25.9375 C 25.65625 25.832031 25.777344 25.75 25.914062 25.695312 C 26.050781 25.636719 26.195312 25.609375 26.34375 25.609375 Z M 26.34375 25.609375 " fill-opacity="1" fill-rule="nonzero"/></g><g clip-path="url(#7b400b72c9)"><path fill="#00a09d" d="M 36.289062 31.675781 L 33.679688 29.070312 C 33.609375 28.996094 33.519531 28.960938 33.417969 28.960938 C 33.316406 28.960938 33.226562 28.996094 33.15625 29.070312 L 31.554688 30.667969 L 30.515625 29.628906 C 30.441406 29.554688 30.355469 29.519531 30.253906 29.519531 C 30.148438 29.519531 30.0625 29.554688 29.988281 29.628906 L 27.679688 31.941406 L 25.597656 31.941406 C 25.496094 31.941406 25.40625 31.976562 25.335938 32.050781 C 25.261719 32.121094 25.226562 32.210938 25.226562 32.3125 L 25.226562 34.175781 C 25.226562 34.324219 25.253906 34.464844 25.308594 34.601562 C 25.367188 34.738281 25.449219 34.859375 25.550781 34.964844 C 25.65625 35.070312 25.777344 35.152344 25.914062 35.207031 C 26.050781 35.265625 26.195312 35.292969 26.34375 35.292969 L 35.28125 35.292969 C 35.429688 35.292969 35.570312 35.265625 35.707031 35.207031 C 35.84375 35.152344 35.964844 35.070312 36.070312 34.964844 C 36.175781 34.859375 36.257812 34.738281 36.3125 34.601562 C 36.371094 34.464844 36.398438 34.324219 36.398438 34.175781 L 36.398438 31.941406 C 36.398438 31.835938 36.359375 31.75 36.289062 31.675781 Z M 36.289062 31.675781 " fill-opacity="1" fill-rule="nonzero"/></g><path fill="#ffbd59" d="M 28.949219 28.214844 C 28.949219 28.363281 28.921875 28.507812 28.863281 28.644531 C 28.808594 28.78125 28.726562 28.902344 28.621094 29.007812 C 28.515625 29.109375 28.394531 29.191406 28.257812 29.25 C 28.121094 29.304688 27.980469 29.332031 27.832031 29.332031 C 27.683594 29.332031 27.542969 29.304688 27.40625 29.25 C 27.265625 29.191406 27.148438 29.109375 27.042969 29.007812 C 26.9375 28.902344 26.855469 28.78125 26.800781 28.644531 C 26.742188 28.507812 26.714844 28.363281 26.714844 28.214844 C 26.714844 28.066406 26.742188 27.925781 26.800781 27.789062 C 26.855469 27.652344 26.9375 27.53125 27.042969 27.425781 C 27.148438 27.320312 27.265625 27.242188 27.40625 27.183594 C 27.542969 27.128906 27.683594 27.097656 27.832031 27.097656 C 27.980469 27.097656 28.121094 27.128906 28.257812 27.183594 C 28.394531 27.242188 28.515625 27.320312 28.621094 27.425781 C 28.726562 27.53125 28.808594 27.652344 28.863281 27.789062 C 28.921875 27.925781 28.949219 28.066406 28.949219 28.214844 Z M 28.949219 28.214844 " fill-opacity="1" fill-rule="nonzero"/></svg>