<svg xmlns="http://www.w3.org/2000/svg" xmlns:xlink="http://www.w3.org/1999/xlink" width="82" zoomAndPan="magnify" viewBox="0 0 61.5 44.999999" height="60" preserveAspectRatio="xMidYMid meet" version="1.0"><defs><clipPath id="aebcbc887e"><path d="M 0 0.179688 L 19 0.179688 L 19 19 L 0 19 Z M 0 0.179688 " clip-rule="nonzero"/></clipPath><clipPath id="ea179d9989"><path d="M -20.503906 0.5 L 0.0742188 -20.082031 L 18.058594 -2.101562 L -2.523438 18.480469 Z M -20.503906 0.5 " clip-rule="nonzero"/></clipPath><clipPath id="c659ecc925"><path d="M -10.230469 -9.777344 L 18.027344 -2.070312 L -2.523438 18.480469 Z M -10.230469 -9.777344 " clip-rule="nonzero"/></clipPath><clipPath id="99473dfc98"><path d="M 1.320312 1.648438 L 7.617188 1.648438 L 7.617188 7.640625 L 1.320312 7.640625 Z M 1.320312 1.648438 " clip-rule="nonzero"/></clipPath><clipPath id="9c569b71b0"><path d="M 4.464844 1.648438 L 5.207031 3.9375 L 7.605469 3.9375 L 5.664062 5.351562 L 6.40625 7.640625 L 4.464844 6.226562 L 2.519531 7.640625 L 3.261719 5.351562 L 1.320312 3.9375 L 3.722656 3.9375 Z M 4.464844 1.648438 " clip-rule="nonzero"/></clipPath><clipPath id="b76ee09d25"><path d="M 13.15625 22.742188 L 48.117188 22.742188 L 48.117188 35.125 L 13.15625 35.125 Z M 13.15625 22.742188 " clip-rule="nonzero"/></clipPath></defs><g clip-path="url(#aebcbc887e)"><g clip-path="url(#ea179d9989)"><g clip-path="url(#c659ecc925)"><path fill="#ff914d" d="M -20.503906 0.5 L 0.0742188 -20.082031 L 18.058594 -2.101562 L -2.523438 18.480469 Z M -20.503906 0.5 " fill-opacity="1" fill-rule="nonzero"/></g></g></g><g clip-path="url(#99473dfc98)"><g clip-path="url(#9c569b71b0)"><path fill="#ffffff" d="M 1.320312 1.648438 L 7.617188 1.648438 L 7.617188 7.640625 L 1.320312 7.640625 Z M 1.320312 1.648438 " fill-opacity="1" fill-rule="nonzero"/></g></g><path stroke-linecap="butt" transform="matrix(0.743924, -0.00635833, 0.00635833, 0.743924, 5.851956, 10.074583)" fill="none" stroke-linejoin="miter" d="M 0.00140495 1.002438 L 14.661839 1.00172 " stroke="#00a09d" stroke-width="2" stroke-opacity="1" stroke-miterlimit="4"/><path stroke-linecap="butt" transform="matrix(0.743952, 0, 0, 0.743952, 5.936075, 12.83521)" fill="none" stroke-linejoin="miter" d="M 0.00191526 0.499792 L 19.922987 0.499792 " stroke="#d8d8d8" stroke-width="1" stroke-opacity="1" stroke-miterlimit="4"/><path stroke-linecap="butt" transform="matrix(0.743952, 0, 0, 0.743952, 5.936075, 14.261752)" fill="none" stroke-linejoin="miter" d="M 0.00191526 0.49877 L 19.922987 0.49877 " stroke="#d8d8d8" stroke-width="1" stroke-opacity="1" stroke-miterlimit="4"/><path stroke-linecap="butt" transform="matrix(0.743952, 0, 0, 0.743952, 5.936075, 15.683964)" fill="none" stroke-linejoin="miter" d="M 0.00191526 0.498317 L 19.922987 0.498317 " stroke="#d8d8d8" stroke-width="1" stroke-opacity="1" stroke-miterlimit="4"/><path stroke-linecap="butt" transform="matrix(0.743952, 0, 0, 0.743952, 5.858314, 17.273332)" fill="none" stroke-linejoin="miter" d="M 0.00142555 0.498956 L 19.922497 0.498956 " stroke="#d8d8d8" stroke-width="1" stroke-opacity="1" stroke-miterlimit="4"/><path stroke-linecap="butt" transform="matrix(0.743924, -0.00635833, 0.00635833, 0.743924, 23.049867, 9.965025)" fill="none" stroke-linejoin="miter" d="M -0.00204481 0.997405 L 14.658344 1.001937 " stroke="#00a09d" stroke-width="2" stroke-opacity="1" stroke-miterlimit="4"/><path stroke-linecap="butt" transform="matrix(0.743952, 0, 0, 0.743952, 23.133986, 12.725666)" fill="none" stroke-linejoin="miter" d="M -0.00157771 0.500019 L 19.919494 0.500019 " stroke="#d8d8d8" stroke-width="1" stroke-opacity="1" stroke-miterlimit="4"/><path stroke-linecap="butt" transform="matrix(0.743952, 0, 0, 0.743952, 23.133986, 14.152208)" fill="none" stroke-linejoin="miter" d="M -0.00157771 0.498997 L 19.919494 0.498997 " stroke="#d8d8d8" stroke-width="1" stroke-opacity="1" stroke-miterlimit="4"/><path stroke-linecap="butt" transform="matrix(0.743952, 0, 0, 0.743952, 23.133986, 15.57442)" fill="none" stroke-linejoin="miter" d="M -0.00157771 0.498545 L 19.919494 0.498545 " stroke="#d8d8d8" stroke-width="1" stroke-opacity="1" stroke-miterlimit="4"/><path stroke-linecap="butt" transform="matrix(0.743952, 0, 0, 0.743952, 23.056227, 17.163788)" fill="none" stroke-linejoin="miter" d="M -0.00206998 0.499183 L 19.919001 0.499183 " stroke="#d8d8d8" stroke-width="1" stroke-opacity="1" stroke-miterlimit="4"/><path stroke-linecap="butt" transform="matrix(0.743924, -0.00635833, 0.00635833, 0.743924, 40.247781, 10.337)" fill="none" stroke-linejoin="miter" d="M -0.000325433 1.001485 L 14.660109 1.000767 " stroke="#00a09d" stroke-width="2" stroke-opacity="1" stroke-miterlimit="4"/><path stroke-linecap="butt" transform="matrix(0.743952, 0, 0, 0.743952, 40.331901, 13.097642)" fill="none" stroke-linejoin="miter" d="M 0.000175516 0.498833 L 19.921247 0.498833 " stroke="#d8d8d8" stroke-width="1" stroke-opacity="1" stroke-miterlimit="4"/><path stroke-linecap="butt" transform="matrix(0.743952, 0, 0, 0.743952, 40.331901, 14.524184)" fill="none" stroke-linejoin="miter" d="M 0.000175516 0.497811 L 19.921247 0.497811 " stroke="#d8d8d8" stroke-width="1" stroke-opacity="1" stroke-miterlimit="4"/><path stroke-linecap="butt" transform="matrix(0.743952, 0, 0, 0.743952, 40.331901, 15.946395)" fill="none" stroke-linejoin="miter" d="M 0.000175516 0.50261 L 19.921247 0.50261 " stroke="#d8d8d8" stroke-width="1" stroke-opacity="1" stroke-miterlimit="4"/><path stroke-linecap="butt" transform="matrix(0.743952, 0, 0, 0.743952, 40.254137, 17.535764)" fill="none" stroke-linejoin="miter" d="M -0.000310038 0.497998 L 19.920761 0.497998 " stroke="#d8d8d8" stroke-width="1" stroke-opacity="1" stroke-miterlimit="4"/><path stroke-linecap="butt" transform="matrix(0.743924, -0.00635833, 0.00635833, 0.743924, 24.208304, 27.993079)" fill="none" stroke-linejoin="miter" d="M 0.000228551 1.00172 L 16.388207 1.000015 " stroke="#00a09d" stroke-width="2" stroke-opacity="1" stroke-miterlimit="4"/><path stroke-linecap="butt" transform="matrix(0.743952, 0, 0, 0.743952, 22.218662, 32.636092)" fill="none" stroke-linejoin="miter" d="M 0.000117623 0.499657 L 22.268242 0.499657 " stroke="#d8d8d8" stroke-width="1" stroke-opacity="1" stroke-miterlimit="4"/><path stroke-linecap="butt" transform="matrix(0.743952, 0, 0, 0.743952, 22.218662, 30.96887)" fill="none" stroke-linejoin="miter" d="M 0.000117623 0.498653 L 22.268242 0.498653 " stroke="#d8d8d8" stroke-width="1" stroke-opacity="1" stroke-miterlimit="4"/><g clip-path="url(#b76ee09d25)"><path stroke-linecap="butt" transform="matrix(0.743952, 0, 0, 0.743952, 13.154699, 22.743425)" fill="none" stroke-linejoin="miter" d="M 0.00208546 -0.0016631 L 47.378951 -0.0016631 L 47.378951 16.642985 L 0.00208546 16.642985 Z M 0.00208546 -0.0016631 " stroke="#00a09d" stroke-width="2" stroke-opacity="1" stroke-miterlimit="4"/></g></svg>