<svg xmlns="http://www.w3.org/2000/svg" width="300" height="140" viewBox="0 0 300 140"><defs><linearGradient id="g" x1="0%" y1="0%" x2="100%" y2="100%"><stop offset="0%" stop-color="#FFD166"/><stop offset="50%" stop-color="#F5A623"/><stop offset="100%" stop-color="#E63946"/></linearGradient></defs><rect width="300" height="140" fill="#180800" rx="8"/><rect x="4" y="4" width="62" height="64" rx="6" fill="#2a1000" stroke="rgba(255,180,0,0.3)" stroke-width="0.5"/><rect x="4" y="72" width="62" height="64" rx="6" fill="#2a1000" stroke="rgba(255,180,0,0.3)" stroke-width="0.5"/><text x="35" y="40" font-size="8" fill="rgba(255,209,102,0.7)" text-anchor="middle" font-family="sans-serif">BANNER 1</text><text x="35" y="108" font-size="8" fill="rgba(255,209,102,0.7)" text-anchor="middle" font-family="sans-serif">BANNER 2</text><rect x="70" y="4" width="160" height="132" rx="6" fill="#111"/><text x="150" y="62" font-size="12" fill="rgba(255,209,102,0.9)" text-anchor="middle" font-family="sans-serif" font-weight="bold">HOME SLIDER</text><text x="150" y="78" font-size="7" fill="rgba(255,255,255,0.4)" text-anchor="middle" font-family="sans-serif">AR+EN / Desktop+Mobile</text><circle cx="133" cy="124" r="4" fill="#FFD166"/><rect x="140" y="121" width="12" height="7" rx="3" fill="rgba(255,255,255,0.3)"/><circle cx="157" cy="124" r="4" fill="rgba(255,255,255,0.3)"/><rect x="234" y="4" width="62" height="132" rx="6" fill="#2a1000" stroke="rgba(255,180,0,0.3)" stroke-width="0.5"/><rect x="244" y="10" width="42" height="18" rx="3" fill="rgba(255,209,102,0.12)"/><text x="265" y="23" font-size="6" fill="#FFD166" text-anchor="middle" font-family="sans-serif">LOGO</text><rect x="237" y="52" width="56" height="26" rx="5" fill="#1a0800" stroke="rgba(255,166,0,0.35)" stroke-width="0.8"/><rect x="237" y="52" width="16" height="26" rx="5" fill="url(#g)"/><text x="245" y="68" font-size="8" fill="#1a0500" text-anchor="middle" font-family="sans-serif" font-weight="bold">5%</text><rect x="240" y="92" width="50" height="13" rx="4" fill="url(#g)"/><text x="265" y="102" font-size="6" fill="#1a0500" text-anchor="middle" font-family="sans-serif" font-weight="bold">JOIN NOW</text></svg>