<svg xmlns="http://www.w3.org/2000/svg" xmlns:xlink="http://www.w3.org/1999/xlink" width="82" zoomAndPan="magnify" viewBox="0 0 61.5 44.999999" height="60" preserveAspectRatio="xMidYMid meet" version="1.0"><defs><clipPath id="e71cfaa800"><path d="M 0 11.578125 L 61.003906 11.578125 L 61.003906 33.421875 L 0 33.421875 Z M 0 11.578125 " clip-rule="nonzero"/></clipPath><clipPath id="a131151f30"><path d="M 0 0.179688 L 19 0.179688 L 19 19 L 0 19 Z M 0 0.179688 " clip-rule="nonzero"/></clipPath><clipPath id="1b6f5d7bde"><path d="M -20.503906 0.5 L 0.0742188 -20.082031 L 18.058594 -2.101562 L -2.523438 18.480469 Z M -20.503906 0.5 " clip-rule="nonzero"/></clipPath><clipPath id="1942a6a830"><path d="M -10.230469 -9.777344 L 18.027344 -2.070312 L -2.523438 18.480469 Z M -10.230469 -9.777344 " clip-rule="nonzero"/></clipPath><clipPath id="5c9ef6eb1e"><path d="M 1.320312 1.648438 L 7.617188 1.648438 L 7.617188 7.640625 L 1.320312 7.640625 Z M 1.320312 1.648438 " clip-rule="nonzero"/></clipPath><clipPath id="64085cbbb6"><path d="M 4.464844 1.648438 L 5.207031 3.9375 L 7.605469 3.9375 L 5.664062 5.351562 L 6.40625 7.640625 L 4.464844 6.226562 L 2.519531 7.640625 L 3.261719 5.351562 L 1.320312 3.9375 L 3.722656 3.9375 Z M 4.464844 1.648438 " clip-rule="nonzero"/></clipPath><clipPath id="8487a946c9"><path d="M 22.53125 15.597656 L 38.15625 15.597656 L 38.15625 29.730469 L 22.53125 29.730469 Z M 22.53125 15.597656 " clip-rule="nonzero"/></clipPath><clipPath id="420375ef4a"><path d="M 22.53125 20 L 38.15625 20 L 38.15625 29.730469 L 22.53125 29.730469 Z M 22.53125 20 " clip-rule="nonzero"/></clipPath></defs><g clip-path="url(#e71cfaa800)"><path fill="#00c4cc" d="M 0 11.578125 L 61.011719 11.578125 L 61.011719 33.421875 L 0 33.421875 Z M 0 11.578125 " fill-opacity="1" fill-rule="nonzero"/></g><g clip-path="url(#a131151f30)"><g clip-path="url(#1b6f5d7bde)"><g clip-path="url(#1942a6a830)"><path fill="#ff914d" d="M -20.503906 0.5 L 0.0742188 -20.082031 L 18.058594 -2.101562 L -2.523438 18.480469 Z M -20.503906 0.5 " fill-opacity="1" fill-rule="nonzero"/></g></g></g><g clip-path="url(#5c9ef6eb1e)"><g clip-path="url(#64085cbbb6)"><path fill="#ffffff" d="M 1.320312 1.648438 L 7.617188 1.648438 L 7.617188 7.640625 L 1.320312 7.640625 Z M 1.320312 1.648438 " fill-opacity="1" fill-rule="nonzero"/></g></g><g clip-path="url(#8487a946c9)"><path fill="#ffffff" d="M 24.132812 15.597656 L 36.867188 15.597656 C 37.078125 15.597656 37.28125 15.636719 37.476562 15.71875 C 37.671875 15.796875 37.84375 15.914062 37.996094 16.0625 C 38.144531 16.210938 38.257812 16.382812 38.339844 16.578125 C 38.421875 16.773438 38.460938 16.976562 38.460938 17.1875 L 38.460938 27.800781 C 38.460938 28.011719 38.421875 28.214844 38.339844 28.410156 C 38.257812 28.605469 38.144531 28.777344 37.996094 28.925781 C 37.84375 29.078125 37.671875 29.191406 37.476562 29.273438 C 37.28125 29.351562 37.078125 29.394531 36.867188 29.394531 L 24.132812 29.394531 C 23.921875 29.394531 23.71875 29.351562 23.523438 29.273438 C 23.328125 29.191406 23.15625 29.078125 23.007812 28.925781 C 22.855469 28.777344 22.742188 28.605469 22.660156 28.410156 C 22.582031 28.214844 22.539062 28.011719 22.539062 27.800781 L 22.539062 17.1875 C 22.539062 16.976562 22.582031 16.773438 22.660156 16.578125 C 22.742188 16.382812 22.855469 16.210938 23.007812 16.0625 C 23.15625 15.914062 23.328125 15.796875 23.523438 15.71875 C 23.71875 15.636719 23.921875 15.597656 24.132812 15.597656 Z M 24.132812 15.597656 " fill-opacity="1" fill-rule="nonzero"/></g><g clip-path="url(#420375ef4a)"><path fill="#00a09d" d="M 38.304688 24.242188 L 34.589844 20.527344 C 34.488281 20.425781 34.363281 20.371094 34.214844 20.371094 C 34.070312 20.371094 33.945312 20.425781 33.839844 20.527344 L 31.5625 22.804688 L 30.078125 21.324219 C 29.976562 21.21875 29.851562 21.167969 29.703125 21.167969 C 29.558594 21.167969 29.433594 21.21875 29.328125 21.324219 L 26.035156 24.617188 L 23.070312 24.617188 C 22.925781 24.617188 22.800781 24.667969 22.695312 24.773438 C 22.589844 24.875 22.539062 25 22.539062 25.148438 L 22.539062 27.800781 C 22.539062 28.011719 22.582031 28.214844 22.660156 28.410156 C 22.742188 28.605469 22.855469 28.777344 23.007812 28.925781 C 23.15625 29.078125 23.328125 29.191406 23.523438 29.273438 C 23.71875 29.351562 23.921875 29.394531 24.132812 29.394531 L 36.867188 29.394531 C 37.078125 29.394531 37.28125 29.351562 37.476562 29.273438 C 37.671875 29.191406 37.84375 29.078125 37.996094 28.925781 C 38.144531 28.777344 38.257812 28.605469 38.339844 28.410156 C 38.421875 28.214844 38.460938 28.011719 38.460938 27.800781 L 38.460938 24.617188 C 38.460938 24.472656 38.410156 24.347656 38.304688 24.242188 Z M 38.304688 24.242188 " fill-opacity="1" fill-rule="nonzero"/></g><path fill="#ffbd59" d="M 27.847656 19.3125 C 27.847656 19.523438 27.804688 19.726562 27.726562 19.917969 C 27.644531 20.113281 27.53125 20.285156 27.378906 20.4375 C 27.230469 20.585938 27.058594 20.699219 26.863281 20.78125 C 26.667969 20.863281 26.464844 20.902344 26.253906 20.902344 C 26.042969 20.902344 25.839844 20.863281 25.644531 20.78125 C 25.449219 20.699219 25.277344 20.585938 25.128906 20.4375 C 24.980469 20.285156 24.863281 20.113281 24.785156 19.917969 C 24.703125 19.726562 24.664062 19.523438 24.664062 19.3125 C 24.664062 19.097656 24.703125 18.894531 24.785156 18.703125 C 24.863281 18.507812 24.980469 18.335938 25.128906 18.183594 C 25.277344 18.035156 25.449219 17.921875 25.644531 17.839844 C 25.839844 17.757812 26.042969 17.71875 26.253906 17.71875 C 26.464844 17.71875 26.667969 17.757812 26.863281 17.839844 C 27.058594 17.921875 27.230469 18.035156 27.378906 18.183594 C 27.53125 18.335938 27.644531 18.507812 27.726562 18.703125 C 27.804688 18.894531 27.847656 19.097656 27.847656 19.3125 Z M 27.847656 19.3125 " fill-opacity="1" fill-rule="nonzero"/></svg>