<svg xmlns="http://www.w3.org/2000/svg" xmlns:xlink="http://www.w3.org/1999/xlink" width="82" zoomAndPan="magnify" viewBox="0 0 61.5 44.999999" height="60" preserveAspectRatio="xMidYMid meet" version="1.0"><defs><clipPath id="e033417a0b"><path d="M 0 0.179688 L 19 0.179688 L 19 19 L 0 19 Z M 0 0.179688 " clip-rule="nonzero"/></clipPath><clipPath id="45851ca50a"><path d="M -20.503906 0.5 L 0.0742188 -20.082031 L 18.058594 -2.101562 L -2.523438 18.480469 Z M -20.503906 0.5 " clip-rule="nonzero"/></clipPath><clipPath id="8f8042aed8"><path d="M -10.230469 -9.777344 L 18.027344 -2.070312 L -2.523438 18.480469 Z M -10.230469 -9.777344 " clip-rule="nonzero"/></clipPath><clipPath id="1cad665d26"><path d="M 1.320312 1.648438 L 7.617188 1.648438 L 7.617188 7.640625 L 1.320312 7.640625 Z M 1.320312 1.648438 " clip-rule="nonzero"/></clipPath><clipPath id="844dd34595"><path d="M 4.464844 1.648438 L 5.207031 3.9375 L 7.605469 3.9375 L 5.664062 5.351562 L 6.40625 7.640625 L 4.464844 6.226562 L 2.519531 7.640625 L 3.261719 5.351562 L 1.320312 3.9375 L 3.722656 3.9375 Z M 4.464844 1.648438 " clip-rule="nonzero"/></clipPath><clipPath id="2b3c1f1c14"><path d="M 5.617188 18.160156 L 15.285156 18.160156 L 15.285156 27 L 5.617188 27 Z M 5.617188 18.160156 " clip-rule="nonzero"/></clipPath><clipPath id="0668cc2655"><path d="M 5.617188 21 L 15.285156 21 L 15.285156 27 L 5.617188 27 Z M 5.617188 21 " clip-rule="nonzero"/></clipPath><clipPath id="6260dbcd96"><path d="M 18.980469 18.160156 L 28.652344 18.160156 L 28.652344 27 L 18.980469 27 Z M 18.980469 18.160156 " clip-rule="nonzero"/></clipPath><clipPath id="046069019c"><path d="M 18.980469 21 L 28.652344 21 L 28.652344 27 L 18.980469 27 Z M 18.980469 21 " clip-rule="nonzero"/></clipPath><clipPath id="fe7b021529"><path d="M 32.382812 18.160156 L 42.050781 18.160156 L 42.050781 27 L 32.382812 27 Z M 32.382812 18.160156 " clip-rule="nonzero"/></clipPath><clipPath id="b1f494a378"><path d="M 32.382812 21 L 42.050781 21 L 42.050781 27 L 32.382812 27 Z M 32.382812 21 " clip-rule="nonzero"/></clipPath><clipPath id="58ceaa2c36"><path d="M 45.371094 18.160156 L 55.042969 18.160156 L 55.042969 27 L 45.371094 27 Z M 45.371094 18.160156 " clip-rule="nonzero"/></clipPath><clipPath id="6dca32d78b"><path d="M 45.371094 21 L 55.042969 21 L 55.042969 27 L 45.371094 27 Z M 45.371094 21 " clip-rule="nonzero"/></clipPath><clipPath id="590efa73d2"><path d="M 2.464844 13.125 L 58.25 13.125 L 58.25 31.726562 L 2.464844 31.726562 Z M 2.464844 13.125 " clip-rule="nonzero"/></clipPath><clipPath id="74a14bfe6f"><path d="M 4.695312 13.125 L 56.300781 13.125 C 57.53125 13.125 58.53125 14.125 58.53125 15.355469 L 58.53125 29.632812 C 58.53125 30.867188 57.53125 31.863281 56.300781 31.863281 L 4.695312 31.863281 C 3.464844 31.863281 2.464844 30.867188 2.464844 29.632812 L 2.464844 15.355469 C 2.464844 14.125 3.464844 13.125 4.695312 13.125 Z M 4.695312 13.125 " clip-rule="nonzero"/></clipPath></defs><g clip-path="url(#e033417a0b)"><g clip-path="url(#45851ca50a)"><g clip-path="url(#8f8042aed8)"><path fill="#ff914d" d="M -20.503906 0.5 L 0.0742188 -20.082031 L 18.058594 -2.101562 L -2.523438 18.480469 Z M -20.503906 0.5 " fill-opacity="1" fill-rule="nonzero"/></g></g></g><g clip-path="url(#1cad665d26)"><g clip-path="url(#844dd34595)"><path fill="#ffffff" d="M 1.320312 1.648438 L 7.617188 1.648438 L 7.617188 7.640625 L 1.320312 7.640625 Z M 1.320312 1.648438 " fill-opacity="1" fill-rule="nonzero"/></g></g><g clip-path="url(#2b3c1f1c14)"><path fill="#ffffff" d="M 6.617188 18.160156 L 14.621094 18.160156 C 14.753906 18.160156 14.882812 18.1875 15.003906 18.238281 C 15.128906 18.289062 15.234375 18.359375 15.328125 18.453125 C 15.421875 18.546875 15.496094 18.65625 15.546875 18.78125 C 15.597656 18.902344 15.621094 19.03125 15.621094 19.164062 L 15.621094 25.832031 C 15.621094 25.964844 15.597656 26.09375 15.546875 26.214844 C 15.496094 26.339844 15.421875 26.445312 15.328125 26.539062 C 15.234375 26.632812 15.128906 26.707031 15.003906 26.757812 C 14.882812 26.808594 14.753906 26.832031 14.621094 26.832031 L 6.617188 26.832031 C 6.484375 26.832031 6.355469 26.808594 6.234375 26.757812 C 6.113281 26.707031 6.003906 26.632812 5.910156 26.539062 C 5.816406 26.445312 5.742188 26.339844 5.691406 26.214844 C 5.640625 26.09375 5.617188 25.964844 5.617188 25.832031 L 5.617188 19.164062 C 5.617188 19.03125 5.640625 18.902344 5.691406 18.78125 C 5.742188 18.65625 5.816406 18.546875 5.910156 18.453125 C 6.003906 18.359375 6.113281 18.289062 6.234375 18.238281 C 6.355469 18.1875 6.484375 18.160156 6.617188 18.160156 Z M 6.617188 18.160156 " fill-opacity="1" fill-rule="nonzero"/></g><g clip-path="url(#0668cc2655)"><path fill="#00a09d" d="M 15.523438 23.597656 L 13.191406 21.261719 C 13.125 21.195312 13.046875 21.164062 12.953125 21.164062 C 12.863281 21.164062 12.785156 21.195312 12.71875 21.261719 L 11.285156 22.691406 L 10.355469 21.761719 C 10.289062 21.695312 10.210938 21.664062 10.121094 21.664062 C 10.027344 21.664062 9.949219 21.695312 9.882812 21.761719 L 7.8125 23.832031 L 5.949219 23.832031 C 5.859375 23.832031 5.78125 23.863281 5.714844 23.929688 C 5.648438 23.996094 5.617188 24.074219 5.617188 24.164062 L 5.617188 25.832031 C 5.617188 25.964844 5.640625 26.09375 5.691406 26.214844 C 5.742188 26.339844 5.816406 26.445312 5.910156 26.539062 C 6.003906 26.632812 6.113281 26.707031 6.234375 26.757812 C 6.355469 26.808594 6.484375 26.832031 6.617188 26.832031 L 14.621094 26.832031 C 14.753906 26.832031 14.882812 26.808594 15.003906 26.757812 C 15.128906 26.707031 15.234375 26.632812 15.328125 26.539062 C 15.421875 26.445312 15.496094 26.339844 15.546875 26.214844 C 15.597656 26.09375 15.621094 25.964844 15.621094 25.832031 L 15.621094 23.832031 C 15.621094 23.738281 15.589844 23.660156 15.523438 23.597656 Z M 15.523438 23.597656 " fill-opacity="1" fill-rule="nonzero"/></g><path fill="#ffbd59" d="M 8.953125 20.496094 C 8.953125 20.628906 8.925781 20.757812 8.875 20.878906 C 8.824219 21.003906 8.753906 21.109375 8.660156 21.203125 C 8.566406 21.296875 8.457031 21.371094 8.335938 21.421875 C 8.210938 21.472656 8.085938 21.496094 7.953125 21.496094 C 7.820312 21.496094 7.691406 21.472656 7.570312 21.421875 C 7.445312 21.371094 7.335938 21.296875 7.242188 21.203125 C 7.148438 21.109375 7.078125 21.003906 7.027344 20.878906 C 6.976562 20.757812 6.949219 20.628906 6.949219 20.496094 C 6.949219 20.363281 6.976562 20.234375 7.027344 20.113281 C 7.078125 19.992188 7.148438 19.882812 7.242188 19.789062 C 7.335938 19.695312 7.445312 19.621094 7.570312 19.570312 C 7.691406 19.519531 7.820312 19.496094 7.953125 19.496094 C 8.085938 19.496094 8.210938 19.519531 8.335938 19.570312 C 8.457031 19.621094 8.566406 19.695312 8.660156 19.789062 C 8.753906 19.882812 8.824219 19.992188 8.875 20.113281 C 8.925781 20.234375 8.953125 20.363281 8.953125 20.496094 Z M 8.953125 20.496094 " fill-opacity="1" fill-rule="nonzero"/><g clip-path="url(#6260dbcd96)"><path fill="#ffffff" d="M 19.984375 18.160156 L 27.988281 18.160156 C 28.121094 18.160156 28.25 18.1875 28.371094 18.238281 C 28.492188 18.289062 28.601562 18.359375 28.695312 18.453125 C 28.789062 18.546875 28.863281 18.65625 28.914062 18.78125 C 28.964844 18.902344 28.988281 19.03125 28.988281 19.164062 L 28.988281 25.832031 C 28.988281 25.964844 28.964844 26.09375 28.914062 26.214844 C 28.863281 26.339844 28.789062 26.445312 28.695312 26.539062 C 28.601562 26.632812 28.492188 26.707031 28.371094 26.757812 C 28.25 26.808594 28.121094 26.832031 27.988281 26.832031 L 19.984375 26.832031 C 19.851562 26.832031 19.722656 26.808594 19.601562 26.757812 C 19.476562 26.707031 19.371094 26.632812 19.277344 26.539062 C 19.183594 26.445312 19.109375 26.339844 19.058594 26.214844 C 19.007812 26.09375 18.984375 25.964844 18.984375 25.832031 L 18.984375 19.164062 C 18.984375 19.03125 19.007812 18.902344 19.058594 18.78125 C 19.109375 18.65625 19.183594 18.546875 19.277344 18.453125 C 19.371094 18.359375 19.476562 18.289062 19.601562 18.238281 C 19.722656 18.1875 19.851562 18.160156 19.984375 18.160156 Z M 19.984375 18.160156 " fill-opacity="1" fill-rule="nonzero"/></g><g clip-path="url(#046069019c)"><path fill="#00a09d" d="M 28.890625 23.597656 L 26.554688 21.261719 C 26.492188 21.195312 26.414062 21.164062 26.320312 21.164062 C 26.226562 21.164062 26.148438 21.195312 26.085938 21.261719 L 24.652344 22.691406 L 23.722656 21.761719 C 23.65625 21.695312 23.578125 21.664062 23.484375 21.664062 C 23.394531 21.664062 23.316406 21.695312 23.25 21.761719 L 21.179688 23.832031 L 19.316406 23.832031 C 19.222656 23.832031 19.144531 23.863281 19.082031 23.929688 C 19.015625 23.996094 18.984375 24.074219 18.984375 24.164062 L 18.984375 25.832031 C 18.984375 25.964844 19.007812 26.09375 19.058594 26.214844 C 19.109375 26.339844 19.183594 26.445312 19.277344 26.539062 C 19.371094 26.632812 19.476562 26.707031 19.601562 26.757812 C 19.722656 26.808594 19.851562 26.832031 19.984375 26.832031 L 27.988281 26.832031 C 28.121094 26.832031 28.25 26.808594 28.371094 26.757812 C 28.492188 26.707031 28.601562 26.632812 28.695312 26.539062 C 28.789062 26.445312 28.863281 26.339844 28.914062 26.214844 C 28.964844 26.09375 28.988281 25.964844 28.988281 25.832031 L 28.988281 23.832031 C 28.988281 23.738281 28.957031 23.660156 28.890625 23.597656 Z M 28.890625 23.597656 " fill-opacity="1" fill-rule="nonzero"/></g><path fill="#ffbd59" d="M 22.316406 20.496094 C 22.316406 20.628906 22.292969 20.757812 22.242188 20.878906 C 22.191406 21.003906 22.117188 21.109375 22.023438 21.203125 C 21.929688 21.296875 21.824219 21.371094 21.699219 21.421875 C 21.578125 21.472656 21.449219 21.496094 21.316406 21.496094 C 21.183594 21.496094 21.058594 21.472656 20.933594 21.421875 C 20.8125 21.371094 20.703125 21.296875 20.609375 21.203125 C 20.515625 21.109375 20.445312 21.003906 20.394531 20.878906 C 20.34375 20.757812 20.316406 20.628906 20.316406 20.496094 C 20.316406 20.363281 20.34375 20.234375 20.394531 20.113281 C 20.445312 19.992188 20.515625 19.882812 20.609375 19.789062 C 20.703125 19.695312 20.8125 19.621094 20.933594 19.570312 C 21.058594 19.519531 21.183594 19.496094 21.316406 19.496094 C 21.449219 19.496094 21.578125 19.519531 21.699219 19.570312 C 21.824219 19.621094 21.929688 19.695312 22.023438 19.789062 C 22.117188 19.882812 22.191406 19.992188 22.242188 20.113281 C 22.292969 20.234375 22.316406 20.363281 22.316406 20.496094 Z M 22.316406 20.496094 " fill-opacity="1" fill-rule="nonzero"/><g clip-path="url(#fe7b021529)"><path fill="#ffffff" d="M 33.382812 18.160156 L 41.386719 18.160156 C 41.519531 18.160156 41.648438 18.1875 41.769531 18.238281 C 41.894531 18.289062 42 18.359375 42.09375 18.453125 C 42.1875 18.546875 42.261719 18.65625 42.3125 18.78125 C 42.363281 18.902344 42.386719 19.03125 42.386719 19.164062 L 42.386719 25.832031 C 42.386719 25.964844 42.363281 26.09375 42.3125 26.214844 C 42.261719 26.339844 42.1875 26.445312 42.09375 26.539062 C 42 26.632812 41.894531 26.707031 41.769531 26.757812 C 41.648438 26.808594 41.519531 26.832031 41.386719 26.832031 L 33.382812 26.832031 C 33.25 26.832031 33.121094 26.808594 33 26.757812 C 32.878906 26.707031 32.769531 26.632812 32.675781 26.539062 C 32.582031 26.445312 32.507812 26.339844 32.457031 26.214844 C 32.40625 26.09375 32.382812 25.964844 32.382812 25.832031 L 32.382812 19.164062 C 32.382812 19.03125 32.40625 18.902344 32.457031 18.78125 C 32.507812 18.65625 32.582031 18.546875 32.675781 18.453125 C 32.769531 18.359375 32.878906 18.289062 33 18.238281 C 33.121094 18.1875 33.25 18.160156 33.382812 18.160156 Z M 33.382812 18.160156 " fill-opacity="1" fill-rule="nonzero"/></g><g clip-path="url(#b1f494a378)"><path fill="#00a09d" d="M 42.289062 23.597656 L 39.957031 21.261719 C 39.890625 21.195312 39.8125 21.164062 39.71875 21.164062 C 39.628906 21.164062 39.550781 21.195312 39.484375 21.261719 L 38.050781 22.691406 L 37.121094 21.761719 C 37.054688 21.695312 36.976562 21.664062 36.886719 21.664062 C 36.792969 21.664062 36.714844 21.695312 36.648438 21.761719 L 34.578125 23.832031 L 32.714844 23.832031 C 32.625 23.832031 32.546875 23.863281 32.480469 23.929688 C 32.414062 23.996094 32.382812 24.074219 32.382812 24.164062 L 32.382812 25.832031 C 32.382812 25.964844 32.40625 26.09375 32.457031 26.214844 C 32.507812 26.339844 32.582031 26.445312 32.675781 26.539062 C 32.769531 26.632812 32.878906 26.707031 33 26.757812 C 33.121094 26.808594 33.25 26.832031 33.382812 26.832031 L 41.386719 26.832031 C 41.519531 26.832031 41.648438 26.808594 41.769531 26.757812 C 41.894531 26.707031 42 26.632812 42.09375 26.539062 C 42.1875 26.445312 42.261719 26.339844 42.3125 26.214844 C 42.363281 26.09375 42.386719 25.964844 42.386719 25.832031 L 42.386719 23.832031 C 42.386719 23.738281 42.355469 23.660156 42.289062 23.597656 Z M 42.289062 23.597656 " fill-opacity="1" fill-rule="nonzero"/></g><path fill="#ffbd59" d="M 35.71875 20.496094 C 35.71875 20.628906 35.691406 20.757812 35.640625 20.878906 C 35.589844 21.003906 35.519531 21.109375 35.425781 21.203125 C 35.332031 21.296875 35.222656 21.371094 35.101562 21.421875 C 34.976562 21.472656 34.851562 21.496094 34.71875 21.496094 C 34.585938 21.496094 34.457031 21.472656 34.335938 21.421875 C 34.210938 21.371094 34.101562 21.296875 34.007812 21.203125 C 33.914062 21.109375 33.84375 21.003906 33.792969 20.878906 C 33.742188 20.757812 33.714844 20.628906 33.714844 20.496094 C 33.714844 20.363281 33.742188 20.234375 33.792969 20.113281 C 33.84375 19.992188 33.914062 19.882812 34.007812 19.789062 C 34.101562 19.695312 34.210938 19.621094 34.335938 19.570312 C 34.457031 19.519531 34.585938 19.496094 34.71875 19.496094 C 34.851562 19.496094 34.976562 19.519531 35.101562 19.570312 C 35.222656 19.621094 35.332031 19.695312 35.425781 19.789062 C 35.519531 19.882812 35.589844 19.992188 35.640625 20.113281 C 35.691406 20.234375 35.71875 20.363281 35.71875 20.496094 Z M 35.71875 20.496094 " fill-opacity="1" fill-rule="nonzero"/><g clip-path="url(#58ceaa2c36)"><path fill="#ffffff" d="M 46.375 18.160156 L 54.378906 18.160156 C 54.511719 18.160156 54.640625 18.1875 54.761719 18.238281 C 54.882812 18.289062 54.992188 18.359375 55.085938 18.453125 C 55.179688 18.546875 55.253906 18.65625 55.304688 18.78125 C 55.355469 18.902344 55.378906 19.03125 55.378906 19.164062 L 55.378906 25.832031 C 55.378906 25.964844 55.355469 26.09375 55.304688 26.214844 C 55.253906 26.339844 55.179688 26.445312 55.085938 26.539062 C 54.992188 26.632812 54.882812 26.707031 54.761719 26.757812 C 54.640625 26.808594 54.511719 26.832031 54.378906 26.832031 L 46.375 26.832031 C 46.242188 26.832031 46.113281 26.808594 45.992188 26.757812 C 45.867188 26.707031 45.761719 26.632812 45.667969 26.539062 C 45.574219 26.445312 45.5 26.339844 45.449219 26.214844 C 45.398438 26.09375 45.375 25.964844 45.375 25.832031 L 45.375 19.164062 C 45.375 19.03125 45.398438 18.902344 45.449219 18.78125 C 45.5 18.65625 45.574219 18.546875 45.667969 18.453125 C 45.761719 18.359375 45.867188 18.289062 45.992188 18.238281 C 46.113281 18.1875 46.242188 18.160156 46.375 18.160156 Z M 46.375 18.160156 " fill-opacity="1" fill-rule="nonzero"/></g><g clip-path="url(#6dca32d78b)"><path fill="#00a09d" d="M 55.28125 23.597656 L 52.949219 21.261719 C 52.882812 21.195312 52.804688 21.164062 52.710938 21.164062 C 52.621094 21.164062 52.539062 21.195312 52.476562 21.261719 L 51.042969 22.691406 L 50.113281 21.761719 C 50.046875 21.695312 49.96875 21.664062 49.875 21.664062 C 49.785156 21.664062 49.707031 21.695312 49.640625 21.761719 L 47.570312 23.832031 L 45.707031 23.832031 C 45.617188 23.832031 45.535156 23.863281 45.472656 23.929688 C 45.40625 23.996094 45.375 24.074219 45.375 24.164062 L 45.375 25.832031 C 45.375 25.964844 45.398438 26.09375 45.449219 26.214844 C 45.5 26.339844 45.574219 26.445312 45.667969 26.539062 C 45.761719 26.632812 45.867188 26.707031 45.992188 26.757812 C 46.113281 26.808594 46.242188 26.832031 46.375 26.832031 L 54.378906 26.832031 C 54.511719 26.832031 54.640625 26.808594 54.761719 26.757812 C 54.882812 26.707031 54.992188 26.632812 55.085938 26.539062 C 55.179688 26.445312 55.253906 26.339844 55.304688 26.214844 C 55.355469 26.09375 55.378906 25.964844 55.378906 25.832031 L 55.378906 23.832031 C 55.378906 23.738281 55.347656 23.660156 55.28125 23.597656 Z M 55.28125 23.597656 " fill-opacity="1" fill-rule="nonzero"/></g><path fill="#ffbd59" d="M 48.710938 20.496094 C 48.710938 20.628906 48.683594 20.757812 48.632812 20.878906 C 48.582031 21.003906 48.511719 21.109375 48.417969 21.203125 C 48.324219 21.296875 48.214844 21.371094 48.089844 21.421875 C 47.96875 21.472656 47.839844 21.496094 47.707031 21.496094 C 47.574219 21.496094 47.449219 21.472656 47.324219 21.421875 C 47.203125 21.371094 47.09375 21.296875 47 21.203125 C 46.90625 21.109375 46.835938 21.003906 46.785156 20.878906 C 46.734375 20.757812 46.707031 20.628906 46.707031 20.496094 C 46.707031 20.363281 46.734375 20.234375 46.785156 20.113281 C 46.835938 19.992188 46.90625 19.882812 47 19.789062 C 47.09375 19.695312 47.203125 19.621094 47.324219 19.570312 C 47.449219 19.519531 47.574219 19.496094 47.707031 19.496094 C 47.839844 19.496094 47.96875 19.519531 48.089844 19.570312 C 48.214844 19.621094 48.324219 19.695312 48.417969 19.789062 C 48.511719 19.882812 48.582031 19.992188 48.632812 20.113281 C 48.683594 20.234375 48.710938 20.363281 48.710938 20.496094 Z M 48.710938 20.496094 " fill-opacity="1" fill-rule="nonzero"/><g clip-path="url(#590efa73d2)"><g clip-path="url(#74a14bfe6f)"><path stroke-linecap="butt" transform="matrix(0.743952, 0, 0, 0.743952, 2.465464, 13.126209)" fill="none" stroke-linejoin="miter" d="M 2.997304 -0.00162462 L 72.364007 -0.00162462 C 74.017971 -0.00162462 75.362144 1.342549 75.362144 2.996512 L 75.362144 22.187739 C 75.362144 23.846954 74.017971 25.185876 72.364007 25.185876 L 2.997304 25.185876 C 1.34334 25.185876 -0.000833267 23.846954 -0.000833267 22.187739 L -0.000833267 2.996512 C -0.000833267 1.342549 1.34334 -0.00162462 2.997304 -0.00162462 Z M 2.997304 -0.00162462 " stroke="#00a09d" stroke-width="2" stroke-opacity="1" stroke-miterlimit="4"/></g></g></svg>