<svg xmlns="http://www.w3.org/2000/svg" xmlns:xlink="http://www.w3.org/1999/xlink" width="82" zoomAndPan="magnify" viewBox="0 0 61.5 44.999999" height="60" preserveAspectRatio="xMidYMid meet" version="1.0"><defs><clipPath id="bdf8eaa231"><path d="M 0 0.179688 L 19 0.179688 L 19 19 L 0 19 Z M 0 0.179688 " clip-rule="nonzero"/></clipPath><clipPath id="8b7a646021"><path d="M -20.503906 0.5 L 0.0742188 -20.082031 L 18.058594 -2.101562 L -2.523438 18.480469 Z M -20.503906 0.5 " clip-rule="nonzero"/></clipPath><clipPath id="4068171c15"><path d="M -10.230469 -9.777344 L 18.027344 -2.070312 L -2.523438 18.480469 Z M -10.230469 -9.777344 " clip-rule="nonzero"/></clipPath><clipPath id="85aa44302b"><path d="M 1.320312 1.648438 L 7.617188 1.648438 L 7.617188 7.640625 L 1.320312 7.640625 Z M 1.320312 1.648438 " clip-rule="nonzero"/></clipPath><clipPath id="fd8faf6459"><path d="M 4.464844 1.648438 L 5.207031 3.9375 L 7.605469 3.9375 L 5.664062 5.351562 L 6.40625 7.640625 L 4.464844 6.226562 L 2.519531 7.640625 L 3.261719 5.351562 L 1.320312 3.9375 L 3.722656 3.9375 Z M 4.464844 1.648438 " clip-rule="nonzero"/></clipPath><clipPath id="1e6c5ec391"><path d="M 9.777344 10.257812 L 51.402344 10.257812 L 51.402344 34.78125 L 9.777344 34.78125 Z M 9.777344 10.257812 " clip-rule="nonzero"/></clipPath><clipPath id="3637223355"><path d="M 12.007812 10.257812 L 48.988281 10.257812 C 50.21875 10.257812 51.21875 11.257812 51.21875 12.488281 L 51.21875 32.507812 C 51.21875 33.738281 50.21875 34.738281 48.988281 34.738281 L 12.007812 34.738281 C 10.777344 34.738281 9.777344 33.738281 9.777344 32.507812 L 9.777344 12.488281 C 9.777344 11.257812 10.777344 10.257812 12.007812 10.257812 Z M 12.007812 10.257812 " clip-rule="nonzero"/></clipPath><clipPath id="04f7cef724"><path d="M 13.726562 15 L 47.203125 15 L 47.203125 31.832031 L 13.726562 31.832031 Z M 13.726562 15 " clip-rule="nonzero"/></clipPath><clipPath id="d975cdb02c"><path d="M 19 25 L 24 25 L 24 31.832031 L 19 31.832031 Z M 19 25 " clip-rule="nonzero"/></clipPath><clipPath id="b6ac0367ab"><path d="M 39 10.257812 L 41 10.257812 L 41 18 L 39 18 Z M 39 10.257812 " clip-rule="nonzero"/></clipPath><clipPath id="b336bdd4c0"><path d="M 22 10.257812 L 23 10.257812 L 23 20 L 22 20 Z M 22 10.257812 " clip-rule="nonzero"/></clipPath></defs><g clip-path="url(#bdf8eaa231)"><g clip-path="url(#8b7a646021)"><g clip-path="url(#4068171c15)"><path fill="#ff914d" d="M -20.503906 0.5 L 0.0742188 -20.082031 L 18.058594 -2.101562 L -2.523438 18.480469 Z M -20.503906 0.5 " fill-opacity="1" fill-rule="nonzero"/></g></g></g><g clip-path="url(#85aa44302b)"><g clip-path="url(#fd8faf6459)"><path fill="#ffffff" d="M 1.320312 1.648438 L 7.617188 1.648438 L 7.617188 7.640625 L 1.320312 7.640625 Z M 1.320312 1.648438 " fill-opacity="1" fill-rule="nonzero"/></g></g><g clip-path="url(#1e6c5ec391)"><g clip-path="url(#3637223355)"><path stroke-linecap="butt" transform="matrix(0.743952, 0, 0, 0.743952, 9.777417, 10.257482)" fill="none" stroke-linejoin="miter" d="M 2.998038 0.00044481 L 52.706201 0.00044481 C 54.360164 0.00044481 55.704337 1.344618 55.704337 2.998582 L 55.704337 29.908303 C 55.704337 31.562267 54.360164 32.90644 52.706201 32.90644 L 2.998038 32.90644 C 1.344074 32.90644 -0.0000989329 31.562267 -0.0000989329 29.908303 L -0.0000989329 2.998582 C -0.0000989329 1.344618 1.344074 0.00044481 2.998038 0.00044481 Z M 2.998038 0.00044481 " stroke="#00c4cc" stroke-width="2" stroke-opacity="1" stroke-miterlimit="4"/></g></g><g clip-path="url(#04f7cef724)"><path fill="#00a09d" d="M 47.222656 17.453125 C 46.953125 16.941406 46.535156 16.523438 45.976562 16.210938 C 45.527344 15.957031 45.023438 15.832031 44.472656 15.832031 C 44.316406 15.832031 44.152344 15.84375 43.988281 15.863281 C 43.125 15.972656 42.390625 16.261719 41.796875 16.722656 L 41.84375 16.21875 L 38.601562 16.625 L 38.515625 17.53125 L 37.972656 16.703125 L 36.035156 16.945312 L 35.371094 17.027344 L 35.195312 17.050781 L 33.636719 17.246094 L 29.933594 17.707031 L 29.535156 18.640625 L 29.300781 17.789062 L 25.828125 18.222656 L 25.71875 19.414062 C 25.585938 19.289062 25.441406 19.175781 25.289062 19.074219 C 24.703125 18.683594 24.027344 18.488281 23.289062 18.488281 C 23.105469 18.488281 22.917969 18.5 22.726562 18.523438 C 21.621094 18.664062 20.730469 19.148438 20.074219 19.96875 C 20.074219 19.96875 20.074219 19.96875 20.074219 19.972656 C 19.957031 19.863281 19.828125 19.765625 19.6875 19.671875 C 19.382812 19.460938 19.015625 19.316406 18.597656 19.234375 C 18.367188 19.1875 18.128906 19.164062 17.878906 19.164062 C 17.703125 19.164062 17.519531 19.175781 17.332031 19.199219 C 16.246094 19.335938 15.359375 19.804688 14.695312 20.59375 C 14.015625 21.398438 13.742188 22.371094 13.882812 23.484375 C 14 24.433594 14.472656 25.195312 15.246094 25.695312 C 15.835938 26.074219 16.507812 26.265625 17.238281 26.265625 C 17.417969 26.265625 17.605469 26.253906 17.792969 26.230469 C 18.328125 26.164062 18.851562 25.980469 19.347656 25.6875 C 19.734375 25.464844 20.0625 25.160156 20.332031 24.789062 C 20.421875 24.859375 20.511719 24.929688 20.609375 24.996094 C 20.109375 25.179688 19.695312 25.464844 19.378906 25.847656 C 18.890625 26.441406 18.683594 27.128906 18.769531 27.839844 C 18.820312 28.222656 18.964844 28.566406 19.195312 28.851562 L 18.183594 30.429688 L 18.6875 30.902344 C 19.085938 31.273438 19.597656 31.539062 20.214844 31.699219 C 20.589844 31.792969 20.984375 31.84375 21.386719 31.84375 C 21.605469 31.84375 21.835938 31.828125 22.0625 31.800781 C 22.921875 31.691406 23.605469 31.355469 24.097656 30.796875 C 24.214844 30.660156 24.316406 30.519531 24.40625 30.371094 C 24.5 30.449219 24.597656 30.523438 24.703125 30.59375 C 25.289062 30.984375 25.964844 31.183594 26.710938 31.183594 C 26.890625 31.183594 27.082031 31.171875 27.273438 31.148438 C 28.378906 31.007812 29.269531 30.519531 29.921875 29.695312 C 29.992188 29.609375 30.058594 29.515625 30.121094 29.425781 C 30.273438 29.582031 30.445312 29.726562 30.632812 29.851562 C 31.21875 30.242188 31.894531 30.441406 32.640625 30.441406 C 32.824219 30.441406 33.011719 30.429688 33.203125 30.40625 C 33.996094 30.304688 34.675781 30.027344 35.238281 29.574219 L 35.195312 30.0625 L 38.433594 29.65625 L 38.53125 28.589844 L 39.171875 29.5625 L 41.839844 29.230469 L 42.445312 22.71875 C 42.851562 22.871094 43.289062 22.949219 43.746094 22.949219 C 43.925781 22.949219 44.109375 22.9375 44.296875 22.914062 C 44.878906 22.839844 45.414062 22.652344 45.878906 22.355469 C 46.28125 22.097656 46.613281 21.773438 46.871094 21.386719 L 47.257812 17.527344 Z M 17.804688 23.003906 C 17.800781 23.015625 17.769531 23.058594 17.695312 23.113281 C 17.625 23.167969 17.558594 23.199219 17.503906 23.203125 C 17.472656 23.207031 17.441406 23.210938 17.414062 23.210938 C 17.3125 23.210938 17.265625 23.183594 17.230469 23.15625 C 17.160156 23.101562 17.136719 23.054688 17.125 22.96875 C 17.101562 22.773438 17.140625 22.613281 17.253906 22.449219 C 17.351562 22.3125 17.460938 22.246094 17.636719 22.222656 C 17.664062 22.222656 17.683594 22.21875 17.703125 22.21875 C 17.773438 22.21875 17.808594 22.234375 17.835938 22.25 C 17.863281 22.265625 17.878906 22.28125 17.898438 22.335938 L 17.972656 22.5625 Z M 23.265625 22.3125 C 23.171875 22.445312 23.066406 22.507812 22.898438 22.527344 C 22.863281 22.535156 22.832031 22.535156 22.804688 22.535156 C 22.699219 22.535156 22.652344 22.507812 22.617188 22.484375 C 22.574219 22.453125 22.535156 22.414062 22.519531 22.292969 C 22.496094 22.089844 22.53125 21.929688 22.644531 21.769531 C 22.738281 21.636719 22.84375 21.570312 23.011719 21.550781 C 23.042969 21.546875 23.074219 21.546875 23.105469 21.546875 C 23.210938 21.546875 23.257812 21.570312 23.292969 21.597656 C 23.335938 21.628906 23.375 21.667969 23.390625 21.789062 C 23.414062 21.992188 23.375 22.152344 23.265625 22.3125 Z M 24.277344 25.417969 C 24.234375 25.390625 24.1875 25.359375 24.140625 25.332031 C 24.265625 25.285156 24.390625 25.234375 24.507812 25.175781 C 24.429688 25.253906 24.351562 25.335938 24.277344 25.417969 Z M 27.347656 27.902344 C 27.257812 28.039062 27.152344 28.101562 26.980469 28.121094 C 26.949219 28.125 26.917969 28.128906 26.886719 28.128906 C 26.785156 28.128906 26.734375 28.101562 26.699219 28.074219 C 26.65625 28.042969 26.617188 28.003906 26.605469 27.882812 C 26.578125 27.683594 26.617188 27.519531 26.726562 27.359375 C 26.820312 27.226562 26.925781 27.164062 27.09375 27.144531 C 27.128906 27.140625 27.160156 27.136719 27.1875 27.136719 C 27.292969 27.136719 27.34375 27.164062 27.375 27.1875 C 27.417969 27.21875 27.457031 27.257812 27.472656 27.378906 C 27.5 27.582031 27.460938 27.742188 27.347656 27.902344 Z M 30.089844 24.816406 C 30.019531 24.90625 29.949219 25 29.890625 25.09375 C 29.742188 24.941406 29.578125 24.804688 29.398438 24.683594 L 30.304688 24.570312 C 30.230469 24.648438 30.160156 24.730469 30.089844 24.816406 Z M 33.28125 27.160156 C 33.1875 27.296875 33.082031 27.359375 32.910156 27.378906 C 32.878906 27.382812 32.847656 27.386719 32.820312 27.386719 C 32.714844 27.386719 32.664062 27.359375 32.628906 27.332031 C 32.589844 27.300781 32.550781 27.261719 32.535156 27.140625 C 32.507812 26.9375 32.546875 26.777344 32.65625 26.617188 C 32.75 26.484375 32.855469 26.421875 33.027344 26.402344 C 33.058594 26.398438 33.089844 26.394531 33.117188 26.394531 C 33.222656 26.394531 33.273438 26.421875 33.308594 26.445312 C 33.351562 26.476562 33.390625 26.515625 33.402344 26.636719 C 33.429688 26.839844 33.390625 27 33.28125 27.160156 Z M 35.730469 24.261719 C 35.609375 24.148438 35.472656 24.039062 35.328125 23.941406 L 35.765625 23.886719 Z M 37.863281 22.820312 L 37.886719 22.570312 L 38.035156 22.796875 Z M 39.164062 23.550781 L 39.109375 23.46875 L 39.171875 23.460938 Z M 41.269531 22.394531 L 41.304688 22.03125 C 41.421875 22.140625 41.554688 22.246094 41.695312 22.339844 Z M 41.269531 22.394531 " fill-opacity="1" fill-rule="nonzero"/></g><path fill="#ffffff" d="M 17.691406 25.410156 C 16.933594 25.507812 16.265625 25.371094 15.695312 25 C 15.121094 24.632812 14.789062 24.09375 14.699219 23.378906 C 14.589844 22.503906 14.800781 21.75 15.328125 21.125 C 15.855469 20.496094 16.554688 20.128906 17.433594 20.019531 C 17.792969 19.972656 18.128906 19.980469 18.4375 20.042969 C 18.75 20.101562 19.011719 20.207031 19.226562 20.351562 C 19.441406 20.5 19.621094 20.660156 19.769531 20.835938 C 19.917969 21.011719 20.035156 21.207031 20.125 21.417969 L 18.683594 22.078125 C 18.605469 21.84375 18.460938 21.664062 18.253906 21.539062 C 18.042969 21.417969 17.804688 21.371094 17.535156 21.40625 C 17.128906 21.457031 16.808594 21.648438 16.578125 21.976562 C 16.347656 22.308594 16.257812 22.671875 16.304688 23.070312 C 16.34375 23.375 16.484375 23.621094 16.722656 23.808594 C 16.964844 23.996094 17.257812 24.066406 17.605469 24.023438 C 17.804688 24 18 23.914062 18.191406 23.773438 C 18.378906 23.632812 18.507812 23.472656 18.574219 23.296875 L 19.898438 23.933594 C 19.65625 24.394531 19.335938 24.742188 18.929688 24.976562 C 18.527344 25.214844 18.113281 25.359375 17.691406 25.410156 Z M 17.691406 25.410156 " fill-opacity="1" fill-rule="nonzero"/><path fill="#ffffff" d="M 23.089844 24.738281 C 22.3125 24.832031 21.644531 24.695312 21.078125 24.316406 C 20.511719 23.9375 20.183594 23.402344 20.097656 22.703125 C 19.992188 21.875 20.199219 21.132812 20.71875 20.484375 C 21.238281 19.835938 21.941406 19.453125 22.828125 19.34375 C 23.597656 19.246094 24.265625 19.386719 24.832031 19.761719 C 25.398438 20.136719 25.722656 20.667969 25.8125 21.359375 C 25.914062 22.195312 25.710938 22.941406 25.195312 23.59375 C 24.679688 24.246094 23.976562 24.625 23.089844 24.738281 Z M 23 23.347656 C 23.402344 23.296875 23.71875 23.109375 23.945312 22.78125 C 24.171875 22.453125 24.257812 22.089844 24.207031 21.6875 C 24.167969 21.367188 24.027344 21.117188 23.789062 20.9375 C 23.546875 20.757812 23.253906 20.691406 22.910156 20.734375 C 22.507812 20.785156 22.191406 20.972656 21.964844 21.300781 C 21.738281 21.625 21.652344 21.992188 21.703125 22.394531 C 21.742188 22.714844 21.882812 22.964844 22.121094 23.144531 C 22.363281 23.324219 22.65625 23.390625 23 23.347656 Z M 23 23.347656 " fill-opacity="1" fill-rule="nonzero"/><path fill="#ffffff" d="M 32.226562 23.5 L 30.664062 23.695312 L 30.957031 20.503906 L 29.511719 23.839844 L 28.8125 23.925781 L 27.953125 20.878906 L 27.660156 24.070312 L 26.097656 24.265625 L 26.585938 18.960938 L 28.695312 18.695312 L 29.359375 21.128906 L 30.503906 18.46875 L 32.71875 18.191406 Z M 32.226562 23.5 " fill-opacity="1" fill-rule="nonzero"/><path fill="#ffffff" d="M 34.628906 23.199219 L 33.0625 23.394531 L 33.554688 18.085938 L 35.121094 17.890625 Z M 34.628906 23.199219 " fill-opacity="1" fill-rule="nonzero"/><path fill="#ffffff" d="M 40.433594 22.472656 L 38.933594 22.660156 L 37.28125 20.144531 L 37.027344 22.898438 L 35.464844 23.09375 L 35.957031 17.785156 L 37.566406 17.585938 L 39.121094 19.9375 L 39.363281 17.359375 L 40.925781 17.164062 Z M 40.433594 22.472656 " fill-opacity="1" fill-rule="nonzero"/><path fill="#ffffff" d="M 44.195312 22.09375 C 43.449219 22.1875 42.789062 22.054688 42.207031 21.691406 C 41.628906 21.328125 41.292969 20.785156 41.203125 20.0625 C 41.09375 19.207031 41.308594 18.457031 41.84375 17.820312 C 42.375 17.183594 43.125 16.800781 44.089844 16.683594 C 44.65625 16.609375 45.152344 16.691406 45.570312 16.929688 C 45.992188 17.164062 46.296875 17.46875 46.492188 17.835938 L 45.125 18.605469 C 45.0625 18.445312 44.925781 18.3125 44.71875 18.203125 C 44.507812 18.097656 44.28125 18.058594 44.039062 18.089844 C 43.644531 18.136719 43.328125 18.324219 43.089844 18.648438 C 42.851562 18.972656 42.753906 19.339844 42.808594 19.753906 C 42.84375 20.046875 42.980469 20.289062 43.21875 20.484375 C 43.453125 20.675781 43.75 20.75 44.105469 20.707031 C 44.363281 20.675781 44.589844 20.566406 44.78125 20.386719 L 44.796875 20.1875 L 43.835938 20.308594 L 43.976562 18.90625 L 46.492188 18.589844 L 46.285156 20.773438 C 46.078125 21.132812 45.792969 21.429688 45.433594 21.660156 C 45.070312 21.890625 44.660156 22.035156 44.195312 22.09375 Z M 44.195312 22.09375 " fill-opacity="1" fill-rule="nonzero"/><g clip-path="url(#d975cdb02c)"><path fill="#ffffff" d="M 21.960938 30.980469 C 21.414062 31.050781 20.898438 31.023438 20.417969 30.898438 C 19.9375 30.777344 19.546875 30.574219 19.25 30.296875 L 20.039062 29.066406 C 20.25 29.277344 20.527344 29.433594 20.875 29.539062 C 21.226562 29.644531 21.574219 29.675781 21.917969 29.632812 C 22.054688 29.617188 22.152344 29.582031 22.214844 29.527344 C 22.28125 29.46875 22.308594 29.414062 22.300781 29.359375 C 22.292969 29.28125 22.195312 29.21875 22.019531 29.171875 C 21.839844 29.125 21.625 29.082031 21.371094 29.035156 C 21.121094 28.984375 20.867188 28.921875 20.613281 28.839844 C 20.359375 28.761719 20.132812 28.625 19.9375 28.4375 C 19.742188 28.25 19.625 28.015625 19.589844 27.738281 C 19.527344 27.25 19.671875 26.792969 20.015625 26.371094 C 20.363281 25.953125 20.878906 25.699219 21.574219 25.609375 C 22 25.558594 22.421875 25.578125 22.839844 25.675781 C 23.253906 25.773438 23.621094 25.945312 23.933594 26.1875 L 23.132812 27.390625 C 22.90625 27.214844 22.640625 27.089844 22.335938 27.019531 C 22.027344 26.945312 21.746094 26.925781 21.480469 26.960938 C 21.382812 26.972656 21.308594 27 21.257812 27.046875 C 21.203125 27.09375 21.183594 27.144531 21.191406 27.207031 C 21.199219 27.28125 21.292969 27.339844 21.472656 27.386719 C 21.652344 27.429688 21.867188 27.476562 22.121094 27.527344 C 22.371094 27.578125 22.625 27.644531 22.882812 27.722656 C 23.140625 27.804688 23.367188 27.9375 23.5625 28.125 C 23.757812 28.3125 23.875 28.546875 23.910156 28.824219 C 23.976562 29.371094 23.835938 29.847656 23.480469 30.25 C 23.121094 30.65625 22.617188 30.898438 21.960938 30.980469 Z M 21.960938 30.980469 " fill-opacity="1" fill-rule="nonzero"/></g><path fill="#ffffff" d="M 27.171875 30.328125 C 26.398438 30.425781 25.726562 30.285156 25.160156 29.90625 C 24.59375 29.53125 24.269531 28.992188 24.179688 28.296875 C 24.078125 27.464844 24.285156 26.726562 24.804688 26.074219 C 25.324219 25.425781 26.027344 25.046875 26.914062 24.933594 C 27.683594 24.839844 28.351562 24.976562 28.914062 25.351562 C 29.480469 25.726562 29.808594 26.261719 29.894531 26.953125 C 30 27.789062 29.792969 28.53125 29.277344 29.183594 C 28.761719 29.835938 28.058594 30.21875 27.171875 30.328125 Z M 27.085938 28.941406 C 27.488281 28.890625 27.800781 28.699219 28.027344 28.375 C 28.253906 28.046875 28.34375 27.679688 28.292969 27.277344 C 28.25 26.957031 28.113281 26.707031 27.871094 26.527344 C 27.632812 26.347656 27.339844 26.28125 26.992188 26.324219 C 26.589844 26.375 26.277344 26.5625 26.050781 26.890625 C 25.824219 27.21875 25.734375 27.582031 25.785156 27.984375 C 25.824219 28.304688 25.964844 28.554688 26.207031 28.734375 C 26.445312 28.914062 26.738281 28.984375 27.085938 28.941406 Z M 27.085938 28.941406 " fill-opacity="1" fill-rule="nonzero"/><path fill="#ffffff" d="M 33.101562 29.585938 C 32.328125 29.683594 31.65625 29.542969 31.09375 29.164062 C 30.527344 28.789062 30.199219 28.25 30.113281 27.554688 C 30.007812 26.722656 30.214844 25.984375 30.734375 25.332031 C 31.253906 24.683594 31.957031 24.304688 32.84375 24.191406 C 33.613281 24.097656 34.28125 24.234375 34.847656 24.609375 C 35.414062 24.984375 35.738281 25.519531 35.824219 26.210938 C 35.929688 27.046875 35.722656 27.789062 35.207031 28.441406 C 34.691406 29.09375 33.988281 29.476562 33.101562 29.585938 Z M 33.015625 28.199219 C 33.417969 28.148438 33.730469 27.957031 33.957031 27.632812 C 34.183594 27.304688 34.273438 26.9375 34.222656 26.535156 C 34.183594 26.214844 34.042969 25.964844 33.800781 25.785156 C 33.5625 25.605469 33.269531 25.539062 32.921875 25.582031 C 32.519531 25.632812 32.207031 25.820312 31.980469 26.148438 C 31.753906 26.476562 31.664062 26.839844 31.714844 27.242188 C 31.757812 27.5625 31.894531 27.8125 32.136719 27.992188 C 32.375 28.171875 32.667969 28.242188 33.015625 28.199219 Z M 33.015625 28.199219 " fill-opacity="1" fill-rule="nonzero"/><path fill="#ffffff" d="M 41.082031 28.492188 L 39.578125 28.679688 L 37.925781 26.167969 L 37.675781 28.917969 L 36.109375 29.113281 L 36.601562 23.808594 L 38.210938 23.605469 L 39.765625 25.960938 L 40.007812 23.382812 L 41.574219 23.1875 Z M 41.082031 28.492188 " fill-opacity="1" fill-rule="nonzero"/><path fill="#00a09d" d="M 23.050781 20.109375 C 23.050781 20.234375 23.007812 20.34375 22.917969 20.429688 C 22.828125 20.519531 22.722656 20.566406 22.597656 20.566406 C 22.46875 20.566406 22.363281 20.519531 22.273438 20.429688 C 22.183594 20.34375 22.140625 20.234375 22.140625 20.109375 C 22.140625 19.980469 22.183594 19.875 22.273438 19.785156 C 22.363281 19.695312 22.46875 19.652344 22.597656 19.652344 C 22.722656 19.652344 22.828125 19.695312 22.917969 19.785156 C 23.007812 19.875 23.050781 19.980469 23.050781 20.109375 Z M 23.050781 20.109375 " fill-opacity="1" fill-rule="nonzero"/><path fill="#00a09d" d="M 40.308594 17.890625 C 40.308594 18.015625 40.261719 18.125 40.171875 18.214844 C 40.085938 18.304688 39.976562 18.347656 39.851562 18.347656 C 39.722656 18.347656 39.617188 18.304688 39.527344 18.214844 C 39.4375 18.125 39.394531 18.015625 39.394531 17.890625 C 39.394531 17.765625 39.4375 17.65625 39.527344 17.570312 C 39.617188 17.480469 39.722656 17.433594 39.851562 17.433594 C 39.976562 17.433594 40.085938 17.480469 40.171875 17.570312 C 40.261719 17.65625 40.308594 17.765625 40.308594 17.890625 Z M 40.308594 17.890625 " fill-opacity="1" fill-rule="nonzero"/><g clip-path="url(#b6ac0367ab)"><path fill="#00a09d" d="M 39.644531 10.257812 L 40.058594 10.257812 L 40.058594 17.890625 L 39.644531 17.890625 Z M 39.644531 10.257812 " fill-opacity="1" fill-rule="nonzero"/></g><g clip-path="url(#b336bdd4c0)"><path fill="#00a09d" d="M 22.402344 10.257812 L 22.816406 10.257812 L 22.816406 19.921875 L 22.402344 19.921875 Z M 22.402344 10.257812 " fill-opacity="1" fill-rule="nonzero"/></g></svg>