<svg xmlns="http://www.w3.org/2000/svg" xmlns:xlink="http://www.w3.org/1999/xlink" width="82" zoomAndPan="magnify" viewBox="0 0 61.5 44.999999" height="60" preserveAspectRatio="xMidYMid meet" version="1.0"><defs><clipPath id="3cfae05641"><path d="M 0 0.179688 L 61.003906 0.179688 L 61.003906 44.816406 L 0 44.816406 Z M 0 0.179688 " clip-rule="nonzero"/></clipPath><clipPath id="b259399606"><path d="M 0 0.179688 L 19 0.179688 L 19 19 L 0 19 Z M 0 0.179688 " clip-rule="nonzero"/></clipPath><clipPath id="d3f0402708"><path d="M -20.503906 0.5 L 0.0742188 -20.082031 L 18.058594 -2.101562 L -2.523438 18.480469 Z M -20.503906 0.5 " clip-rule="nonzero"/></clipPath><clipPath id="53fd48795a"><path d="M -10.230469 -9.777344 L 18.027344 -2.070312 L -2.523438 18.480469 Z M -10.230469 -9.777344 " clip-rule="nonzero"/></clipPath><clipPath id="4965c48e77"><path d="M 1.320312 1.648438 L 7.617188 1.648438 L 7.617188 7.640625 L 1.320312 7.640625 Z M 1.320312 1.648438 " clip-rule="nonzero"/></clipPath><clipPath id="53ba79e052"><path d="M 4.464844 1.648438 L 5.207031 3.9375 L 7.605469 3.9375 L 5.664062 5.351562 L 6.40625 7.640625 L 4.464844 6.226562 L 2.519531 7.640625 L 3.261719 5.351562 L 1.320312 3.9375 L 3.722656 3.9375 Z M 4.464844 1.648438 " clip-rule="nonzero"/></clipPath><clipPath id="cee4e5d968"><path d="M 40.324219 15.476562 L 56.691406 15.476562 L 56.691406 29.609375 L 40.324219 29.609375 Z M 40.324219 15.476562 " clip-rule="nonzero"/></clipPath><clipPath id="bb06678848"><path d="M 40.324219 20 L 56.691406 20 L 56.691406 29.609375 L 40.324219 29.609375 Z M 40.324219 20 " clip-rule="nonzero"/></clipPath></defs><g clip-path="url(#3cfae05641)"><path fill="#00a09d" d="M 0 0.179688 L 61.027344 0.179688 L 61.027344 44.820312 L 0 44.820312 Z M 0 0.179688 " fill-opacity="1" fill-rule="nonzero"/></g><g clip-path="url(#b259399606)"><g clip-path="url(#d3f0402708)"><g clip-path="url(#53fd48795a)"><path fill="#ff914d" d="M -20.503906 0.5 L 0.0742188 -20.082031 L 18.058594 -2.101562 L -2.523438 18.480469 Z M -20.503906 0.5 " fill-opacity="1" fill-rule="nonzero"/></g></g></g><g clip-path="url(#4965c48e77)"><g clip-path="url(#53ba79e052)"><path fill="#ffffff" d="M 1.320312 1.648438 L 7.617188 1.648438 L 7.617188 7.640625 L 1.320312 7.640625 Z M 1.320312 1.648438 " fill-opacity="1" fill-rule="nonzero"/></g></g><path stroke-linecap="butt" transform="matrix(0.743952, 0, 0, 0.743952, 4.463709, 23.230902)" fill="none" stroke-linejoin="miter" d="M 0.00152464 1.501112 L 38.630761 1.501112 " stroke="#d8d8d8" stroke-width="3" stroke-opacity="1" stroke-miterlimit="4"/><path stroke-linecap="butt" transform="matrix(0.743952, -0.000000000000000092, 0.000000000000000092, 0.743952, 4.463709, 15.476006)" fill="none" stroke-linejoin="miter" d="M 0.00152464 2.500071 L 24.595699 2.500071 " stroke="#ffffff" stroke-width="5" stroke-opacity="1" stroke-miterlimit="4"/><g clip-path="url(#cee4e5d968)"><path fill="#ffffff" d="M 41.949219 15.476562 L 54.914062 15.476562 C 55.128906 15.476562 55.332031 15.515625 55.53125 15.597656 C 55.730469 15.679688 55.90625 15.796875 56.058594 15.949219 C 56.210938 16.101562 56.328125 16.277344 56.410156 16.476562 C 56.492188 16.675781 56.53125 16.882812 56.53125 17.097656 L 56.53125 27.898438 C 56.53125 28.113281 56.492188 28.320312 56.410156 28.519531 C 56.328125 28.714844 56.210938 28.890625 56.058594 29.042969 C 55.90625 29.195312 55.730469 29.3125 55.53125 29.394531 C 55.332031 29.476562 55.128906 29.519531 54.914062 29.519531 L 41.949219 29.519531 C 41.734375 29.519531 41.527344 29.476562 41.332031 29.394531 C 41.132812 29.3125 40.957031 29.195312 40.804688 29.042969 C 40.652344 28.890625 40.535156 28.714844 40.453125 28.519531 C 40.371094 28.320312 40.328125 28.113281 40.328125 27.898438 L 40.328125 17.097656 C 40.328125 16.882812 40.371094 16.675781 40.453125 16.476562 C 40.535156 16.277344 40.652344 16.101562 40.804688 15.949219 C 40.957031 15.796875 41.132812 15.679688 41.332031 15.597656 C 41.527344 15.515625 41.734375 15.476562 41.949219 15.476562 Z M 41.949219 15.476562 " fill-opacity="1" fill-rule="nonzero"/></g><g clip-path="url(#bb06678848)"><path fill="#00c4cc" d="M 56.375 24.277344 L 52.59375 20.496094 C 52.488281 20.390625 52.359375 20.335938 52.210938 20.335938 C 52.0625 20.335938 51.933594 20.390625 51.828125 20.496094 L 49.511719 22.8125 L 48.003906 21.304688 C 47.898438 21.199219 47.769531 21.148438 47.621094 21.148438 C 47.472656 21.148438 47.34375 21.199219 47.238281 21.304688 L 43.886719 24.65625 L 40.871094 24.65625 C 40.722656 24.65625 40.59375 24.710938 40.488281 24.816406 C 40.382812 24.921875 40.328125 25.046875 40.328125 25.199219 L 40.328125 27.898438 C 40.328125 28.113281 40.371094 28.320312 40.453125 28.519531 C 40.535156 28.714844 40.652344 28.890625 40.804688 29.042969 C 40.957031 29.195312 41.132812 29.3125 41.332031 29.394531 C 41.527344 29.476562 41.734375 29.519531 41.949219 29.519531 L 54.914062 29.519531 C 55.128906 29.519531 55.332031 29.476562 55.53125 29.394531 C 55.730469 29.3125 55.90625 29.195312 56.058594 29.042969 C 56.210938 28.890625 56.328125 28.714844 56.410156 28.519531 C 56.492188 28.320312 56.53125 28.113281 56.53125 27.898438 L 56.53125 24.65625 C 56.53125 24.507812 56.480469 24.382812 56.375 24.277344 Z M 56.375 24.277344 " fill-opacity="1" fill-rule="nonzero"/></g><path fill="#ffbd59" d="M 45.730469 19.257812 C 45.730469 19.472656 45.691406 19.679688 45.609375 19.875 C 45.523438 20.074219 45.40625 20.25 45.257812 20.402344 C 45.105469 20.554688 44.929688 20.671875 44.730469 20.753906 C 44.53125 20.835938 44.324219 20.875 44.109375 20.875 C 43.894531 20.875 43.6875 20.835938 43.492188 20.753906 C 43.292969 20.671875 43.117188 20.554688 42.964844 20.402344 C 42.8125 20.25 42.695312 20.074219 42.613281 19.875 C 42.53125 19.679688 42.492188 19.472656 42.492188 19.257812 C 42.492188 19.042969 42.53125 18.835938 42.613281 18.636719 C 42.695312 18.4375 42.8125 18.261719 42.964844 18.109375 C 43.117188 17.957031 43.292969 17.84375 43.492188 17.757812 C 43.6875 17.675781 43.894531 17.636719 44.109375 17.636719 C 44.324219 17.636719 44.53125 17.675781 44.730469 17.757812 C 44.929688 17.84375 45.105469 17.957031 45.257812 18.109375 C 45.40625 18.261719 45.523438 18.4375 45.609375 18.636719 C 45.691406 18.835938 45.730469 19.042969 45.730469 19.257812 Z M 45.730469 19.257812 " fill-opacity="1" fill-rule="nonzero"/><path stroke-linecap="butt" transform="matrix(0.743952, 0, 0, 0.743952, 4.463709, 27.426295)" fill="none" stroke-linejoin="miter" d="M 0.00152464 1.501004 L 38.630761 1.501004 " stroke="#d8d8d8" stroke-width="3" stroke-opacity="1" stroke-miterlimit="4"/></svg>