<svg xmlns="http://www.w3.org/2000/svg" xmlns:xlink="http://www.w3.org/1999/xlink" width="82" zoomAndPan="magnify" viewBox="0 0 61.5 44.999999" height="60" preserveAspectRatio="xMidYMid meet" version="1.0"><defs><clipPath id="00e5cc5c33"><path d="M 0 0.179688 L 19 0.179688 L 19 19 L 0 19 Z M 0 0.179688 " clip-rule="nonzero"/></clipPath><clipPath id="49ba5d6ebc"><path d="M -20.503906 0.5 L 0.0742188 -20.082031 L 18.058594 -2.101562 L -2.523438 18.480469 Z M -20.503906 0.5 " clip-rule="nonzero"/></clipPath><clipPath id="428c444398"><path d="M -10.230469 -9.777344 L 18.027344 -2.070312 L -2.523438 18.480469 Z M -10.230469 -9.777344 " clip-rule="nonzero"/></clipPath><clipPath id="e2988e9f35"><path d="M 1.320312 1.648438 L 7.617188 1.648438 L 7.617188 7.640625 L 1.320312 7.640625 Z M 1.320312 1.648438 " clip-rule="nonzero"/></clipPath><clipPath id="adf3877c89"><path d="M 4.464844 1.648438 L 5.207031 3.9375 L 7.605469 3.9375 L 5.664062 5.351562 L 6.40625 7.640625 L 4.464844 6.226562 L 2.519531 7.640625 L 3.261719 5.351562 L 1.320312 3.9375 L 3.722656 3.9375 Z M 4.464844 1.648438 " clip-rule="nonzero"/></clipPath><clipPath id="d98a2c26ff"><path d="M 19.121094 11 L 42 11 L 42 34.511719 L 19.121094 34.511719 Z M 19.121094 11 " clip-rule="nonzero"/></clipPath><clipPath id="1f263d28c9"><path d="M 32 10.703125 L 38 10.703125 L 38 16 L 32 16 Z M 32 10.703125 " clip-rule="nonzero"/></clipPath></defs><g clip-path="url(#00e5cc5c33)"><g clip-path="url(#49ba5d6ebc)"><g clip-path="url(#428c444398)"><path fill="#ff914d" d="M -20.503906 0.5 L 0.0742188 -20.082031 L 18.058594 -2.101562 L -2.523438 18.480469 Z M -20.503906 0.5 " fill-opacity="1" fill-rule="nonzero"/></g></g></g><g clip-path="url(#e2988e9f35)"><g clip-path="url(#adf3877c89)"><path fill="#ffffff" d="M 1.320312 1.648438 L 7.617188 1.648438 L 7.617188 7.640625 L 1.320312 7.640625 Z M 1.320312 1.648438 " fill-opacity="1" fill-rule="nonzero"/></g></g><path fill="#00c4cc" d="M 34.972656 29.972656 L 31.585938 29.972656 L 31.585938 29.289062 L 32.917969 29.289062 L 32.917969 27.949219 L 31.585938 27.949219 L 31.585938 27.265625 L 34.972656 27.265625 L 34.972656 27.949219 L 33.492188 27.949219 L 33.492188 29.289062 L 34.972656 29.289062 Z M 34.972656 29.972656 " fill-opacity="1" fill-rule="nonzero"/><path fill="#00c4cc" d="M 33.300781 26.695312 C 32.953125 26.695312 32.664062 26.644531 32.429688 26.542969 C 32.257812 26.464844 32.101562 26.359375 31.964844 26.226562 C 31.828125 26.09375 31.726562 25.949219 31.660156 25.789062 C 31.570312 25.578125 31.527344 25.335938 31.527344 25.058594 C 31.527344 24.558594 31.683594 24.160156 31.992188 23.859375 C 32.300781 23.558594 32.730469 23.410156 33.285156 23.410156 C 33.832031 23.410156 34.257812 23.558594 34.566406 23.855469 C 34.875 24.152344 35.03125 24.550781 35.03125 25.050781 C 35.03125 25.554688 34.878906 25.953125 34.570312 26.25 C 34.261719 26.546875 33.839844 26.695312 33.300781 26.695312 Z M 33.277344 25.992188 C 33.660156 25.992188 33.953125 25.902344 34.148438 25.726562 C 34.347656 25.550781 34.445312 25.324219 34.445312 25.050781 C 34.445312 24.777344 34.347656 24.554688 34.152344 24.378906 C 33.953125 24.203125 33.660156 24.117188 33.265625 24.117188 C 32.878906 24.117188 32.589844 24.203125 32.398438 24.371094 C 32.207031 24.542969 32.113281 24.769531 32.113281 25.050781 C 32.113281 25.332031 32.207031 25.5625 32.402344 25.734375 C 32.59375 25.90625 32.886719 25.992188 33.277344 25.992188 Z M 33.277344 25.992188 " fill-opacity="1" fill-rule="nonzero"/><path fill="#00c4cc" d="M 31.585938 22.878906 L 31.585938 22.195312 L 33.417969 22.195312 C 33.710938 22.195312 33.898438 22.1875 33.984375 22.171875 C 34.125 22.140625 34.234375 22.070312 34.320312 21.960938 C 34.402344 21.851562 34.445312 21.703125 34.445312 21.511719 C 34.445312 21.316406 34.40625 21.167969 34.328125 21.070312 C 34.246094 20.972656 34.148438 20.914062 34.035156 20.894531 C 33.917969 20.875 33.726562 20.863281 33.460938 20.863281 L 31.585938 20.863281 L 31.585938 20.179688 L 33.363281 20.179688 C 33.769531 20.179688 34.058594 20.199219 34.226562 20.234375 C 34.394531 20.269531 34.535156 20.339844 34.652344 20.4375 C 34.765625 20.539062 34.859375 20.671875 34.929688 20.835938 C 34.996094 21.003906 35.03125 21.222656 35.03125 21.488281 C 35.03125 21.8125 34.992188 22.058594 34.917969 22.226562 C 34.84375 22.394531 34.746094 22.523438 34.628906 22.621094 C 34.507812 22.71875 34.382812 22.78125 34.253906 22.8125 C 34.058594 22.859375 33.769531 22.882812 33.390625 22.882812 L 31.585938 22.882812 Z M 31.585938 22.878906 " fill-opacity="1" fill-rule="nonzero"/><path fill="#00c4cc" d="M 34.972656 19.457031 L 31.585938 19.457031 L 31.585938 18.015625 C 31.585938 17.652344 31.613281 17.390625 31.675781 17.226562 C 31.738281 17.0625 31.84375 16.929688 32 16.832031 C 32.15625 16.734375 32.335938 16.683594 32.535156 16.683594 C 32.789062 16.683594 33 16.757812 33.164062 16.90625 C 33.332031 17.058594 33.433594 17.28125 33.476562 17.578125 C 33.5625 17.429688 33.660156 17.308594 33.761719 17.210938 C 33.867188 17.117188 34.046875 16.984375 34.3125 16.824219 L 34.972656 16.410156 L 34.972656 17.226562 L 34.234375 17.722656 C 33.972656 17.898438 33.804688 18.019531 33.738281 18.082031 C 33.667969 18.148438 33.621094 18.214844 33.597656 18.289062 C 33.570312 18.359375 33.558594 18.476562 33.558594 18.632812 L 33.558594 18.769531 L 34.972656 18.769531 Z M 33.019531 18.769531 L 33.019531 18.265625 C 33.019531 17.9375 33.003906 17.730469 32.976562 17.648438 C 32.949219 17.570312 32.902344 17.503906 32.832031 17.457031 C 32.765625 17.410156 32.679688 17.390625 32.578125 17.390625 C 32.464844 17.390625 32.371094 17.417969 32.300781 17.480469 C 32.230469 17.542969 32.1875 17.628906 32.167969 17.738281 C 32.160156 17.792969 32.15625 17.960938 32.15625 18.238281 L 32.15625 18.769531 Z M 33.019531 18.769531 " fill-opacity="1" fill-rule="nonzero"/><path fill="#00c4cc" d="M 30.835938 29.992188 L 28.230469 29.992188 L 28.230469 20.171875 C 27.277344 21.058594 26.15625 21.71875 24.863281 22.144531 L 24.863281 19.78125 C 25.542969 19.558594 26.28125 19.136719 27.078125 18.515625 C 27.875 17.894531 28.421875 17.167969 28.71875 16.339844 L 30.835938 16.339844 Z M 30.835938 29.992188 " fill-opacity="1" fill-rule="nonzero"/><g clip-path="url(#d98a2c26ff)"><path fill="#00c4cc" d="M 30.5 34.28125 C 28.964844 34.28125 27.472656 33.980469 26.070312 33.386719 C 24.714844 32.8125 23.496094 31.992188 22.453125 30.949219 C 21.40625 29.90625 20.585938 28.6875 20.015625 27.332031 C 19.421875 25.929688 19.121094 24.4375 19.121094 22.902344 C 19.121094 21.367188 19.421875 19.875 20.015625 18.472656 C 20.585938 17.117188 21.40625 15.898438 22.453125 14.855469 C 23.496094 13.8125 24.714844 12.992188 26.070312 12.417969 C 27.472656 11.824219 28.964844 11.523438 30.5 11.523438 C 32.035156 11.523438 33.523438 11.824219 34.929688 12.417969 C 34.976562 12.4375 35.027344 12.457031 35.074219 12.480469 C 35.429688 12.636719 35.59375 13.050781 35.4375 13.410156 C 35.320312 13.671875 35.0625 13.832031 34.792969 13.832031 C 34.695312 13.832031 34.601562 13.8125 34.507812 13.769531 C 34.464844 13.753906 34.421875 13.734375 34.378906 13.714844 C 33.152344 13.195312 31.84375 12.933594 30.5 12.933594 C 29.152344 12.933594 27.847656 13.195312 26.617188 13.714844 C 25.429688 14.21875 24.363281 14.9375 23.449219 15.851562 C 22.535156 16.765625 21.816406 17.832031 21.3125 19.019531 C 20.792969 20.25 20.527344 21.554688 20.527344 22.902344 C 20.527344 24.246094 20.792969 25.554688 21.3125 26.78125 C 21.816406 27.96875 22.535156 29.035156 23.449219 29.953125 C 24.363281 30.867188 25.429688 31.585938 26.617188 32.089844 C 27.847656 32.609375 29.152344 32.871094 30.5 32.871094 C 31.84375 32.871094 33.152344 32.609375 34.378906 32.089844 C 35.566406 31.585938 36.632812 30.867188 37.550781 29.953125 C 38.464844 29.035156 39.183594 27.96875 39.6875 26.78125 C 40.207031 25.554688 40.46875 24.246094 40.46875 22.902344 C 40.46875 22.511719 40.785156 22.195312 41.175781 22.195312 C 41.5625 22.195312 41.878906 22.511719 41.878906 22.902344 C 41.878906 24.4375 41.578125 25.929688 40.984375 27.332031 C 40.410156 28.6875 39.589844 29.90625 38.546875 30.949219 C 37.5 31.992188 36.285156 32.8125 34.929688 33.386719 C 33.523438 33.980469 32.035156 34.28125 30.5 34.28125 Z M 30.5 34.28125 " fill-opacity="1" fill-rule="nonzero"/></g><path fill="#00c4cc" d="M 40.960938 20.800781 C 40.703125 20.800781 40.46875 20.628906 40.398438 20.371094 L 40.394531 20.355469 C 40.3125 20.046875 40.496094 19.726562 40.804688 19.640625 C 41.117188 19.558594 41.4375 19.742188 41.519531 20.054688 L 41.523438 20.066406 C 41.609375 20.375 41.425781 20.695312 41.113281 20.78125 C 41.0625 20.792969 41.011719 20.800781 40.960938 20.800781 Z M 40.09375 18.652344 C 39.882812 18.652344 39.679688 18.535156 39.574219 18.335938 L 39.570312 18.324219 C 39.421875 18.039062 39.535156 17.6875 39.820312 17.539062 C 40.105469 17.390625 40.457031 17.503906 40.605469 17.789062 L 40.613281 17.800781 C 40.761719 18.085938 40.648438 18.4375 40.363281 18.585938 C 40.277344 18.628906 40.183594 18.652344 40.09375 18.652344 Z M 38.824219 16.714844 C 38.671875 16.714844 38.519531 16.65625 38.40625 16.539062 L 38.398438 16.53125 C 38.171875 16.300781 38.175781 15.933594 38.40625 15.707031 C 38.636719 15.480469 39.003906 15.484375 39.230469 15.714844 L 39.242188 15.726562 C 39.464844 15.957031 39.460938 16.324219 39.230469 16.550781 C 39.117188 16.660156 38.96875 16.714844 38.824219 16.714844 Z M 38.824219 16.714844 " fill-opacity="1" fill-rule="nonzero"/><g clip-path="url(#1f263d28c9)"><path fill="#00c4cc" d="M 33.042969 15.113281 L 37.523438 15.328125 C 37.746094 15.339844 37.894531 15.105469 37.792969 14.910156 L 35.742188 10.921875 C 35.640625 10.726562 35.363281 10.710938 35.242188 10.898438 L 32.816406 14.671875 C 32.695312 14.859375 32.824219 15.105469 33.042969 15.113281 Z M 33.042969 15.113281 " fill-opacity="1" fill-rule="nonzero"/></g></svg>