<svg xmlns="http://www.w3.org/2000/svg" xmlns:xlink="http://www.w3.org/1999/xlink" width="82" zoomAndPan="magnify" viewBox="0 0 61.5 44.999999" height="60" preserveAspectRatio="xMidYMid meet" version="1.0"><defs><clipPath id="4b77bd8dba"><path d="M 0 0.179688 L 19 0.179688 L 19 19 L 0 19 Z M 0 0.179688 " clip-rule="nonzero"/></clipPath><clipPath id="659a29c82d"><path d="M -20.503906 0.5 L 0.0742188 -20.082031 L 18.058594 -2.101562 L -2.523438 18.480469 Z M -20.503906 0.5 " clip-rule="nonzero"/></clipPath><clipPath id="cadd25db56"><path d="M -10.230469 -9.777344 L 18.027344 -2.070312 L -2.523438 18.480469 Z M -10.230469 -9.777344 " clip-rule="nonzero"/></clipPath><clipPath id="e04fc351c2"><path d="M 1.320312 1.648438 L 7.617188 1.648438 L 7.617188 7.640625 L 1.320312 7.640625 Z M 1.320312 1.648438 " clip-rule="nonzero"/></clipPath><clipPath id="0ca516f3ee"><path d="M 4.464844 1.648438 L 5.207031 3.9375 L 7.605469 3.9375 L 5.664062 5.351562 L 6.40625 7.640625 L 4.464844 6.226562 L 2.519531 7.640625 L 3.261719 5.351562 L 1.320312 3.9375 L 3.722656 3.9375 Z M 4.464844 1.648438 " clip-rule="nonzero"/></clipPath><clipPath id="2567714839"><path d="M 8.921875 16.972656 L 51.167969 16.972656 L 51.167969 28.324219 L 8.921875 28.324219 Z M 8.921875 16.972656 " clip-rule="nonzero"/></clipPath><clipPath id="ae33521eb8"><path d="M 45.492188 16.972656 C 48.625 16.972656 51.164062 19.515625 51.164062 22.648438 C 51.164062 25.78125 48.625 28.324219 45.492188 28.324219 L 14.597656 28.324219 C 11.464844 28.324219 8.921875 25.78125 8.921875 22.648438 C 8.921875 19.515625 11.464844 16.972656 14.597656 16.972656 Z M 45.492188 16.972656 " clip-rule="nonzero"/></clipPath><clipPath id="ae2bd5c9fc"><path d="M 12.164062 19.949219 L 17.566406 19.949219 L 17.566406 25.351562 L 12.164062 25.351562 Z M 12.164062 19.949219 " clip-rule="nonzero"/></clipPath><clipPath id="51ca1f3352"><path d="M 14.867188 19.949219 C 13.375 19.949219 12.164062 21.15625 12.164062 22.648438 C 12.164062 24.140625 13.375 25.351562 14.867188 25.351562 C 16.359375 25.351562 17.566406 24.140625 17.566406 22.648438 C 17.566406 21.15625 16.359375 19.949219 14.867188 19.949219 Z M 14.867188 19.949219 " clip-rule="nonzero"/></clipPath><clipPath id="c70a69556f"><path d="M 45.828125 26.28125 L 51.777344 26.28125 L 51.777344 35 L 45.828125 35 Z M 45.828125 26.28125 " clip-rule="nonzero"/></clipPath></defs><g clip-path="url(#4b77bd8dba)"><g clip-path="url(#659a29c82d)"><g clip-path="url(#cadd25db56)"><path fill="#ff914d" d="M -20.503906 0.5 L 0.0742188 -20.082031 L 18.058594 -2.101562 L -2.523438 18.480469 Z M -20.503906 0.5 " fill-opacity="1" fill-rule="nonzero"/></g></g></g><g clip-path="url(#e04fc351c2)"><g clip-path="url(#0ca516f3ee)"><path fill="#ffffff" d="M 1.320312 1.648438 L 7.617188 1.648438 L 7.617188 7.640625 L 1.320312 7.640625 Z M 1.320312 1.648438 " fill-opacity="1" fill-rule="nonzero"/></g></g><g clip-path="url(#2567714839)"><g clip-path="url(#ae33521eb8)"><path fill="#00c4cc" d="M 8.921875 16.972656 L 51.167969 16.972656 L 51.167969 28.324219 L 8.921875 28.324219 Z M 8.921875 16.972656 " fill-opacity="1" fill-rule="nonzero"/></g></g><g clip-path="url(#ae2bd5c9fc)"><g clip-path="url(#51ca1f3352)"><path fill="#ffffff" d="M 12.164062 19.949219 L 17.566406 19.949219 L 17.566406 25.351562 L 12.164062 25.351562 Z M 12.164062 19.949219 " fill-opacity="1" fill-rule="nonzero"/></g></g><g clip-path="url(#c70a69556f)"><path fill="#ffffff" d="M 45.964844 26.453125 L 51.929688 31.21875 L 49.59375 31.492188 L 50.8125 33.859375 C 50.847656 33.925781 50.855469 33.996094 50.832031 34.066406 C 50.808594 34.140625 50.761719 34.195312 50.695312 34.226562 L 50.125 34.523438 L 49.554688 34.816406 C 49.488281 34.851562 49.417969 34.859375 49.34375 34.835938 C 49.273438 34.8125 49.21875 34.765625 49.183594 34.699219 L 47.964844 32.335938 L 46.386719 34.078125 Z M 45.964844 26.453125 " fill-opacity="1" fill-rule="nonzero"/><path fill="#00a09d" d="M 49.429688 34.984375 C 49.386719 34.984375 49.34375 34.976562 49.304688 34.964844 C 49.195312 34.929688 49.113281 34.863281 49.0625 34.761719 L 47.933594 32.574219 L 46.488281 34.167969 C 46.449219 34.214844 46.398438 34.226562 46.339844 34.207031 C 46.285156 34.1875 46.253906 34.144531 46.25 34.085938 L 45.828125 26.460938 C 45.824219 26.402344 45.847656 26.359375 45.902344 26.332031 C 45.953125 26.304688 46.003906 26.308594 46.050781 26.347656 L 52.015625 31.113281 C 52.0625 31.148438 52.078125 31.199219 52.0625 31.257812 C 52.042969 31.316406 52.007812 31.347656 51.945312 31.355469 L 49.808594 31.609375 L 50.9375 33.792969 C 50.988281 33.894531 50.996094 34 50.960938 34.109375 C 50.925781 34.21875 50.859375 34.296875 50.757812 34.351562 L 49.617188 34.9375 C 49.558594 34.96875 49.496094 34.984375 49.429688 34.984375 Z M 47.964844 32.199219 C 47.972656 32.199219 47.976562 32.199219 47.984375 32.199219 C 48.03125 32.203125 48.066406 32.230469 48.085938 32.273438 L 49.304688 34.636719 C 49.347656 34.71875 49.410156 34.738281 49.492188 34.695312 L 50.632812 34.105469 C 50.714844 34.0625 50.734375 34.003906 50.691406 33.921875 L 49.472656 31.558594 C 49.449219 31.515625 49.449219 31.472656 49.472656 31.429688 C 49.496094 31.386719 49.53125 31.363281 49.578125 31.359375 L 51.585938 31.121094 L 46.117188 26.753906 L 46.507812 33.742188 L 47.863281 32.242188 C 47.890625 32.210938 47.925781 32.199219 47.964844 32.199219 Z M 47.964844 32.199219 " fill-opacity="1" fill-rule="nonzero"/></g><path stroke-linecap="butt" transform="matrix(0.743952, 0, 0, 0.743952, 23.4977, 21.160886)" fill="none" stroke-linejoin="miter" d="M -0.00215876 1.999528 L 27.999706 1.999528 " stroke="#ffffff" stroke-width="4" stroke-opacity="1" stroke-miterlimit="4"/></svg>