<svg xmlns="http://www.w3.org/2000/svg" xmlns:xlink="http://www.w3.org/1999/xlink" width="82" zoomAndPan="magnify" viewBox="0 0 61.5 44.999999" height="60" preserveAspectRatio="xMidYMid meet" version="1.0"><defs><clipPath id="ad3f809eb8"><path d="M 4.46875 6.578125 L 56.539062 6.578125 L 56.539062 37.542969 L 4.46875 37.542969 Z M 4.46875 6.578125 " clip-rule="nonzero"/></clipPath><clipPath id="b76ba66ad2"><path d="M 6.699219 6.578125 L 54.304688 6.578125 C 55.539062 6.578125 56.535156 7.578125 56.535156 8.8125 L 56.535156 35.292969 C 56.535156 36.523438 55.539062 37.523438 54.304688 37.523438 L 6.699219 37.523438 C 5.464844 37.523438 4.46875 36.523438 4.46875 35.292969 L 4.46875 8.8125 C 4.46875 7.578125 5.464844 6.578125 6.699219 6.578125 Z M 6.699219 6.578125 " clip-rule="nonzero"/></clipPath><clipPath id="9076dd603c"><path d="M 0 0.179688 L 19 0.179688 L 19 19 L 0 19 Z M 0 0.179688 " clip-rule="nonzero"/></clipPath><clipPath id="5dd2702a97"><path d="M -20.503906 0.5 L 0.0742188 -20.082031 L 18.058594 -2.101562 L -2.523438 18.480469 Z M -20.503906 0.5 " clip-rule="nonzero"/></clipPath><clipPath id="06c43112fa"><path d="M -10.230469 -9.777344 L 18.027344 -2.070312 L -2.523438 18.480469 Z M -10.230469 -9.777344 " clip-rule="nonzero"/></clipPath><clipPath id="3a54603455"><path d="M 1.320312 1.648438 L 7.617188 1.648438 L 7.617188 7.640625 L 1.320312 7.640625 Z M 1.320312 1.648438 " clip-rule="nonzero"/></clipPath><clipPath id="4344c67e47"><path d="M 4.464844 1.648438 L 5.207031 3.9375 L 7.605469 3.9375 L 5.664062 5.351562 L 6.40625 7.640625 L 4.464844 6.226562 L 2.519531 7.640625 L 3.261719 5.351562 L 1.320312 3.9375 L 3.722656 3.9375 Z M 4.464844 1.648438 " clip-rule="nonzero"/></clipPath><clipPath id="9cdfb0f50c"><path d="M 9.425781 10.289062 L 20.585938 10.289062 L 20.585938 18 L 9.425781 18 Z M 9.425781 10.289062 " clip-rule="nonzero"/></clipPath><clipPath id="b8338d8c09"><path d="M 12 17 L 16 17 L 16 20.703125 L 12 20.703125 Z M 12 17 " clip-rule="nonzero"/></clipPath><clipPath id="585849b5d7"><path d="M 16 17 L 19 17 L 19 20.703125 L 16 20.703125 Z M 16 17 " clip-rule="nonzero"/></clipPath><clipPath id="ad4c5b68f3"><path d="M 9.425781 24.136719 L 20.585938 24.136719 L 20.585938 32 L 9.425781 32 Z M 9.425781 24.136719 " clip-rule="nonzero"/></clipPath><clipPath id="54dfc57189"><path d="M 12 31 L 16 31 L 16 34.554688 L 12 34.554688 Z M 12 31 " clip-rule="nonzero"/></clipPath><clipPath id="c4632e3552"><path d="M 16 31 L 19 31 L 19 34.554688 L 16 34.554688 Z M 16 31 " clip-rule="nonzero"/></clipPath><clipPath id="142d58a308"><path d="M 25.171875 24.136719 L 36.328125 24.136719 L 36.328125 32 L 25.171875 32 Z M 25.171875 24.136719 " clip-rule="nonzero"/></clipPath><clipPath id="2668929ce1"><path d="M 28 31 L 31 31 L 31 34.554688 L 28 34.554688 Z M 28 31 " clip-rule="nonzero"/></clipPath><clipPath id="6f3866a656"><path d="M 31 31 L 35 31 L 35 34.554688 L 31 34.554688 Z M 31 31 " clip-rule="nonzero"/></clipPath><clipPath id="69ca216133"><path d="M 25.171875 10.289062 L 36.328125 10.289062 L 36.328125 18 L 25.171875 18 Z M 25.171875 10.289062 " clip-rule="nonzero"/></clipPath><clipPath id="740ba43c99"><path d="M 28 17 L 31 17 L 31 20.703125 L 28 20.703125 Z M 28 17 " clip-rule="nonzero"/></clipPath><clipPath id="8c4fc0250e"><path d="M 31 17 L 35 17 L 35 20.703125 L 31 20.703125 Z M 31 17 " clip-rule="nonzero"/></clipPath><clipPath id="1fde570246"><path d="M 40.605469 10.289062 L 51.765625 10.289062 L 51.765625 18 L 40.605469 18 Z M 40.605469 10.289062 " clip-rule="nonzero"/></clipPath><clipPath id="243a437fee"><path d="M 43 17 L 47 17 L 47 20.703125 L 43 20.703125 Z M 43 17 " clip-rule="nonzero"/></clipPath><clipPath id="274ae15ed5"><path d="M 47 17 L 51 17 L 51 20.703125 L 47 20.703125 Z M 47 17 " clip-rule="nonzero"/></clipPath><clipPath id="96ee40bec5"><path d="M 46.09375 28.015625 L 59.484375 28.015625 L 59.484375 41.410156 L 46.09375 41.410156 Z M 46.09375 28.015625 " clip-rule="nonzero"/></clipPath><clipPath id="427d359961"><path d="M 52.789062 28.015625 C 49.089844 28.015625 46.09375 31.015625 46.09375 34.710938 C 46.09375 38.410156 49.089844 41.410156 52.789062 41.410156 C 56.484375 41.410156 59.484375 38.410156 59.484375 34.710938 C 59.484375 31.015625 56.484375 28.015625 52.789062 28.015625 Z M 52.789062 28.015625 " clip-rule="nonzero"/></clipPath><clipPath id="b86768ad0f"><path d="M 47 30 L 58 30 L 58 39 L 47 39 Z M 47 30 " clip-rule="nonzero"/></clipPath><clipPath id="7d1d12bbfc"><path d="M 52.453125 41.09375 L 46.601562 34.351562 L 53.347656 28.5 L 59.195312 35.242188 Z M 52.453125 41.09375 " clip-rule="nonzero"/></clipPath><clipPath id="80223715bc"><path d="M 52.453125 41.09375 L 46.601562 34.351562 L 53.347656 28.5 L 59.195312 35.242188 Z M 52.453125 41.09375 " clip-rule="nonzero"/></clipPath></defs><g clip-path="url(#ad3f809eb8)"><g clip-path="url(#b76ba66ad2)"><path stroke-linecap="butt" transform="matrix(0.743952, 0, 0, 0.743952, 4.467623, 6.579434)" fill="none" stroke-linejoin="miter" d="M 2.999652 -0.00175985 L 66.989661 -0.00175985 C 68.648875 -0.00175985 69.987798 1.342414 69.987798 3.001628 L 69.987798 38.595972 C 69.987798 40.249936 68.648875 41.594109 66.989661 41.594109 L 2.999652 41.594109 C 1.340438 41.594109 0.00151484 40.249936 0.00151484 38.595972 L 0.00151484 3.001628 C 0.00151484 1.342414 1.340438 -0.00175985 2.999652 -0.00175985 Z M 2.999652 -0.00175985 " stroke="#00a09d" stroke-width="3" stroke-opacity="1" stroke-miterlimit="4"/></g></g><g clip-path="url(#9076dd603c)"><g clip-path="url(#5dd2702a97)"><g clip-path="url(#06c43112fa)"><path fill="#ff914d" d="M -20.503906 0.5 L 0.0742188 -20.082031 L 18.058594 -2.101562 L -2.523438 18.480469 Z M -20.503906 0.5 " fill-opacity="1" fill-rule="nonzero"/></g></g></g><g clip-path="url(#3a54603455)"><g clip-path="url(#4344c67e47)"><path fill="#ffffff" d="M 1.320312 1.648438 L 7.617188 1.648438 L 7.617188 7.640625 L 1.320312 7.640625 Z M 1.320312 1.648438 " fill-opacity="1" fill-rule="nonzero"/></g></g><g clip-path="url(#9cdfb0f50c)"><path fill="#ffffff" d="M 19.292969 12.289062 L 12.851562 12.289062 C 12.757812 12.289062 12.675781 12.324219 12.609375 12.390625 C 12.542969 12.457031 12.511719 12.535156 12.511719 12.632812 C 12.511719 12.726562 12.542969 12.804688 12.609375 12.871094 C 12.675781 12.9375 12.757812 12.972656 12.851562 12.972656 L 19.292969 12.972656 C 19.359375 12.972656 19.417969 12.988281 19.476562 13.019531 C 19.53125 13.050781 19.578125 13.09375 19.609375 13.148438 C 19.644531 13.203125 19.664062 13.261719 19.664062 13.328125 C 19.667969 13.390625 19.65625 13.453125 19.625 13.507812 C 19.234375 14.292969 18.679688 16.039062 18.402344 16.59375 C 18.332031 16.730469 18.222656 16.800781 18.070312 16.800781 L 13.328125 16.800781 C 13.15625 16.800781 13.042969 16.722656 12.980469 16.566406 C 12.980469 16.5625 11.914062 11.773438 11.914062 11.773438 C 11.824219 11.371094 11.617188 11.039062 11.296875 10.78125 C 10.972656 10.519531 10.605469 10.390625 10.191406 10.390625 L 9.765625 10.390625 C 9.671875 10.386719 9.589844 10.417969 9.519531 10.488281 C 9.453125 10.554688 9.421875 10.636719 9.425781 10.734375 C 9.425781 10.828125 9.457031 10.90625 9.527344 10.972656 C 9.59375 11.039062 9.671875 11.074219 9.765625 11.074219 L 10.191406 11.074219 C 10.445312 11.074219 10.671875 11.152344 10.867188 11.3125 C 11.066406 11.46875 11.191406 11.671875 11.246094 11.921875 L 12.316406 16.726562 C 12.320312 16.738281 12.324219 16.75 12.328125 16.761719 C 12.398438 16.976562 12.527344 17.152344 12.710938 17.28125 C 12.894531 17.414062 13.101562 17.480469 13.328125 17.480469 L 18.070312 17.480469 C 18.503906 17.480469 18.816406 17.289062 19.011719 16.898438 C 19.289062 16.34375 19.84375 14.597656 20.238281 13.8125 C 20.320312 13.652344 20.355469 13.476562 20.347656 13.296875 C 20.339844 13.113281 20.285156 12.945312 20.191406 12.789062 C 20.09375 12.632812 19.96875 12.511719 19.808594 12.421875 C 19.648438 12.335938 19.476562 12.289062 19.292969 12.289062 Z M 19.292969 12.289062 " fill-opacity="1" fill-rule="evenodd"/></g><g clip-path="url(#b8338d8c09)"><path fill="#ffffff" d="M 13.695312 17.882812 C 13.511719 17.882812 13.335938 17.917969 13.164062 17.988281 C 12.992188 18.058594 12.84375 18.160156 12.710938 18.289062 C 12.582031 18.421875 12.480469 18.570312 12.410156 18.742188 C 12.339844 18.914062 12.300781 19.09375 12.300781 19.277344 C 12.300781 19.460938 12.339844 19.640625 12.410156 19.808594 C 12.480469 19.980469 12.582031 20.132812 12.710938 20.261719 C 12.84375 20.394531 12.992188 20.496094 13.164062 20.566406 C 13.335938 20.636719 13.511719 20.671875 13.699219 20.671875 C 13.882812 20.671875 14.058594 20.636719 14.230469 20.566406 C 14.402344 20.496094 14.554688 20.394531 14.683594 20.261719 C 14.8125 20.132812 14.914062 19.980469 14.984375 19.808594 C 15.054688 19.640625 15.09375 19.460938 15.09375 19.277344 C 15.089844 19.089844 15.054688 18.914062 14.984375 18.742188 C 14.914062 18.570312 14.8125 18.421875 14.683594 18.289062 C 14.550781 18.160156 14.402344 18.058594 14.230469 17.988281 C 14.058594 17.917969 13.882812 17.882812 13.695312 17.882812 Z M 13.695312 19.988281 C 13.5 19.988281 13.332031 19.917969 13.195312 19.78125 C 13.054688 19.640625 12.984375 19.472656 12.984375 19.277344 C 12.984375 19.082031 13.054688 18.914062 13.195312 18.773438 C 13.332031 18.632812 13.5 18.566406 13.695312 18.566406 C 13.894531 18.566406 14.0625 18.632812 14.199219 18.773438 C 14.339844 18.910156 14.410156 19.078125 14.410156 19.277344 C 14.410156 19.472656 14.339844 19.640625 14.199219 19.78125 C 14.0625 19.917969 13.894531 19.988281 13.695312 19.988281 Z M 13.695312 19.988281 " fill-opacity="1" fill-rule="evenodd"/></g><g clip-path="url(#585849b5d7)"><path fill="#ffffff" d="M 17.585938 17.882812 C 17.398438 17.882812 17.222656 17.917969 17.050781 17.988281 C 16.878906 18.058594 16.730469 18.160156 16.597656 18.289062 C 16.46875 18.421875 16.367188 18.570312 16.296875 18.742188 C 16.226562 18.914062 16.191406 19.09375 16.191406 19.277344 C 16.191406 19.460938 16.226562 19.640625 16.296875 19.808594 C 16.367188 19.980469 16.46875 20.132812 16.597656 20.261719 C 16.730469 20.394531 16.878906 20.496094 17.050781 20.566406 C 17.222656 20.636719 17.398438 20.671875 17.585938 20.671875 C 17.769531 20.671875 17.945312 20.636719 18.117188 20.566406 C 18.289062 20.496094 18.441406 20.394531 18.570312 20.261719 C 18.703125 20.132812 18.800781 19.980469 18.871094 19.808594 C 18.945312 19.640625 18.980469 19.460938 18.980469 19.277344 C 18.980469 19.089844 18.941406 18.914062 18.871094 18.742188 C 18.800781 18.570312 18.699219 18.421875 18.570312 18.289062 C 18.4375 18.160156 18.289062 18.058594 18.117188 17.988281 C 17.945312 17.917969 17.769531 17.882812 17.585938 17.882812 Z M 17.585938 19.988281 C 17.386719 19.988281 17.21875 19.917969 17.082031 19.78125 C 16.941406 19.640625 16.871094 19.472656 16.871094 19.277344 C 16.871094 19.082031 16.941406 18.914062 17.082031 18.773438 C 17.21875 18.632812 17.386719 18.566406 17.582031 18.566406 C 17.78125 18.566406 17.949219 18.632812 18.085938 18.773438 C 18.226562 18.910156 18.296875 19.078125 18.296875 19.277344 C 18.296875 19.472656 18.226562 19.640625 18.085938 19.78125 C 17.949219 19.917969 17.78125 19.988281 17.585938 19.988281 Z M 17.585938 19.988281 " fill-opacity="1" fill-rule="evenodd"/></g><g clip-path="url(#ad4c5b68f3)"><path fill="#ffffff" d="M 19.292969 26.140625 L 12.851562 26.140625 C 12.757812 26.140625 12.675781 26.175781 12.609375 26.242188 C 12.542969 26.308594 12.511719 26.386719 12.511719 26.480469 C 12.511719 26.578125 12.542969 26.65625 12.609375 26.722656 C 12.675781 26.789062 12.757812 26.824219 12.851562 26.824219 L 19.292969 26.824219 C 19.359375 26.824219 19.417969 26.839844 19.476562 26.871094 C 19.53125 26.902344 19.578125 26.945312 19.609375 27 C 19.644531 27.054688 19.664062 27.113281 19.664062 27.179688 C 19.667969 27.242188 19.65625 27.304688 19.625 27.359375 C 19.234375 28.144531 18.679688 29.890625 18.402344 30.445312 C 18.332031 30.582031 18.222656 30.652344 18.070312 30.652344 L 13.328125 30.652344 C 13.15625 30.652344 13.042969 30.574219 12.980469 30.417969 C 12.980469 30.414062 11.914062 25.625 11.914062 25.625 C 11.824219 25.222656 11.617188 24.890625 11.296875 24.632812 C 10.972656 24.371094 10.605469 24.242188 10.191406 24.242188 L 9.765625 24.242188 C 9.671875 24.238281 9.589844 24.269531 9.519531 24.335938 C 9.453125 24.40625 9.421875 24.488281 9.425781 24.585938 C 9.425781 24.679688 9.457031 24.757812 9.527344 24.824219 C 9.59375 24.890625 9.671875 24.925781 9.765625 24.925781 L 10.191406 24.925781 C 10.445312 24.925781 10.671875 25.003906 10.867188 25.164062 C 11.066406 25.320312 11.191406 25.523438 11.246094 25.773438 L 12.316406 30.578125 C 12.320312 30.589844 12.324219 30.601562 12.328125 30.613281 C 12.398438 30.828125 12.527344 31 12.710938 31.132812 C 12.894531 31.265625 13.101562 31.332031 13.328125 31.332031 L 18.070312 31.332031 C 18.503906 31.332031 18.816406 31.140625 19.011719 30.75 C 19.289062 30.195312 19.84375 28.449219 20.238281 27.664062 C 20.320312 27.503906 20.355469 27.328125 20.347656 27.148438 C 20.339844 26.964844 20.285156 26.796875 20.191406 26.640625 C 20.09375 26.484375 19.96875 26.363281 19.808594 26.273438 C 19.648438 26.183594 19.476562 26.140625 19.292969 26.140625 Z M 19.292969 26.140625 " fill-opacity="1" fill-rule="evenodd"/></g><g clip-path="url(#54dfc57189)"><path fill="#ffffff" d="M 13.695312 31.734375 C 13.511719 31.734375 13.335938 31.769531 13.164062 31.839844 C 12.992188 31.910156 12.84375 32.011719 12.710938 32.140625 C 12.582031 32.273438 12.480469 32.421875 12.410156 32.59375 C 12.339844 32.765625 12.300781 32.941406 12.300781 33.128906 C 12.300781 33.3125 12.339844 33.492188 12.410156 33.660156 C 12.480469 33.832031 12.582031 33.984375 12.710938 34.113281 C 12.84375 34.246094 12.992188 34.347656 13.164062 34.417969 C 13.335938 34.488281 13.511719 34.523438 13.699219 34.523438 C 13.882812 34.523438 14.058594 34.488281 14.230469 34.417969 C 14.402344 34.34375 14.554688 34.246094 14.683594 34.113281 C 14.8125 33.984375 14.914062 33.832031 14.984375 33.660156 C 15.054688 33.492188 15.09375 33.3125 15.09375 33.128906 C 15.089844 32.941406 15.054688 32.765625 14.984375 32.59375 C 14.914062 32.421875 14.8125 32.273438 14.683594 32.140625 C 14.550781 32.011719 14.402344 31.910156 14.230469 31.839844 C 14.058594 31.769531 13.882812 31.734375 13.695312 31.734375 Z M 13.695312 33.839844 C 13.5 33.839844 13.332031 33.769531 13.195312 33.632812 C 13.054688 33.492188 12.984375 33.324219 12.984375 33.128906 C 12.984375 32.929688 13.054688 32.765625 13.195312 32.625 C 13.332031 32.484375 13.5 32.417969 13.695312 32.414062 C 13.894531 32.414062 14.0625 32.484375 14.199219 32.625 C 14.339844 32.761719 14.410156 32.929688 14.410156 33.128906 C 14.410156 33.324219 14.339844 33.492188 14.199219 33.632812 C 14.0625 33.769531 13.894531 33.839844 13.695312 33.839844 Z M 13.695312 33.839844 " fill-opacity="1" fill-rule="evenodd"/></g><g clip-path="url(#c4632e3552)"><path fill="#ffffff" d="M 17.585938 31.734375 C 17.398438 31.734375 17.222656 31.769531 17.050781 31.839844 C 16.878906 31.910156 16.730469 32.011719 16.597656 32.140625 C 16.46875 32.273438 16.367188 32.421875 16.296875 32.59375 C 16.226562 32.765625 16.191406 32.941406 16.191406 33.128906 C 16.191406 33.3125 16.226562 33.492188 16.296875 33.660156 C 16.367188 33.832031 16.46875 33.984375 16.597656 34.113281 C 16.730469 34.246094 16.878906 34.347656 17.050781 34.417969 C 17.222656 34.488281 17.398438 34.523438 17.585938 34.523438 C 17.769531 34.523438 17.945312 34.488281 18.117188 34.417969 C 18.289062 34.34375 18.441406 34.246094 18.570312 34.113281 C 18.703125 33.984375 18.800781 33.832031 18.871094 33.660156 C 18.945312 33.492188 18.980469 33.3125 18.980469 33.128906 C 18.980469 32.941406 18.941406 32.765625 18.871094 32.59375 C 18.800781 32.421875 18.699219 32.273438 18.570312 32.140625 C 18.4375 32.011719 18.289062 31.910156 18.117188 31.839844 C 17.945312 31.769531 17.769531 31.734375 17.585938 31.734375 Z M 17.585938 33.839844 C 17.386719 33.839844 17.21875 33.769531 17.082031 33.632812 C 16.941406 33.492188 16.871094 33.324219 16.871094 33.128906 C 16.871094 32.929688 16.941406 32.765625 17.082031 32.625 C 17.21875 32.484375 17.386719 32.417969 17.582031 32.414062 C 17.78125 32.414062 17.949219 32.484375 18.085938 32.625 C 18.226562 32.761719 18.296875 32.929688 18.296875 33.128906 C 18.296875 33.324219 18.226562 33.492188 18.085938 33.632812 C 17.949219 33.769531 17.78125 33.839844 17.585938 33.839844 Z M 17.585938 33.839844 " fill-opacity="1" fill-rule="evenodd"/></g><g clip-path="url(#142d58a308)"><path fill="#ffffff" d="M 35.039062 26.140625 L 28.597656 26.140625 C 28.503906 26.140625 28.421875 26.175781 28.355469 26.242188 C 28.289062 26.308594 28.257812 26.386719 28.257812 26.480469 C 28.257812 26.578125 28.289062 26.65625 28.355469 26.722656 C 28.421875 26.789062 28.503906 26.824219 28.597656 26.824219 L 35.039062 26.824219 C 35.105469 26.824219 35.164062 26.839844 35.222656 26.871094 C 35.277344 26.902344 35.320312 26.945312 35.355469 27 C 35.390625 27.054688 35.40625 27.113281 35.410156 27.179688 C 35.414062 27.242188 35.402344 27.304688 35.371094 27.359375 C 34.980469 28.144531 34.425781 29.890625 34.144531 30.445312 C 34.078125 30.582031 33.96875 30.652344 33.816406 30.652344 L 29.070312 30.652344 C 28.902344 30.652344 28.789062 30.574219 28.726562 30.417969 C 28.726562 30.414062 27.660156 25.625 27.660156 25.625 C 27.570312 25.222656 27.363281 24.890625 27.042969 24.632812 C 26.71875 24.371094 26.351562 24.242188 25.9375 24.242188 L 25.511719 24.242188 C 25.417969 24.238281 25.335938 24.269531 25.265625 24.335938 C 25.199219 24.40625 25.167969 24.488281 25.171875 24.585938 C 25.171875 24.679688 25.203125 24.757812 25.269531 24.824219 C 25.335938 24.890625 25.417969 24.925781 25.511719 24.925781 L 25.9375 24.925781 C 26.191406 24.925781 26.414062 25.003906 26.613281 25.164062 C 26.8125 25.320312 26.9375 25.523438 26.992188 25.773438 L 28.0625 30.578125 C 28.066406 30.589844 28.070312 30.601562 28.074219 30.613281 C 28.144531 30.828125 28.273438 31 28.457031 31.132812 C 28.640625 31.265625 28.84375 31.332031 29.070312 31.332031 L 33.816406 31.332031 C 34.25 31.332031 34.5625 31.140625 34.757812 30.75 C 35.035156 30.195312 35.589844 28.449219 35.980469 27.664062 C 36.0625 27.503906 36.101562 27.328125 36.09375 27.148438 C 36.085938 26.964844 36.03125 26.796875 35.9375 26.640625 C 35.839844 26.484375 35.710938 26.363281 35.554688 26.273438 C 35.394531 26.183594 35.222656 26.140625 35.039062 26.140625 Z M 35.039062 26.140625 " fill-opacity="1" fill-rule="evenodd"/></g><g clip-path="url(#2668929ce1)"><path fill="#ffffff" d="M 29.441406 31.734375 C 29.257812 31.734375 29.078125 31.769531 28.910156 31.839844 C 28.738281 31.910156 28.585938 32.011719 28.457031 32.140625 C 28.324219 32.273438 28.226562 32.421875 28.152344 32.59375 C 28.082031 32.765625 28.046875 32.941406 28.046875 33.128906 C 28.046875 33.3125 28.082031 33.492188 28.152344 33.660156 C 28.226562 33.832031 28.324219 33.984375 28.457031 34.113281 C 28.585938 34.246094 28.738281 34.347656 28.910156 34.417969 C 29.078125 34.488281 29.257812 34.523438 29.441406 34.523438 C 29.628906 34.523438 29.804688 34.488281 29.976562 34.417969 C 30.148438 34.34375 30.296875 34.246094 30.429688 34.113281 C 30.558594 33.984375 30.660156 33.832031 30.730469 33.660156 C 30.800781 33.492188 30.835938 33.3125 30.835938 33.128906 C 30.835938 32.941406 30.800781 32.765625 30.730469 32.59375 C 30.660156 32.421875 30.558594 32.273438 30.429688 32.140625 C 30.296875 32.011719 30.148438 31.910156 29.976562 31.839844 C 29.804688 31.769531 29.628906 31.734375 29.441406 31.734375 Z M 29.441406 33.839844 C 29.246094 33.839844 29.078125 33.769531 28.9375 33.632812 C 28.800781 33.492188 28.730469 33.324219 28.730469 33.128906 C 28.730469 32.929688 28.800781 32.765625 28.9375 32.625 C 29.078125 32.484375 29.246094 32.417969 29.441406 32.414062 C 29.640625 32.414062 29.808594 32.484375 29.945312 32.625 C 30.085938 32.761719 30.15625 32.929688 30.15625 33.128906 C 30.15625 33.324219 30.085938 33.492188 29.945312 33.632812 C 29.808594 33.769531 29.640625 33.839844 29.441406 33.839844 Z M 29.441406 33.839844 " fill-opacity="1" fill-rule="evenodd"/></g><g clip-path="url(#6f3866a656)"><path fill="#ffffff" d="M 33.328125 31.734375 C 33.144531 31.734375 32.964844 31.769531 32.796875 31.839844 C 32.625 31.910156 32.472656 32.011719 32.34375 32.140625 C 32.210938 32.273438 32.113281 32.421875 32.042969 32.59375 C 31.96875 32.765625 31.933594 32.941406 31.933594 33.128906 C 31.933594 33.3125 31.96875 33.492188 32.042969 33.660156 C 32.113281 33.832031 32.210938 33.984375 32.34375 34.113281 C 32.472656 34.246094 32.625 34.347656 32.796875 34.417969 C 32.96875 34.488281 33.144531 34.523438 33.328125 34.523438 C 33.515625 34.523438 33.691406 34.488281 33.863281 34.417969 C 34.035156 34.34375 34.183594 34.246094 34.316406 34.113281 C 34.445312 33.984375 34.546875 33.832031 34.617188 33.660156 C 34.6875 33.492188 34.722656 33.3125 34.722656 33.128906 C 34.722656 32.941406 34.6875 32.765625 34.617188 32.59375 C 34.546875 32.421875 34.445312 32.273438 34.316406 32.140625 C 34.183594 32.011719 34.035156 31.910156 33.863281 31.839844 C 33.691406 31.769531 33.515625 31.734375 33.328125 31.734375 Z M 33.328125 33.839844 C 33.132812 33.839844 32.964844 33.769531 32.824219 33.632812 C 32.6875 33.492188 32.617188 33.324219 32.617188 33.128906 C 32.617188 32.929688 32.6875 32.765625 32.824219 32.625 C 32.964844 32.484375 33.132812 32.417969 33.328125 32.414062 C 33.527344 32.414062 33.695312 32.484375 33.832031 32.625 C 33.972656 32.761719 34.042969 32.929688 34.042969 33.128906 C 34.042969 33.324219 33.972656 33.492188 33.832031 33.632812 C 33.695312 33.769531 33.527344 33.839844 33.328125 33.839844 Z M 33.328125 33.839844 " fill-opacity="1" fill-rule="evenodd"/></g><g clip-path="url(#69ca216133)"><path fill="#ffffff" d="M 35.039062 12.289062 L 28.597656 12.289062 C 28.503906 12.289062 28.421875 12.324219 28.355469 12.390625 C 28.289062 12.457031 28.257812 12.535156 28.257812 12.632812 C 28.257812 12.726562 28.289062 12.804688 28.355469 12.871094 C 28.421875 12.9375 28.503906 12.972656 28.597656 12.972656 L 35.039062 12.972656 C 35.105469 12.972656 35.164062 12.988281 35.222656 13.019531 C 35.277344 13.050781 35.320312 13.09375 35.355469 13.148438 C 35.390625 13.203125 35.40625 13.261719 35.410156 13.328125 C 35.414062 13.390625 35.402344 13.453125 35.371094 13.507812 C 34.980469 14.292969 34.425781 16.039062 34.144531 16.59375 C 34.078125 16.730469 33.96875 16.800781 33.816406 16.800781 L 29.070312 16.800781 C 28.902344 16.800781 28.789062 16.722656 28.726562 16.566406 C 28.726562 16.5625 27.660156 11.773438 27.660156 11.773438 C 27.570312 11.371094 27.363281 11.039062 27.042969 10.78125 C 26.71875 10.519531 26.351562 10.390625 25.9375 10.390625 L 25.511719 10.390625 C 25.417969 10.386719 25.335938 10.417969 25.265625 10.488281 C 25.199219 10.554688 25.167969 10.636719 25.171875 10.734375 C 25.171875 10.828125 25.203125 10.90625 25.269531 10.972656 C 25.335938 11.039062 25.417969 11.074219 25.511719 11.074219 L 25.9375 11.074219 C 26.191406 11.074219 26.414062 11.152344 26.613281 11.3125 C 26.8125 11.46875 26.9375 11.671875 26.992188 11.921875 L 28.0625 16.726562 C 28.066406 16.738281 28.070312 16.75 28.074219 16.761719 C 28.144531 16.976562 28.273438 17.152344 28.457031 17.28125 C 28.640625 17.414062 28.84375 17.480469 29.070312 17.480469 L 33.816406 17.480469 C 34.25 17.480469 34.5625 17.289062 34.757812 16.898438 C 35.035156 16.34375 35.589844 14.597656 35.980469 13.8125 C 36.0625 13.652344 36.101562 13.476562 36.09375 13.296875 C 36.085938 13.113281 36.03125 12.945312 35.9375 12.789062 C 35.839844 12.632812 35.710938 12.511719 35.554688 12.421875 C 35.394531 12.335938 35.222656 12.289062 35.039062 12.289062 Z M 35.039062 12.289062 " fill-opacity="1" fill-rule="evenodd"/></g><g clip-path="url(#740ba43c99)"><path fill="#ffffff" d="M 29.441406 17.882812 C 29.257812 17.882812 29.078125 17.917969 28.910156 17.988281 C 28.738281 18.058594 28.585938 18.160156 28.457031 18.289062 C 28.324219 18.421875 28.226562 18.570312 28.152344 18.742188 C 28.082031 18.914062 28.046875 19.09375 28.046875 19.277344 C 28.046875 19.460938 28.082031 19.640625 28.152344 19.808594 C 28.226562 19.980469 28.324219 20.132812 28.457031 20.261719 C 28.585938 20.394531 28.738281 20.496094 28.910156 20.566406 C 29.078125 20.636719 29.257812 20.671875 29.441406 20.671875 C 29.628906 20.671875 29.804688 20.636719 29.976562 20.566406 C 30.148438 20.496094 30.296875 20.394531 30.429688 20.261719 C 30.558594 20.132812 30.660156 19.980469 30.730469 19.808594 C 30.800781 19.640625 30.835938 19.460938 30.835938 19.277344 C 30.835938 19.089844 30.800781 18.914062 30.730469 18.742188 C 30.660156 18.570312 30.558594 18.421875 30.429688 18.289062 C 30.296875 18.160156 30.148438 18.058594 29.976562 17.988281 C 29.804688 17.917969 29.628906 17.882812 29.441406 17.882812 Z M 29.441406 19.988281 C 29.246094 19.988281 29.078125 19.917969 28.9375 19.78125 C 28.800781 19.640625 28.730469 19.472656 28.730469 19.277344 C 28.730469 19.082031 28.800781 18.914062 28.9375 18.773438 C 29.078125 18.632812 29.246094 18.566406 29.441406 18.566406 C 29.640625 18.566406 29.808594 18.632812 29.945312 18.773438 C 30.085938 18.910156 30.15625 19.078125 30.15625 19.277344 C 30.15625 19.472656 30.085938 19.640625 29.945312 19.78125 C 29.808594 19.917969 29.640625 19.988281 29.441406 19.988281 Z M 29.441406 19.988281 " fill-opacity="1" fill-rule="evenodd"/></g><g clip-path="url(#8c4fc0250e)"><path fill="#ffffff" d="M 33.328125 17.882812 C 33.144531 17.882812 32.964844 17.917969 32.796875 17.988281 C 32.625 18.058594 32.472656 18.160156 32.34375 18.289062 C 32.210938 18.421875 32.113281 18.570312 32.042969 18.742188 C 31.96875 18.914062 31.933594 19.09375 31.933594 19.277344 C 31.933594 19.460938 31.96875 19.640625 32.042969 19.808594 C 32.113281 19.980469 32.210938 20.132812 32.34375 20.261719 C 32.472656 20.394531 32.625 20.496094 32.796875 20.566406 C 32.96875 20.636719 33.144531 20.671875 33.328125 20.671875 C 33.515625 20.671875 33.691406 20.636719 33.863281 20.566406 C 34.035156 20.496094 34.183594 20.394531 34.316406 20.261719 C 34.445312 20.132812 34.546875 19.980469 34.617188 19.808594 C 34.6875 19.640625 34.722656 19.460938 34.722656 19.277344 C 34.722656 19.089844 34.6875 18.914062 34.617188 18.742188 C 34.546875 18.570312 34.445312 18.421875 34.316406 18.289062 C 34.183594 18.160156 34.035156 18.058594 33.863281 17.988281 C 33.691406 17.917969 33.515625 17.882812 33.328125 17.882812 Z M 33.328125 19.988281 C 33.132812 19.988281 32.964844 19.917969 32.824219 19.78125 C 32.6875 19.640625 32.617188 19.472656 32.617188 19.277344 C 32.617188 19.082031 32.6875 18.914062 32.824219 18.773438 C 32.964844 18.632812 33.132812 18.566406 33.328125 18.566406 C 33.527344 18.566406 33.695312 18.632812 33.832031 18.773438 C 33.972656 18.910156 34.042969 19.078125 34.042969 19.277344 C 34.042969 19.472656 33.972656 19.640625 33.832031 19.78125 C 33.695312 19.917969 33.527344 19.988281 33.328125 19.988281 Z M 33.328125 19.988281 " fill-opacity="1" fill-rule="evenodd"/></g><g clip-path="url(#1fde570246)"><path fill="#ffffff" d="M 50.476562 12.289062 L 44.03125 12.289062 C 43.9375 12.289062 43.859375 12.324219 43.792969 12.390625 C 43.726562 12.457031 43.691406 12.535156 43.691406 12.632812 C 43.691406 12.726562 43.726562 12.804688 43.792969 12.871094 C 43.859375 12.9375 43.9375 12.972656 44.03125 12.972656 L 50.476562 12.972656 C 50.539062 12.972656 50.601562 12.988281 50.65625 13.019531 C 50.710938 13.050781 50.757812 13.09375 50.792969 13.148438 C 50.824219 13.203125 50.84375 13.261719 50.847656 13.328125 C 50.847656 13.390625 50.835938 13.453125 50.808594 13.507812 C 50.417969 14.292969 49.859375 16.039062 49.582031 16.59375 C 49.515625 16.730469 49.402344 16.800781 49.25 16.800781 L 44.507812 16.800781 C 44.339844 16.800781 44.222656 16.722656 44.164062 16.566406 C 44.164062 16.5625 43.09375 11.773438 43.09375 11.773438 C 43.007812 11.371094 42.800781 11.039062 42.476562 10.78125 C 42.15625 10.519531 41.785156 10.390625 41.371094 10.390625 L 40.949219 10.390625 C 40.851562 10.386719 40.769531 10.417969 40.703125 10.488281 C 40.632812 10.554688 40.601562 10.636719 40.605469 10.734375 C 40.605469 10.828125 40.640625 10.90625 40.707031 10.972656 C 40.773438 11.039062 40.855469 11.074219 40.949219 11.074219 L 41.371094 11.074219 C 41.625 11.074219 41.851562 11.152344 42.050781 11.3125 C 42.246094 11.46875 42.375 11.671875 42.429688 11.921875 L 43.5 16.726562 C 43.5 16.738281 43.503906 16.75 43.507812 16.761719 C 43.582031 16.976562 43.707031 17.152344 43.890625 17.28125 C 44.074219 17.414062 44.28125 17.480469 44.507812 17.480469 L 49.25 17.480469 C 49.683594 17.480469 50 17.289062 50.191406 16.898438 C 50.46875 16.34375 51.027344 14.597656 51.417969 13.8125 C 51.5 13.652344 51.535156 13.476562 51.527344 13.296875 C 51.519531 13.113281 51.46875 12.945312 51.371094 12.789062 C 51.277344 12.632812 51.148438 12.511719 50.988281 12.421875 C 50.828125 12.335938 50.660156 12.289062 50.476562 12.289062 Z M 50.476562 12.289062 " fill-opacity="1" fill-rule="evenodd"/></g><g clip-path="url(#243a437fee)"><path fill="#ffffff" d="M 44.878906 17.882812 C 44.695312 17.882812 44.515625 17.917969 44.34375 17.988281 C 44.175781 18.058594 44.023438 18.160156 43.890625 18.289062 C 43.761719 18.421875 43.660156 18.570312 43.589844 18.742188 C 43.519531 18.914062 43.484375 19.09375 43.484375 19.277344 C 43.484375 19.460938 43.519531 19.640625 43.589844 19.808594 C 43.660156 19.980469 43.761719 20.132812 43.890625 20.261719 C 44.023438 20.394531 44.175781 20.496094 44.34375 20.566406 C 44.515625 20.636719 44.695312 20.671875 44.878906 20.671875 C 45.0625 20.671875 45.242188 20.636719 45.414062 20.566406 C 45.582031 20.496094 45.734375 20.394531 45.863281 20.261719 C 45.996094 20.132812 46.097656 19.980469 46.167969 19.808594 C 46.238281 19.640625 46.273438 19.460938 46.273438 19.277344 C 46.273438 19.089844 46.238281 18.914062 46.167969 18.742188 C 46.097656 18.570312 45.996094 18.421875 45.863281 18.289062 C 45.734375 18.160156 45.582031 18.058594 45.410156 17.988281 C 45.242188 17.917969 45.0625 17.882812 44.878906 17.882812 Z M 44.878906 19.988281 C 44.683594 19.988281 44.515625 19.917969 44.375 19.78125 C 44.234375 19.640625 44.167969 19.472656 44.167969 19.277344 C 44.167969 19.082031 44.234375 18.914062 44.375 18.773438 C 44.515625 18.632812 44.683594 18.566406 44.878906 18.566406 C 45.074219 18.566406 45.242188 18.632812 45.382812 18.773438 C 45.519531 18.910156 45.589844 19.078125 45.589844 19.277344 C 45.589844 19.472656 45.519531 19.640625 45.382812 19.78125 C 45.242188 19.917969 45.074219 19.988281 44.878906 19.988281 Z M 44.878906 19.988281 " fill-opacity="1" fill-rule="evenodd"/></g><g clip-path="url(#274ae15ed5)"><path fill="#ffffff" d="M 48.765625 17.882812 C 48.582031 17.882812 48.402344 17.917969 48.230469 17.988281 C 48.0625 18.058594 47.910156 18.160156 47.777344 18.289062 C 47.648438 18.421875 47.546875 18.570312 47.476562 18.742188 C 47.40625 18.914062 47.371094 19.09375 47.371094 19.277344 C 47.371094 19.460938 47.40625 19.640625 47.476562 19.808594 C 47.546875 19.980469 47.648438 20.132812 47.78125 20.261719 C 47.910156 20.394531 48.0625 20.496094 48.230469 20.566406 C 48.402344 20.636719 48.582031 20.671875 48.765625 20.671875 C 48.949219 20.671875 49.128906 20.636719 49.300781 20.566406 C 49.46875 20.496094 49.621094 20.394531 49.75 20.261719 C 49.882812 20.132812 49.984375 19.980469 50.054688 19.808594 C 50.125 19.640625 50.160156 19.460938 50.160156 19.277344 C 50.160156 19.089844 50.125 18.914062 50.054688 18.742188 C 49.984375 18.570312 49.882812 18.421875 49.75 18.289062 C 49.621094 18.160156 49.46875 18.058594 49.300781 17.988281 C 49.128906 17.917969 48.949219 17.882812 48.765625 17.882812 Z M 48.765625 19.988281 C 48.570312 19.988281 48.402344 19.917969 48.261719 19.78125 C 48.121094 19.640625 48.054688 19.472656 48.054688 19.277344 C 48.054688 19.082031 48.121094 18.914062 48.261719 18.773438 C 48.402344 18.632812 48.570312 18.566406 48.765625 18.566406 C 48.960938 18.566406 49.128906 18.632812 49.269531 18.773438 C 49.40625 18.910156 49.476562 19.078125 49.476562 19.277344 C 49.476562 19.472656 49.40625 19.640625 49.269531 19.78125 C 49.128906 19.917969 48.960938 19.988281 48.765625 19.988281 Z M 48.765625 19.988281 " fill-opacity="1" fill-rule="evenodd"/></g><g clip-path="url(#96ee40bec5)"><g clip-path="url(#427d359961)"><path fill="#00a09d" d="M 46.09375 28.015625 L 59.484375 28.015625 L 59.484375 41.410156 L 46.09375 41.410156 Z M 46.09375 28.015625 " fill-opacity="1" fill-rule="nonzero"/></g></g><g clip-path="url(#b86768ad0f)"><g clip-path="url(#7d1d12bbfc)"><g clip-path="url(#80223715bc)"><path fill="#ffffff" d="M 48.96875 36.328125 L 50.78125 33.996094 L 49.945312 33.878906 C 50.351562 32.492188 51.714844 31.574219 53.195312 31.78125 C 54.191406 31.914062 55.003906 32.535156 55.429688 33.371094 L 56.484375 32.832031 C 55.890625 31.664062 54.75 30.796875 53.351562 30.609375 C 51.226562 30.316406 49.257812 31.6875 48.761719 33.726562 L 47.859375 33.601562 Z M 55.625 35.535156 C 55.21875 36.921875 53.855469 37.84375 52.378906 37.640625 C 51.382812 37.503906 50.574219 36.886719 50.144531 36.050781 L 49.089844 36.589844 C 49.683594 37.757812 50.824219 38.625 52.21875 38.816406 C 54.34375 39.109375 56.3125 37.738281 56.8125 35.699219 L 57.714844 35.824219 L 56.601562 33.089844 L 54.785156 35.421875 Z M 55.625 35.535156 " fill-opacity="1" fill-rule="nonzero"/></g></g></g></svg>