<svg xmlns="http://www.w3.org/2000/svg" xmlns:xlink="http://www.w3.org/1999/xlink" width="82" zoomAndPan="magnify" viewBox="0 0 61.5 44.999999" height="60" preserveAspectRatio="xMidYMid meet" version="1.0"><defs><clipPath id="b5f3bef0e9"><path d="M 0 0.179688 L 19 0.179688 L 19 19 L 0 19 Z M 0 0.179688 " clip-rule="nonzero"/></clipPath><clipPath id="24169871b1"><path d="M -20.503906 0.5 L 0.0742188 -20.082031 L 18.058594 -2.101562 L -2.523438 18.480469 Z M -20.503906 0.5 " clip-rule="nonzero"/></clipPath><clipPath id="9978a37f86"><path d="M -10.230469 -9.777344 L 18.027344 -2.070312 L -2.523438 18.480469 Z M -10.230469 -9.777344 " clip-rule="nonzero"/></clipPath><clipPath id="a06c5384f0"><path d="M 1.320312 1.648438 L 7.617188 1.648438 L 7.617188 7.640625 L 1.320312 7.640625 Z M 1.320312 1.648438 " clip-rule="nonzero"/></clipPath><clipPath id="f55c76e11d"><path d="M 4.464844 1.648438 L 5.207031 3.9375 L 7.605469 3.9375 L 5.664062 5.351562 L 6.40625 7.640625 L 4.464844 6.226562 L 2.519531 7.640625 L 3.261719 5.351562 L 1.320312 3.9375 L 3.722656 3.9375 Z M 4.464844 1.648438 " clip-rule="nonzero"/></clipPath><clipPath id="eab676eaa2"><path d="M 8.847656 11.414062 L 20.75 11.414062 L 20.75 21.832031 L 8.847656 21.832031 Z M 8.847656 11.414062 " clip-rule="nonzero"/></clipPath><clipPath id="74355b02ce"><path d="M 8.847656 14 L 20.75 14 L 20.75 21.832031 L 8.847656 21.832031 Z M 8.847656 14 " clip-rule="nonzero"/></clipPath><clipPath id="8220fb8a5f"><path d="M 24.585938 11.414062 L 36.488281 11.414062 L 36.488281 21.832031 L 24.585938 21.832031 Z M 24.585938 11.414062 " clip-rule="nonzero"/></clipPath><clipPath id="0c517ad871"><path d="M 24.585938 14 L 36.488281 14 L 36.488281 21.832031 L 24.585938 21.832031 Z M 24.585938 14 " clip-rule="nonzero"/></clipPath><clipPath id="b4c2466b98"><path d="M 40.363281 11.414062 L 52.265625 11.414062 L 52.265625 21.832031 L 40.363281 21.832031 Z M 40.363281 11.414062 " clip-rule="nonzero"/></clipPath><clipPath id="760142248e"><path d="M 40.363281 14 L 52.265625 14 L 52.265625 21.832031 L 40.363281 21.832031 Z M 40.363281 14 " clip-rule="nonzero"/></clipPath><clipPath id="0256ead5ec"><path d="M 8.847656 23.367188 L 20.75 23.367188 L 20.75 33.785156 L 8.847656 33.785156 Z M 8.847656 23.367188 " clip-rule="nonzero"/></clipPath><clipPath id="c0ed1f69c3"><path d="M 8.847656 26 L 20.75 26 L 20.75 33.785156 L 8.847656 33.785156 Z M 8.847656 26 " clip-rule="nonzero"/></clipPath><clipPath id="7f6a6d9e71"><path d="M 24.585938 23.367188 L 36.488281 23.367188 L 36.488281 33.785156 L 24.585938 33.785156 Z M 24.585938 23.367188 " clip-rule="nonzero"/></clipPath><clipPath id="d296ae4e33"><path d="M 24.585938 26 L 36.488281 26 L 36.488281 33.785156 L 24.585938 33.785156 Z M 24.585938 26 " clip-rule="nonzero"/></clipPath><clipPath id="51f9526af7"><path d="M 40.363281 23.367188 L 52.265625 23.367188 L 52.265625 33.785156 L 40.363281 33.785156 Z M 40.363281 23.367188 " clip-rule="nonzero"/></clipPath><clipPath id="3698989f90"><path d="M 40.363281 26 L 52.265625 26 L 52.265625 33.785156 L 40.363281 33.785156 Z M 40.363281 26 " clip-rule="nonzero"/></clipPath></defs><g clip-path="url(#b5f3bef0e9)"><g clip-path="url(#24169871b1)"><g clip-path="url(#9978a37f86)"><path fill="#ff914d" d="M -20.503906 0.5 L 0.0742188 -20.082031 L 18.058594 -2.101562 L -2.523438 18.480469 Z M -20.503906 0.5 " fill-opacity="1" fill-rule="nonzero"/></g></g></g><g clip-path="url(#a06c5384f0)"><g clip-path="url(#f55c76e11d)"><path fill="#ffffff" d="M 1.320312 1.648438 L 7.617188 1.648438 L 7.617188 7.640625 L 1.320312 7.640625 Z M 1.320312 1.648438 " fill-opacity="1" fill-rule="nonzero"/></g></g><g clip-path="url(#eab676eaa2)"><path fill="#ffffff" d="M 10.03125 11.414062 L 19.453125 11.414062 C 19.609375 11.414062 19.757812 11.445312 19.902344 11.503906 C 20.046875 11.566406 20.175781 11.652344 20.285156 11.761719 C 20.394531 11.871094 20.480469 12 20.539062 12.144531 C 20.601562 12.289062 20.628906 12.4375 20.628906 12.59375 L 20.628906 20.445312 C 20.628906 20.601562 20.601562 20.75 20.539062 20.894531 C 20.480469 21.039062 20.394531 21.167969 20.285156 21.277344 C 20.175781 21.386719 20.046875 21.472656 19.902344 21.53125 C 19.757812 21.59375 19.609375 21.621094 19.453125 21.621094 L 10.03125 21.621094 C 9.875 21.621094 9.726562 21.59375 9.582031 21.53125 C 9.4375 21.472656 9.308594 21.386719 9.199219 21.277344 C 9.089844 21.167969 9.003906 21.039062 8.941406 20.894531 C 8.882812 20.75 8.855469 20.601562 8.855469 20.445312 L 8.855469 12.59375 C 8.855469 12.4375 8.882812 12.289062 8.941406 12.144531 C 9.003906 12 9.089844 11.871094 9.199219 11.761719 C 9.308594 11.652344 9.4375 11.566406 9.582031 11.503906 C 9.726562 11.445312 9.875 11.414062 10.03125 11.414062 Z M 10.03125 11.414062 " fill-opacity="1" fill-rule="nonzero"/></g><g clip-path="url(#74355b02ce)"><path fill="#00a09d" d="M 20.515625 17.8125 L 17.765625 15.0625 C 17.691406 14.988281 17.597656 14.949219 17.488281 14.949219 C 17.382812 14.949219 17.289062 14.988281 17.210938 15.0625 L 15.527344 16.75 L 14.429688 15.652344 C 14.355469 15.574219 14.261719 15.539062 14.152344 15.539062 C 14.042969 15.539062 13.953125 15.574219 13.875 15.652344 L 11.4375 18.089844 L 9.246094 18.089844 C 9.136719 18.089844 9.046875 18.128906 8.96875 18.203125 C 8.890625 18.28125 8.855469 18.375 8.855469 18.480469 L 8.855469 20.445312 C 8.855469 20.601562 8.882812 20.75 8.941406 20.894531 C 9.003906 21.039062 9.089844 21.167969 9.199219 21.277344 C 9.308594 21.386719 9.4375 21.472656 9.582031 21.53125 C 9.726562 21.59375 9.875 21.621094 10.03125 21.621094 L 19.453125 21.621094 C 19.609375 21.621094 19.757812 21.59375 19.902344 21.53125 C 20.046875 21.472656 20.175781 21.386719 20.285156 21.277344 C 20.394531 21.167969 20.480469 21.039062 20.539062 20.894531 C 20.601562 20.75 20.628906 20.601562 20.628906 20.445312 L 20.628906 18.089844 C 20.628906 17.980469 20.589844 17.886719 20.515625 17.8125 Z M 20.515625 17.8125 " fill-opacity="1" fill-rule="nonzero"/></g><path fill="#ffbd59" d="M 12.777344 14.164062 C 12.777344 14.320312 12.75 14.46875 12.6875 14.613281 C 12.628906 14.757812 12.542969 14.886719 12.433594 14.996094 C 12.324219 15.105469 12.195312 15.191406 12.050781 15.25 C 11.90625 15.3125 11.757812 15.339844 11.601562 15.339844 C 11.445312 15.339844 11.296875 15.3125 11.152344 15.25 C 11.007812 15.191406 10.878906 15.105469 10.769531 14.996094 C 10.660156 14.886719 10.574219 14.757812 10.511719 14.613281 C 10.453125 14.46875 10.421875 14.320312 10.421875 14.164062 C 10.421875 14.007812 10.453125 13.855469 10.511719 13.714844 C 10.574219 13.570312 10.660156 13.441406 10.769531 13.332031 C 10.878906 13.21875 11.007812 13.136719 11.152344 13.074219 C 11.296875 13.015625 11.445312 12.984375 11.601562 12.984375 C 11.757812 12.984375 11.90625 13.015625 12.050781 13.074219 C 12.195312 13.136719 12.324219 13.21875 12.433594 13.332031 C 12.542969 13.441406 12.628906 13.570312 12.6875 13.714844 C 12.75 13.855469 12.777344 14.007812 12.777344 14.164062 Z M 12.777344 14.164062 " fill-opacity="1" fill-rule="nonzero"/><g clip-path="url(#8220fb8a5f)"><path fill="#ffffff" d="M 25.769531 11.414062 L 35.191406 11.414062 C 35.347656 11.414062 35.496094 11.445312 35.640625 11.503906 C 35.785156 11.566406 35.910156 11.652344 36.023438 11.761719 C 36.132812 11.871094 36.21875 12 36.277344 12.144531 C 36.335938 12.289062 36.367188 12.4375 36.367188 12.59375 L 36.367188 20.445312 C 36.367188 20.601562 36.335938 20.75 36.277344 20.894531 C 36.21875 21.039062 36.132812 21.167969 36.023438 21.277344 C 35.910156 21.386719 35.785156 21.472656 35.640625 21.53125 C 35.496094 21.59375 35.347656 21.621094 35.191406 21.621094 L 25.769531 21.621094 C 25.613281 21.621094 25.460938 21.59375 25.316406 21.53125 C 25.171875 21.472656 25.046875 21.386719 24.9375 21.277344 C 24.824219 21.167969 24.742188 21.039062 24.679688 20.894531 C 24.621094 20.75 24.589844 20.601562 24.589844 20.445312 L 24.589844 12.59375 C 24.589844 12.4375 24.621094 12.289062 24.679688 12.144531 C 24.742188 12 24.824219 11.871094 24.9375 11.761719 C 25.046875 11.652344 25.171875 11.566406 25.316406 11.503906 C 25.460938 11.445312 25.613281 11.414062 25.769531 11.414062 Z M 25.769531 11.414062 " fill-opacity="1" fill-rule="nonzero"/></g><g clip-path="url(#0c517ad871)"><path fill="#00a09d" d="M 36.253906 17.8125 L 33.503906 15.0625 C 33.429688 14.988281 33.335938 14.949219 33.226562 14.949219 C 33.117188 14.949219 33.027344 14.988281 32.949219 15.0625 L 31.265625 16.75 L 30.167969 15.652344 C 30.089844 15.574219 30 15.539062 29.890625 15.539062 C 29.78125 15.539062 29.6875 15.574219 29.613281 15.652344 L 27.175781 18.089844 L 24.984375 18.089844 C 24.875 18.089844 24.78125 18.128906 24.707031 18.203125 C 24.628906 18.28125 24.589844 18.375 24.589844 18.480469 L 24.589844 20.445312 C 24.589844 20.601562 24.621094 20.75 24.679688 20.894531 C 24.742188 21.039062 24.824219 21.167969 24.9375 21.277344 C 25.046875 21.386719 25.171875 21.472656 25.316406 21.53125 C 25.460938 21.59375 25.613281 21.621094 25.769531 21.621094 L 35.191406 21.621094 C 35.347656 21.621094 35.496094 21.59375 35.640625 21.53125 C 35.785156 21.472656 35.910156 21.386719 36.023438 21.277344 C 36.132812 21.167969 36.21875 21.039062 36.277344 20.894531 C 36.335938 20.75 36.367188 20.601562 36.367188 20.445312 L 36.367188 18.089844 C 36.367188 17.980469 36.328125 17.886719 36.253906 17.8125 Z M 36.253906 17.8125 " fill-opacity="1" fill-rule="nonzero"/></g><path fill="#ffbd59" d="M 28.515625 14.164062 C 28.515625 14.320312 28.488281 14.46875 28.425781 14.613281 C 28.367188 14.757812 28.28125 14.886719 28.171875 14.996094 C 28.0625 15.105469 27.933594 15.191406 27.789062 15.25 C 27.644531 15.3125 27.496094 15.339844 27.339844 15.339844 C 27.183594 15.339844 27.03125 15.3125 26.886719 15.25 C 26.742188 15.191406 26.617188 15.105469 26.507812 14.996094 C 26.394531 14.886719 26.3125 14.757812 26.25 14.613281 C 26.191406 14.46875 26.160156 14.320312 26.160156 14.164062 C 26.160156 14.007812 26.191406 13.855469 26.25 13.714844 C 26.3125 13.570312 26.394531 13.441406 26.507812 13.332031 C 26.617188 13.21875 26.742188 13.136719 26.886719 13.074219 C 27.03125 13.015625 27.183594 12.984375 27.339844 12.984375 C 27.496094 12.984375 27.644531 13.015625 27.789062 13.074219 C 27.933594 13.136719 28.0625 13.21875 28.171875 13.332031 C 28.28125 13.441406 28.367188 13.570312 28.425781 13.714844 C 28.488281 13.855469 28.515625 14.007812 28.515625 14.164062 Z M 28.515625 14.164062 " fill-opacity="1" fill-rule="nonzero"/><g clip-path="url(#b4c2466b98)"><path fill="#ffffff" d="M 41.546875 11.414062 L 50.964844 11.414062 C 51.121094 11.414062 51.273438 11.445312 51.417969 11.503906 C 51.5625 11.566406 51.6875 11.652344 51.800781 11.761719 C 51.910156 11.871094 51.996094 12 52.054688 12.144531 C 52.113281 12.289062 52.144531 12.4375 52.144531 12.59375 L 52.144531 20.445312 C 52.144531 20.601562 52.113281 20.75 52.054688 20.894531 C 51.996094 21.039062 51.910156 21.167969 51.800781 21.277344 C 51.6875 21.386719 51.5625 21.472656 51.417969 21.53125 C 51.273438 21.59375 51.121094 21.621094 50.964844 21.621094 L 41.546875 21.621094 C 41.390625 21.621094 41.238281 21.59375 41.09375 21.53125 C 40.949219 21.472656 40.824219 21.386719 40.714844 21.277344 C 40.601562 21.167969 40.515625 21.039062 40.457031 20.894531 C 40.398438 20.75 40.367188 20.601562 40.367188 20.445312 L 40.367188 12.59375 C 40.367188 12.4375 40.398438 12.289062 40.457031 12.144531 C 40.515625 12 40.601562 11.871094 40.714844 11.761719 C 40.824219 11.652344 40.949219 11.566406 41.09375 11.503906 C 41.238281 11.445312 41.390625 11.414062 41.546875 11.414062 Z M 41.546875 11.414062 " fill-opacity="1" fill-rule="nonzero"/></g><g clip-path="url(#760142248e)"><path fill="#00a09d" d="M 52.03125 17.8125 L 49.28125 15.0625 C 49.203125 14.988281 49.113281 14.949219 49.003906 14.949219 C 48.894531 14.949219 48.804688 14.988281 48.726562 15.0625 L 47.042969 16.75 L 45.945312 15.652344 C 45.867188 15.574219 45.777344 15.539062 45.667969 15.539062 C 45.558594 15.539062 45.464844 15.574219 45.390625 15.652344 L 42.953125 18.089844 L 40.761719 18.089844 C 40.652344 18.089844 40.558594 18.128906 40.484375 18.203125 C 40.40625 18.28125 40.367188 18.375 40.367188 18.480469 L 40.367188 20.445312 C 40.367188 20.601562 40.398438 20.75 40.457031 20.894531 C 40.515625 21.039062 40.601562 21.167969 40.714844 21.277344 C 40.824219 21.386719 40.949219 21.472656 41.09375 21.53125 C 41.238281 21.59375 41.390625 21.621094 41.546875 21.621094 L 50.964844 21.621094 C 51.121094 21.621094 51.273438 21.59375 51.417969 21.53125 C 51.5625 21.472656 51.6875 21.386719 51.800781 21.277344 C 51.910156 21.167969 51.996094 21.039062 52.054688 20.894531 C 52.113281 20.75 52.144531 20.601562 52.144531 20.445312 L 52.144531 18.089844 C 52.144531 17.980469 52.105469 17.886719 52.03125 17.8125 Z M 52.03125 17.8125 " fill-opacity="1" fill-rule="nonzero"/></g><path fill="#ffbd59" d="M 44.292969 14.164062 C 44.292969 14.320312 44.265625 14.46875 44.203125 14.613281 C 44.144531 14.757812 44.058594 14.886719 43.949219 14.996094 C 43.839844 15.105469 43.710938 15.191406 43.566406 15.25 C 43.421875 15.3125 43.273438 15.339844 43.117188 15.339844 C 42.960938 15.339844 42.808594 15.3125 42.664062 15.25 C 42.519531 15.191406 42.394531 15.105469 42.285156 14.996094 C 42.171875 14.886719 42.085938 14.757812 42.027344 14.613281 C 41.96875 14.46875 41.9375 14.320312 41.9375 14.164062 C 41.9375 14.007812 41.96875 13.855469 42.027344 13.714844 C 42.085938 13.570312 42.171875 13.441406 42.285156 13.332031 C 42.394531 13.21875 42.519531 13.136719 42.664062 13.074219 C 42.808594 13.015625 42.960938 12.984375 43.117188 12.984375 C 43.273438 12.984375 43.421875 13.015625 43.566406 13.074219 C 43.710938 13.136719 43.839844 13.21875 43.949219 13.332031 C 44.058594 13.441406 44.144531 13.570312 44.203125 13.714844 C 44.265625 13.855469 44.292969 14.007812 44.292969 14.164062 Z M 44.292969 14.164062 " fill-opacity="1" fill-rule="nonzero"/><g clip-path="url(#0256ead5ec)"><path fill="#ffffff" d="M 10.03125 23.367188 L 19.453125 23.367188 C 19.609375 23.367188 19.757812 23.398438 19.902344 23.457031 C 20.046875 23.519531 20.175781 23.601562 20.285156 23.714844 C 20.394531 23.824219 20.480469 23.949219 20.539062 24.09375 C 20.601562 24.238281 20.628906 24.390625 20.628906 24.546875 L 20.628906 32.398438 C 20.628906 32.554688 20.601562 32.703125 20.539062 32.847656 C 20.480469 32.992188 20.394531 33.117188 20.285156 33.230469 C 20.175781 33.339844 20.046875 33.425781 19.902344 33.484375 C 19.757812 33.542969 19.609375 33.574219 19.453125 33.574219 L 10.03125 33.574219 C 9.875 33.574219 9.726562 33.542969 9.582031 33.484375 C 9.4375 33.425781 9.308594 33.339844 9.199219 33.230469 C 9.089844 33.117188 9.003906 32.992188 8.941406 32.847656 C 8.882812 32.703125 8.855469 32.554688 8.855469 32.398438 L 8.855469 24.546875 C 8.855469 24.390625 8.882812 24.238281 8.941406 24.09375 C 9.003906 23.949219 9.089844 23.824219 9.199219 23.714844 C 9.308594 23.601562 9.4375 23.519531 9.582031 23.457031 C 9.726562 23.398438 9.875 23.367188 10.03125 23.367188 Z M 10.03125 23.367188 " fill-opacity="1" fill-rule="nonzero"/></g><g clip-path="url(#c0ed1f69c3)"><path fill="#00a09d" d="M 20.515625 29.765625 L 17.765625 27.015625 C 17.691406 26.941406 17.597656 26.902344 17.488281 26.902344 C 17.382812 26.902344 17.289062 26.941406 17.210938 27.015625 L 15.527344 28.703125 L 14.429688 27.605469 C 14.355469 27.527344 14.261719 27.488281 14.152344 27.488281 C 14.042969 27.488281 13.953125 27.527344 13.875 27.605469 L 11.4375 30.042969 L 9.246094 30.042969 C 9.136719 30.042969 9.046875 30.078125 8.96875 30.15625 C 8.890625 30.234375 8.855469 30.324219 8.855469 30.433594 L 8.855469 32.398438 C 8.855469 32.554688 8.882812 32.703125 8.941406 32.847656 C 9.003906 32.992188 9.089844 33.117188 9.199219 33.230469 C 9.308594 33.339844 9.4375 33.425781 9.582031 33.484375 C 9.726562 33.542969 9.875 33.574219 10.03125 33.574219 L 19.453125 33.574219 C 19.609375 33.574219 19.757812 33.542969 19.902344 33.484375 C 20.046875 33.425781 20.175781 33.339844 20.285156 33.230469 C 20.394531 33.117188 20.480469 32.992188 20.539062 32.847656 C 20.601562 32.703125 20.628906 32.554688 20.628906 32.398438 L 20.628906 30.042969 C 20.628906 29.933594 20.589844 29.839844 20.515625 29.765625 Z M 20.515625 29.765625 " fill-opacity="1" fill-rule="nonzero"/></g><path fill="#ffbd59" d="M 12.777344 26.117188 C 12.777344 26.273438 12.75 26.421875 12.6875 26.566406 C 12.628906 26.710938 12.542969 26.839844 12.433594 26.949219 C 12.324219 27.058594 12.195312 27.144531 12.050781 27.203125 C 11.90625 27.265625 11.757812 27.292969 11.601562 27.292969 C 11.445312 27.292969 11.296875 27.265625 11.152344 27.203125 C 11.007812 27.144531 10.878906 27.058594 10.769531 26.949219 C 10.660156 26.839844 10.574219 26.710938 10.511719 26.566406 C 10.453125 26.421875 10.421875 26.273438 10.421875 26.117188 C 10.421875 25.960938 10.453125 25.808594 10.511719 25.664062 C 10.574219 25.519531 10.660156 25.394531 10.769531 25.285156 C 10.878906 25.171875 11.007812 25.089844 11.152344 25.027344 C 11.296875 24.96875 11.445312 24.9375 11.601562 24.9375 C 11.757812 24.9375 11.90625 24.96875 12.050781 25.027344 C 12.195312 25.089844 12.324219 25.171875 12.433594 25.285156 C 12.542969 25.394531 12.628906 25.519531 12.6875 25.664062 C 12.75 25.808594 12.777344 25.960938 12.777344 26.117188 Z M 12.777344 26.117188 " fill-opacity="1" fill-rule="nonzero"/><g clip-path="url(#7f6a6d9e71)"><path fill="#ffffff" d="M 25.769531 23.367188 L 35.191406 23.367188 C 35.347656 23.367188 35.496094 23.398438 35.640625 23.457031 C 35.785156 23.519531 35.910156 23.601562 36.023438 23.714844 C 36.132812 23.824219 36.21875 23.949219 36.277344 24.09375 C 36.335938 24.238281 36.367188 24.390625 36.367188 24.546875 L 36.367188 32.398438 C 36.367188 32.554688 36.335938 32.703125 36.277344 32.847656 C 36.21875 32.992188 36.132812 33.117188 36.023438 33.230469 C 35.910156 33.339844 35.785156 33.425781 35.640625 33.484375 C 35.496094 33.542969 35.347656 33.574219 35.191406 33.574219 L 25.769531 33.574219 C 25.613281 33.574219 25.460938 33.542969 25.316406 33.484375 C 25.171875 33.425781 25.046875 33.339844 24.9375 33.230469 C 24.824219 33.117188 24.742188 32.992188 24.679688 32.847656 C 24.621094 32.703125 24.589844 32.554688 24.589844 32.398438 L 24.589844 24.546875 C 24.589844 24.390625 24.621094 24.238281 24.679688 24.09375 C 24.742188 23.949219 24.824219 23.824219 24.9375 23.714844 C 25.046875 23.601562 25.171875 23.519531 25.316406 23.457031 C 25.460938 23.398438 25.613281 23.367188 25.769531 23.367188 Z M 25.769531 23.367188 " fill-opacity="1" fill-rule="nonzero"/></g><g clip-path="url(#d296ae4e33)"><path fill="#00a09d" d="M 36.253906 29.765625 L 33.503906 27.015625 C 33.429688 26.941406 33.335938 26.902344 33.226562 26.902344 C 33.117188 26.902344 33.027344 26.941406 32.949219 27.015625 L 31.265625 28.703125 L 30.167969 27.605469 C 30.089844 27.527344 30 27.488281 29.890625 27.488281 C 29.78125 27.488281 29.6875 27.527344 29.613281 27.605469 L 27.175781 30.042969 L 24.984375 30.042969 C 24.875 30.042969 24.78125 30.078125 24.707031 30.15625 C 24.628906 30.234375 24.589844 30.324219 24.589844 30.433594 L 24.589844 32.398438 C 24.589844 32.554688 24.621094 32.703125 24.679688 32.847656 C 24.742188 32.992188 24.824219 33.117188 24.9375 33.230469 C 25.046875 33.339844 25.171875 33.425781 25.316406 33.484375 C 25.460938 33.542969 25.613281 33.574219 25.769531 33.574219 L 35.191406 33.574219 C 35.347656 33.574219 35.496094 33.542969 35.640625 33.484375 C 35.785156 33.425781 35.910156 33.339844 36.023438 33.230469 C 36.132812 33.117188 36.21875 32.992188 36.277344 32.847656 C 36.335938 32.703125 36.367188 32.554688 36.367188 32.398438 L 36.367188 30.042969 C 36.367188 29.933594 36.328125 29.839844 36.253906 29.765625 Z M 36.253906 29.765625 " fill-opacity="1" fill-rule="nonzero"/></g><path fill="#ffbd59" d="M 28.515625 26.117188 C 28.515625 26.273438 28.488281 26.421875 28.425781 26.566406 C 28.367188 26.710938 28.28125 26.839844 28.171875 26.949219 C 28.0625 27.058594 27.933594 27.144531 27.789062 27.203125 C 27.644531 27.265625 27.496094 27.292969 27.339844 27.292969 C 27.183594 27.292969 27.03125 27.265625 26.886719 27.203125 C 26.742188 27.144531 26.617188 27.058594 26.507812 26.949219 C 26.394531 26.839844 26.3125 26.710938 26.25 26.566406 C 26.191406 26.421875 26.160156 26.273438 26.160156 26.117188 C 26.160156 25.960938 26.191406 25.808594 26.25 25.664062 C 26.3125 25.519531 26.394531 25.394531 26.507812 25.285156 C 26.617188 25.171875 26.742188 25.089844 26.886719 25.027344 C 27.03125 24.96875 27.183594 24.9375 27.339844 24.9375 C 27.496094 24.9375 27.644531 24.96875 27.789062 25.027344 C 27.933594 25.089844 28.0625 25.171875 28.171875 25.285156 C 28.28125 25.394531 28.367188 25.519531 28.425781 25.664062 C 28.488281 25.808594 28.515625 25.960938 28.515625 26.117188 Z M 28.515625 26.117188 " fill-opacity="1" fill-rule="nonzero"/><g clip-path="url(#51f9526af7)"><path fill="#ffffff" d="M 41.546875 23.367188 L 50.964844 23.367188 C 51.121094 23.367188 51.273438 23.398438 51.417969 23.457031 C 51.5625 23.519531 51.6875 23.601562 51.800781 23.714844 C 51.910156 23.824219 51.996094 23.949219 52.054688 24.09375 C 52.113281 24.238281 52.144531 24.390625 52.144531 24.546875 L 52.144531 32.398438 C 52.144531 32.554688 52.113281 32.703125 52.054688 32.847656 C 51.996094 32.992188 51.910156 33.117188 51.800781 33.230469 C 51.6875 33.339844 51.5625 33.425781 51.417969 33.484375 C 51.273438 33.542969 51.121094 33.574219 50.964844 33.574219 L 41.546875 33.574219 C 41.390625 33.574219 41.238281 33.542969 41.09375 33.484375 C 40.949219 33.425781 40.824219 33.339844 40.714844 33.230469 C 40.601562 33.117188 40.515625 32.992188 40.457031 32.847656 C 40.398438 32.703125 40.367188 32.554688 40.367188 32.398438 L 40.367188 24.546875 C 40.367188 24.390625 40.398438 24.238281 40.457031 24.09375 C 40.515625 23.949219 40.601562 23.824219 40.714844 23.714844 C 40.824219 23.601562 40.949219 23.519531 41.09375 23.457031 C 41.238281 23.398438 41.390625 23.367188 41.546875 23.367188 Z M 41.546875 23.367188 " fill-opacity="1" fill-rule="nonzero"/></g><g clip-path="url(#3698989f90)"><path fill="#00a09d" d="M 52.03125 29.765625 L 49.28125 27.015625 C 49.203125 26.941406 49.113281 26.902344 49.003906 26.902344 C 48.894531 26.902344 48.804688 26.941406 48.726562 27.015625 L 47.042969 28.703125 L 45.945312 27.605469 C 45.867188 27.527344 45.777344 27.488281 45.667969 27.488281 C 45.558594 27.488281 45.464844 27.527344 45.390625 27.605469 L 42.953125 30.042969 L 40.761719 30.042969 C 40.652344 30.042969 40.558594 30.078125 40.484375 30.15625 C 40.40625 30.234375 40.367188 30.324219 40.367188 30.433594 L 40.367188 32.398438 C 40.367188 32.554688 40.398438 32.703125 40.457031 32.847656 C 40.515625 32.992188 40.601562 33.117188 40.714844 33.230469 C 40.824219 33.339844 40.949219 33.425781 41.09375 33.484375 C 41.238281 33.542969 41.390625 33.574219 41.546875 33.574219 L 50.964844 33.574219 C 51.121094 33.574219 51.273438 33.542969 51.417969 33.484375 C 51.5625 33.425781 51.6875 33.339844 51.800781 33.230469 C 51.910156 33.117188 51.996094 32.992188 52.054688 32.847656 C 52.113281 32.703125 52.144531 32.554688 52.144531 32.398438 L 52.144531 30.042969 C 52.144531 29.933594 52.105469 29.839844 52.03125 29.765625 Z M 52.03125 29.765625 " fill-opacity="1" fill-rule="nonzero"/></g><path fill="#ffbd59" d="M 44.292969 26.117188 C 44.292969 26.273438 44.265625 26.421875 44.203125 26.566406 C 44.144531 26.710938 44.058594 26.839844 43.949219 26.949219 C 43.839844 27.058594 43.710938 27.144531 43.566406 27.203125 C 43.421875 27.265625 43.273438 27.292969 43.117188 27.292969 C 42.960938 27.292969 42.808594 27.265625 42.664062 27.203125 C 42.519531 27.144531 42.394531 27.058594 42.285156 26.949219 C 42.171875 26.839844 42.085938 26.710938 42.027344 26.566406 C 41.96875 26.421875 41.9375 26.273438 41.9375 26.117188 C 41.9375 25.960938 41.96875 25.808594 42.027344 25.664062 C 42.085938 25.519531 42.171875 25.394531 42.285156 25.285156 C 42.394531 25.171875 42.519531 25.089844 42.664062 25.027344 C 42.808594 24.96875 42.960938 24.9375 43.117188 24.9375 C 43.273438 24.9375 43.421875 24.96875 43.566406 25.027344 C 43.710938 25.089844 43.839844 25.171875 43.949219 25.285156 C 44.058594 25.394531 44.144531 25.519531 44.203125 25.664062 C 44.265625 25.808594 44.292969 25.960938 44.292969 26.117188 Z M 44.292969 26.117188 " fill-opacity="1" fill-rule="nonzero"/></svg>