<svg xmlns="http://www.w3.org/2000/svg" xmlns:xlink="http://www.w3.org/1999/xlink" width="82" zoomAndPan="magnify" viewBox="0 0 61.5 44.999999" height="60" preserveAspectRatio="xMidYMid meet" version="1.0"><defs><clipPath id="3c8057b18f"><path d="M 0 0.179688 L 19 0.179688 L 19 19 L 0 19 Z M 0 0.179688 " clip-rule="nonzero"/></clipPath><clipPath id="86d80dc583"><path d="M -20.503906 0.5 L 0.0742188 -20.082031 L 18.058594 -2.101562 L -2.523438 18.480469 Z M -20.503906 0.5 " clip-rule="nonzero"/></clipPath><clipPath id="2054f0bd86"><path d="M -10.230469 -9.777344 L 18.027344 -2.070312 L -2.523438 18.480469 Z M -10.230469 -9.777344 " clip-rule="nonzero"/></clipPath><clipPath id="cdaddcae48"><path d="M 1.320312 1.648438 L 7.617188 1.648438 L 7.617188 7.640625 L 1.320312 7.640625 Z M 1.320312 1.648438 " clip-rule="nonzero"/></clipPath><clipPath id="e16ec1f101"><path d="M 4.464844 1.648438 L 5.207031 3.9375 L 7.605469 3.9375 L 5.664062 5.351562 L 6.40625 7.640625 L 4.464844 6.226562 L 2.519531 7.640625 L 3.261719 5.351562 L 1.320312 3.9375 L 3.722656 3.9375 Z M 4.464844 1.648438 " clip-rule="nonzero"/></clipPath><clipPath id="8cdebf7fdb"><path d="M 7 12.839844 L 14.738281 12.839844 L 14.738281 21 L 7 21 Z M 7 12.839844 " clip-rule="nonzero"/></clipPath><clipPath id="9de11cda10"><path d="M 47 14.355469 L 54 14.355469 L 54 18 L 47 18 Z M 47 14.355469 " clip-rule="nonzero"/></clipPath><clipPath id="7fa96e2f76"><path d="M 46.582031 14.355469 L 54 14.355469 L 54 19.5625 L 46.582031 19.5625 Z M 46.582031 14.355469 " clip-rule="nonzero"/></clipPath><clipPath id="8217c4f59e"><path d="M 27.824219 13.167969 L 33.777344 13.167969 L 33.777344 20.609375 L 27.824219 20.609375 Z M 27.824219 13.167969 " clip-rule="nonzero"/></clipPath></defs><g clip-path="url(#3c8057b18f)"><g clip-path="url(#86d80dc583)"><g clip-path="url(#2054f0bd86)"><path fill="#ff914d" d="M -20.503906 0.5 L 0.0742188 -20.082031 L 18.058594 -2.101562 L -2.523438 18.480469 Z M -20.503906 0.5 " fill-opacity="1" fill-rule="nonzero"/></g></g></g><g clip-path="url(#cdaddcae48)"><g clip-path="url(#e16ec1f101)"><path fill="#ffffff" d="M 1.320312 1.648438 L 7.617188 1.648438 L 7.617188 7.640625 L 1.320312 7.640625 Z M 1.320312 1.648438 " fill-opacity="1" fill-rule="nonzero"/></g></g><path stroke-linecap="butt" transform="matrix(0.743952, 0, 0, 0.743952, 5.897136, 25.186071)" fill="none" stroke-linejoin="miter" d="M 0.00174897 1.498364 L 12.356594 1.498364 " stroke="#ffffff" stroke-width="3" stroke-opacity="1" stroke-miterlimit="4"/><path stroke-linecap="butt" transform="matrix(0.743952, 0, 0, 0.743952, 3.031106, 29.926513)" fill="none" stroke-linejoin="miter" d="M 0.000193627 1.50071 L 20.063033 1.50071 " stroke="#d8d8d8" stroke-width="3" stroke-opacity="1" stroke-miterlimit="4"/><path stroke-linecap="butt" transform="matrix(0.743952, 0, 0, 0.743952, 26.061071, 25.186071)" fill="none" stroke-linejoin="miter" d="M 0.00192114 1.498364 L 12.356766 1.498364 " stroke="#ffffff" stroke-width="3" stroke-opacity="1" stroke-miterlimit="4"/><path stroke-linecap="butt" transform="matrix(0.743952, 0, 0, 0.743952, 23.195039, 29.926513)" fill="none" stroke-linejoin="miter" d="M 0.000367534 1.50071 L 20.063207 1.50071 " stroke="#d8d8d8" stroke-width="3" stroke-opacity="1" stroke-miterlimit="4"/><path stroke-linecap="butt" transform="matrix(0.743952, 0, 0, 0.743952, 45.914473, 25.186071)" fill="none" stroke-linejoin="miter" d="M -0.000551614 1.498364 L 12.354293 1.498364 " stroke="#ffffff" stroke-width="3" stroke-opacity="1" stroke-miterlimit="4"/><path stroke-linecap="butt" transform="matrix(0.743952, 0, 0, 0.743952, 43.048443, 29.926513)" fill="none" stroke-linejoin="miter" d="M -0.00210746 1.50071 L 20.060732 1.50071 " stroke="#d8d8d8" stroke-width="3" stroke-opacity="1" stroke-miterlimit="4"/><g clip-path="url(#8cdebf7fdb)"><path fill="#00c4cc" d="M 12.574219 17.558594 C 12.445312 17.484375 12.289062 17.488281 12.160156 17.5625 L 11.515625 17.945312 C 11.371094 18.03125 11.191406 18.023438 11.0625 17.917969 C 10.832031 17.738281 10.464844 17.441406 10.144531 17.121094 C 9.824219 16.800781 9.523438 16.429688 9.34375 16.203125 C 9.242188 16.070312 9.230469 15.890625 9.316406 15.746094 L 9.703125 15.101562 C 9.777344 14.976562 9.777344 14.816406 9.703125 14.6875 L 8.757812 13.074219 C 8.667969 12.917969 8.484375 12.84375 8.308594 12.886719 C 8.136719 12.925781 7.914062 13.027344 7.683594 13.261719 C 6.953125 13.988281 6.566406 15.21875 9.308594 17.957031 C 12.046875 20.695312 13.273438 20.308594 14.003906 19.582031 C 14.238281 19.347656 14.335938 19.125 14.378906 18.953125 C 14.421875 18.777344 14.347656 18.597656 14.191406 18.507812 C 13.800781 18.277344 12.960938 17.789062 12.574219 17.558594 Z M 12.574219 17.558594 " fill-opacity="1" fill-rule="nonzero"/></g><g clip-path="url(#9de11cda10)"><path fill="#00c4cc" d="M 53.355469 14.414062 C 53.257812 14.375 53.15625 14.355469 53.054688 14.355469 L 47.363281 14.355469 C 47.265625 14.355469 47.171875 14.375 47.078125 14.410156 L 50.207031 17.03125 Z M 53.355469 14.414062 " fill-opacity="1" fill-rule="nonzero"/></g><g clip-path="url(#7fa96e2f76)"><path fill="#00c4cc" d="M 53.738281 14.769531 L 50.375 17.566406 C 50.328125 17.605469 50.269531 17.625 50.207031 17.625 C 50.144531 17.625 50.089844 17.605469 50.042969 17.566406 L 46.6875 14.757812 C 46.621094 14.875 46.589844 15 46.585938 15.132812 L 46.585938 18.75 C 46.585938 18.964844 46.664062 19.148438 46.816406 19.300781 C 46.964844 19.453125 47.148438 19.527344 47.363281 19.527344 L 53.054688 19.527344 C 53.269531 19.527344 53.449219 19.453125 53.601562 19.300781 C 53.753906 19.148438 53.828125 18.964844 53.828125 18.75 L 53.828125 15.132812 C 53.828125 15.003906 53.796875 14.882812 53.738281 14.769531 Z M 53.738281 14.769531 " fill-opacity="1" fill-rule="nonzero"/></g><g clip-path="url(#8217c4f59e)"><path fill="#00c4cc" d="M 30.65625 13.167969 C 29.09375 13.167969 27.828125 14.4375 27.828125 16 C 27.828125 17.960938 30.378906 20.535156 30.488281 20.644531 C 30.535156 20.691406 30.59375 20.714844 30.65625 20.714844 C 30.714844 20.714844 30.777344 20.691406 30.820312 20.644531 C 30.929688 20.535156 33.484375 17.960938 33.484375 16 C 33.484375 14.4375 32.214844 13.167969 30.65625 13.167969 Z M 30.65625 17.414062 C 29.875 17.414062 29.242188 16.777344 29.242188 16 C 29.242188 15.21875 29.875 14.582031 30.65625 14.582031 C 31.433594 14.582031 32.070312 15.21875 32.070312 16 C 32.070312 16.777344 31.433594 17.414062 30.65625 17.414062 Z M 30.65625 17.414062 " fill-opacity="1" fill-rule="nonzero"/></g></svg>