<svg xmlns="http://www.w3.org/2000/svg" xmlns:xlink="http://www.w3.org/1999/xlink" width="82" zoomAndPan="magnify" viewBox="0 0 61.5 44.999999" height="60" preserveAspectRatio="xMidYMid meet" version="1.0"><defs><clipPath id="fc8c02d27d"><path d="M 0 0.179688 L 19 0.179688 L 19 19 L 0 19 Z M 0 0.179688 " clip-rule="nonzero"/></clipPath><clipPath id="0b8d803621"><path d="M -20.503906 0.5 L 0.0742188 -20.082031 L 18.058594 -2.101562 L -2.523438 18.480469 Z M -20.503906 0.5 " clip-rule="nonzero"/></clipPath><clipPath id="176afdbec8"><path d="M -10.230469 -9.777344 L 18.027344 -2.070312 L -2.523438 18.480469 Z M -10.230469 -9.777344 " clip-rule="nonzero"/></clipPath><clipPath id="fe02effab0"><path d="M 1.320312 1.648438 L 7.617188 1.648438 L 7.617188 7.640625 L 1.320312 7.640625 Z M 1.320312 1.648438 " clip-rule="nonzero"/></clipPath><clipPath id="9ca462856a"><path d="M 4.464844 1.648438 L 5.207031 3.9375 L 7.605469 3.9375 L 5.664062 5.351562 L 6.40625 7.640625 L 4.464844 6.226562 L 2.519531 7.640625 L 3.261719 5.351562 L 1.320312 3.9375 L 3.722656 3.9375 Z M 4.464844 1.648438 " clip-rule="nonzero"/></clipPath><clipPath id="a9787577b3"><path d="M 38.089844 15.476562 L 54.457031 15.476562 L 54.457031 29.609375 L 38.089844 29.609375 Z M 38.089844 15.476562 " clip-rule="nonzero"/></clipPath><clipPath id="4eeb1724dc"><path d="M 38.089844 20 L 54.457031 20 L 54.457031 29.609375 L 38.089844 29.609375 Z M 38.089844 20 " clip-rule="nonzero"/></clipPath></defs><g clip-path="url(#fc8c02d27d)"><g clip-path="url(#0b8d803621)"><g clip-path="url(#176afdbec8)"><path fill="#ff914d" d="M -20.503906 0.5 L 0.0742188 -20.082031 L 18.058594 -2.101562 L -2.523438 18.480469 Z M -20.503906 0.5 " fill-opacity="1" fill-rule="nonzero"/></g></g></g><g clip-path="url(#fe02effab0)"><g clip-path="url(#9ca462856a)"><path fill="#ffffff" d="M 1.320312 1.648438 L 7.617188 1.648438 L 7.617188 7.640625 L 1.320312 7.640625 Z M 1.320312 1.648438 " fill-opacity="1" fill-rule="nonzero"/></g></g><path stroke-linecap="round" transform="matrix(0.743952, 0, 0, 0.743952, 6.929217, 21.461641)" fill="none" stroke-linejoin="miter" d="M 0.998261 1.001934 L 28.826853 1.001934 " stroke="#d8d8d8" stroke-width="2" stroke-opacity="1" stroke-miterlimit="4"/><path stroke-linecap="round" transform="matrix(0.743952, 0, 0, 0.743952, 6.929217, 24.84588)" fill="none" stroke-linejoin="miter" d="M 0.998261 1.000017 L 28.826853 1.000017 " stroke="#d8d8d8" stroke-width="2" stroke-opacity="1" stroke-miterlimit="4"/><g clip-path="url(#a9787577b3)"><path fill="#ffffff" d="M 39.71875 15.476562 L 52.679688 15.476562 C 52.894531 15.476562 53.101562 15.515625 53.300781 15.597656 C 53.5 15.679688 53.675781 15.796875 53.824219 15.949219 C 53.976562 16.101562 54.09375 16.277344 54.175781 16.476562 C 54.257812 16.675781 54.300781 16.882812 54.300781 17.097656 L 54.300781 27.898438 C 54.300781 28.113281 54.257812 28.320312 54.175781 28.519531 C 54.09375 28.714844 53.976562 28.890625 53.824219 29.042969 C 53.675781 29.195312 53.5 29.3125 53.300781 29.394531 C 53.101562 29.476562 52.894531 29.519531 52.679688 29.519531 L 39.71875 29.519531 C 39.503906 29.519531 39.296875 29.476562 39.097656 29.394531 C 38.898438 29.3125 38.726562 29.195312 38.574219 29.042969 C 38.421875 28.890625 38.304688 28.714844 38.222656 28.519531 C 38.140625 28.320312 38.097656 28.113281 38.097656 27.898438 L 38.097656 17.097656 C 38.097656 16.882812 38.140625 16.675781 38.222656 16.476562 C 38.304688 16.277344 38.421875 16.101562 38.574219 15.949219 C 38.726562 15.796875 38.898438 15.679688 39.097656 15.597656 C 39.296875 15.515625 39.503906 15.476562 39.71875 15.476562 Z M 39.71875 15.476562 " fill-opacity="1" fill-rule="nonzero"/></g><g clip-path="url(#4eeb1724dc)"><path fill="#00a09d" d="M 54.140625 24.277344 L 50.363281 20.496094 C 50.257812 20.390625 50.128906 20.335938 49.980469 20.335938 C 49.832031 20.335938 49.703125 20.390625 49.597656 20.496094 L 47.28125 22.8125 L 45.769531 21.304688 C 45.664062 21.199219 45.539062 21.148438 45.390625 21.148438 C 45.238281 21.148438 45.113281 21.199219 45.007812 21.304688 L 41.65625 24.65625 L 38.636719 24.65625 C 38.488281 24.65625 38.363281 24.710938 38.257812 24.816406 C 38.152344 24.921875 38.097656 25.046875 38.097656 25.199219 L 38.097656 27.898438 C 38.097656 28.113281 38.140625 28.320312 38.222656 28.519531 C 38.304688 28.714844 38.421875 28.890625 38.574219 29.042969 C 38.726562 29.195312 38.898438 29.3125 39.097656 29.394531 C 39.296875 29.476562 39.503906 29.519531 39.71875 29.519531 L 52.679688 29.519531 C 52.894531 29.519531 53.101562 29.476562 53.300781 29.394531 C 53.5 29.3125 53.675781 29.195312 53.824219 29.042969 C 53.976562 28.890625 54.09375 28.714844 54.175781 28.519531 C 54.257812 28.320312 54.300781 28.113281 54.300781 27.898438 L 54.300781 24.65625 C 54.300781 24.507812 54.246094 24.382812 54.140625 24.277344 Z M 54.140625 24.277344 " fill-opacity="1" fill-rule="nonzero"/></g><path fill="#ffbd59" d="M 43.5 19.257812 C 43.5 19.472656 43.457031 19.679688 43.375 19.875 C 43.292969 20.074219 43.175781 20.25 43.023438 20.402344 C 42.871094 20.554688 42.695312 20.671875 42.5 20.753906 C 42.300781 20.835938 42.09375 20.875 41.878906 20.875 C 41.664062 20.875 41.457031 20.835938 41.257812 20.753906 C 41.058594 20.671875 40.886719 20.554688 40.734375 20.402344 C 40.582031 20.25 40.464844 20.074219 40.382812 19.875 C 40.300781 19.679688 40.257812 19.472656 40.257812 19.257812 C 40.257812 19.042969 40.300781 18.835938 40.382812 18.636719 C 40.464844 18.4375 40.582031 18.261719 40.734375 18.109375 C 40.886719 17.957031 41.058594 17.84375 41.257812 17.757812 C 41.457031 17.675781 41.664062 17.636719 41.878906 17.636719 C 42.09375 17.636719 42.300781 17.675781 42.5 17.757812 C 42.695312 17.84375 42.871094 17.957031 43.023438 18.109375 C 43.175781 18.261719 43.292969 18.4375 43.375 18.636719 C 43.457031 18.835938 43.5 19.042969 43.5 19.257812 Z M 43.5 19.257812 " fill-opacity="1" fill-rule="nonzero"/><path stroke-linecap="round" transform="matrix(0.743952, 0.000000000000000089, -0.000000000000000089, 0.743952, 6.929217, 15.17525)" fill="none" stroke-linejoin="miter" d="M 2.00114 2.001222 L 27.829224 2.001222 " stroke="#ffffff" stroke-width="4" stroke-opacity="1" stroke-miterlimit="4"/><path stroke-linecap="round" transform="matrix(0.743952, 0, 0, 0.743952, 6.929217, 28.336844)" fill="none" stroke-linejoin="miter" d="M 0.998261 1.001661 L 20.82482 1.001661 " stroke="#d8d8d8" stroke-width="2" stroke-opacity="1" stroke-miterlimit="4"/></svg>