<svg xmlns="http://www.w3.org/2000/svg" xmlns:xlink="http://www.w3.org/1999/xlink" width="82" zoomAndPan="magnify" viewBox="0 0 61.5 44.999999" height="60" preserveAspectRatio="xMidYMid meet" version="1.0"><defs><clipPath id="1d4e715a5d"><path d="M 0 0.179688 L 19 0.179688 L 19 19 L 0 19 Z M 0 0.179688 " clip-rule="nonzero"/></clipPath><clipPath id="f2063dda3e"><path d="M -20.503906 0.5 L 0.0742188 -20.082031 L 18.058594 -2.101562 L -2.523438 18.480469 Z M -20.503906 0.5 " clip-rule="nonzero"/></clipPath><clipPath id="9f23b07e41"><path d="M -10.230469 -9.777344 L 18.027344 -2.070312 L -2.523438 18.480469 Z M -10.230469 -9.777344 " clip-rule="nonzero"/></clipPath><clipPath id="13825bade6"><path d="M 1.320312 1.648438 L 7.617188 1.648438 L 7.617188 7.640625 L 1.320312 7.640625 Z M 1.320312 1.648438 " clip-rule="nonzero"/></clipPath><clipPath id="26e9d4a403"><path d="M 4.464844 1.648438 L 5.207031 3.9375 L 7.605469 3.9375 L 5.664062 5.351562 L 6.40625 7.640625 L 4.464844 6.226562 L 2.519531 7.640625 L 3.261719 5.351562 L 1.320312 3.9375 L 3.722656 3.9375 Z M 4.464844 1.648438 " clip-rule="nonzero"/></clipPath><clipPath id="3db785d95e"><path d="M 7.605469 8.929688 L 18.023438 8.929688 L 18.023438 17.855469 L 7.605469 17.855469 Z M 7.605469 8.929688 " clip-rule="nonzero"/></clipPath><clipPath id="5fd9fefe70"><path d="M 7.605469 12 L 18.023438 12 L 18.023438 17.855469 L 7.605469 17.855469 Z M 7.605469 12 " clip-rule="nonzero"/></clipPath><clipPath id="b05d90473b"><path d="M 25.246094 8.929688 L 35.660156 8.929688 L 35.660156 17.855469 L 25.246094 17.855469 Z M 25.246094 8.929688 " clip-rule="nonzero"/></clipPath><clipPath id="c0a883e9f4"><path d="M 25.246094 12 L 35.660156 12 L 35.660156 17.855469 L 25.246094 17.855469 Z M 25.246094 12 " clip-rule="nonzero"/></clipPath><clipPath id="4d2c6dfcea"><path d="M 42.824219 8.929688 L 53.242188 8.929688 L 53.242188 17.855469 L 42.824219 17.855469 Z M 42.824219 8.929688 " clip-rule="nonzero"/></clipPath><clipPath id="52940fe987"><path d="M 42.824219 12 L 53.242188 12 L 53.242188 17.855469 L 42.824219 17.855469 Z M 42.824219 12 " clip-rule="nonzero"/></clipPath></defs><g clip-path="url(#1d4e715a5d)"><g clip-path="url(#f2063dda3e)"><g clip-path="url(#9f23b07e41)"><path fill="#ff914d" d="M -20.503906 0.5 L 0.0742188 -20.082031 L 18.058594 -2.101562 L -2.523438 18.480469 Z M -20.503906 0.5 " fill-opacity="1" fill-rule="nonzero"/></g></g></g><g clip-path="url(#13825bade6)"><g clip-path="url(#26e9d4a403)"><path fill="#ffffff" d="M 1.320312 1.648438 L 7.617188 1.648438 L 7.617188 7.640625 L 1.320312 7.640625 Z M 1.320312 1.648438 " fill-opacity="1" fill-rule="nonzero"/></g></g><path stroke-linecap="butt" transform="matrix(0.743952, 0, 0, 0.743952, 6.305637, 29.957319)" fill="none" stroke-linejoin="miter" d="M -0.00127655 1.501306 L 17.630499 1.501306 " stroke="#d8d8d8" stroke-width="3" stroke-opacity="1" stroke-miterlimit="4"/><g clip-path="url(#3db785d95e)"><path fill="#ffffff" d="M 8.660156 8.929688 L 17.0625 8.929688 C 17.203125 8.929688 17.335938 8.957031 17.464844 9.007812 C 17.59375 9.0625 17.707031 9.136719 17.804688 9.238281 C 17.902344 9.335938 17.980469 9.449219 18.03125 9.578125 C 18.085938 9.707031 18.113281 9.839844 18.113281 9.980469 L 18.113281 16.980469 C 18.113281 17.121094 18.085938 17.253906 18.03125 17.382812 C 17.980469 17.511719 17.902344 17.625 17.804688 17.722656 C 17.707031 17.820312 17.59375 17.898438 17.464844 17.949219 C 17.335938 18.003906 17.203125 18.03125 17.0625 18.03125 L 8.660156 18.03125 C 8.519531 18.03125 8.386719 18.003906 8.257812 17.949219 C 8.128906 17.898438 8.015625 17.820312 7.917969 17.722656 C 7.820312 17.625 7.742188 17.511719 7.691406 17.382812 C 7.636719 17.253906 7.609375 17.121094 7.609375 16.980469 L 7.609375 9.980469 C 7.609375 9.839844 7.636719 9.707031 7.691406 9.578125 C 7.742188 9.449219 7.820312 9.335938 7.917969 9.238281 C 8.015625 9.136719 8.128906 9.0625 8.257812 9.007812 C 8.386719 8.957031 8.519531 8.929688 8.660156 8.929688 Z M 8.660156 8.929688 " fill-opacity="1" fill-rule="nonzero"/></g><g clip-path="url(#5fd9fefe70)"><path fill="#00a09d" d="M 18.007812 14.632812 L 15.558594 12.183594 C 15.492188 12.113281 15.410156 12.078125 15.3125 12.078125 C 15.214844 12.078125 15.132812 12.113281 15.0625 12.183594 L 13.5625 13.683594 L 12.582031 12.707031 C 12.515625 12.640625 12.433594 12.605469 12.335938 12.605469 C 12.238281 12.605469 12.15625 12.640625 12.089844 12.707031 L 9.914062 14.878906 L 7.960938 14.878906 C 7.863281 14.878906 7.78125 14.914062 7.710938 14.984375 C 7.644531 15.050781 7.609375 15.132812 7.609375 15.230469 L 7.609375 16.980469 C 7.609375 17.121094 7.636719 17.253906 7.691406 17.382812 C 7.742188 17.511719 7.820312 17.625 7.917969 17.722656 C 8.015625 17.820312 8.128906 17.898438 8.257812 17.949219 C 8.386719 18.003906 8.519531 18.03125 8.660156 18.03125 L 17.0625 18.03125 C 17.203125 18.03125 17.335938 18.003906 17.464844 17.949219 C 17.59375 17.898438 17.707031 17.820312 17.804688 17.722656 C 17.902344 17.625 17.980469 17.511719 18.03125 17.382812 C 18.085938 17.253906 18.113281 17.121094 18.113281 16.980469 L 18.113281 14.878906 C 18.113281 14.785156 18.078125 14.703125 18.007812 14.632812 Z M 18.007812 14.632812 " fill-opacity="1" fill-rule="nonzero"/></g><path fill="#ffbd59" d="M 11.109375 11.378906 C 11.109375 11.519531 11.085938 11.652344 11.03125 11.78125 C 10.976562 11.910156 10.902344 12.023438 10.804688 12.121094 C 10.703125 12.222656 10.589844 12.296875 10.460938 12.351562 C 10.332031 12.402344 10.199219 12.429688 10.0625 12.429688 C 9.921875 12.429688 9.789062 12.402344 9.660156 12.351562 C 9.53125 12.296875 9.417969 12.222656 9.316406 12.121094 C 9.21875 12.023438 9.144531 11.910156 9.089844 11.78125 C 9.035156 11.652344 9.011719 11.519531 9.011719 11.378906 C 9.011719 11.242188 9.035156 11.105469 9.089844 10.976562 C 9.144531 10.847656 9.21875 10.734375 9.316406 10.636719 C 9.417969 10.539062 9.53125 10.460938 9.660156 10.410156 C 9.789062 10.355469 9.921875 10.328125 10.0625 10.328125 C 10.199219 10.328125 10.332031 10.355469 10.460938 10.410156 C 10.589844 10.460938 10.703125 10.539062 10.804688 10.636719 C 10.902344 10.734375 10.976562 10.847656 11.03125 10.976562 C 11.085938 11.105469 11.109375 11.242188 11.109375 11.378906 Z M 11.109375 11.378906 " fill-opacity="1" fill-rule="nonzero"/><path stroke-linecap="butt" transform="matrix(0.743952, 0, 0, 0.743952, 6.305637, 26.237562)" fill="none" stroke-linejoin="miter" d="M -0.00127655 1.497411 L 17.630499 1.497411 " stroke="#d8d8d8" stroke-width="3" stroke-opacity="1" stroke-miterlimit="4"/><path stroke-linecap="butt" transform="matrix(0.743952, 0, 0, 0.743952, 6.305637, 22.202418)" fill="none" stroke-linejoin="miter" d="M -0.00127655 1.497394 L 17.630499 1.497394 " stroke="#d8d8d8" stroke-width="3" stroke-opacity="1" stroke-miterlimit="4"/><path stroke-linecap="butt" transform="matrix(0.743952, 0, 0, 0.743952, 6.305637, 33.838918)" fill="none" stroke-linejoin="miter" d="M -0.00127655 1.497688 L 17.630499 1.497688 " stroke="#d8d8d8" stroke-width="3" stroke-opacity="1" stroke-miterlimit="4"/><path stroke-linecap="butt" transform="matrix(0.743952, 0, 0, 0.743952, 23.944015, 29.957319)" fill="none" stroke-linejoin="miter" d="M 0.0017447 1.501306 L 17.62827 1.501306 " stroke="#d8d8d8" stroke-width="3" stroke-opacity="1" stroke-miterlimit="4"/><g clip-path="url(#b05d90473b)"><path fill="#ffffff" d="M 26.296875 8.929688 L 34.699219 8.929688 C 34.839844 8.929688 34.972656 8.957031 35.101562 9.007812 C 35.230469 9.0625 35.34375 9.136719 35.441406 9.238281 C 35.542969 9.335938 35.617188 9.449219 35.671875 9.578125 C 35.722656 9.707031 35.75 9.839844 35.75 9.980469 L 35.75 16.980469 C 35.75 17.121094 35.722656 17.253906 35.671875 17.382812 C 35.617188 17.511719 35.542969 17.625 35.441406 17.722656 C 35.34375 17.820312 35.230469 17.898438 35.101562 17.949219 C 34.972656 18.003906 34.839844 18.03125 34.699219 18.03125 L 26.296875 18.03125 C 26.160156 18.03125 26.027344 18.003906 25.898438 17.949219 C 25.769531 17.898438 25.65625 17.820312 25.554688 17.722656 C 25.457031 17.625 25.382812 17.511719 25.328125 17.382812 C 25.273438 17.253906 25.25 17.121094 25.25 16.980469 L 25.25 9.980469 C 25.25 9.839844 25.273438 9.707031 25.328125 9.578125 C 25.382812 9.449219 25.457031 9.335938 25.554688 9.238281 C 25.65625 9.136719 25.769531 9.0625 25.898438 9.007812 C 26.027344 8.957031 26.160156 8.929688 26.296875 8.929688 Z M 26.296875 8.929688 " fill-opacity="1" fill-rule="nonzero"/></g><g clip-path="url(#c0a883e9f4)"><path fill="#00a09d" d="M 35.648438 14.632812 L 33.199219 12.183594 C 33.128906 12.113281 33.046875 12.078125 32.949219 12.078125 C 32.851562 12.078125 32.769531 12.113281 32.703125 12.183594 L 31.199219 13.683594 L 30.222656 12.707031 C 30.152344 12.640625 30.070312 12.605469 29.972656 12.605469 C 29.878906 12.605469 29.796875 12.640625 29.726562 12.707031 L 27.554688 14.878906 L 25.597656 14.878906 C 25.5 14.878906 25.417969 14.914062 25.351562 14.984375 C 25.28125 15.050781 25.25 15.132812 25.25 15.230469 L 25.25 16.980469 C 25.25 17.121094 25.273438 17.253906 25.328125 17.382812 C 25.382812 17.511719 25.457031 17.625 25.554688 17.722656 C 25.65625 17.820312 25.769531 17.898438 25.898438 17.949219 C 26.027344 18.003906 26.160156 18.03125 26.296875 18.03125 L 34.699219 18.03125 C 34.839844 18.03125 34.972656 18.003906 35.101562 17.949219 C 35.230469 17.898438 35.34375 17.820312 35.441406 17.722656 C 35.542969 17.625 35.617188 17.511719 35.671875 17.382812 C 35.722656 17.253906 35.75 17.121094 35.75 16.980469 L 35.75 14.878906 C 35.75 14.785156 35.714844 14.703125 35.648438 14.632812 Z M 35.648438 14.632812 " fill-opacity="1" fill-rule="nonzero"/></g><path fill="#ffbd59" d="M 28.75 11.378906 C 28.75 11.519531 28.722656 11.652344 28.667969 11.78125 C 28.617188 11.910156 28.539062 12.023438 28.441406 12.121094 C 28.34375 12.222656 28.230469 12.296875 28.101562 12.351562 C 27.972656 12.402344 27.839844 12.429688 27.699219 12.429688 C 27.558594 12.429688 27.425781 12.402344 27.296875 12.351562 C 27.167969 12.296875 27.054688 12.222656 26.957031 12.121094 C 26.859375 12.023438 26.78125 11.910156 26.730469 11.78125 C 26.675781 11.652344 26.648438 11.519531 26.648438 11.378906 C 26.648438 11.242188 26.675781 11.105469 26.730469 10.976562 C 26.78125 10.847656 26.859375 10.734375 26.957031 10.636719 C 27.054688 10.539062 27.167969 10.460938 27.296875 10.410156 C 27.425781 10.355469 27.558594 10.328125 27.699219 10.328125 C 27.839844 10.328125 27.972656 10.355469 28.101562 10.410156 C 28.230469 10.460938 28.34375 10.539062 28.441406 10.636719 C 28.539062 10.734375 28.617188 10.847656 28.667969 10.976562 C 28.722656 11.105469 28.75 11.242188 28.75 11.378906 Z M 28.75 11.378906 " fill-opacity="1" fill-rule="nonzero"/><path stroke-linecap="butt" transform="matrix(0.743952, 0, 0, 0.743952, 23.944015, 26.237562)" fill="none" stroke-linejoin="miter" d="M 0.0017447 1.497411 L 17.62827 1.497411 " stroke="#d8d8d8" stroke-width="3" stroke-opacity="1" stroke-miterlimit="4"/><path stroke-linecap="butt" transform="matrix(0.743952, 0, 0, 0.743952, 23.944015, 22.202418)" fill="none" stroke-linejoin="miter" d="M 0.0017447 1.497394 L 17.62827 1.497394 " stroke="#d8d8d8" stroke-width="3" stroke-opacity="1" stroke-miterlimit="4"/><path stroke-linecap="butt" transform="matrix(0.743952, 0, 0, 0.743952, 23.944015, 33.838918)" fill="none" stroke-linejoin="miter" d="M 0.0017447 1.497688 L 17.62827 1.497688 " stroke="#d8d8d8" stroke-width="3" stroke-opacity="1" stroke-miterlimit="4"/><path stroke-linecap="butt" transform="matrix(0.743952, 0, 0, 0.743952, 41.523723, 29.957319)" fill="none" stroke-linejoin="miter" d="M -0.000383777 1.501306 L 17.631392 1.501306 " stroke="#d8d8d8" stroke-width="3" stroke-opacity="1" stroke-miterlimit="4"/><g clip-path="url(#4d2c6dfcea)"><path fill="#ffffff" d="M 43.878906 8.929688 L 52.28125 8.929688 C 52.417969 8.929688 52.554688 8.957031 52.683594 9.007812 C 52.8125 9.0625 52.925781 9.136719 53.023438 9.238281 C 53.121094 9.335938 53.195312 9.449219 53.25 9.578125 C 53.304688 9.707031 53.332031 9.839844 53.332031 9.980469 L 53.332031 16.980469 C 53.332031 17.121094 53.304688 17.253906 53.25 17.382812 C 53.195312 17.511719 53.121094 17.625 53.023438 17.722656 C 52.925781 17.820312 52.8125 17.898438 52.683594 17.949219 C 52.554688 18.003906 52.417969 18.03125 52.28125 18.03125 L 43.878906 18.03125 C 43.738281 18.03125 43.605469 18.003906 43.476562 17.949219 C 43.347656 17.898438 43.234375 17.820312 43.136719 17.722656 C 43.039062 17.625 42.960938 17.511719 42.90625 17.382812 C 42.855469 17.253906 42.828125 17.121094 42.828125 16.980469 L 42.828125 9.980469 C 42.828125 9.839844 42.855469 9.707031 42.90625 9.578125 C 42.960938 9.449219 43.039062 9.335938 43.136719 9.238281 C 43.234375 9.136719 43.347656 9.0625 43.476562 9.007812 C 43.605469 8.957031 43.738281 8.929688 43.878906 8.929688 Z M 43.878906 8.929688 " fill-opacity="1" fill-rule="nonzero"/></g><g clip-path="url(#52940fe987)"><path fill="#00a09d" d="M 53.226562 14.632812 L 50.777344 12.183594 C 50.707031 12.113281 50.625 12.078125 50.53125 12.078125 C 50.433594 12.078125 50.351562 12.113281 50.28125 12.183594 L 48.78125 13.683594 L 47.800781 12.707031 C 47.734375 12.640625 47.652344 12.605469 47.554688 12.605469 C 47.457031 12.605469 47.375 12.640625 47.308594 12.707031 L 45.132812 14.878906 L 43.179688 14.878906 C 43.082031 14.878906 43 14.914062 42.929688 14.984375 C 42.863281 15.050781 42.828125 15.132812 42.828125 15.230469 L 42.828125 16.980469 C 42.828125 17.121094 42.855469 17.253906 42.90625 17.382812 C 42.960938 17.511719 43.039062 17.625 43.136719 17.722656 C 43.234375 17.820312 43.347656 17.898438 43.476562 17.949219 C 43.605469 18.003906 43.738281 18.03125 43.878906 18.03125 L 52.28125 18.03125 C 52.417969 18.03125 52.554688 18.003906 52.683594 17.949219 C 52.8125 17.898438 52.925781 17.820312 53.023438 17.722656 C 53.121094 17.625 53.195312 17.511719 53.25 17.382812 C 53.304688 17.253906 53.332031 17.121094 53.332031 16.980469 L 53.332031 14.878906 C 53.332031 14.785156 53.296875 14.703125 53.226562 14.632812 Z M 53.226562 14.632812 " fill-opacity="1" fill-rule="nonzero"/></g><path fill="#ffbd59" d="M 46.328125 11.378906 C 46.328125 11.519531 46.300781 11.652344 46.25 11.78125 C 46.195312 11.910156 46.121094 12.023438 46.019531 12.121094 C 45.921875 12.222656 45.808594 12.296875 45.679688 12.351562 C 45.550781 12.402344 45.417969 12.429688 45.277344 12.429688 C 45.140625 12.429688 45.003906 12.402344 44.875 12.351562 C 44.75 12.296875 44.632812 12.222656 44.535156 12.121094 C 44.4375 12.023438 44.363281 11.910156 44.308594 11.78125 C 44.253906 11.652344 44.230469 11.519531 44.230469 11.378906 C 44.230469 11.242188 44.253906 11.105469 44.308594 10.976562 C 44.363281 10.847656 44.4375 10.734375 44.535156 10.636719 C 44.632812 10.539062 44.75 10.460938 44.875 10.410156 C 45.003906 10.355469 45.140625 10.328125 45.277344 10.328125 C 45.417969 10.328125 45.550781 10.355469 45.679688 10.410156 C 45.808594 10.460938 45.921875 10.539062 46.019531 10.636719 C 46.121094 10.734375 46.195312 10.847656 46.25 10.976562 C 46.300781 11.105469 46.328125 11.242188 46.328125 11.378906 Z M 46.328125 11.378906 " fill-opacity="1" fill-rule="nonzero"/><path stroke-linecap="butt" transform="matrix(0.743952, 0, 0, 0.743952, 41.523723, 26.237562)" fill="none" stroke-linejoin="miter" d="M -0.000383777 1.497411 L 17.631392 1.497411 " stroke="#d8d8d8" stroke-width="3" stroke-opacity="1" stroke-miterlimit="4"/><path stroke-linecap="butt" transform="matrix(0.743952, 0, 0, 0.743952, 41.523723, 22.202418)" fill="none" stroke-linejoin="miter" d="M -0.000383777 1.497394 L 17.631392 1.497394 " stroke="#d8d8d8" stroke-width="3" stroke-opacity="1" stroke-miterlimit="4"/><path stroke-linecap="butt" transform="matrix(0.743952, 0, 0, 0.743952, 41.523723, 33.838918)" fill="none" stroke-linejoin="miter" d="M -0.000383777 1.497688 L 17.631392 1.497688 " stroke="#d8d8d8" stroke-width="3" stroke-opacity="1" stroke-miterlimit="4"/></svg>