<svg xmlns="http://www.w3.org/2000/svg" xmlns:xlink="http://www.w3.org/1999/xlink" width="82" zoomAndPan="magnify" viewBox="0 0 61.5 44.999999" height="60" preserveAspectRatio="xMidYMid meet" version="1.0"><defs><clipPath id="8b416b0b4a"><path d="M 0 0.179688 L 19 0.179688 L 19 19 L 0 19 Z M 0 0.179688 " clip-rule="nonzero"/></clipPath><clipPath id="8e190b5c86"><path d="M -20.503906 0.5 L 0.0742188 -20.082031 L 18.058594 -2.101562 L -2.523438 18.480469 Z M -20.503906 0.5 " clip-rule="nonzero"/></clipPath><clipPath id="cf307e7873"><path d="M -10.230469 -9.777344 L 18.027344 -2.070312 L -2.523438 18.480469 Z M -10.230469 -9.777344 " clip-rule="nonzero"/></clipPath><clipPath id="7a15251a5e"><path d="M 1.320312 1.648438 L 7.617188 1.648438 L 7.617188 7.640625 L 1.320312 7.640625 Z M 1.320312 1.648438 " clip-rule="nonzero"/></clipPath><clipPath id="6b53750279"><path d="M 4.464844 1.648438 L 5.207031 3.9375 L 7.605469 3.9375 L 5.664062 5.351562 L 6.40625 7.640625 L 4.464844 6.226562 L 2.519531 7.640625 L 3.261719 5.351562 L 1.320312 3.9375 L 3.722656 3.9375 Z M 4.464844 1.648438 " clip-rule="nonzero"/></clipPath><clipPath id="b87df71ed4"><path d="M 22.394531 9.488281 L 38.761719 9.488281 L 38.761719 23.625 L 22.394531 23.625 Z M 22.394531 9.488281 " clip-rule="nonzero"/></clipPath><clipPath id="867f028649"><path d="M 22.394531 14 L 38.761719 14 L 38.761719 23.625 L 22.394531 23.625 Z M 22.394531 14 " clip-rule="nonzero"/></clipPath></defs><g clip-path="url(#8b416b0b4a)"><g clip-path="url(#8e190b5c86)"><g clip-path="url(#cf307e7873)"><path fill="#ff914d" d="M -20.503906 0.5 L 0.0742188 -20.082031 L 18.058594 -2.101562 L -2.523438 18.480469 Z M -20.503906 0.5 " fill-opacity="1" fill-rule="nonzero"/></g></g></g><g clip-path="url(#7a15251a5e)"><g clip-path="url(#6b53750279)"><path fill="#ffffff" d="M 1.320312 1.648438 L 7.617188 1.648438 L 7.617188 7.640625 L 1.320312 7.640625 Z M 1.320312 1.648438 " fill-opacity="1" fill-rule="nonzero"/></g></g><path stroke-linecap="butt" transform="matrix(0.743952, 0, 0, 0.743952, 19.406662, 33.650772)" fill="none" stroke-linejoin="miter" d="M -0.000553379 1.498556 L 29.828547 1.498556 " stroke="#d8d8d8" stroke-width="3" stroke-opacity="1" stroke-miterlimit="4"/><g clip-path="url(#b87df71ed4)"><path fill="#ffffff" d="M 24.019531 9.488281 L 36.980469 9.488281 C 37.195312 9.488281 37.402344 9.53125 37.601562 9.613281 C 37.800781 9.695312 37.976562 9.8125 38.128906 9.964844 C 38.28125 10.117188 38.398438 10.292969 38.480469 10.488281 C 38.5625 10.6875 38.601562 10.894531 38.601562 11.109375 L 38.601562 21.910156 C 38.601562 22.125 38.5625 22.332031 38.480469 22.53125 C 38.398438 22.730469 38.28125 22.90625 38.128906 23.058594 C 37.976562 23.207031 37.800781 23.324219 37.601562 23.40625 C 37.402344 23.492188 37.195312 23.53125 36.980469 23.53125 L 24.019531 23.53125 C 23.804688 23.53125 23.597656 23.492188 23.402344 23.40625 C 23.203125 23.324219 23.027344 23.207031 22.875 23.058594 C 22.722656 22.90625 22.605469 22.730469 22.523438 22.53125 C 22.441406 22.332031 22.398438 22.125 22.398438 21.910156 L 22.398438 11.109375 C 22.398438 10.894531 22.441406 10.6875 22.523438 10.488281 C 22.605469 10.292969 22.722656 10.117188 22.875 9.964844 C 23.027344 9.8125 23.203125 9.695312 23.402344 9.613281 C 23.597656 9.53125 23.804688 9.488281 24.019531 9.488281 Z M 24.019531 9.488281 " fill-opacity="1" fill-rule="nonzero"/></g><g clip-path="url(#867f028649)"><path fill="#00a09d" d="M 38.445312 18.289062 L 34.664062 14.507812 C 34.558594 14.402344 34.429688 14.351562 34.28125 14.351562 C 34.132812 14.351562 34.003906 14.402344 33.898438 14.507812 L 31.582031 16.828125 L 30.074219 15.320312 C 29.96875 15.214844 29.839844 15.160156 29.691406 15.160156 C 29.542969 15.160156 29.414062 15.214844 29.308594 15.320312 L 25.957031 18.671875 L 22.941406 18.671875 C 22.792969 18.671875 22.664062 18.722656 22.558594 18.828125 C 22.453125 18.933594 22.398438 19.0625 22.398438 19.210938 L 22.398438 21.910156 C 22.398438 22.125 22.441406 22.332031 22.523438 22.53125 C 22.605469 22.730469 22.722656 22.90625 22.875 23.058594 C 23.027344 23.207031 23.203125 23.324219 23.402344 23.40625 C 23.597656 23.492188 23.804688 23.53125 24.019531 23.53125 L 36.980469 23.53125 C 37.195312 23.53125 37.402344 23.492188 37.601562 23.40625 C 37.800781 23.324219 37.976562 23.207031 38.128906 23.058594 C 38.28125 22.90625 38.398438 22.730469 38.480469 22.53125 C 38.5625 22.332031 38.601562 22.125 38.601562 21.910156 L 38.601562 18.671875 C 38.601562 18.523438 38.550781 18.394531 38.445312 18.289062 Z M 38.445312 18.289062 " fill-opacity="1" fill-rule="nonzero"/></g><path fill="#ffbd59" d="M 27.800781 13.269531 C 27.800781 13.484375 27.761719 13.691406 27.675781 13.890625 C 27.59375 14.089844 27.476562 14.261719 27.328125 14.414062 C 27.175781 14.566406 27 14.683594 26.800781 14.765625 C 26.601562 14.847656 26.394531 14.890625 26.179688 14.890625 C 25.964844 14.890625 25.757812 14.847656 25.5625 14.765625 C 25.363281 14.683594 25.1875 14.566406 25.035156 14.414062 C 24.882812 14.261719 24.765625 14.089844 24.683594 13.890625 C 24.601562 13.691406 24.558594 13.484375 24.558594 13.269531 C 24.558594 13.054688 24.601562 12.847656 24.683594 12.648438 C 24.765625 12.453125 24.882812 12.277344 25.035156 12.125 C 25.1875 11.972656 25.363281 11.855469 25.5625 11.773438 C 25.757812 11.691406 25.964844 11.648438 26.179688 11.648438 C 26.394531 11.648438 26.601562 11.691406 26.800781 11.773438 C 27 11.855469 27.175781 11.972656 27.328125 12.125 C 27.476562 12.277344 27.59375 12.453125 27.675781 12.648438 C 27.761719 12.847656 27.800781 13.054688 27.800781 13.269531 Z M 27.800781 13.269531 " fill-opacity="1" fill-rule="nonzero"/><path stroke-linecap="butt" transform="matrix(0.743952, 0, 0, 0.743952, 19.406662, 28.777889)" fill="none" stroke-linejoin="miter" d="M -0.000553379 1.999775 L 29.828547 1.999775 " stroke="#ffffff" stroke-width="4" stroke-opacity="1" stroke-miterlimit="4"/></svg>