<svg xmlns="http://www.w3.org/2000/svg" xmlns:xlink="http://www.w3.org/1999/xlink" width="82" zoomAndPan="magnify" viewBox="0 0 61.5 44.999999" height="60" preserveAspectRatio="xMidYMid meet" version="1.0"><defs><g/><clipPath id="2523f28e80"><path d="M 0 0.179688 L 19 0.179688 L 19 19 L 0 19 Z M 0 0.179688 " clip-rule="nonzero"/></clipPath><clipPath id="d7b26f74d6"><path d="M -20.503906 0.5 L 0.0742188 -20.082031 L 18.058594 -2.101562 L -2.523438 18.480469 Z M -20.503906 0.5 " clip-rule="nonzero"/></clipPath><clipPath id="7d3e3c2293"><path d="M -10.230469 -9.777344 L 18.027344 -2.070312 L -2.523438 18.480469 Z M -10.230469 -9.777344 " clip-rule="nonzero"/></clipPath><clipPath id="a6b2a20a0b"><path d="M 1.320312 1.648438 L 7.617188 1.648438 L 7.617188 7.640625 L 1.320312 7.640625 Z M 1.320312 1.648438 " clip-rule="nonzero"/></clipPath><clipPath id="62ed4ab5d1"><path d="M 4.464844 1.648438 L 5.207031 3.9375 L 7.605469 3.9375 L 5.664062 5.351562 L 6.40625 7.640625 L 4.464844 6.226562 L 2.519531 7.640625 L 3.261719 5.351562 L 1.320312 3.9375 L 3.722656 3.9375 Z M 4.464844 1.648438 " clip-rule="nonzero"/></clipPath></defs><g clip-path="url(#2523f28e80)"><g clip-path="url(#d7b26f74d6)"><g clip-path="url(#7d3e3c2293)"><path fill="#ff914d" d="M -20.503906 0.5 L 0.0742188 -20.082031 L 18.058594 -2.101562 L -2.523438 18.480469 Z M -20.503906 0.5 " fill-opacity="1" fill-rule="nonzero"/></g></g></g><g clip-path="url(#a6b2a20a0b)"><g clip-path="url(#62ed4ab5d1)"><path fill="#ffffff" d="M 1.320312 1.648438 L 7.617188 1.648438 L 7.617188 7.640625 L 1.320312 7.640625 Z M 1.320312 1.648438 " fill-opacity="1" fill-rule="nonzero"/></g></g><g fill="#00c4cc" fill-opacity="1"><g transform="translate(4.636588, 20.887351)"><g><path d="M 0.21875 -3.28125 C 0.21875 -4.363281 0.472656 -5.203125 0.984375 -5.796875 C 1.503906 -6.390625 2.140625 -6.6875 2.890625 -6.6875 C 3.648438 -6.6875 4.285156 -6.390625 4.796875 -5.796875 C 5.304688 -5.203125 5.5625 -4.363281 5.5625 -3.28125 C 5.5625 -2.695312 5.488281 -2.179688 5.34375 -1.734375 C 5.207031 -1.285156 5.007812 -0.925781 4.75 -0.65625 C 4.5 -0.394531 4.21875 -0.195312 3.90625 -0.0625 C 3.601562 0.0625 3.265625 0.125 2.890625 0.125 C 2.523438 0.125 2.1875 0.0625 1.875 -0.0625 C 1.570312 -0.195312 1.289062 -0.394531 1.03125 -0.65625 C 0.78125 -0.925781 0.582031 -1.285156 0.4375 -1.734375 C 0.289062 -2.179688 0.21875 -2.695312 0.21875 -3.28125 Z M 1.734375 -3.28125 C 1.734375 -2.582031 1.832031 -2.054688 2.03125 -1.703125 C 2.238281 -1.359375 2.53125 -1.1875 2.90625 -1.1875 C 3.269531 -1.1875 3.550781 -1.359375 3.75 -1.703125 C 3.957031 -2.054688 4.0625 -2.582031 4.0625 -3.28125 C 4.0625 -3.945312 3.957031 -4.460938 3.75 -4.828125 C 3.539062 -5.191406 3.253906 -5.375 2.890625 -5.375 C 2.535156 -5.375 2.253906 -5.1875 2.046875 -4.8125 C 1.835938 -4.445312 1.734375 -3.9375 1.734375 -3.28125 Z M 1.734375 -3.28125 "/></g></g></g><g fill="#00c4cc" fill-opacity="1"><g transform="translate(11.111655, 20.887351)"><g><path d="M 4.625 -6.578125 L 2.6875 -4.3125 C 2.800781 -4.382812 2.957031 -4.421875 3.15625 -4.421875 C 3.382812 -4.421875 3.617188 -4.367188 3.859375 -4.265625 C 4.097656 -4.171875 4.320312 -4.03125 4.53125 -3.84375 C 4.75 -3.65625 4.921875 -3.410156 5.046875 -3.109375 C 5.179688 -2.804688 5.25 -2.472656 5.25 -2.109375 C 5.25 -1.734375 5.175781 -1.398438 5.03125 -1.109375 C 4.894531 -0.816406 4.707031 -0.582031 4.46875 -0.40625 C 4.238281 -0.238281 3.984375 -0.109375 3.703125 -0.015625 C 3.421875 0.078125 3.125 0.125 2.8125 0.125 C 2.070312 0.125 1.445312 -0.0859375 0.9375 -0.515625 C 0.4375 -0.953125 0.1875 -1.484375 0.1875 -2.109375 C 0.1875 -2.640625 0.257812 -3.078125 0.40625 -3.421875 C 0.5625 -3.765625 0.835938 -4.203125 1.234375 -4.734375 L 2.765625 -6.578125 Z M 1.75 -2.109375 C 1.75 -1.828125 1.835938 -1.585938 2.015625 -1.390625 C 2.203125 -1.203125 2.441406 -1.109375 2.734375 -1.109375 C 3.023438 -1.109375 3.265625 -1.203125 3.453125 -1.390625 C 3.648438 -1.585938 3.75 -1.828125 3.75 -2.109375 C 3.75 -2.398438 3.648438 -2.640625 3.453125 -2.828125 C 3.265625 -3.023438 3.023438 -3.125 2.734375 -3.125 C 2.460938 -3.125 2.226562 -3.023438 2.03125 -2.828125 C 1.84375 -2.640625 1.75 -2.398438 1.75 -2.109375 Z M 1.75 -2.109375 "/></g></g></g><g fill="#00c4cc" fill-opacity="1"><g transform="translate(24.458416, 20.237154)"><g><path d="M 2.875 -5.40625 C 2.664062 -5.40625 2.460938 -5.300781 2.265625 -5.09375 C 2.078125 -4.882812 1.9375 -4.675781 1.84375 -4.46875 L 1.71875 -4.15625 L 0.46875 -4.765625 C 0.476562 -4.816406 0.503906 -4.882812 0.546875 -4.96875 C 0.585938 -5.050781 0.675781 -5.203125 0.8125 -5.421875 C 0.945312 -5.640625 1.097656 -5.832031 1.265625 -6 C 1.429688 -6.164062 1.65625 -6.316406 1.9375 -6.453125 C 2.226562 -6.597656 2.539062 -6.671875 2.875 -6.671875 C 3.3125 -6.671875 3.6875 -6.613281 4 -6.5 C 4.320312 -6.394531 4.570312 -6.257812 4.75 -6.09375 C 4.925781 -5.9375 5.066406 -5.75 5.171875 -5.53125 C 5.273438 -5.3125 5.34375 -5.109375 5.375 -4.921875 C 5.40625 -4.742188 5.421875 -4.554688 5.421875 -4.359375 C 5.421875 -4.078125 5.335938 -3.78125 5.171875 -3.46875 C 5.015625 -3.15625 4.820312 -2.875 4.59375 -2.625 C 4.375 -2.375 4.148438 -2.144531 3.921875 -1.9375 C 3.703125 -1.738281 3.507812 -1.582031 3.34375 -1.46875 L 3.109375 -1.3125 L 5.546875 -1.3125 L 5.546875 0 L 0.4375 0 L 0.4375 -0.375 C 0.53125 -0.445312 0.648438 -0.546875 0.796875 -0.671875 C 0.953125 -0.804688 1.222656 -1.054688 1.609375 -1.421875 C 1.992188 -1.785156 2.332031 -2.125 2.625 -2.4375 C 2.925781 -2.757812 3.195312 -3.101562 3.4375 -3.46875 C 3.6875 -3.84375 3.8125 -4.140625 3.8125 -4.359375 C 3.8125 -4.453125 3.800781 -4.539062 3.78125 -4.625 C 3.757812 -4.71875 3.722656 -4.828125 3.671875 -4.953125 C 3.617188 -5.085938 3.523438 -5.195312 3.390625 -5.28125 C 3.253906 -5.363281 3.082031 -5.40625 2.875 -5.40625 Z M 2.875 -5.40625 "/></g></g></g><g fill="#00c4cc" fill-opacity="1"><g transform="translate(31.116344, 20.237154)"><g><path d="M 0.140625 -1.296875 L 1.328125 -1.875 C 1.472656 -1.375 1.851562 -1.125 2.46875 -1.125 C 2.738281 -1.125 2.960938 -1.210938 3.140625 -1.390625 C 3.316406 -1.578125 3.40625 -1.804688 3.40625 -2.078125 C 3.40625 -2.359375 3.316406 -2.585938 3.140625 -2.765625 C 2.972656 -2.941406 2.769531 -3.0625 2.53125 -3.125 C 2.289062 -3.195312 2.019531 -3.234375 1.71875 -3.234375 C 1.28125 -3.234375 0.90625 -3.164062 0.59375 -3.03125 L 1.140625 -6.546875 L 4.484375 -6.546875 L 4.484375 -5.234375 L 2.421875 -5.234375 L 2.28125 -4.328125 C 2.289062 -4.328125 2.316406 -4.328125 2.359375 -4.328125 C 2.398438 -4.328125 2.429688 -4.328125 2.453125 -4.328125 C 2.785156 -4.328125 3.085938 -4.289062 3.359375 -4.21875 C 3.640625 -4.144531 3.898438 -4.023438 4.140625 -3.859375 C 4.378906 -3.703125 4.566406 -3.46875 4.703125 -3.15625 C 4.835938 -2.84375 4.90625 -2.46875 4.90625 -2.03125 C 4.90625 -1.40625 4.675781 -0.890625 4.21875 -0.484375 C 3.757812 -0.078125 3.175781 0.125 2.46875 0.125 C 1.832031 0.125 1.320312 -0.015625 0.9375 -0.296875 C 0.550781 -0.578125 0.285156 -0.910156 0.140625 -1.296875 Z M 0.140625 -1.296875 "/></g></g></g><g fill="#00c4cc" fill-opacity="1"><g transform="translate(44.090451, 20.417301)"><g><path d="M 1.625 -4.65625 L 0.453125 -5.234375 C 0.460938 -5.265625 0.476562 -5.3125 0.5 -5.375 C 0.519531 -5.445312 0.582031 -5.566406 0.6875 -5.734375 C 0.789062 -5.898438 0.914062 -6.046875 1.0625 -6.171875 C 1.207031 -6.296875 1.414062 -6.410156 1.6875 -6.515625 C 1.96875 -6.617188 2.28125 -6.671875 2.625 -6.671875 C 3.25 -6.671875 3.757812 -6.488281 4.15625 -6.125 C 4.5625 -5.769531 4.765625 -5.316406 4.765625 -4.765625 C 4.765625 -4.242188 4.570312 -3.832031 4.1875 -3.53125 C 4.75 -3.195312 5.03125 -2.695312 5.03125 -2.03125 C 5.03125 -1.40625 4.800781 -0.890625 4.34375 -0.484375 C 3.882812 -0.078125 3.300781 0.125 2.59375 0.125 C 2.21875 0.125 1.875 0.0664062 1.5625 -0.046875 C 1.257812 -0.160156 1.019531 -0.296875 0.84375 -0.453125 C 0.675781 -0.609375 0.535156 -0.765625 0.421875 -0.921875 C 0.304688 -1.078125 0.226562 -1.210938 0.1875 -1.328125 L 0.140625 -1.5 L 1.515625 -2.171875 C 1.515625 -2.140625 1.519531 -2.101562 1.53125 -2.0625 C 1.539062 -2.019531 1.566406 -1.9375 1.609375 -1.8125 C 1.660156 -1.695312 1.71875 -1.59375 1.78125 -1.5 C 1.851562 -1.414062 1.957031 -1.335938 2.09375 -1.265625 C 2.238281 -1.203125 2.40625 -1.171875 2.59375 -1.171875 C 2.875 -1.171875 3.097656 -1.242188 3.265625 -1.390625 C 3.441406 -1.546875 3.53125 -1.757812 3.53125 -2.03125 C 3.53125 -2.3125 3.4375 -2.539062 3.25 -2.71875 C 3.070312 -2.90625 2.851562 -3 2.59375 -3 L 2.296875 -2.9375 L 2.296875 -3.921875 L 2.625 -3.921875 C 2.832031 -3.921875 3.015625 -4 3.171875 -4.15625 C 3.328125 -4.3125 3.40625 -4.507812 3.40625 -4.75 C 3.40625 -4.957031 3.320312 -5.128906 3.15625 -5.265625 C 3 -5.398438 2.816406 -5.46875 2.609375 -5.46875 C 2.453125 -5.46875 2.3125 -5.4375 2.1875 -5.375 C 2.0625 -5.320312 1.960938 -5.253906 1.890625 -5.171875 C 1.828125 -5.097656 1.773438 -5.019531 1.734375 -4.9375 C 1.691406 -4.863281 1.664062 -4.800781 1.65625 -4.75 Z M 1.625 -4.65625 "/></g></g></g><g fill="#00c4cc" fill-opacity="1"><g transform="translate(50.050055, 20.417301)"><g><path d="M 2.875 -5.40625 C 2.664062 -5.40625 2.460938 -5.300781 2.265625 -5.09375 C 2.078125 -4.882812 1.9375 -4.675781 1.84375 -4.46875 L 1.71875 -4.15625 L 0.46875 -4.765625 C 0.476562 -4.816406 0.503906 -4.882812 0.546875 -4.96875 C 0.585938 -5.050781 0.675781 -5.203125 0.8125 -5.421875 C 0.945312 -5.640625 1.097656 -5.832031 1.265625 -6 C 1.429688 -6.164062 1.65625 -6.316406 1.9375 -6.453125 C 2.226562 -6.597656 2.539062 -6.671875 2.875 -6.671875 C 3.3125 -6.671875 3.6875 -6.613281 4 -6.5 C 4.320312 -6.394531 4.570312 -6.257812 4.75 -6.09375 C 4.925781 -5.9375 5.066406 -5.75 5.171875 -5.53125 C 5.273438 -5.3125 5.34375 -5.109375 5.375 -4.921875 C 5.40625 -4.742188 5.421875 -4.554688 5.421875 -4.359375 C 5.421875 -4.078125 5.335938 -3.78125 5.171875 -3.46875 C 5.015625 -3.15625 4.820312 -2.875 4.59375 -2.625 C 4.375 -2.375 4.148438 -2.144531 3.921875 -1.9375 C 3.703125 -1.738281 3.507812 -1.582031 3.34375 -1.46875 L 3.109375 -1.3125 L 5.546875 -1.3125 L 5.546875 0 L 0.4375 0 L 0.4375 -0.375 C 0.53125 -0.445312 0.648438 -0.546875 0.796875 -0.671875 C 0.953125 -0.804688 1.222656 -1.054688 1.609375 -1.421875 C 1.992188 -1.785156 2.332031 -2.125 2.625 -2.4375 C 2.925781 -2.757812 3.195312 -3.101562 3.4375 -3.46875 C 3.6875 -3.84375 3.8125 -4.140625 3.8125 -4.359375 C 3.8125 -4.453125 3.800781 -4.539062 3.78125 -4.625 C 3.757812 -4.71875 3.722656 -4.828125 3.671875 -4.953125 C 3.617188 -5.085938 3.523438 -5.195312 3.390625 -5.28125 C 3.253906 -5.363281 3.082031 -5.40625 2.875 -5.40625 Z M 2.875 -5.40625 "/></g></g></g><path stroke-linecap="butt" transform="matrix(0.743952, 0, 0, 0.743952, 6.347901, 24.990362)" fill="none" stroke-linejoin="miter" d="M -0.000329336 1.498897 L 12.354515 1.498897 " stroke="#ffffff" stroke-width="3" stroke-opacity="1" stroke-miterlimit="4"/><path stroke-linecap="butt" transform="matrix(0.743952, 0, 0, 0.743952, 3.481871, 28.614903)" fill="none" stroke-linejoin="miter" d="M -0.00188448 1.499514 L 20.060955 1.499514 " stroke="#d8d8d8" stroke-width="3" stroke-opacity="1" stroke-miterlimit="4"/><path stroke-linecap="butt" transform="matrix(0.743952, 0, 0, 0.743952, 25.736095, 24.990362)" fill="none" stroke-linejoin="miter" d="M -0.0023121 1.498897 L 12.357783 1.498897 " stroke="#ffffff" stroke-width="3" stroke-opacity="1" stroke-miterlimit="4"/><path stroke-linecap="butt" transform="matrix(0.743952, 0, 0, 0.743952, 22.870063, 28.614903)" fill="none" stroke-linejoin="miter" d="M 0.00138496 1.499514 L 20.058974 1.499514 " stroke="#d8d8d8" stroke-width="3" stroke-opacity="1" stroke-miterlimit="4"/><path stroke-linecap="butt" transform="matrix(0.743952, 0, 0, 0.743952, 45.463705, 24.990362)" fill="none" stroke-linejoin="miter" d="M 0.00153085 1.498897 L 12.356376 1.498897 " stroke="#ffffff" stroke-width="3" stroke-opacity="1" stroke-miterlimit="4"/><path stroke-linecap="butt" transform="matrix(0.743952, 0, 0, 0.743952, 42.597675, 28.614903)" fill="none" stroke-linejoin="miter" d="M -0.0000250028 1.499514 L 20.062815 1.499514 " stroke="#d8d8d8" stroke-width="3" stroke-opacity="1" stroke-miterlimit="4"/></svg>