<svg xmlns="http://www.w3.org/2000/svg" xmlns:xlink="http://www.w3.org/1999/xlink" width="82" zoomAndPan="magnify" viewBox="0 0 61.5 44.999999" height="60" preserveAspectRatio="xMidYMid meet" version="1.0"><defs><clipPath id="48d28226a1"><path d="M 0 0.179688 L 19 0.179688 L 19 19 L 0 19 Z M 0 0.179688 " clip-rule="nonzero"/></clipPath><clipPath id="4c93e53134"><path d="M -20.503906 0.5 L 0.0742188 -20.082031 L 18.058594 -2.101562 L -2.523438 18.480469 Z M -20.503906 0.5 " clip-rule="nonzero"/></clipPath><clipPath id="4e9fbda9fe"><path d="M -10.230469 -9.777344 L 18.027344 -2.070312 L -2.523438 18.480469 Z M -10.230469 -9.777344 " clip-rule="nonzero"/></clipPath><clipPath id="8310221312"><path d="M 1.320312 1.648438 L 7.617188 1.648438 L 7.617188 7.640625 L 1.320312 7.640625 Z M 1.320312 1.648438 " clip-rule="nonzero"/></clipPath><clipPath id="d602eca8c9"><path d="M 4.464844 1.648438 L 5.207031 3.9375 L 7.605469 3.9375 L 5.664062 5.351562 L 6.40625 7.640625 L 4.464844 6.226562 L 2.519531 7.640625 L 3.261719 5.351562 L 1.320312 3.9375 L 3.722656 3.9375 Z M 4.464844 1.648438 " clip-rule="nonzero"/></clipPath><clipPath id="03f9b17454"><path d="M 9.355469 16.0625 L 51.761719 16.0625 L 51.761719 28 L 9.355469 28 Z M 9.355469 16.0625 " clip-rule="nonzero"/></clipPath><clipPath id="60378e8dcd"><path d="M 37.566406 25.644531 L 47.4375 25.644531 L 47.4375 35.136719 L 37.566406 35.136719 Z M 37.566406 25.644531 " clip-rule="nonzero"/></clipPath></defs><g clip-path="url(#48d28226a1)"><g clip-path="url(#4c93e53134)"><g clip-path="url(#4e9fbda9fe)"><path fill="#ff914d" d="M -20.503906 0.5 L 0.0742188 -20.082031 L 18.058594 -2.101562 L -2.523438 18.480469 Z M -20.503906 0.5 " fill-opacity="1" fill-rule="nonzero"/></g></g></g><g clip-path="url(#8310221312)"><g clip-path="url(#d602eca8c9)"><path fill="#ffffff" d="M 1.320312 1.648438 L 7.617188 1.648438 L 7.617188 7.640625 L 1.320312 7.640625 Z M 1.320312 1.648438 " fill-opacity="1" fill-rule="nonzero"/></g></g><g clip-path="url(#03f9b17454)"><path fill="#00c4cc" d="M 49.382812 27.785156 L 11.621094 27.785156 C 10.394531 27.785156 9.402344 26.792969 9.402344 25.566406 L 9.402344 18.28125 C 9.402344 17.054688 10.394531 16.0625 11.621094 16.0625 L 49.382812 16.0625 C 50.605469 16.0625 51.597656 17.054688 51.597656 18.28125 L 51.597656 25.566406 C 51.597656 26.792969 50.605469 27.785156 49.382812 27.785156 " fill-opacity="1" fill-rule="nonzero"/></g><path fill="#ffffff" d="M 23.972656 22.6875 C 23.898438 23.632812 22.949219 23.71875 22.402344 23.660156 C 21.890625 23.605469 21.402344 23.382812 21.125 23.175781 L 21.546875 22.484375 C 21.921875 22.914062 22.90625 23.0625 22.984375 22.695312 C 23.113281 22.09375 21.214844 22.414062 21.375 21.082031 C 21.4375 20.585938 21.800781 20.113281 22.820312 20.171875 C 23.46875 20.210938 23.789062 20.4375 23.859375 20.496094 L 23.535156 21.210938 C 23.230469 20.921875 22.378906 20.753906 22.296875 21.144531 C 22.1875 21.660156 24.058594 21.484375 23.972656 22.6875 " fill-opacity="1" fill-rule="nonzero"/><path fill="#ffffff" d="M 27.492188 20.246094 L 27.492188 22.222656 C 27.492188 23.183594 26.824219 23.660156 26.019531 23.660156 C 25.210938 23.660156 24.546875 23.183594 24.546875 22.222656 L 24.546875 20.246094 L 25.460938 20.246094 C 25.460938 20.246094 25.460938 21.851562 25.460938 22.25 C 25.460938 22.652344 25.707031 22.859375 26.019531 22.859375 C 26.328125 22.859375 26.574219 22.652344 26.574219 22.25 C 26.574219 21.851562 26.574219 20.246094 26.574219 20.246094 L 27.492188 20.246094 " fill-opacity="1" fill-rule="nonzero"/><path fill="#ffffff" d="M 30.121094 22.535156 C 30.121094 22.375 29.992188 22.25 29.757812 22.25 L 29.167969 22.25 L 29.167969 22.816406 L 29.757812 22.816406 C 29.992188 22.816406 30.121094 22.6875 30.121094 22.535156 Z M 29.167969 21.019531 L 29.167969 21.480469 L 29.625 21.480469 C 29.832031 21.480469 29.925781 21.378906 29.925781 21.25 C 29.925781 21.121094 29.832031 21.019531 29.625 21.019531 Z M 30.941406 22.59375 C 30.941406 23.175781 30.554688 23.589844 29.671875 23.589844 L 28.253906 23.589844 L 28.253906 20.246094 L 29.621094 20.246094 C 30.339844 20.246094 30.726562 20.617188 30.726562 21.167969 C 30.726562 21.359375 30.652344 21.636719 30.417969 21.808594 C 30.804688 21.960938 30.941406 22.289062 30.941406 22.59375 " fill-opacity="1" fill-rule="nonzero"/><path fill="#ffffff" d="M 34.074219 22.6875 C 34 23.632812 33.050781 23.71875 32.503906 23.660156 C 31.992188 23.605469 31.503906 23.382812 31.226562 23.175781 L 31.648438 22.484375 C 32.023438 22.914062 33.007812 23.0625 33.085938 22.695312 C 33.214844 22.09375 31.3125 22.414062 31.476562 21.082031 C 31.539062 20.585938 31.902344 20.113281 32.921875 20.171875 C 33.570312 20.210938 33.890625 20.4375 33.960938 20.496094 L 33.636719 21.210938 C 33.332031 20.921875 32.476562 20.753906 32.398438 21.144531 C 32.289062 21.660156 34.15625 21.484375 34.074219 22.6875 " fill-opacity="1" fill-rule="nonzero"/><path fill="#ffffff" d="M 37.039062 22.605469 L 37.488281 23.246094 C 37.15625 23.503906 36.785156 23.660156 36.359375 23.660156 C 35.273438 23.660156 34.457031 22.882812 34.457031 21.917969 C 34.457031 20.953125 35.273438 20.171875 36.359375 20.171875 C 36.785156 20.171875 37.15625 20.328125 37.488281 20.589844 L 37.039062 21.226562 C 36.835938 21.074219 36.605469 20.992188 36.359375 20.992188 C 35.785156 20.992188 35.351562 21.398438 35.351562 21.917969 C 35.351562 22.433594 35.785156 22.84375 36.359375 22.84375 C 36.605469 22.84375 36.835938 22.753906 37.039062 22.605469 " fill-opacity="1" fill-rule="nonzero"/><path fill="#ffffff" d="M 38.925781 21.742188 L 39.347656 21.742188 C 39.742188 21.742188 39.863281 21.59375 39.863281 21.378906 C 39.863281 21.167969 39.742188 21.019531 39.347656 21.019531 L 38.925781 21.019531 Z M 39.257812 22.515625 L 38.925781 22.515625 L 38.925781 23.589844 L 38.011719 23.589844 L 38.011719 20.246094 L 39.382812 20.246094 C 40.191406 20.246094 40.691406 20.746094 40.691406 21.378906 C 40.691406 21.78125 40.496094 22.125 40.152344 22.324219 L 40.882812 23.589844 L 39.878906 23.589844 L 39.257812 22.515625 " fill-opacity="1" fill-rule="nonzero"/><path fill="#ffffff" d="M 42.371094 20.246094 L 42.371094 23.589844 L 41.457031 23.589844 L 41.457031 20.246094 L 42.371094 20.246094 " fill-opacity="1" fill-rule="nonzero"/><path fill="#ffffff" d="M 45 22.535156 C 45 22.375 44.871094 22.25 44.636719 22.25 L 44.042969 22.25 L 44.042969 22.816406 L 44.636719 22.816406 C 44.871094 22.816406 45 22.6875 45 22.535156 Z M 44.042969 21.019531 L 44.042969 21.480469 L 44.503906 21.480469 C 44.707031 21.480469 44.804688 21.378906 44.804688 21.25 C 44.804688 21.121094 44.707031 21.019531 44.503906 21.019531 Z M 45.820312 22.59375 C 45.820312 23.175781 45.433594 23.589844 44.550781 23.589844 L 43.132812 23.589844 L 43.132812 20.246094 L 44.5 20.246094 C 45.21875 20.246094 45.605469 20.617188 45.605469 21.167969 C 45.605469 21.359375 45.527344 21.636719 45.292969 21.808594 C 45.679688 21.960938 45.820312 22.289062 45.820312 22.59375 " fill-opacity="1" fill-rule="nonzero"/><path fill="#ffffff" d="M 48.839844 22.816406 L 48.839844 23.589844 L 46.34375 23.589844 L 46.34375 20.246094 L 48.757812 20.246094 L 48.757812 21.019531 L 47.257812 21.019531 L 47.257812 21.53125 L 48.609375 21.53125 L 48.609375 22.304688 L 47.257812 22.304688 L 47.257812 22.816406 L 48.839844 22.816406 " fill-opacity="1" fill-rule="nonzero"/><path fill="#ffffff" d="M 44.308594 27.589844 L 44.296875 27.597656 C 44.058594 27.730469 43.972656 28.023438 44.09375 28.261719 L 44.535156 29.0625 C 44.601562 29.179688 44.558594 29.332031 44.441406 29.398438 L 44.4375 29.398438 C 44.320312 29.464844 44.171875 29.421875 44.105469 29.304688 L 43.453125 28.128906 C 43.3125 27.902344 43.015625 27.824219 42.78125 27.953125 L 42.769531 27.960938 C 42.542969 28.085938 42.453125 28.355469 42.546875 28.585938 L 43.023438 29.449219 C 43.089844 29.566406 43.046875 29.71875 42.929688 29.78125 L 42.925781 29.785156 C 42.808594 29.851562 42.65625 29.808594 42.59375 29.691406 L 42.144531 28.882812 L 42.140625 28.882812 L 41.945312 28.53125 C 41.808594 28.285156 41.503906 28.199219 41.261719 28.335938 L 41.25 28.34375 C 41.003906 28.476562 40.917969 28.78125 41.054688 29.023438 L 41.050781 29.027344 L 41.523438 29.878906 C 41.589844 29.996094 41.546875 30.144531 41.429688 30.210938 L 41.425781 30.214844 C 41.308594 30.28125 41.15625 30.238281 41.089844 30.117188 L 39.769531 27.742188 L 39.070312 26.488281 C 38.933594 26.242188 38.628906 26.15625 38.386719 26.292969 L 38.371094 26.296875 C 38.128906 26.433594 38.042969 26.738281 38.175781 26.980469 L 40.671875 31.4375 C 40.851562 31.757812 40.496094 32.113281 40.175781 31.933594 L 39.757812 31.699219 L 39.761719 31.707031 L 39 31.277344 C 38.886719 31.214844 38.746094 31.210938 38.632812 31.277344 C 38.601562 31.292969 38.574219 31.3125 38.550781 31.335938 L 38.546875 31.339844 C 38.488281 31.398438 38.445312 31.472656 38.433594 31.550781 C 38.414062 31.675781 38.453125 31.796875 38.539062 31.882812 L 39.488281 32.621094 C 39.558594 32.671875 40.789062 33.566406 41.398438 33.914062 L 41.414062 33.921875 C 41.859375 34.21875 42.3125 34.445312 43.074219 34.585938 L 43.3125 34.628906 C 43.664062 34.667969 44.429688 34.660156 45.359375 34.109375 C 45.730469 33.894531 46.042969 33.625 46.292969 33.3125 L 46.308594 33.296875 C 46.367188 33.234375 46.414062 33.175781 46.449219 33.121094 C 46.585938 32.914062 46.691406 32.699219 46.765625 32.488281 C 46.820312 32.34375 46.84375 32.242188 46.847656 32.214844 L 46.847656 32.210938 L 46.851562 32.191406 C 46.964844 31.6875 46.890625 31.199219 46.636719 30.742188 L 46.28125 30.105469 L 44.992188 27.785156 C 44.859375 27.542969 44.550781 27.457031 44.308594 27.589844 " fill-opacity="1" fill-rule="nonzero"/><g clip-path="url(#60378e8dcd)"><path fill="#00a09d" d="M 46.28125 30.105469 L 46.636719 30.742188 C 46.890625 31.199219 46.964844 31.6875 46.851562 32.191406 L 46.847656 32.210938 L 46.847656 32.214844 C 46.84375 32.242188 46.820312 32.34375 46.765625 32.488281 C 46.691406 32.699219 46.585938 32.914062 46.449219 33.121094 C 46.414062 33.175781 46.367188 33.234375 46.308594 33.296875 L 46.292969 33.3125 C 46.042969 33.625 45.730469 33.894531 45.359375 34.109375 C 44.429688 34.660156 43.664062 34.667969 43.3125 34.628906 L 43.074219 34.585938 C 42.3125 34.445312 41.859375 34.21875 41.414062 33.921875 L 41.398438 33.914062 C 40.789062 33.566406 39.558594 32.671875 39.488281 32.621094 L 38.539062 31.882812 C 38.453125 31.796875 38.414062 31.675781 38.433594 31.550781 C 38.445312 31.472656 38.488281 31.398438 38.546875 31.339844 L 38.550781 31.335938 C 38.574219 31.3125 38.601562 31.292969 38.632812 31.277344 C 38.746094 31.210938 38.886719 31.214844 39 31.277344 L 39.761719 31.707031 L 39.757812 31.699219 L 40.175781 31.933594 C 40.496094 32.113281 40.851562 31.757812 40.671875 31.4375 L 38.175781 26.980469 C 38.042969 26.738281 38.128906 26.433594 38.371094 26.296875 L 38.386719 26.292969 C 38.628906 26.15625 38.933594 26.242188 39.070312 26.488281 L 39.769531 27.742188 L 41.089844 30.117188 C 41.15625 30.238281 41.308594 30.28125 41.425781 30.214844 L 41.429688 30.210938 C 41.546875 30.144531 41.589844 29.996094 41.523438 29.878906 L 41.050781 29.027344 L 41.054688 29.023438 C 40.917969 28.78125 41.003906 28.476562 41.25 28.34375 L 41.261719 28.335938 C 41.503906 28.199219 41.808594 28.285156 41.945312 28.53125 L 42.140625 28.882812 L 42.144531 28.882812 L 42.59375 29.691406 C 42.65625 29.808594 42.808594 29.851562 42.925781 29.785156 L 42.929688 29.78125 C 43.046875 29.71875 43.089844 29.566406 43.023438 29.449219 L 42.546875 28.585938 C 42.453125 28.355469 42.542969 28.085938 42.769531 27.960938 L 42.78125 27.953125 C 43.015625 27.824219 43.3125 27.902344 43.453125 28.128906 L 44.105469 29.304688 C 44.171875 29.421875 44.320312 29.464844 44.4375 29.398438 L 44.441406 29.398438 C 44.558594 29.332031 44.601562 29.179688 44.535156 29.0625 L 44.09375 28.261719 C 43.972656 28.023438 44.058594 27.730469 44.296875 27.597656 L 44.308594 27.589844 C 44.550781 27.457031 44.859375 27.542969 44.992188 27.785156 Z M 44.070312 27.160156 L 44.058594 27.167969 C 43.867188 27.273438 43.726562 27.429688 43.640625 27.613281 C 43.335938 27.371094 42.902344 27.324219 42.542969 27.523438 L 42.527344 27.53125 C 42.335938 27.636719 42.195312 27.796875 42.109375 27.980469 C 41.804688 27.75 41.378906 27.707031 41.023438 27.902344 L 41.007812 27.910156 C 40.847656 28 40.722656 28.128906 40.632812 28.277344 L 40.613281 28.234375 L 40.203125 27.5 L 40.199219 27.5 L 39.5 26.246094 C 39.234375 25.765625 38.625 25.59375 38.144531 25.859375 L 38.132812 25.867188 C 37.652344 26.132812 37.480469 26.742188 37.746094 27.222656 L 40.003906 31.25 C 40.007812 31.261719 39.996094 31.273438 39.988281 31.269531 L 39.027344 30.84375 C 38.761719 30.722656 38.445312 30.765625 38.226562 30.964844 C 38.21875 30.972656 38.210938 30.976562 38.207031 30.984375 L 38.199219 30.988281 C 38.070312 31.117188 37.976562 31.285156 37.949219 31.46875 C 37.902344 31.765625 38 32.046875 38.207031 32.246094 L 39.1875 33.011719 L 39.195312 33.015625 C 39.246094 33.054688 40.496094 33.964844 41.148438 34.339844 C 41.726562 34.722656 42.253906 34.933594 42.964844 35.066406 C 43.078125 35.097656 44.125 35.363281 45.5 34.597656 C 45.535156 34.578125 45.574219 34.558594 45.609375 34.535156 C 46.027344 34.289062 46.382812 33.984375 46.671875 33.628906 C 46.75 33.546875 46.8125 33.464844 46.863281 33.390625 C 47.019531 33.152344 47.144531 32.902344 47.230469 32.652344 C 47.292969 32.488281 47.324219 32.359375 47.332031 32.296875 C 47.472656 31.671875 47.382812 31.066406 47.066406 30.503906 L 45.421875 27.546875 C 45.15625 27.066406 44.550781 26.890625 44.070312 27.160156 " fill-opacity="1" fill-rule="nonzero"/></g><path fill="#00a09d" d="M 37.226562 24.226562 L 37.222656 24.226562 C 37.085938 24.300781 37.039062 24.472656 37.113281 24.609375 L 37.515625 25.335938 C 37.59375 25.46875 37.761719 25.519531 37.898438 25.445312 L 37.902344 25.441406 C 38.035156 25.367188 38.085938 25.195312 38.011719 25.0625 L 37.605469 24.332031 C 37.53125 24.199219 37.359375 24.152344 37.226562 24.226562 " fill-opacity="1" fill-rule="nonzero"/><path fill="#00a09d" d="M 40.949219 25.589844 L 40.21875 25.996094 C 40.085938 26.070312 40.035156 26.242188 40.109375 26.375 L 40.113281 26.378906 C 40.1875 26.515625 40.359375 26.5625 40.492188 26.488281 L 41.222656 26.082031 C 41.355469 26.007812 41.40625 25.835938 41.332031 25.703125 L 41.328125 25.699219 C 41.253906 25.5625 41.082031 25.515625 40.949219 25.589844 " fill-opacity="1" fill-rule="nonzero"/><path fill="#00a09d" d="M 39.785156 24.320312 C 39.808594 24.25 39.796875 24.171875 39.761719 24.105469 C 39.726562 24.042969 39.667969 23.996094 39.59375 23.976562 L 39.589844 23.972656 C 39.519531 23.953125 39.441406 23.960938 39.378906 23.996094 C 39.3125 24.035156 39.265625 24.09375 39.246094 24.164062 L 38.992188 25.054688 C 38.96875 25.125 38.980469 25.203125 39.015625 25.269531 C 39.050781 25.332031 39.113281 25.378906 39.183594 25.402344 L 39.1875 25.402344 C 39.257812 25.421875 39.335938 25.414062 39.398438 25.378906 C 39.464844 25.339844 39.511719 25.28125 39.53125 25.210938 L 39.785156 24.320312 " fill-opacity="1" fill-rule="nonzero"/><path fill="#00a09d" d="M 37.144531 27.703125 L 36.402344 28.117188 C 36.269531 28.191406 36.222656 28.359375 36.296875 28.496094 L 36.296875 28.5 C 36.371094 28.632812 36.542969 28.683594 36.679688 28.609375 L 37.417969 28.195312 C 37.550781 28.121094 37.601562 27.953125 37.527344 27.816406 L 37.523438 27.8125 C 37.449219 27.679688 37.277344 27.628906 37.144531 27.703125 " fill-opacity="1" fill-rule="nonzero"/><path fill="#00a09d" d="M 36.105469 25.910156 C 36.03125 25.890625 35.957031 25.898438 35.890625 25.933594 C 35.824219 25.972656 35.777344 26.03125 35.757812 26.101562 L 35.757812 26.105469 C 35.738281 26.179688 35.746094 26.253906 35.78125 26.320312 C 35.816406 26.386719 35.878906 26.433594 35.949219 26.453125 L 36.839844 26.707031 C 36.910156 26.726562 36.988281 26.71875 37.050781 26.683594 C 37.117188 26.644531 37.164062 26.585938 37.183594 26.515625 L 37.1875 26.511719 C 37.207031 26.4375 37.199219 26.363281 37.160156 26.296875 C 37.125 26.234375 37.066406 26.183594 36.996094 26.164062 L 36.105469 25.910156 " fill-opacity="1" fill-rule="nonzero"/><path fill="#ffffff" d="M 18.851562 23.820312 L 17.886719 22.691406 L 17.886719 21.238281 C 17.886719 21.234375 17.886719 21.226562 17.886719 21.222656 C 17.886719 20.144531 17.109375 19.25 16.085938 19.066406 L 16.085938 18.679688 C 16.085938 18.460938 15.90625 18.28125 15.683594 18.28125 L 15.675781 18.28125 C 15.457031 18.28125 15.277344 18.460938 15.277344 18.679688 L 15.277344 19.074219 C 14.269531 19.269531 13.511719 20.15625 13.511719 21.222656 C 13.511719 21.226562 13.511719 21.234375 13.511719 21.238281 L 13.5 22.6875 L 12.527344 23.820312 C 12.363281 24.011719 12.5 24.304688 12.75 24.304688 L 18.628906 24.304688 C 18.882812 24.304688 19.015625 24.011719 18.851562 23.820312 " fill-opacity="1" fill-rule="nonzero"/><path fill="#ffffff" d="M 15.679688 25.550781 C 16.179688 25.550781 16.597656 25.15625 16.714844 24.582031 L 14.648438 24.582031 C 14.761719 25.15625 15.183594 25.550781 15.679688 25.550781 " fill-opacity="1" fill-rule="nonzero"/></svg>