<svg xmlns="http://www.w3.org/2000/svg" xmlns:xlink="http://www.w3.org/1999/xlink" width="82" zoomAndPan="magnify" viewBox="0 0 61.5 44.999999" height="60" preserveAspectRatio="xMidYMid meet" version="1.0"><defs><clipPath id="6546e9aeb8"><path d="M 0 0.179688 L 19 0.179688 L 19 19 L 0 19 Z M 0 0.179688 " clip-rule="nonzero"/></clipPath><clipPath id="ffab9a939d"><path d="M -20.503906 0.5 L 0.0742188 -20.082031 L 18.058594 -2.101562 L -2.523438 18.480469 Z M -20.503906 0.5 " clip-rule="nonzero"/></clipPath><clipPath id="57f1897049"><path d="M -10.230469 -9.777344 L 18.027344 -2.070312 L -2.523438 18.480469 Z M -10.230469 -9.777344 " clip-rule="nonzero"/></clipPath><clipPath id="48a8f847ab"><path d="M 1.320312 1.648438 L 7.617188 1.648438 L 7.617188 7.640625 L 1.320312 7.640625 Z M 1.320312 1.648438 " clip-rule="nonzero"/></clipPath><clipPath id="4b1b49e901"><path d="M 4.464844 1.648438 L 5.207031 3.9375 L 7.605469 3.9375 L 5.664062 5.351562 L 6.40625 7.640625 L 4.464844 6.226562 L 2.519531 7.640625 L 3.261719 5.351562 L 1.320312 3.9375 L 3.722656 3.9375 Z M 4.464844 1.648438 " clip-rule="nonzero"/></clipPath><clipPath id="014d7f3b21"><path d="M 24.820312 9.910156 L 36.183594 9.910156 L 36.183594 21.273438 L 24.820312 21.273438 Z M 24.820312 9.910156 " clip-rule="nonzero"/></clipPath><clipPath id="ff01e18e66"><path d="M 30.503906 9.910156 C 27.363281 9.910156 24.820312 12.453125 24.820312 15.589844 C 24.820312 18.730469 27.363281 21.273438 30.503906 21.273438 C 33.640625 21.273438 36.183594 18.730469 36.183594 15.589844 C 36.183594 12.453125 33.640625 9.910156 30.503906 9.910156 Z M 30.503906 9.910156 " clip-rule="nonzero"/></clipPath><clipPath id="3975f2f32c"><path d="M 7.085938 25.707031 L 9.515625 25.707031 L 9.515625 29.421875 L 7.085938 29.421875 Z M 7.085938 25.707031 " clip-rule="nonzero"/></clipPath><clipPath id="cd3a3441fc"><path d="M 10.332031 25.707031 L 12.757812 25.707031 L 12.757812 29.421875 L 10.332031 29.421875 Z M 10.332031 25.707031 " clip-rule="nonzero"/></clipPath><clipPath id="3b3aee53db"><path d="M 48 30.835938 L 51 30.835938 L 51 35.300781 L 48 35.300781 Z M 48 30.835938 " clip-rule="nonzero"/></clipPath><clipPath id="c907f3787b"><path d="M 51 30.835938 L 53.910156 30.835938 L 53.910156 35.300781 L 51 35.300781 Z M 51 30.835938 " clip-rule="nonzero"/></clipPath></defs><g clip-path="url(#6546e9aeb8)"><g clip-path="url(#ffab9a939d)"><g clip-path="url(#57f1897049)"><path fill="#ff914d" d="M -20.503906 0.5 L 0.0742188 -20.082031 L 18.058594 -2.101562 L -2.523438 18.480469 Z M -20.503906 0.5 " fill-opacity="1" fill-rule="nonzero"/></g></g></g><g clip-path="url(#48a8f847ab)"><g clip-path="url(#4b1b49e901)"><path fill="#ffffff" d="M 1.320312 1.648438 L 7.617188 1.648438 L 7.617188 7.640625 L 1.320312 7.640625 Z M 1.320312 1.648438 " fill-opacity="1" fill-rule="nonzero"/></g></g><g clip-path="url(#014d7f3b21)"><g clip-path="url(#ff01e18e66)"><path fill="#00c4cc" d="M 24.820312 9.910156 L 36.183594 9.910156 L 36.183594 21.273438 L 24.820312 21.273438 Z M 24.820312 9.910156 " fill-opacity="1" fill-rule="nonzero"/></g></g><path stroke-linecap="round" transform="matrix(0.743952, 0, 0, 0.743952, 15.346466, 26.23744)" fill="none" stroke-linejoin="miter" d="M 2.002108 2.001639 L 37.34442 2.001639 " stroke="#ffffff" stroke-width="4" stroke-opacity="1" stroke-miterlimit="4"/><g clip-path="url(#3975f2f32c)"><path fill="#00c4cc" d="M 8.308594 27.335938 C 8.167969 27.335938 8.03125 27.363281 7.902344 27.410156 C 7.914062 27.28125 7.9375 27.152344 7.972656 27.023438 C 8.046875 26.757812 8.183594 26.503906 8.363281 26.277344 C 8.546875 26.050781 8.777344 25.855469 9.046875 25.707031 C 8.746094 25.773438 8.453125 25.902344 8.1875 26.085938 C 7.921875 26.273438 7.683594 26.511719 7.503906 26.800781 C 7.320312 27.085938 7.191406 27.417969 7.128906 27.769531 C 7.078125 28.046875 7.070312 28.339844 7.109375 28.628906 C 7.117188 28.707031 7.128906 28.78125 7.148438 28.851562 C 7.148438 28.855469 7.148438 28.855469 7.148438 28.855469 C 7.289062 29.367188 7.753906 29.742188 8.308594 29.742188 C 8.972656 29.742188 9.511719 29.203125 9.511719 28.539062 C 9.511719 27.875 8.972656 27.335938 8.308594 27.335938 " fill-opacity="1" fill-rule="nonzero"/></g><g clip-path="url(#cd3a3441fc)"><path fill="#00c4cc" d="M 11.558594 27.335938 C 11.414062 27.335938 11.277344 27.363281 11.152344 27.410156 C 11.164062 27.28125 11.1875 27.152344 11.222656 27.023438 C 11.296875 26.757812 11.429688 26.503906 11.613281 26.277344 C 11.792969 26.050781 12.023438 25.855469 12.292969 25.707031 C 11.996094 25.773438 11.699219 25.902344 11.433594 26.085938 C 11.171875 26.273438 10.933594 26.511719 10.75 26.800781 C 10.570312 27.085938 10.4375 27.417969 10.375 27.769531 C 10.328125 28.046875 10.320312 28.339844 10.359375 28.628906 C 10.367188 28.707031 10.378906 28.78125 10.398438 28.851562 C 10.398438 28.855469 10.398438 28.855469 10.398438 28.855469 C 10.539062 29.367188 11.003906 29.742188 11.558594 29.742188 C 12.21875 29.742188 12.757812 29.203125 12.757812 28.539062 C 12.757812 27.875 12.21875 27.335938 11.558594 27.335938 " fill-opacity="1" fill-rule="nonzero"/></g><g clip-path="url(#3b3aee53db)"><path fill="#00c4cc" d="M 50.703125 32.195312 C 50.703125 33.769531 49.535156 34.863281 48.019531 35.078125 C 48.855469 34.640625 49.382812 34.058594 49.457031 33.53125 C 48.738281 33.589844 48.09375 33.03125 48.027344 32.320312 C 47.960938 31.617188 48.472656 30.960938 49.175781 30.867188 C 49.398438 30.835938 49.632812 30.863281 49.839844 30.941406 C 49.949219 30.984375 50.046875 31.039062 50.140625 31.105469 C 50.222656 31.164062 50.332031 31.242188 50.382812 31.328125 C 50.589844 31.566406 50.703125 31.878906 50.703125 32.195312 Z M 50.703125 32.195312 " fill-opacity="1" fill-rule="nonzero"/></g><g clip-path="url(#c907f3787b)"><path fill="#00c4cc" d="M 53.90625 32.195312 C 53.90625 33.769531 52.742188 34.863281 51.222656 35.078125 C 52.058594 34.640625 52.585938 34.058594 52.660156 33.53125 C 51.945312 33.589844 51.296875 33.03125 51.230469 32.320312 C 51.164062 31.617188 51.679688 30.960938 52.382812 30.867188 C 52.605469 30.835938 52.835938 30.863281 53.046875 30.941406 C 53.152344 30.984375 53.25 31.039062 53.34375 31.105469 C 53.425781 31.164062 53.535156 31.242188 53.585938 31.328125 C 53.792969 31.566406 53.90625 31.878906 53.90625 32.195312 Z M 53.90625 32.195312 " fill-opacity="1" fill-rule="nonzero"/></g><path stroke-linecap="round" transform="matrix(0.743952, 0.000000000000000134, -0.000000000000000134, 0.743952, 15.346466, 31.475302)" fill="none" stroke-linejoin="miter" d="M 2.002108 2.002202 L 37.34442 2.002202 " stroke="#d8d8d8" stroke-width="4" stroke-opacity="1" stroke-miterlimit="4"/></svg>