<svg xmlns="http://www.w3.org/2000/svg" xmlns:xlink="http://www.w3.org/1999/xlink" width="82" zoomAndPan="magnify" viewBox="0 0 61.5 44.999999" height="60" preserveAspectRatio="xMidYMid meet" version="1.0"><defs><clipPath id="e67b60300f"><path d="M 0 0.179688 L 19 0.179688 L 19 19 L 0 19 Z M 0 0.179688 " clip-rule="nonzero"/></clipPath><clipPath id="f570b46a52"><path d="M -20.503906 0.5 L 0.0742188 -20.082031 L 18.058594 -2.101562 L -2.523438 18.480469 Z M -20.503906 0.5 " clip-rule="nonzero"/></clipPath><clipPath id="6a234e32f0"><path d="M -10.230469 -9.777344 L 18.027344 -2.070312 L -2.523438 18.480469 Z M -10.230469 -9.777344 " clip-rule="nonzero"/></clipPath><clipPath id="84272f2014"><path d="M 1.320312 1.648438 L 7.617188 1.648438 L 7.617188 7.640625 L 1.320312 7.640625 Z M 1.320312 1.648438 " clip-rule="nonzero"/></clipPath><clipPath id="e64e3906a2"><path d="M 4.464844 1.648438 L 5.207031 3.9375 L 7.605469 3.9375 L 5.664062 5.351562 L 6.40625 7.640625 L 4.464844 6.226562 L 2.519531 7.640625 L 3.261719 5.351562 L 1.320312 3.9375 L 3.722656 3.9375 Z M 4.464844 1.648438 " clip-rule="nonzero"/></clipPath><clipPath id="ee5cd58882"><path d="M 7.851562 14.375 L 15.863281 14.375 L 15.863281 22.382812 L 7.851562 22.382812 Z M 7.851562 14.375 " clip-rule="nonzero"/></clipPath><clipPath id="2c1c7fccf0"><path d="M 11.859375 14.375 C 9.644531 14.375 7.851562 16.167969 7.851562 18.378906 C 7.851562 20.589844 9.644531 22.382812 11.859375 22.382812 C 14.070312 22.382812 15.863281 20.589844 15.863281 18.378906 C 15.863281 16.167969 14.070312 14.375 11.859375 14.375 Z M 11.859375 14.375 " clip-rule="nonzero"/></clipPath><clipPath id="a18200dbc1"><path d="M 26.429688 14.375 L 34.4375 14.375 L 34.4375 22.382812 L 26.429688 22.382812 Z M 26.429688 14.375 " clip-rule="nonzero"/></clipPath><clipPath id="5276c3e620"><path d="M 30.433594 14.375 C 28.222656 14.375 26.429688 16.167969 26.429688 18.378906 C 26.429688 20.589844 28.222656 22.382812 30.433594 22.382812 C 32.644531 22.382812 34.4375 20.589844 34.4375 18.378906 C 34.4375 16.167969 32.644531 14.375 30.433594 14.375 Z M 30.433594 14.375 " clip-rule="nonzero"/></clipPath><clipPath id="b68fc3cc25"><path d="M 45.074219 14.375 L 53.082031 14.375 L 53.082031 22.382812 L 45.074219 22.382812 Z M 45.074219 14.375 " clip-rule="nonzero"/></clipPath><clipPath id="1094008418"><path d="M 49.078125 14.375 C 46.867188 14.375 45.074219 16.167969 45.074219 18.378906 C 45.074219 20.589844 46.867188 22.382812 49.078125 22.382812 C 51.289062 22.382812 53.082031 20.589844 53.082031 18.378906 C 53.082031 16.167969 51.289062 14.375 49.078125 14.375 Z M 49.078125 14.375 " clip-rule="nonzero"/></clipPath></defs><g clip-path="url(#e67b60300f)"><g clip-path="url(#f570b46a52)"><g clip-path="url(#6a234e32f0)"><path fill="#ff914d" d="M -20.503906 0.5 L 0.0742188 -20.082031 L 18.058594 -2.101562 L -2.523438 18.480469 Z M -20.503906 0.5 " fill-opacity="1" fill-rule="nonzero"/></g></g></g><g clip-path="url(#84272f2014)"><g clip-path="url(#e64e3906a2)"><path fill="#ffffff" d="M 1.320312 1.648438 L 7.617188 1.648438 L 7.617188 7.640625 L 1.320312 7.640625 Z M 1.320312 1.648438 " fill-opacity="1" fill-rule="nonzero"/></g></g><g clip-path="url(#ee5cd58882)"><g clip-path="url(#2c1c7fccf0)"><path fill="#00c4cc" d="M 7.851562 14.375 L 15.863281 14.375 L 15.863281 22.382812 L 7.851562 22.382812 Z M 7.851562 14.375 " fill-opacity="1" fill-rule="nonzero"/></g></g><path stroke-linecap="butt" transform="matrix(0.743952, 0, 0, 0.743952, 7.261563, 24.770533)" fill="none" stroke-linejoin="miter" d="M 0.000209572 1.500347 L 12.355054 1.500347 " stroke="#ffffff" stroke-width="3" stroke-opacity="1" stroke-miterlimit="4"/><path stroke-linecap="butt" transform="matrix(0.743952, 0, 0, 0.743952, 4.395533, 28.395059)" fill="none" stroke-linejoin="miter" d="M -0.00134628 1.500984 L 20.061493 1.500984 " stroke="#d8d8d8" stroke-width="3" stroke-opacity="1" stroke-miterlimit="4"/><g clip-path="url(#a18200dbc1)"><g clip-path="url(#5276c3e620)"><path fill="#00c4cc" d="M 26.429688 14.375 L 34.4375 14.375 L 34.4375 22.382812 L 26.429688 22.382812 Z M 26.429688 14.375 " fill-opacity="1" fill-rule="nonzero"/></g></g><path stroke-linecap="butt" transform="matrix(0.743952, 0, 0, 0.743952, 25.837627, 24.770533)" fill="none" stroke-linejoin="miter" d="M -0.00227128 1.500347 L 12.357824 1.500347 " stroke="#ffffff" stroke-width="3" stroke-opacity="1" stroke-miterlimit="4"/><path stroke-linecap="butt" transform="matrix(0.743952, 0, 0, 0.743952, 22.971597, 28.395059)" fill="none" stroke-linejoin="miter" d="M 0.00142322 1.500984 L 20.059012 1.500984 " stroke="#d8d8d8" stroke-width="3" stroke-opacity="1" stroke-miterlimit="4"/><g clip-path="url(#b68fc3cc25)"><g clip-path="url(#1094008418)"><path fill="#00c4cc" d="M 45.074219 14.375 L 53.082031 14.375 L 53.082031 22.382812 L 45.074219 22.382812 Z M 45.074219 14.375 " fill-opacity="1" fill-rule="nonzero"/></g></g><path stroke-linecap="butt" transform="matrix(0.743952, 0, 0, 0.743952, 44.481867, 24.770533)" fill="none" stroke-linejoin="miter" d="M -0.00187994 1.500347 L 12.358215 1.500347 " stroke="#ffffff" stroke-width="3" stroke-opacity="1" stroke-miterlimit="4"/><path stroke-linecap="butt" transform="matrix(0.743952, 0, 0, 0.743952, 41.615837, 28.395059)" fill="none" stroke-linejoin="miter" d="M 0.00181489 1.500984 L 20.059404 1.500984 " stroke="#d8d8d8" stroke-width="3" stroke-opacity="1" stroke-miterlimit="4"/></svg>