<svg xmlns="http://www.w3.org/2000/svg" viewBox="0 0 200 80" width="200" height="80">
  <!-- Background -->
  <rect width="200" height="80" rx="10" fill="#e0f7fa"/>
  <!-- Brand cards -->
  <rect x="8"  y="14" width="30" height="52" rx="6" fill="white" stroke="#b2ebf2" stroke-width="1"/>
  <rect x="44" y="14" width="30" height="52" rx="6" fill="white" stroke="#b2ebf2" stroke-width="1"/>
  <rect x="80" y="14" width="30" height="52" rx="6" fill="white" stroke="#b2ebf2" stroke-width="1"/>
  <rect x="116" y="14" width="30" height="52" rx="6" fill="white" stroke="#b2ebf2" stroke-width="1"/>
  <rect x="152" y="14" width="30" height="52" rx="6" fill="white" stroke="#b2ebf2" stroke-width="1"/>
  <!-- Placeholder logos -->
  <rect x="14"  y="26" width="18" height="12" rx="3" fill="#b2ebf2"/>
  <rect x="50" y="26" width="18" height="12" rx="3" fill="#b2ebf2"/>
  <rect x="86" y="26" width="18" height="12" rx="3" fill="#b2ebf2"/>
  <rect x="122" y="26" width="18" height="12" rx="3" fill="#b2ebf2"/>
  <rect x="158" y="26" width="18" height="12" rx="3" fill="#b2ebf2"/>
  <!-- Nav arrows -->
  <circle cx="4" cy="40" r="6" fill="rgba(255,255,255,0.7)" stroke="#80deea" stroke-width="1"/>
  <text x="1.5" y="44" font-size="7" fill="#0097a7">&#10094;</text>
  <circle cx="196" cy="40" r="6" fill="rgba(255,255,255,0.7)" stroke="#80deea" stroke-width="1"/>
  <text x="193" y="44" font-size="7" fill="#0097a7">&#10095;</text>
</svg>
